<?xml version="1.0" encoding="utf-8"?>
<svg xmlns="http://www.w3.org/2000/svg" viewBox="0 0 262.77 56.6"><defs><style>.cls-1{fill:#fff}.cls-2{fill:#e5004b}</style></defs><g id="Calque_2" data-name="Calque 2"><g id="Calque_1-2" data-name="Calque 1"><path class="cls-1" d="M35.93 37.71V2h7.85v35.71zM67.65 37.71V22.47c0-3.68-1.73-5.56-4.69-5.56s-4.84 1.88-4.84 5.56v15.24h-7.75V10.38h7.75v3.88c1.78-2.3 4.08-4.39 8-4.39C72 9.87 75.4 13.75 75.4 20v17.71zM106.89 26.75h-19.4c.78 3.52 3.27 5.35 6.81 5.35a9.21 9.21 0 0 0 6.76-2.8l4.53 3.92a14 14 0 0 1-11.39 5.1c-8.38 0-14.57-5.76-14.57-14.12v-.1c0-7.8 5.67-14.23 13.79-14.23C102.73 9.87 107 17 107 24.71v.1c0 .77-.06 1.19-.11 1.94zM93.42 16.09c-3.28 0-5.41 2.3-6 5.81h11.87c-.46-3.46-2.54-5.81-5.87-5.81zM127.57 37.71v-3a10.52 10.52 0 0 1-8.26 3.46c-5.15 0-9.39-3-9.39-8.36v-.1c0-6 4.54-8.72 11-8.72a19.52 19.52 0 0 1 6.68 1.12v-.41c0-3.21-2-5-5.87-5a20.06 20.06 0 0 0-7.54 1.48l-1.94-5.91a24.07 24.07 0 0 1 10.61-2.2c8.46 0 12.18 4.39 12.18 11.78v15.86zm.15-11a12 12 0 0 0-5-1c-3.31 0-5.35 1.32-5.35 3.77v.1c0 2.09 1.73 3.32 4.23 3.32 3.62 0 6.07-2 6.07-4.8zM149.5 38.17c-4.74 0-7.95-1.88-7.95-8.21V17h-3.27v-6.62h3.27v-7h7.75v7h6.42V17h-6.42v11.69c0 1.78.76 2.65 2.5 2.65a7.9 7.9 0 0 0 3.82-1v6.22a11.42 11.42 0 0 1-6.12 1.61z"/><path class="cls-2" d="M165.06 32.66v5.05h-3.93V.49h3.93v16.16c2.14-3.16 5.25-5.86 10.09-5.86 6.33 0 12.6 5 12.6 13.66v.11c0 8.61-6.22 13.71-12.6 13.71a11.88 11.88 0 0 1-10.09-5.61zm18.66-8v-.1c0-6.23-4.28-10.2-9.28-10.2a9.83 9.83 0 0 0-9.54 10.14v.11c0 6.12 4.64 10.2 9.54 10.2 5.1-.05 9.28-3.81 9.28-10.2zM194.13.49h3.92v37.22h-3.92zM204.33 24.66v-.1a13.74 13.74 0 0 1 27.48-.11v.11A13.68 13.68 0 0 1 218 38.32a13.5 13.5 0 0 1-13.67-13.66zm23.45 0v-.1c0-5.66-4.23-10.3-9.79-10.3-5.71 0-9.63 4.64-9.63 10.19v.11c0 5.66 4.18 10.25 9.74 10.25 5.71 0 9.68-4.59 9.68-10.15zM237.38 42.3l1.78-3.06a16.82 16.82 0 0 0 10.15 3.37c5.81 0 9.59-3.21 9.59-9.39v-3.11c-2.3 3.06-5.51 5.56-10.36 5.56a12.19 12.19 0 0 1-12.39-12.34v-.1a12.24 12.24 0 0 1 12.39-12.44 12.4 12.4 0 0 1 10.31 5.3v-4.74h3.92v21.77c0 4.08-1.22 7.19-3.36 9.34-2.35 2.34-5.87 3.54-10.05 3.54a20.63 20.63 0 0 1-11.98-3.7zm21.62-19v-.1c0-5.41-4.69-8.92-9.69-8.92s-9.13 3.46-9.13 8.87v.1a8.93 8.93 0 0 0 9.13 9c5-.04 9.69-3.66 9.69-8.97zM26.72 50.33V37.45a1 1 0 0 0-1-1 1 1 0 0 0-1 1v12.88a3.2 3.2 0 1 0 1.94 0zm-1 4.34A1.28 1.28 0 1 1 27 53.39a1.28 1.28 0 0 1-1.25 1.28zM18.77 21.89a2 2 0 1 0 2 2 2 2 0 0 0-2-2zM18.77 35.24a1 1 0 0 0-1 1v7.72a1.53 1.53 0 0 1-1.22 1.49 3.2 3.2 0 1 0 0 1.95 3.47 3.47 0 0 0 3.13-3.44v-7.75a1 1 0 0 0-.91-.97zm-5.23 12.45a1.28 1.28 0 1 1 1.28-1.27 1.27 1.27 0 0 1-1.28 1.27z"/><path class="cls-2" d="M12.77 37v-2.44h1a1 1 0 1 0 0-1.93h-4a6.51 6.51 0 1 1 0-13h.08a1 1 0 0 0 .73-.32 1 1 0 0 0 .24-.75 15.16 15.16 0 0 1-.09-1.64 15 15 0 0 1 15-15 1 1 0 0 0 0-1.93A16.93 16.93 0 0 0 8.84 16.91v.83a8.44 8.44 0 0 0 1 16.82h1V37a1.53 1.53 0 0 1-1.52 1.53h-3a3.21 3.21 0 1 0 0 1.93h3A3.46 3.46 0 0 0 12.77 37zm-9.56 3.72a1.28 1.28 0 1 1 1.27-1.28 1.28 1.28 0 0 1-1.27 1.28z"/></g></g></svg>