<?xml version="1.0" encoding="utf-8"?>
<!-- Generator: Adobe Illustrator 23.1.0, SVG Export Plug-In . SVG Version: 6.00 Build 0)  -->
<svg version="1.1" id="Calque_1" xmlns="http://www.w3.org/2000/svg" xmlns:xlink="http://www.w3.org/1999/xlink" x="0px" y="0px"
	 viewBox="0 0 300 377.6" style="enable-background:new 0 0 300 377.6;" xml:space="preserve">
<style type="text/css">
	.st0{fill:#E82356;}
</style>
<title>Logo-Ineat-Signature-Blanc</title>
<path d="M0.2,377.6l0.1-89.1h19.6l-0.1,89.1H0.2z"/>
<path d="M79.4,377.7v-38.1c0-9.2-4.3-13.8-11.7-13.8s-12.1,4.7-12.1,13.8v38.1H36.2l0.1-68.3h19.3v9.7c4.5-5.7,10.2-10.9,20-10.9
	c14.6,0,23.1,9.7,23.1,25.4l-0.1,44.2L79.4,377.7z"/>
<path d="M177.3,350.5l-48.4-0.1c2,8.8,8.2,13.4,17,13.4c6.6,0,11.4-2,16.9-7l11.3,9.8c-6.5,7.9-15.8,12.7-28.4,12.7
	c-20.9,0-36.3-14.4-36.3-35.3v-0.2c0-19.5,14.2-35.5,34.4-35.5c23.2,0,33.9,17.7,33.8,37.1v0.3C177.5,347.6,177.5,348.7,177.3,350.5
	z M143.7,323.9c-8.2,0-13.5,5.7-15.1,14.5h29.7C157.2,329.7,152,323.9,143.7,323.9L143.7,323.9z"/>
<path d="M228.8,377.9v-7.4c-4.7,5.2-11.2,8.6-20.6,8.6c-12.9,0-23.4-7.4-23.4-20.9V358c0-14.9,11.4-21.8,27.5-21.8
	c5.7,0,11.3,0.9,16.7,2.8v-1.1c0-8-4.9-12.5-14.6-12.5c-7.4,0-12.6,1.4-18.8,3.7l-4.8-14.8c8.3-3.8,17.4-5.7,26.5-5.4
	c21.1,0,30.4,11,30.4,29.4v39.6L228.8,377.9z M229.3,350.4c-3.9-1.7-8.1-2.6-12.3-2.6c-8.3,0-13.4,3.3-13.4,9.4v0.3
	c0,5.2,4.3,8.3,10.6,8.3c9,0,15.1-4.9,15.2-11.9L229.3,350.4z"/>
<path d="M283.6,379.2c-11.9,0-19.9-4.7-19.8-20.5v-32.3h-8.2v-16.5h8.1v-17.4H283v17.4h16v16.5h-16v29.1c0,4.5,1.9,6.6,6.2,6.6
	c3.3,0,6.6-0.8,9.5-2.4v15.5C294.2,377.9,288.9,379.3,283.6,379.2z"/>
<path class="st0" d="M178.4,114.1h14c1.4,0,2.5,1.1,2.5,2.5v14c0,1.4-1.1,2.5-2.5,2.5h-14c-1.4,0-2.5-1.1-2.5-2.5v-14
	C175.9,115.3,177,114.1,178.4,114.1z"/>
<path class="st0" d="M154.8,258.6l-0.1-65.7c0-2.7-2.2-4.9-4.9-4.9l0,0c-2.7,0-4.9,2.2-4.9,4.9v65.7c-8.6,2.7-13.4,11.9-10.7,20.5
	s11.9,13.4,20.5,10.7s13.4-11.9,10.7-20.5C163.7,264.2,159.8,260.2,154.8,258.6L154.8,258.6z M149.8,280.7c-3.6,0-6.5-2.9-6.5-6.5
	s2.9-6.5,6.5-6.5s6.5,2.9,6.5,6.5l0,0C156.3,277.8,153.4,280.7,149.8,280.7z"/>
<circle class="st0" cx="114.3" cy="123.7" r="10.2"/>
<path class="st0" d="M114.3,181.6c-2.7,0-4.9,2.2-4.9,4.9v39.4c0,3.7-2.6,6.9-6.2,7.6c-2.8-8.6-12-13.3-20.6-10.4
	c-8.6,2.8-13.3,12-10.4,20.6c2.8,8.6,12,13.3,20.6,10.4c5-1.7,9-5.7,10.5-10.7c9-0.9,16-8.5,16-17.5v-39.4
	C119.2,183.8,117,181.6,114.3,181.6z M87.6,245.1c-3.6,0-6.5-2.9-6.5-6.5s2.9-6.5,6.5-6.5s6.5,2.9,6.5,6.5
	C94.1,242.2,91.2,245.1,87.6,245.1L87.6,245.1z"/>
<path class="st0" d="M212.1,222.3c-7.1,0-13.3,4.6-15.5,11.3c-3.6-0.7-6.2-3.9-6.2-7.6v-39.4c0-2.7-2.2-4.9-4.9-4.9
	s-4.9,2.2-4.9,4.9V226c0,9.1,6.9,16.7,16,17.5c2.7,8.6,11.8,13.5,20.5,10.8s13.5-11.8,10.8-20.5
	C225.5,226.9,219.2,222.3,212.1,222.3z M212.1,245.1c-3.6,0-6.5-2.9-6.5-6.5s2.9-6.5,6.5-6.5s6.5,2.9,6.5,6.5
	C218.6,242.2,215.7,245.1,212.1,245.1L212.1,245.1z"/>
<path class="st0" d="M264.8,186.7c-7.1,0-13.4,4.6-15.6,11.4h-15.5c-4.3,0-7.8-3.5-7.8-7.8v-12.2h5.2c23.8,0,43.1-19.2,43.1-43
	c0-21.9-16.5-40.4-38.3-42.8c0.1-1.4,0.1-2.8,0.1-4.2c0.5-47.6-37.7-86.6-85.3-87.1S64.1,38.7,63.6,86.3c0,0.6,0,1.2,0,1.8
	c0,1.4,0,2.8,0.1,4.2c-23.6,2.6-40.6,23.9-38,47.6c2.4,21.8,20.9,38.3,42.8,38.3h5.2v12.2c0,4.3-3.5,7.8-7.8,7.8H50.5
	c-2.7-8.6-11.9-13.4-20.5-10.7S16.6,199.4,19.3,208s11.9,13.4,20.5,10.7c5.1-1.6,9-5.6,10.7-10.7H66c9.7,0,17.6-7.9,17.6-17.6v-12.3
	h5.2c2.7,0,4.9-2.2,4.9-4.9s-2.2-4.9-4.9-4.9H68.5c-18.3-0.3-32.9-15.4-32.6-33.8c0.3-17.9,14.7-32.3,32.6-32.6H69
	c2.7,0,5-2.2,5-4.9c0-0.2,0-0.4,0-0.5c-4.6-41.9,25.6-79.6,67.5-84.3s79.6,25.6,84.3,67.5c0.6,5.6,0.6,11.2,0,16.7
	c-0.1,1.4,0.3,2.8,1.3,3.8c0.9,1.1,2.3,1.6,3.7,1.6h0.4c18.3,0.3,32.9,15.4,32.6,33.8c-0.3,17.9-14.7,32.3-32.6,32.6h-20.4
	c-2.7,0-4.9,2.2-4.9,4.9s2.2,4.9,4.9,4.9h5.2v12.2c0,9.7,7.9,17.6,17.6,17.6h15.5c2.7,8.6,11.9,13.4,20.5,10.7
	c8.6-2.7,13.4-11.9,10.7-20.5C278.2,191.3,271.9,186.7,264.8,186.7z M34.9,209.6c-3.6,0-6.5-2.9-6.5-6.5s2.9-6.5,6.5-6.5
	s6.5,2.9,6.5,6.5l0,0C41.4,206.6,38.5,209.5,34.9,209.6z M264.8,209.6c-3.6,0-6.5-2.9-6.5-6.5s2.9-6.5,6.5-6.5s6.5,2.9,6.5,6.5l0,0
	C271.3,206.6,268.4,209.5,264.8,209.6z"/>
</svg>
