<?xml version="1.0" encoding="utf-8"?>
<!-- Generator: Adobe Illustrator 19.2.0, SVG Export Plug-In . SVG Version: 6.00 Build 0)  -->
<svg version="1.1" id="UL" xmlns="http://www.w3.org/2000/svg" xmlns:xlink="http://www.w3.org/1999/xlink" x="0px" y="0px"
	 viewBox="0 0 650.4 213.9" style="enable-background:new 0 0 650.4 213.9;" xml:space="preserve">
<style type="text/css">
	.st0{fill:#000000;}
	.st1{fill:#AC2773;}
	.st2{fill:#FFFFFF;}
</style>
<title>UL-BLANC-2014</title>
<rect x="48.2" y="37.8" class="st2" width="97.4" height="132.9"/>
<path class="st1" d="M181.9,0v210.4L152.4,197l-21.1,8.8l0,0l-1.8,0.8c-12.3,5-25.4,7.5-38.7,7.4c-25.3,0-48.3-8.6-64.8-24.1
	c-17-16.1-26-38-26-63.3V0H181.9z M48.2,37.8v112.7l44.1,20.1V37.8H48.2z M102.4,145.5v25.2l43.2-19.7v-25.2L102.4,145.5z"/>
<path class="st0" d="M398.5,40.2c-1.7,20.3-10.1,38.1-12.7,43.2l-0.7,1.3l-0.7-1.3c-2.5-5-11-22.9-12.7-43.2h-8.6
	c0.5,5,3.8,31.9,17.1,50.4h9.8c13.3-18.5,16.6-45.5,17.1-50.5L398.5,40.2L398.5,40.2z"/>
<path class="st0" d="M595.8,90.7h4.8v-7.8h-3c-4.5,0-6.6-2.2-6.6-7V46.7h9.6v-6.4H591V19.5h-8.9v20.8h-6.3v6.4h6.3v29.9
	C582.2,89.3,591.7,90.7,595.8,90.7z"/>
<path class="st0" d="M271,19.5h-9.1v47c0,10.1-6.2,16.6-15.9,16.6s-15.9-6.5-15.9-16.6v-47H221V67c-0.1,6.6,2.4,12.9,7.1,17.4
	c4.9,4.4,11.3,6.8,17.9,6.7c5.4,0.1,10.7-1.5,15.2-4.5l0.4-0.2l9.4,4.3V19.5z"/>
<path class="st0" d="M306.7,47.7c7,0,11.1,4.6,11.1,12.3v30.7h8.9V58.5c0-6.3-1.5-10.7-5-14c-2.3-2.2-6.8-4.9-15-4.9
	c-4.2,0-8.3,1.3-11.8,3.7l-0.4,0.2l-7.8-3.6v50.8h8.9V60C295.6,52.3,299.8,47.7,306.7,47.7z"/>
<path class="st0" d="M488.1,47.7c1.8,0,3.6,0.3,5.2,1.1l4.7-7.6c-3.2-1.2-6.5-1.8-9.9-1.7c-4.2,0-8.3,1.3-11.8,3.7l-0.4,0.2
	l-7.8-3.6v50.8h8.9V60C477,52.3,481.2,47.7,488.1,47.7z"/>
<rect x="341.2" y="40.2" class="st0" width="8.9" height="50.5"/>
<rect x="341.2" y="19.5" class="st0" width="8.9" height="8.9"/>
<rect x="554.1" y="40.2" class="st0" width="8.9" height="50.5"/>
<rect x="554.1" y="19.5" class="st0" width="8.9" height="8.9"/>
<rect x="393.5" y="141.3" class="st0" width="8.9" height="50.4"/>
<rect x="393.5" y="120.5" class="st0" width="8.9" height="8.9"/>
<path class="st0" d="M451.2,79.3c-1.5,1.5-3.4,2.7-5.4,3.5c-2.4,0.8-5,1.2-7.6,1.1c-6.8,0-11.5-3.4-13.2-9.7l-0.2-0.8l0.9-0.1
	l1.7-0.2c5.5-0.7,13.7-1.7,20.8-5.6c4.2-2.3,6.6-4.6,7.7-7.7c1.1-2.8,1.3-6,0.6-8.9c-0.8-3.5-3-6.5-6-8.4c-3.1-2.1-7.4-3-13.7-3
	c-3.1,0-6.1,0.5-9,1.7c-2.6,1.1-4.8,2.8-6.6,5c-1.9,2.4-3.3,5.2-4.1,8.1c-1,3.6-1.5,7.3-1.4,11.1c0,9.1,2.2,16,6.5,20.3
	c3.8,3.8,9.1,5.7,16,5.7c6.9,0.4,13.6-2.3,18.3-7.4L451.2,79.3z M424.2,65.7v-4.5c0-1.3,0.1-2.7,0.3-4c0.2-1.2,0.6-2.3,1.1-3.4
	c1.6-3.9,5.9-6.3,11.1-6.3c3.7,0,8.5,0.7,10.8,4c1,1.5,1.2,3.4,0.6,5.1c-0.9,2.7-3.5,5-7.6,6.5c-5,1.7-10.2,2.9-15.4,3.4l-0.8,0.1
	L424.2,65.7z"/>
<path class="st0" d="M309.6,180.3c-1.5,1.5-3.4,2.7-5.4,3.5c-2.4,0.8-5,1.2-7.6,1.1c-6.8,0-11.5-3.4-13.2-9.6l-0.2-0.8l0.8-0.2
	l1.7-0.2c5.5-0.7,13.7-1.7,20.8-5.6c4.2-2.3,6.6-4.6,7.7-7.7c1.1-2.8,1.3-6,0.6-8.9c-0.8-3.5-3-6.5-6-8.4c-3.1-2.1-7.4-3-13.7-3
	c-3.1,0-6.1,0.5-9,1.7c-2.6,1.1-4.8,2.8-6.6,5c-1.9,2.4-3.3,5.2-4.1,8.1c-1,3.6-1.5,7.3-1.4,11.1c0,9.1,2.2,16,6.5,20.3
	c3.8,3.8,9.1,5.7,16,5.7c6.9,0.4,13.6-2.3,18.3-7.4L309.6,180.3z M282.6,166.7v-4.5c0-1.3,0.1-2.7,0.3-4c0.2-1.2,0.6-2.3,1.1-3.4
	c1.6-3.9,5.9-6.3,11.1-6.3c3.7,0,8.5,0.7,10.8,4c1,1.5,1.2,3.4,0.6,5.1c-0.9,2.7-3.5,5-7.6,6.5c-5,1.7-10.2,2.9-15.4,3.4l-0.8,0.1
	L282.6,166.7z"/>
<path class="st0" d="M509.8,180.3c-1.5,1.5-3.4,2.7-5.4,3.5c-2.4,0.8-5,1.2-7.6,1.1c-6.8,0-11.5-3.4-13.2-9.6l-0.2-0.8l0.8-0.2
	l1.7-0.2c5.5-0.7,13.7-1.7,20.8-5.6c4.2-2.3,6.6-4.6,7.7-7.7c1.1-2.8,1.3-6,0.6-8.9c-0.8-3.5-3-6.5-6-8.4c-3.1-2.1-7.4-3-13.7-3
	c-3.1,0-6.1,0.5-9,1.7c-2.6,1.1-4.8,2.8-6.6,5c-1.9,2.4-3.3,5.2-4.1,8.1c-1,3.6-1.5,7.3-1.4,11.1c0,9.1,2.2,16,6.5,20.3
	c3.8,3.8,9.1,5.7,16,5.7c6.9,0.4,13.6-2.3,18.3-7.4L509.8,180.3z M482.8,166.7v-4.5c0-1.3,0.1-2.7,0.3-4c0.2-1.2,0.6-2.3,1.1-3.4
	c1.6-3.9,5.9-6.3,11.1-6.3c3.7,0,8.5,0.7,10.8,4c1,1.5,1.2,3.4,0.6,5.1c-0.9,2.7-3.5,5-7.6,6.5c-5,1.7-10.2,2.9-15.4,3.4l-0.8,0.1
	L482.8,166.7z"/>
<path class="st0" d="M644.9,79.3c-1.5,1.5-3.4,2.7-5.4,3.5c-2.4,0.8-5,1.2-7.6,1.1c-6.8,0-11.5-3.4-13.2-9.7l-0.2-0.8l0.9-0.1
	l1.7-0.2c5.5-0.7,13.7-1.7,20.8-5.6c4.2-2.3,6.6-4.6,7.7-7.7c1.1-2.8,1.3-6,0.6-8.9c-0.8-3.5-3-6.5-6-8.4c-3.1-2.1-7.4-3-13.7-3
	c-3.1,0-6.1,0.5-9,1.7c-2.6,1.1-4.8,2.8-6.6,5c-1.9,2.4-3.3,5.2-4.1,8.1c-1,3.6-1.5,7.3-1.4,11.1c0,9.1,2.2,16,6.5,20.3
	c3.8,3.8,9.2,5.7,16,5.7c6.9,0.4,13.6-2.4,18.2-7.4L644.9,79.3z M617.9,65.7v-4.5c0-1.3,0.1-2.7,0.3-4c0.2-1.2,0.6-2.3,1.1-3.4
	c1.6-3.9,5.9-6.3,11.1-6.3c3.7,0,8.5,0.7,10.8,4c1,1.5,1.2,3.4,0.7,5.1c-0.9,2.7-3.5,5-7.6,6.5c-5,1.7-10.2,2.9-15.4,3.4l-0.8,0.1
	L617.9,65.7z"/>
<path class="st0" d="M527.7,61.6l-8.2-0.7c-5.3-0.5-7.8-2.7-7.8-6.7c0-4.6,3.9-7.4,10.1-7.4c5.3,0,9.6,1.2,12.7,3.5l5.5-5.6
	c-4.3-3.5-10.2-5.2-18-5.2c-9.3,0-18.7,4.7-18.7,15.2c0,8.4,4.8,12.8,14.6,13.7l8.2,0.7c5,0.4,7.6,2.8,7.6,6.9c0,4.9-4.6,8-12,8
	c-6.3,0-11.2-1.7-14.9-5.2l-5.8,5.8c5.1,4.8,11.1,6.8,20.6,6.8c12.8,0,20.7-6.1,20.7-15.8C542.4,67.2,537.5,62.5,527.7,61.6z"/>
<path class="st0" d="M262.5,120.5h-8.9v22.6l-1.1-0.5c-3.5-1.4-7.2-2.1-10.9-2c-14,0-21.1,8.6-21.1,25.6c0,21.3,12.2,25.7,22.5,25.7
	c4.1,0,8-1.3,11.2-3.8l0.4-0.3l8,3.6L262.5,120.5L262.5,120.5z M253.7,176.1c0,4.2-3.9,8.5-10.5,8.5c-8.7,0-13.9-5.7-13.9-15.2v-7.2
	c-0.1-2.5,0.4-5,1.4-7.3c1.6-3.9,5.8-6.2,11-6.2c7.7,0,11.9,2.9,12,8.2C253.7,161.5,253.7,171.2,253.7,176.1L253.7,176.1z"/>
<path class="st0" d="M362.5,191.8h21.4v-7.4h-19.6c-4.3,0-6.4-2.1-6.4-6.8v-57.1h-8.9v57.7C349,186.7,354.1,191.8,362.5,191.8z"/>
<path class="st0" d="M432.6,191.8h4.8V184h-3c-4.5,0-6.6-2.2-6.6-7v-56.5h-8.9v57.1C418.9,190.4,428.5,191.8,432.6,191.8z"/>
<path class="st0" d="M462,191.8h4.8V184h-3c-4.5,0-6.6-2.2-6.6-7v-56.5h-8.9v57.1C448.3,190.4,457.9,191.8,462,191.8z"/>
<polygon class="st0" points="619.4,27.4 619.4,34.8 641.6,24.6 641.6,17.2 "/>
<g id="Calque_2">
</g>
</svg>
