<?xml version="1.0" encoding="utf-8"?>
<!-- Credit : https://tablericons.com/  -->
<svg version="1.1" xmlns="http://www.w3.org/2000/svg" xmlns:xlink="http://www.w3.org/1999/xlink" x="0px" y="0px"
	 viewBox="0 0 40.9 19.5" style="enable-background:new 0 0 40.9 19.5;" xml:space="preserve">
<g fill="#ac73e3">
	<path d="M40.1,6.5h-4c-1,0-1.8-0.8-1.8-1.8v-4c0-0.4,0.3-0.8,0.8-0.8s0.8,0.3,0.8,0.8v4C35.9,4.9,36,5,36.1,5h4
		c0.4,0,0.8,0.3,0.8,0.8S40.5,6.5,40.1,6.5z"/>
	<path d="M38.1,19.5h-10c-1.5,0-2.8-1.2-2.8-2.8v-14c0-1.5,1.2-2.8,2.8-2.8h7c0.2,0,0.4,0.1,0.5,0.2l5,5c0.1,0.1,0.2,0.3,0.2,0.5v11
		C40.9,18.3,39.6,19.5,38.1,19.5z M28.1,1.5c-0.7,0-1.2,0.6-1.2,1.2v14c0,0.7,0.6,1.2,1.2,1.2h10c0.7,0,1.2-0.6,1.2-1.2V6.1
		l-4.6-4.6H28.1z"/>
	<path d="M31.1,7.5h-1c-0.4,0-0.8-0.3-0.8-0.8S29.7,6,30.1,6h1c0.4,0,0.8,0.3,0.8,0.8S31.5,7.5,31.1,7.5z"/>
	<path d="M36.1,11.5h-6c-0.4,0-0.8-0.3-0.8-0.8s0.3-0.8,0.8-0.8h6c0.4,0,0.8,0.3,0.8,0.8S36.5,11.5,36.1,11.5z"/>
	<path d="M36.1,15.5h-6c-0.4,0-0.8-0.3-0.8-0.8s0.3-0.8,0.8-0.8h6c0.4,0,0.8,0.3,0.8,0.8S36.5,15.5,36.1,15.5z"/>
</g>
<g fill="#c87478">
	<path d="M18.8,16.5h-16c-1.5,0-2.8-1.2-2.8-2.8v-8C0,4.2,1.2,3,2.8,3h16c1.5,0,2.8,1.2,2.8,2.8v8C21.5,15.3,20.3,16.5,18.8,16.5z
		 M2.8,4.5c-0.7,0-1.2,0.6-1.2,1.2v8c0,0.7,0.6,1.2,1.2,1.2h16c0.7,0,1.2-0.6,1.2-1.2v-8c0-0.7-0.6-1.2-1.2-1.2
		C18.8,4.5,2.8,4.5,2.8,4.5z"/>
	<path d="M6.8,12.5c-0.5,0-0.8-0.3-0.8-0.7v-1.3H4.8C4.3,10.5,4,10.2,4,9.8S4.3,9,4.8,9H6V7.8C6,7.3,6.3,7,6.8,7s0.8,0.3,0.8,0.8V9
		h1.2c0.4,0,0.8,0.3,0.8,0.8s-0.4,0.7-0.8,0.7H7.5v1.2C7.5,12.2,7.2,12.5,6.8,12.5z"/>
	<path d="M13.8,9.5c-0.4,0-0.8-0.3-0.8-0.8S13.3,8,13.8,8s0.8,0.3,0.8,0.7l0,0C14.5,9.2,14.2,9.5,13.8,9.5z"/>
	<path d="M16.8,11.5c-0.4,0-0.8-0.3-0.8-0.8s0.3-0.7,0.8-0.7s0.8,0.3,0.8,0.7l0,0C17.5,11.2,17.2,11.5,16.8,11.5z"/>
</g>
</svg>  
