<?xml version="1.0" encoding="utf-8"?>
<!-- Generator: Adobe Illustrator 25.1.0, SVG Export Plug-In . SVG Version: 6.00 Build 0)  -->
<svg version="1.1" id="Layer_1" xmlns="http://www.w3.org/2000/svg" xmlns:xlink="http://www.w3.org/1999/xlink" x="0px" y="0px"
	 viewBox="0 0 391.5 512" style="enable-background:new 0 0 391.5 512;" xml:space="preserve">
<style type="text/css">
	.st0{fill:#734835;}
	.st1{fill:#F2F2F2;}
	.st2{fill:#999999;}
	.st3{fill:#ECE2E2;}
	.st4{fill:#A07765;}
	.st5{fill:#F2A661;}
</style>
<path class="st0" d="M360.7,437c0,41-23.1,70.7-54.9,70.7c-37.6,0-61.3-19.1-68.4-54.3c-26.1,9.5-57,9.5-83.1,0
	c-7.1,35.2-30.8,54.3-68.4,54.3c-31.8,0-54.9-29.8-54.9-70.7c0-24.5-42.1-53.1-21.9-93.5c14.4-28.7,29.8-112.7,29.8-150.1
	c0-32.9,18.5-50.9,33.5-58.6C71.9,104,77.1,78.9,88,59.9c23.3-41.2,67.8-58.4,107.7-55.1c5.3-0.4,20.8-1.1,39.1,3.4
	c30,7.5,53.8,25.4,68.7,51.6c10.9,19,16.1,44.1,15.7,74.9c15,7.7,33.5,25.7,33.5,58.6c0,37.5,15.4,121.4,29.8,150.1
	C402.9,383.9,360.7,412.4,360.7,437L360.7,437z"/>
<path class="st1" d="M297.4,260c-6.9,27.4,8.6,75.3,0.2,117.2c-6.2,31.1-1.8,58.2-20.9,68.7c-7.7,4.2-16.4,3.6-24.6,0.9
	c-33.2,18.4-79.2,18.5-112.6,0c-8.3,2.8-16.9,3.3-24.6-0.9c-19.2-10.5-14.7-37.6-20.9-68.7c-4.4-22.1-2.3-45.4-0.1-67.4
	c3.7-39,2.3-42.5-2.3-59.4c-15-57-33.2-138.7-3.7-190.4c15.3-26.8,39.3-44.3,68.7-51.6c18.3-4.6,33.8-3.9,39.1-3.4
	c5.3-0.4,20.8-1.1,39.1,3.4c30,7.5,53.8,25.4,68.7,51.6c14,24.5,18.7,59.1,14,102.8C313.4,202.2,303.1,237.3,297.4,260L297.4,260z"
	/>
<path class="st2" d="M235.1,275.9c0,10.1-12.7,51.1-39.3,51.1s-39.3-41-39.3-51.1C156.4,239.2,235.1,239.2,235.1,275.9z"/>
<path class="st3" d="M259.6,442.1c-36,24.6-91.8,24.7-127.8,0c-9.8-6.8-8.8-21.6,1.9-27c22.4-11.2,46.3-72.7,46.3-95.9
	c0-8.7,7.1-15.7,15.7-15.7c8.7,0,15.7,7.1,15.7,15.7c0,23.4,24,84.7,46.3,95.9C268.5,420.4,269.5,435.3,259.6,442.1z"/>
<path class="st4" d="M156.4,209.1c-24.9,20.7-62.8,102.1-62.8,149.3c0,3.9-0.4,7.5-1.1,10.1c-4.9-39.1,8-83,1.6-108.4
	c-15.7-62.6-40.4-152.9-0.3-209.5c27.1-8.7,69.9-15.7,86.3,17.1C187.9,83.4,203.6,169.8,156.4,209.1L156.4,209.1z"/>
<path class="st4" d="M235.1,209.1c24.9,20.7,62.8,102.1,62.8,149.3c0,3.9,0.4,7.5,1.1,10.1c4.9-39.1-8-83-1.6-108.4
	c15.7-62.6,40.4-152.9,0.3-209.5c-27.1-8.7-69.9-15.7-86.3,17.1C203.6,83.4,187.9,169.8,235.1,209.1L235.1,209.1z"/>
<circle cx="144.6" cy="142.3" r="19.7"/>
<circle cx="246.9" cy="142.3" r="19.7"/>
<path d="M386,345c-14.6-29.2-30.3-114.6-30.3-152.7c0-33.5-18.8-51.8-34.1-59.6c0.4-31.3-4.9-56.9-16-76.2
	C290.2,29.6,266,11.5,235.6,3.9c-18.6-4.7-34.4-4-39.8-3.5C190.4,0,174.6-0.7,156,3.9c-30.5,7.6-54.7,25.8-69.9,52.5
	c-11,19.3-16.4,44.9-16,76.2C54.8,140.4,36,158.7,36,192.2C36,230.3,20.3,315.8,5.7,345C-14.9,386.1,28,415.1,28,440.1
	c0,41.7,23.5,71.9,55.9,71.9c38.3,0,62.4-19.4,69.6-55.2c26.6,9.7,58,9.7,84.5,0c7.2,35.8,31.3,55.2,69.6,55.2
	c32.4,0,55.9-30.3,55.9-71.9C363.7,415.1,406.6,386,386,345L386,345z M113.8,72.2c27-47.2,79.7-39.5,83.9-40c2.2-0.3,54-5.7,80.1,40
	c25.9,45.3,2.9,132.5-6.9,169.7c-6.1,23-7.1,30.1-3.2,71.6c5.3,55.2,0.7,45.8-3.8,88.9c-0.6,5.4-1.3,12.2-2.2,16.6
	c-25.7-10.8-48-72.2-49.9-96.4c16.1-11.6,23.9-38.5,23.9-46.5c0-37.2-79.9-37.4-79.9,0c0,8,7.7,34.8,23.9,46.5
	c-1.8,24.1-24.1,85.5-49.9,96.4c-0.9-4.4-1.6-11.2-2.2-16.6c-4.5-42.9-9-33.6-3.8-88.9c3.8-39.8,3.1-47.8-3.2-71.6
	C110.9,204.7,87.9,117.5,113.8,72.2L113.8,72.2z M195.8,293.8c-2.4-3.3-4.9-8.6-6.5-13c4-0.9,9-0.9,13,0
	C200.7,285.2,198.2,290.5,195.8,293.8z M83.9,480c-15.7,0-24-20.1-24-40c0-36.4-36.1-59.9-25.7-80.8c17.3-34.7,33.7-123.5,33.7-167
	c0-8.2,1.7-15.1,5.2-20.6c4.3,31.3,11.9,60.4,16.7,78.5c4.4,16.8,6.1,19.9,2.3,60.4c-5.7,59.7-0.4,54.6,3.8,95.2
	c2,18.9,3.9,42.9,26.1,46.1C116.7,476.2,100.8,480,83.9,480z M169,428.3c11.2-13,20.1-29.9,26.8-45.9c6.7,16,15.6,32.8,26.8,45.9
	C205.7,433.3,186,433.3,169,428.3z M331.8,440.1c0,19.9-8.2,40-24,40c-16.9,0-32.8-3.9-38.1-28.1c2.8-0.4,5.7-1.3,8.5-2.8
	c19.5-10.7,15-38.2,21.3-69.9c8.5-42.6-7.2-91.2-0.2-119.1c4.1-16.5,14.1-50.5,19.3-88.4c3.4,5.5,5.2,12.4,5.2,20.6
	c0,43.5,16.3,132.3,33.7,167C367.9,380.2,331.8,403.7,331.8,440.1L331.8,440.1z"/>
<g>
	<path class="st5" d="M118.3,98c0,0,33.3-22.2,38.9-5.6C167.7,124.3,98.4,118,118.3,98z"/>
	<path class="st5" d="M273.2,98c0,0-33.3-22.2-38.9-5.6C223.8,124.3,293.1,118,273.2,98z"/>
</g>
</svg>
