<svg xmlns="http://www.w3.org/2000/svg" viewBox="0 0 100 100"><defs><style>.c2{fill:#d7c5b2}.c6{fill:#e4d8cb}</style></defs><path class="c2" d="M55.085 94.099a5.461 5.461 0 11-5.438-5.484h.022a5.45 5.45 0 015.416 5.483z"/><path class="c6" d="M43.086 94.315c-3.592-2.107-3.558-5.495.068-7.546a14.386 14.386 0 0113.063.102c3.592 2.107 3.569 5.484-.057 7.546a14.477 14.477 0 01-13.074-.102z"/><path class="c2" d="M42.905 92.343c-3.705-2.175-3.682-5.665 0-7.772a14.819 14.819 0 0113.471.102c3.705 2.175 3.682 5.665-.057 7.772a14.885 14.885 0 01-13.414-.102z"/><path class="c6" d="M42.713 90.315c-3.818-2.266-3.784-5.835.068-8.021a15.328 15.328 0 0113.879.113c3.818 2.266 3.795 5.823-.057 8.01a15.351 15.351 0 01-13.89-.102z"/><path class="c2" d="M42.52 88.219c-3.943-2.266-3.909-6.005.057-8.259a15.795 15.795 0 0114.321.113c3.931 2.266 3.897 6.005-.068 8.259a15.863 15.863 0 01-14.309-.113z"/><path class="c6" d="M42.384 86.021c-4.011-2.357-3.988-6.129.068-8.429a16.146 16.146 0 0114.604.113c4.011 2.357 3.988 6.129-.068 8.429a16.112 16.112 0 01-14.604-.113z"/><path d="M50.168 22.598c-14.339-.1-26.048 11.436-26.16 25.775-.147 20.609 16.825 24.155 16.768 32.471a4.442 4.442 0 002.595 3.671 14.015 14.015 0 0012.667.102 4.462 4.462 0 002.651-3.637c.068-8.316 17.096-11.602 17.255-32.222.101-14.339-11.436-26.048-25.775-26.16z" fill="#b5cede"/><path fill="#6c9ebf" d="M44.945 83.404c-2.617-1.541-2.595-3.999 0-5.506a10.537 10.537 0 019.528.079c2.617 1.541 2.595 3.999 0 5.495a10.503 10.503 0 01-9.528-.068z" opacity=".5"/><path d="M53.204 80.073a.895.895 0 01-.884-.872 63.048 63.048 0 011.937-14.819c.347-1.4.79-2.774 1.326-4.113a12.206 12.206 0 01-2.266-1.133 15.199 15.199 0 01-3.399-2.923 14.99 14.99 0 01-3.467 2.866 11.76 11.76 0 01-2.266 1.133 31.013 31.013 0 011.292 4.101 63.654 63.654 0 011.711 14.853.883.883 0 01-1.767 0 62.296 62.296 0 00-1.654-14.389 28.9 28.9 0 00-1.292-4.124 5.494 5.494 0 01-4.894-1.473 2.821 2.821 0 01-.351-3.637 2.345 2.345 0 012.402-.997c1.394.295 2.73 1.722 3.875 4.067a9.808 9.808 0 002.051-.974 13.403 13.403 0 003.32-2.855 6.502 6.502 0 01-1.246-4.962 2.481 2.481 0 014.736 0 6.479 6.479 0 01-1.326 4.94 13.335 13.335 0 003.274 2.855c.635.416 1.32.751 2.039.997 1.133-2.266 2.538-3.727 3.931-3.999a2.38 2.38 0 012.391 1.031 2.82 2.82 0 01-.408 3.625 5.54 5.54 0 01-4.928 1.405 29.574 29.574 0 00-1.337 4.101 62.103 62.103 0 00-1.881 14.366.884.884 0 01-.872.895l-.045.034zm-14.072-23.86c-.147 0-.317 0-.51.317a1.133 1.133 0 00.238 1.405 3.544 3.544 0 002.81.963c-.929-1.733-1.835-2.561-2.413-2.674l-.125-.011zm18.989 2.764a3.589 3.589 0 002.832-.918c.159-.181.68-.804.249-1.405-.238-.34-.453-.351-.623-.317-.589.159-1.507.963-2.459 2.64zm-8.112-9.063a.59.59 0 00-.68.465 4.25 4.25 0 00.657 2.889 4.213 4.213 0 00.691-2.878.579.579 0 00-.664-.477h-.005z" fill="#6c9ebf"/><path d="M50.405 12.707a1.55 1.55 0 01-.453.068 1.688 1.688 0 01-1.688-1.688v-8.86A1.676 1.676 0 0150.009.539c.939 0 1.699.761 1.699 1.699v8.837a1.688 1.688 0 01-1.303 1.631zM31.53 17.749a1.712 1.712 0 01-1.915-.793l-4.419-7.659a1.702 1.702 0 012.946-1.7l4.407 7.659a1.688 1.688 0 01-.602 2.31l-.021.012c-.127.068-.26.125-.397.17zM17.708 31.537c-.44.12-.909.059-1.303-.17l-7.648-4.43a1.7 1.7 0 111.7-2.935l7.648 4.385a1.7 1.7 0 01.624 2.321v.002a1.733 1.733 0 01-1.021.827zm-5.087 18.864a2.018 2.018 0 01-.453 0H3.331a1.699 1.699 0 110-3.398h8.837a1.699 1.699 0 01.453 3.33v.068zm84.315.102a2.018 2.018 0 01-.453 0h-8.837a1.699 1.699 0 110-3.398h8.814a1.714 1.714 0 11.453 3.399h.023zM83.058 31.616a1.7 1.7 0 01-1.326-3.105l7.659-4.419a1.702 1.702 0 011.7 2.946l-7.67 4.407a1.353 1.353 0 01-.363.17zM69.269 17.783c-.434.123-.9.066-1.292-.159a1.7 1.7 0 01-.623-2.266l4.43-7.648a1.701 1.701 0 012.946 1.7l-4.441 7.648a1.686 1.686 0 01-1.02.725z" fill="#ebebeb"/></svg>