<svg xmlns="http://www.w3.org/2000/svg" viewBox="0 0 100 100"><defs><style>.cls-8{fill:#fff}</style></defs><g opacity=".25"><path class="cls-8" d="M45.289 54.34c-11.688-11.273-12.024-29.886-.752-41.574C55.81 1.078 74.423.742 86.111 12.014c11.688 11.273 12.024 29.886.752 41.574l-.003.003c-11.27 11.686-29.88 12.024-41.566.754l-.005-.005z"/><path d="M39.67 19.518c-7.492 14.289-2.078 31.947 12.136 39.58L39.67 19.518zM64.837 3.801l16.619 54.212a29.532 29.532 0 005.408-4.417 28.82 28.82 0 004.717-6.455L79.316 7.12a29.419 29.419 0 00-14.479-3.318zm-18.151 6.973l15.84 51.629c1.916.207 3.849.227 5.769.06L51.441 7.476a28.471 28.471 0 00-4.755 3.298zm14.147-6.571L77.912 59.93c.326-.148.649-.301.965-.464L61.881 4.04c-.346.045-.697.094-1.048.163zm26.32 8.877l7.585 24.733c.142-.868.217-1.732.304-2.632l-6.165-20.085a25.852 25.852 0 00-1.724-2.016z" fill="#b5cede"/></g><path fill="#f1ebe5" d="M17.261 77.832L40.86 53.366l5.563 5.367-23.597 24.465z"/><path opacity=".75" fill="#b5cedf" d="M40.99 53.231l5.562 5.368-2.42 2.509-5.563-5.368z"/><path d="M89.229 55.877c12.532-12.993 12.159-33.685-.834-46.217-12.993-12.532-33.685-12.159-46.217.834-12.532 12.992-12.159 33.683.833 46.216 12.995 12.527 33.683 12.154 46.218-.833zm-43.94-1.537c-11.69-11.271-12.03-29.884-.759-41.574 11.271-11.69 29.884-12.03 41.574-.759 11.69 11.271 12.03 29.884.759 41.574l-.006.006c-11.27 11.687-29.879 12.025-41.566.755l-.002-.002z" fill="#b5cede"/><path class="cls-8" d="M79.134 46.427a.598.598 0 01.07-.081c.333-.385-.312.385-.103.123s.502-.635.732-.959a25.02 25.02 0 002.171-3.633c.089-.175.171-.36.26-.536.029-.06-.193.43-.033.022l.146-.337c.182-.436.357-.874.501-1.305.353-.976.64-1.974.861-2.989l.146-.727c.062-.329-.059.375.01-.068l.069-.443a22.736 22.736 0 00.189-3.535c-.009-.281-.023-.56-.045-.84-.029-.487.03.199-.011-.15l-.059-.501a23.161 23.161 0 00-1.025-4.425l-.041-.062-.06-.152-.244-.625a23.27 23.27 0 00-.525-1.191A26.955 26.955 0 0080.84 21.6a1.945 1.945 0 113.462-1.774 24.513 24.513 0 013.414 16.595 26.793 26.793 0 01-4.373 10.792 19.522 19.522 0 01-1.623 2.078 1.95 1.95 0 01-2.748-.117 1.99 1.99 0 01.117-2.748l.046-.003z" fill="#fff"/><path class="cls-8" d="M74.805 50.263a1.916 1.916 0 102.706.124l-.007-.008a1.916 1.916 0 00-2.699-.116z"/><rect x="9.151" y="73.571" width="10.085" height="25.977" rx=".976" ry=".976" transform="rotate(43.98 14.193 86.559)" fill="#d7c5b2"/></svg>