<svg xmlns="http://www.w3.org/2000/svg" viewBox="0 0 100 100"><defs><clipPath id="clippath"><path class="cls-1" d="M23.199 64.315l-7.145-4.119.027-29.256a8.05 8.05 0 01.815-3.354c.607-1.281 1.499-2.385 2.496-2.962l21.877-12.599 7.138 4.119v8.6l2.945 1.701c.319.184.745-.064 1.275-.369a8.786 8.786 0 002.17-1.865c.437-.485.9-.946 1.385-1.382l3.049 1.758a.369.369 0 01.067.044.024.024 0 01.023 0 .34.34 0 01.074.057c.108.095.199.209.268.335a.426.426 0 01.06.111c.017.029.03.059.04.091.057.132.1.271.127.413a.375.375 0 010 .067c0 .084.027.178.037.272s0 .191 0 .292c.005.094.005.188 0 .282 0 .101-.017.198-.03.292s-.03.195-.047.292-.03.148-.05.221a1.484 1.484 0 01-.044.158c-.104.379-.25.744-.436 1.09a4.115 4.115 0 01-1.483 1.677c-.086.048-.174.09-.265.127h-.017a4.418 4.418 0 01-1.945.506c-.215 0-.433.034-.671.067l-.245.037a5.935 5.935 0 00-1.677.607c-.064.03-.124.06-.181.094l-.191.107a8.528 8.528 0 00-1.127.775l-.034.034a5.432 5.432 0 00-.463.416l-.027.027a7.599 7.599 0 00-.882 1.063 5.268 5.268 0 00-.335.527l-.067.114c-.087.161-.164.335-.242.483v.027c-.02.037-.037.077-.054.111-.07.174-.148.352-.215.533l-.03.091c-.074.215-.148.433-.205.644 0 .03-.017.057-.017.067-.047.188-.097.376-.138.57 0 .057-.023.117-.037.174v.047c-.03.141-.05.285-.077.433 0 .084-.03.174-.044.265s-.037.268-.05.406v.067a1.56 1.56 0 00-.027.215c0 .141-.03.285-.044.436v.285l-.077 2.348v7.715l-2.013 1.167-.641.372-1.265.721-1.841 1.067c-1.281.741-2.167 1.117-2.717 1.161-.085.01-.17.01-.255 0a.633.633 0 01-.164-.06l-2.626-1.536a.193.193 0 010-.034c.03-.335.07-.671.117-.973.03-.195.064-.382.101-.557.097-.55.221-1.043.335-1.513.26-.933.414-1.893.46-2.861v-.047c0-.158 0-.262.017-.359 0-.748-.221-1.325-.617-1.623a.481.481 0 00-.06-.04l-.054-.03-2.935-1.694a10.8 10.8 0 00-1.939 3.052c-.064.154-.127.309-.184.456s-.117.312-.168.47l-.023.067c-.054.158-.101.315-.148.473s-.087.319-.124.476-.05.218-.074.335-.044.218-.057.335c-.041.222-.07.446-.087.671-.017.121-.027.245-.034.366s-.017.312-.017.463v.299c0 .097 0 .184.02.268 0 .144 0 .278.023.409.018.304.052.606.104.906 0 .121.037.238.06.335.107.503.245.998.416 1.483a7.18 7.18 0 01.413 1.677v.184c.02.248.03.493.03.748 0 1.654 0 2.566-3.515 4.595l-5.796 3.388z"/></clipPath><clipPath id="clippath-1"><path class="cls-1" d="M41.265 76.575c.07-.04.151-.097.238-.158a9.807 9.807 0 001.972-1.761c.299-.335.564-.604.865-.896l.047-.047.087-.084.04-.04c.151-.141.299-.272.446-.399l2.781 1.66a.556.556 0 01.148.134.647.647 0 01.064.091v.02c.018.03.033.062.047.094v.03l.04.104v.04c.014.037.027.075.037.114v.05c0 .017.023.091.037.141v.044c0 .06.023.124.037.195 0 .077.023.158.037.242v.02l.03.242v.08l.02.208v.107c0 .034 0 .138.017.211s0 .084 0 .127v9.311L75.76 70.569v-4.337a.495.495 0 000-.077V33.867l-5.769 3.331-.107.064-.067.04-1.137.704c-.455.301-.893.628-1.312.979l-.027.023-.07.057c-.104.087-.201.178-.299.268l-.027.027-.124.121a8.277 8.277 0 00-.265.265l-.164.178c-.08.091-.161.181-.238.275s-.101.124-.158.201-.151.195-.221.292l-.121.178-.027.047-.034.047c-.057.087-.114.174-.164.262s-.077.131-.111.201l-.03.05a7.792 7.792 0 00-.288.587l-.023.05c-.037.084-.077.168-.111.255s-.067.178-.097.268l-.023.067c-.037.104-.074.205-.104.312s-.064.218-.094.335l-.084.335c-.027.107-.047.221-.067.335s-.044.242-.06.366v.023c0 .101-.03.201-.044.305s-.027.268-.04.413v.081c0 .077 0 .154-.017.231v.738a9.917 9.917 0 00.604 3.626c.281.752.438 1.545.463 2.348v.037c0 .111.017.215.017.309a5.163 5.163 0 01-.617 2.348 4.13 4.13 0 01-1.486 1.677 2.442 2.442 0 01-.315.148l-.054.02a1.432 1.432 0 01-.295.067h-.054c-.095.01-.19.01-.285 0h-.02a.99.99 0 01-.275-.087l-.027-.017-2.901-1.704c0-.087 0-.171.023-.258s.023-.201.037-.302c.027-.208.054-.409.087-.604s.06-.356.094-.527c.02-.091.037-.178.054-.262.08-.372.164-.745.262-1.144.29-1.024.443-2.082.456-3.146 0-1.006-.087-1.459-.359-1.62l-3.307-1.909-5.615 3.237-2.311-1.342v2.683l-2.013 1.171-.644.369 2.683 1.543v7.695c0 2.16-.164 3.602-.5 4.408-.235.553-.594.902-1.422 1.382a4.311 4.311 0 01-2.164.641c-.235 0-.47.044-.694.074l-.275.047c-.084.017-.171.034-.262.057-.168.04-.333.088-.496.144h-.034l-.101.034a6.942 6.942 0 00-.741.335l-.091.044h-.06a3.2 3.2 0 00-.305.151 7.85 7.85 0 00-2.465 2.435c-.161.235-.312.48-.456.731l-.057.111a6.356 6.356 0 00-.335.671l-.023.054c-.24.516-.444 1.049-.61 1.593a9.77 9.77 0 00-.335 1.503l2.938 1.697c.422.208.922.18 1.318-.074z"/></clipPath><style>.cls-1{fill:none}.cls-2,.cls-3{opacity:.1;isolation:isolate}.cls-3{opacity:.2}.cls-5{fill:#f1ebe5}.cls-6{fill:#d7c5b2}.cls-7{fill:#b5cede}.cls-9{fill:#e4d8cb}</style></defs><!--Generator: Adobe Illustrator 28.7.1, SVG Export Plug-In . SVG Version: 1.2.0 Build 142)--><g id="Calque_6"><path class="cls-7" d="M48.816 67.377l-7.141-4.122.158-.218.017-.02.077-.111c.114-.168.221-.335.335-.513l.03-.054c.104-.184.205-.386.302-.597.02-.05.044-.101.064-.154v-.034c.05-.121.111-.265.168-.426.027-.07.05-.141.077-.218v-.044c.04-.121.081-.242.114-.366s.057-.198.084-.302.054-.225.084-.335.047-.221.067-.335.044-.211.06-.315v-.05c.02-.101.037-.208.054-.315s.017-.124.027-.184v-.067c.074-.537.117-1.1.154-1.711v-.067l.037-1.647V47.34l7.114 4.166v7.836l-.037 1.65v.064a20.59 20.59 0 01-.148 1.707v.07c0 .064-.017.124-.027.188s-.03.211-.05.312v.047c-.017.111-.037.211-.057.319s-.047.218-.074.335-.05.228-.077.335-.057.205-.084.302-.074.245-.117.362v.05c-.023.07-.05.148-.077.218-.054.154-.117.302-.168.426l-.017.03-.06.154c-.097.208-.198.409-.302.6l-.03.054c-.097.168-.205.335-.319.513a.743.743 0 01-.081.104v.023l-.158.171zM43.587 80.999l.02-6.467-.101.104c.295-.335.567-.607.862-.896l.05-.047.087-.084.06-.034a10.043 10.043 0 011.865-1.416l.074-.037h.017l.05-.03c.161-.091.335-.171.48-.248.044-.023.091-.04.134-.06l.047-.023c.107-.04.221-.091.335-.127.06-.027.117-.04.171-.06h.027c.097-.023.191-.05.278-.067s.134-.027.198-.034c.083-.007.166-.007.248 0 .063-.003.125-.003.188 0 .074.006.146.019.218.037h.03l.138.034c.07.025.137.056.201.094a1.67 1.67 0 01.423.308c.038.04.074.083.107.127l.023.034.02.023c.035.044.067.09.097.138.043.064.081.132.114.201.034.064.064.121.091.184s.067.161.101.248.044.127.064.195.057.188.084.288l.04.168v.027c.023.111.05.225.07.335v.138c.074.473.127 1.006.164 1.634v.027l.037 1.496v7.943l-7.114-4.153zM39.81 76.635l-7.02-4.065c-.466-.248-.738-.899-.738-1.761a5.37 5.37 0 01.926-2.861l.134-.188c-.034.054-.074.107-.107.158l7.138 4.122a5.321 5.321 0 00-.976 2.932c0 .808.248 1.385.644 1.664z"/><path class="cls-6" d="M48.816 67.377l-7.141-4.122.158-.218.017-.02.077-.111c.114-.168.221-.335.335-.513l.03-.054c.104-.184.205-.386.302-.597.02-.05.044-.101.064-.154v-.034c.05-.121.111-.265.168-.426.027-.07.05-.141.077-.218v-.044c.04-.121.081-.242.114-.366s.057-.198.084-.302.054-.225.084-.335.047-.221.067-.335.044-.211.06-.315v-.05c.02-.101.037-.208.054-.315s.017-.124.027-.184v-.067c.074-.537.117-1.1.154-1.711v-.067l.037-1.647V47.34l7.114 4.166v7.836l-.037 1.65v.064a20.59 20.59 0 01-.148 1.707v.07c0 .064-.017.124-.027.188s-.03.211-.05.312v.047c-.017.111-.037.211-.057.319s-.047.218-.074.335-.05.228-.077.335-.057.205-.084.302-.074.245-.117.362v.05c-.023.07-.05.148-.077.218-.054.154-.117.302-.168.426l-.017.03-.06.154c-.097.208-.198.409-.302.6l-.03.054c-.097.168-.205.335-.319.513a.743.743 0 01-.081.104v.023l-.158.171zM43.587 80.999l.02-6.467-.101.104c.295-.335.567-.607.862-.896l.05-.047.087-.084.06-.034a10.043 10.043 0 011.865-1.416l.074-.037h.017l.05-.03c.161-.091.335-.171.48-.248.044-.023.091-.04.134-.06l.047-.023c.107-.04.221-.091.335-.127.06-.027.117-.04.171-.06h.027c.097-.023.191-.05.278-.067s.134-.027.198-.034c.083-.007.166-.007.248 0 .063-.003.125-.003.188 0 .074.006.146.019.218.037h.03l.138.034c.07.025.137.056.201.094a1.67 1.67 0 01.423.308c.038.04.074.083.107.127l.023.034.02.023c.035.044.067.09.097.138.043.064.081.132.114.201.034.064.064.121.091.184s.067.161.101.248.044.127.064.195.057.188.084.288l.04.168v.027c.023.111.05.225.07.335v.138c.074.473.127 1.006.164 1.634v.027l.037 1.496v7.943l-7.114-4.153zM39.81 76.635l-7.02-4.065c-.466-.248-.738-.899-.738-1.761a5.37 5.37 0 01.926-2.861l.134-.188c-.034.054-.074.107-.107.158l7.138 4.122a5.321 5.321 0 00-.976 2.932c0 .808.248 1.385.644 1.664z"/><path class="cls-5" d="M39.87 76.659l-.047-.027c-.396-.278-.644-.855-.644-1.65a5.313 5.313 0 01.976-2.932l-7.138-4.122c.034-.05.074-.104.107-.158a5.42 5.42 0 01.426-.486c.049-.055.103-.105.161-.151.138-.128.29-.241.453-.335.06-.035.121-.066.184-.094l.081-.034h.02c.297-.158.611-.281.936-.366l.114-.027c.294-.06.592-.099.892-.117a6.039 6.039 0 002.982-.909l.235-.144c.07-.04.134-.084.201-.131s.104-.064.154-.097h.02l.248-.181.235-.184.044-.034.037-.034.027-.023.101-.087c.03-.027.067-.054.097-.084s.121-.107.181-.168l.084-.084.037-.04.148-.154c.06-.064.121-.131.178-.198l.023-.027.097-.114c.044-.06.097-.121.141-.184l7.145 4.126.127-.174v-.023a.743.743 0 00.081-.104c.114-.174.221-.335.319-.513l.03-.054c.104-.191.205-.392.302-.6l.06-.154.017-.03c.05-.124.114-.272.168-.426.027-.07.054-.148.077-.218v-.05c.044-.117.081-.238.117-.362s.054-.198.084-.302.054-.225.077-.335.05-.218.074-.335.04-.208.057-.319v-.047c.02-.101.034-.205.05-.312l.027-.188v-.07c.07-.533.117-1.097.148-1.707v-.064l.037-1.65v-7.859l-7.114-4.166 2.918-1.677 1.506-.869 1.342-.778.523-.295c.138-.067.262-.141.389-.201a7.11 7.11 0 011.402-.584l.148-.037a1.47 1.47 0 01.463-.034c.087 0 .134.077.201.117l7.198 4.092c.14.091.237.235.268.399 0 .057.03.124.044.195s.02.151.03.238v.795c0 .319 0 .607-.04.882v.205c0 .067 0 .131-.023.198s0 .127-.03.195-.017.127-.027.191l-.067.372c-.023.127-.054.245-.077.366a.042.042 0 000 .027 10.54 10.54 0 00.916-4.099c0-.198 0-.396-.02-.564a10.091 10.091 0 00-.61-3.15 7.033 7.033 0 01-.46-2.623c0-1.657 0-2.569 3.515-4.592l5.739-3.287 7.138 4.122v29.202c0 2.432-1.483 5.266-3.304 6.319L50.723 85.118v-7.936l-.037-1.496v-.027a17.699 17.699 0 00-.164-1.634v-.138c-.02-.121-.047-.235-.07-.335v-.027l-.04-.168c-.027-.101-.05-.195-.084-.288s-.04-.131-.064-.195-.064-.171-.101-.248-.057-.121-.091-.184a1.529 1.529 0 00-.114-.201 1.81 1.81 0 00-.097-.138l-.02-.023-.023-.034a1.306 1.306 0 00-.325-.311 1.256 1.256 0 00-.205-.124 1.149 1.149 0 00-.201-.094l-.138-.034h-.03a1.342 1.342 0 00-.218-.037 1.965 1.965 0 00-.188 0 1.467 1.467 0 00-.248 0c-.064 0-.127.02-.198.034s-.181.044-.278.067h-.027c-.054.02-.111.034-.171.06-.114.037-.228.087-.335.127l-.047.023c-.044.02-.091.037-.134.06a8.426 8.426 0 00-.48.248l-.05.03h-.017l-.074.037a9.99 9.99 0 00-1.885 1.446l-.044.04-.087.084-.05.047c-.295.288-.567.577-.862.896a9.807 9.807 0 01-1.972 1.761c-.087.06-.164.117-.238.158-.196.121-.416.2-.644.231a1.13 1.13 0 01-.426 0 1.122 1.122 0 01-.372-.134z"/><path fill="#e4d8cb" d="M50.725 51.505l-7.114-4.166 2.918-1.677 1.506-.869 1.342-.778.523-.295c.138-.067.262-.141.389-.201a7.11 7.11 0 011.402-.584l.148-.037a1.47 1.47 0 01.463-.034c.087 0 .134.077.201.117l7.111 4.096a.286.286 0 00-.08-.03.222.222 0 00-.111-.023 1.107 1.107 0 00-.335 0 1.547 1.547 0 00-.278.06c-.813.265-1.59.629-2.314 1.083l-1.342.778-1.509.872-2.918 1.687z"/><path fill="#e4d8cb" d="M59.929 59.465c-.671-.671-1.006-1.801-1.006-3.166a5.228 5.228 0 01.023-.587v-.023c0-.335.034-.647.07-1.006 0-.101.023-.198.037-.299.023-.208.054-.413.087-.604s.06-.356.094-.527c.02-.091.037-.178.054-.262.08-.372.164-.745.262-1.144.064-.252.121-.493.174-.735.573-1.283.883-2.667.909-4.072 0-.198 0-.392-.023-.56a10.062 10.062 0 00-.607-3.156 7.099 7.099 0 01-.46-2.62c0-1.654 0-2.566 3.515-4.595l5.739-3.284 7.138 4.122-5.763 3.327c-3.515 2.013-3.515 2.942-3.515 4.595a6.912 6.912 0 00.46 2.623c.367 1.012.572 2.077.607 3.153 0 .168.023.362.02.557 0 3.244-1.976 7.027-4.414 8.429-1.322.768-2.559.704-3.401-.168z"/><path fill="#d7c5b2" d="M40.142 72.053l-7.138-4.122c.034-.05.074-.104.107-.158a5.42 5.42 0 01.426-.486c.049-.055.103-.105.161-.151.138-.128.29-.241.453-.335.06-.035.121-.066.184-.094l.081-.03h.02c.297-.158.611-.281.936-.366l.114-.027c.294-.06.592-.099.892-.117a6.039 6.039 0 002.982-.909l.235-.144c.07-.04.134-.084.201-.131a1.37 1.37 0 00.151-.101h.02l.248-.181.238-.184.04-.034.037-.034.03-.023.097-.087c.03-.027.067-.054.097-.084s.121-.107.181-.168l.084-.084a.234.234 0 01.04-.037l.144-.158c.06-.064.121-.131.178-.198l.023-.027.097-.114c.044-.06.097-.121.141-.184l7.148 4.126-.03.034c-.047.067-.097.131-.148.198s-.064.07-.094.107l-.027.027a4.131 4.131 0 01-.335.352l-.067.067c-.017.02-.037.037-.05.057l-.184.168-.195.168-.027.027-.084.064a6.866 6.866 0 01-.48.369s-.02 0-.037.023a6.704 6.704 0 01-.584.372l-.208.107-.245.124a5.696 5.696 0 01-1.741.574l-.309.04h-.154l-.285.027a4.702 4.702 0 00-1.251.215 4.24 4.24 0 00-.691.292l-.084.034a1.593 1.593 0 00-.184.094 3.246 3.246 0 00-.759.627c-.063.063-.121.13-.174.201a1.5 1.5 0 00-.104.134c-.057.064-.094.101-.121.141z"/></g><g id="Calque_2"><path class="cls-7" d="M24.364 99.118l-6.648-3.837c-.691-.409-1.077-1.436-1.077-2.757l-.027-29.159 6.709 3.867-.027 29.253c-.01 1.288.406 2.207 1.07 2.633z"/><path class="cls-3" d="M24.364 99.118l-6.648-3.837c-.691-.409-1.077-1.436-1.077-2.757l-.027-29.159 6.709 3.867-.027 29.253c-.01 1.288.406 2.207 1.07 2.633z"/><path class="cls-7" d="M24.411 99.145l-.047-.027c-.671-.426-1.08-1.342-1.08-2.633l.027-29.253-6.709-3.867 5.793-3.378.054-.03.822-.476.926-.644.037-.023.037-.027c.05-.034.091-.07.134-.104l.054-.037.161-.121.154-.121a1.51 1.51 0 01.131-.111l.05-.04.047-.04c.087-.067.171-.141.252-.211l.127-.117.047-.05c.158-.144.315-.302.46-.46l.054-.05a8.87 8.87 0 00.171-.191.713.713 0 00.077-.097.654.654 0 00.074-.084v-.023l.02-.03.037-.04.178-.225c.047-.067.097-.138.141-.208l.037-.044v-.02a9 9 0 00.322-.51l.017-.03c.037-.074.077-.141.114-.215l.057-.104c.047-.091.091-.181.131-.275l.074-.171c.029-.056.054-.114.074-.174a.791.791 0 00.06-.148c.017-.047.04-.101.057-.148.044-.117.081-.238.121-.362.03-.097.064-.201.091-.305v-.044c.034-.111.057-.225.081-.335v-.037c0-.087.04-.178.057-.272.023-.127.05-.275.067-.413v-.164a.115.115 0 000-.037.737.737 0 010-.094c.017-.164.03-.335.044-.483v-.258c0-.242.007-.486.02-.735v-.694a.342.342 0 000-.064.342.342 0 000-.064v-.091c0-.124-.017-.245-.027-.356v-.02c0-.107-.023-.208-.034-.305a9.745 9.745 0 00-.278-1.342c-.077-.268-.161-.513-.235-.745a7.608 7.608 0 01-.409-1.627c0-.111-.027-.225-.037-.335s0-.258-.023-.396v-.06a.524.524 0 010-.097 1.239 1.239 0 010-.211c0-1.546.939-3.354 2.103-4.025.115-.068.24-.12.369-.154.083-.023.169-.036.255-.04.082-.01.166-.01.248 0 .04.005.079.014.117.027.117.035.23.083.335.144l6.826 3.888c.04.022.078.047.114.074.396.302.617.875.617 1.62 0 .101 0 .205-.02.366v.044a12.837 12.837 0 01-.463 2.861c-.057.238-.114.476-.168.728-.023.084-.04.171-.057.255-.06.255-.114.52-.158.805-.017.091-.03.188-.044.282l4.696-2.66 6.709 3.867v7.695c0 2.16-.164 3.602-.5 4.408-.235.557-.594.906-1.422 1.382a4.31 4.31 0 01-2.16.641c-.242 0-.47.044-.701.074l-.272.047a5.79 5.79 0 00-.758.201l-.134.05a7.364 7.364 0 00-.828.382h-.023l-.04.02c-.091.04-.195.091-.302.151a7.903 7.903 0 00-2.472 2.435 11.147 11.147 0 00-.882 1.57 12.33 12.33 0 00-.61 1.593l.369-.392c.349-.393.721-.765 1.114-1.114a6.815 6.815 0 011.057-.751c.537-.309.966-.557 1.285-.359l6.648 3.961.077.057a.34.34 0 01.05.057.07.07 0 01.027.034.387.387 0 01.05.07v.017a.653.653 0 01.054.101c.171.362.285 1.006.335 2.086v9.204L26.559 98.99a2.697 2.697 0 01-1.174.389 2.182 2.182 0 01-.396 0 .39.39 0 01-.127-.027 1.67 1.67 0 01-.446-.205z"/><path class="cls-2" d="M41.212 70.755l6.641 3.961c-.315-.201-.748.054-1.285.362a6.56 6.56 0 00-1.053.751c-.395.346-.769.717-1.117 1.11a13.14 13.14 0 01-2.626 2.328 5.61 5.61 0 01-.429.275c-2.432 1.405-4.411-.091-4.411-3.334a9.77 9.77 0 01.46-2.844c.124-.131.242-.262.362-.386.349-.393.721-.765 1.114-1.114a6.78 6.78 0 011.053-.751c.54-.309.976-.557 1.291-.359zM36.992 51.621l4.719-2.663 6.709 3.871-5.766 3.327-1.734.906h-.037l-.124.054-.064.023-.288.117-.161.057-.044.017c-.094.03-.184.064-.272.087l-.188.05a2.907 2.907 0 01-.278.06h-.03l-.124.02a3.129 3.129 0 01-.335.027h-.107a2.203 2.203 0 01-.389-.04l-.067-.017a1.939 1.939 0 01-.288-.104 2.163 2.163 0 01-.319-.201h-.017l-.057-.05a1.796 1.796 0 01-.235-.265l-.034-.04a3.02 3.02 0 01-.396-.909l-.017-.057a5.692 5.692 0 01-.104-.52v-.091a7.25 7.25 0 01-.067-.634c-.02-.288-.027-.54-.027-.792-.009-.747.038-1.494.141-2.234zM23.261 67.336l-6.709-3.867 5.793-3.378.05-.03h.02l.822-.476.929-.644.034-.023.037-.027c.05-.034.091-.07.134-.104l.05-.037.164-.121.154-.121a1.51 1.51 0 01.131-.111l.05-.04.047-.04c.087-.067.171-.141.252-.211l.127-.117.047-.05c.158-.144.315-.302.46-.46l.054-.05a8.87 8.87 0 00.171-.191.713.713 0 00.077-.097c.027-.027.047-.057.07-.084l.02-.023.023-.027.034-.044c.06-.074.124-.148.178-.225l.144-.205.034-.047v-.02a9 9 0 00.322-.51v-.034c.04-.07.081-.138.117-.211a.969.969 0 00.06-.104c.04-.094.087-.184.127-.275l.074-.171c.027-.054.05-.111.077-.171s.04-.097.057-.151.04-.101.057-.148c.044-.121.081-.235.121-.362.03-.097.064-.201.091-.305v-.044c.027-.107.057-.225.081-.335v-.034c.017-.094.037-.181.054-.275.023-.127.05-.275.067-.413v-.164a.115.115 0 000-.037v-.097c.02-.168.034-.335.044-.48v-.258c0-.242.007-.486.02-.735v-.758a.342.342 0 000-.064v-.091c0-.124-.017-.245-.027-.356v-.023l-.03-.302a9.745 9.745 0 00-.278-1.342c-.074-.272-.158-.517-.235-.745a7.608 7.608 0 01-.409-1.627c0-.111-.027-.225-.037-.335s0-.255-.02-.396v-.161a1.239 1.239 0 010-.211c0-1.546.939-3.354 2.103-4.025.115-.068.24-.12.369-.154.083-.023.169-.036.255-.04a.737.737 0 01.248 0c.04.005.079.014.117.027.117.035.23.083.335.144l6.802 3.891a1.064 1.064 0 00-.466-.141 1.47 1.47 0 00-.356.03 1.868 1.868 0 00-.553.221 3.095 3.095 0 00-.567.433 4.984 4.984 0 00-1.097 1.62c-.06.131-.107.265-.158.403a5.406 5.406 0 00-.158.587 4.423 4.423 0 00-.114.973v.342c.014.544.091 1.084.231 1.61.02.087.047.171.07.255l.161.503c.077.231.161.473.238.745.027.094.05.188.074.282.023.094.047.198.074.302.075.35.129.704.164 1.06v.017a1.761 1.761 0 000 .178v.399a.855.855 0 010 .124v.916c0 .124 0 .245-.017.369v.255c0 .158-.023.319-.044.48 0 .077-.02.151-.03.231v.064l-.07.419-.06.272v.034c0 .064-.027.127-.047.195s-.034.127-.05.184 0 .054-.017.08-.05.151-.07.228c-.037.121-.077.242-.121.359l-.114.299a4.306 4.306 0 01-.148.335l-.138.282c-.027.05-.054.107-.084.158l-.084.158-.02.034a1.118 1.118 0 01-.07.121l-.023.04a.458.458 0 01-.05.074 8.529 8.529 0 01-.174.275v.02l-.034.047a.901.901 0 01-.074.101 1.397 1.397 0 01-.07.101l-.064.084c-.035.05-.073.098-.114.144l-.034.044-.037.05-.077.091-.023.027c0 .02-.034.044-.054.064l-.087.097c-.023.03-.054.06-.084.094l-.05.05a6.09 6.09 0 01-.463.46l-.047.05-.131.117a4.074 4.074 0 01-.248.215l-.047.037-.023.023-.023.02-.131.107-.335.242-.05.04-.134.101-.074.05-.929.644-.822.476-.027.02-.054.027-5.732 3.307z"/></g><g id="Calque_3"><g clip-path="url(#clippath)"><path class="cls-7" d="M39.498 54.178l-7.114-4.173c-.278-.164-.366-.624-.366-1.617.001-.818.099-1.633.292-2.428a12.26 12.26 0 00-.543 1.519c.671-2.465 2.237-4.81 4.025-5.85 1.177-.671 2.284-.708 3.119-.077s1.295 1.835 1.295 3.411c0 .151 0 .299-.017.433v.184c0 .335-.04.671-.077 1.023-.003.056-.01.112-.02.168v.05c-.03.238-.06.47-.097.701-.027.138-.054.275-.077.409s-.054.272-.081.406c-.074.335-.158.701-.245 1.067a12.159 12.159 0 00-.46 3.15c-.003 1 .067 1.459.366 1.623zM23.199 64.315l-7.145-4.119.027-29.253a7.97 7.97 0 01.815-3.354l7.131 4.116a8.053 8.053 0 00-.835 3.405l.007 29.206z"/><path class="cls-6" d="M39.498 54.178l-7.114-4.173c-.278-.164-.366-.624-.366-1.617.001-.818.099-1.633.292-2.428.805-1.868 2.07-3.509 3.495-4.33 1.177-.671 2.284-.708 3.119-.077s1.281 1.835 1.281 3.411c0 .151 0 .299-.017.433v.184c0 .335-.04.671-.077 1.023-.003.056-.01.112-.02.168v.05c-.03.238-.06.47-.097.701-.027.138-.054.275-.077.409s-.054.272-.081.406c-.074.335-.158.701-.245 1.067a12.159 12.159 0 00-.46 3.15c-.003 1 .067 1.459.366 1.623zM23.199 64.315l-7.145-4.119.027-29.253a7.97 7.97 0 01.815-3.354l7.131 4.116a8.053 8.053 0 00-.835 3.405l.007 29.206z"/><path class="cls-5" d="M23.13 64.315V35.106a8.072 8.072 0 01.835-3.405l-7.131-4.116c.02-.044.037-.084.057-.124.029-.067.063-.132.101-.195.047-.091.094-.178.144-.265s.121-.211.188-.309l.037-.07a.298.298 0 01.03-.04c.057-.094.124-.191.191-.285l.06-.084c.034-.053.072-.104.114-.151.036-.051.075-.101.117-.148l.034-.044c.06-.077.124-.154.191-.225l.081-.084a.405.405 0 01.057-.06l.037-.044.07-.064.124-.121a.152.152 0 01.037-.03c.037-.034.07-.07.104-.097l.037-.03h.017l.091-.067c.034-.03.07-.054.104-.081l.101-.081c.04-.03.081-.058.124-.084.073-.056.15-.107.231-.151l21.88-12.599 7.138 4.122v6.427l.104-.107a9.715 9.715 0 011.976-1.761h.027c.069-.052.141-.1.215-.144a1.274 1.274 0 011.372-.05l7.114 4.109a.548.548 0 01.107.07l.06.047c.247.231.416.534.483.865a2.966 2.966 0 01.077.714 5.16 5.16 0 01-.614 2.331 4.143 4.143 0 01-1.486 1.677c-.086.05-.174.094-.265.134h-.017a4.405 4.405 0 01-1.945.506 6.044 6.044 0 00-2.982.916 8.015 8.015 0 00-1.124.775l-.04.03c-.164.138-.335.278-.463.419l-.02.023a7.099 7.099 0 00-.882 1.06c-.111.164-.218.335-.335.527l-.05.091v.027c-.087.154-.168.335-.245.483v.023a.942.942 0 00-.047.114 5.682 5.682 0 00-.215.533l-.034.087a8.992 8.992 0 00-.205.644l-.017.07c-.05.184-.097.376-.138.57 0 .054-.027.114-.037.171v.047c-.027.144-.05.285-.077.433 0 .084-.03.174-.04.262s-.04.272-.057.413v.067c0 .067-.017.138-.02.211 0 .141-.03.288-.04.433v.077c0 .054 0 .107-.017.161v.05l-.077 2.348v7.715l-2.013 1.171-1.902 1.097-1.841 1.063c-1.278.741-2.17 1.117-2.714 1.157a.897.897 0 01-.127 0 .664.664 0 01-.299-.074c-.285-.164-.369-.624-.369-1.623.014-1.066.169-2.125.46-3.15.087-.366.171-.721.245-1.067.027-.134.057-.268.081-.406s.05-.272.077-.409c.037-.231.067-.463.097-.701v-.05a14.663 14.663 0 00.097-1.191v-.195c0-.134.02-.282.017-.433 0-1.573-.456-2.784-1.291-3.415s-1.942-.607-3.119.077c-1.426.822-2.683 2.462-3.495 4.33-.166.369-.309.748-.429 1.134-.04.127-.081.258-.114.386s-.081.305-.117.46a.283.283 0 00-.02.081 6.492 6.492 0 00-.087.446 9.46 9.46 0 00-.124.963 1.977 1.977 0 000 .288v.335c0 .198 0 .406.023.567.033 1.075.238 2.137.607 3.146.203.541.342 1.104.413 1.677v.114a.41.41 0 000 .07c.017.248.03.493.03.748 0 1.654 0 2.566-3.512 4.595l-5.82 3.344z"/><path d="M52.13 20.471l7.114 4.109a1.343 1.343 0 00-1.379.111c-.06.034-.138.087-.215.141l-.023.023h-.017a9.656 9.656 0 00-1.976 1.761 12.41 12.41 0 01-2.982 2.522l-.141.077-.054.027-.04.02c-.107.057-.211.117-.309.164l-.188.081-.064.023-.037.02-.235.087c-.07.027-.142.05-.215.067h-.027l-.238.057c-.081.02-.154.023-.231.037h-.429c-.067 0-.131-.023-.195-.034a1.034 1.034 0 01-.188-.054.973.973 0 01-.171-.077h-.03a1.267 1.267 0 01-.144-.081.999.999 0 01-.127-.107l-.027-.02-.027-.027a1.535 1.535 0 01-.114-.104 1.885 1.885 0 01-.121-.158l-.02-.03a2.912 2.912 0 01-.201-.335l-.02-.044a1.355 1.355 0 01-.077-.158 4.88 4.88 0 01-.074-.195v-.087c-.02-.06-.044-.114-.064-.181s-.047-.181-.07-.275-.044-.161-.057-.245-.04-.201-.057-.309-.03-.174-.044-.262-.027-.225-.04-.335-.02-.184-.03-.278-.023-.245-.03-.376v-.325c0-.117 0-.242-.02-.369v-.05l-.023-1.342v-1.389c.03-.037.067-.07.097-.104a9.715 9.715 0 011.976-1.761h.017l.027-.02c.067-.052.138-.099.211-.141a1.286 1.286 0 011.328-.057z"/><path class="cls-9" d="M24.038 31.705L16.9 27.583c.02-.044.037-.081.06-.121.029-.067.063-.132.101-.195.047-.091.094-.178.144-.265s.121-.211.188-.309a4.724 4.724 0 01.258-.396l.06-.084c.034-.053.072-.104.114-.151.047-.067.097-.13.151-.191.06-.077.124-.154.191-.225l.081-.084a.405.405 0 01.057-.06l.107-.107.124-.121a.152.152 0 01.037-.03c.044-.046.091-.089.141-.127h.017l.091-.067a2.46 2.46 0 01.329-.245c.073-.056.15-.107.231-.151l21.877-12.602 7.138 4.122-9.617 5.551-12.29 7.101c-.094.054-.184.111-.275.171s-.168.121-.245.188a.88.88 0 00-.127.101c-.081.064-.161.141-.238.215s-.188.184-.278.278a6.71 6.71 0 00-.56.698 8.663 8.663 0 00-.728 1.227z"/></g><path class="cls-1" d="M41.297 12.091l7.138 4.119v8.6l2.945 1.701c.319.184.745-.064 1.275-.369a8.786 8.786 0 002.17-1.865c.437-.485.9-.946 1.385-1.382l3.049 1.758a.369.369 0 01.067.044.024.024 0 01.023 0 .34.34 0 01.074.057c.108.095.199.209.268.335a.426.426 0 01.06.111c.017.029.03.059.04.091.057.132.1.271.127.413a.375.375 0 010 .067c0 .084.027.178.037.272s0 .191 0 .292c.005.094.005.188 0 .282 0 .101-.017.198-.03.292s-.03.195-.047.292-.03.148-.05.221a1.484 1.484 0 01-.044.158c-.104.379-.25.744-.436 1.09a4.115 4.115 0 01-1.483 1.677c-.086.048-.174.09-.265.127h-.017a4.418 4.418 0 01-1.945.506c-.215 0-.433.034-.671.067l-.245.037a5.935 5.935 0 00-1.677.607c-.064.03-.124.06-.181.094l-.191.107a8.528 8.528 0 00-1.127.775l-.034.034a5.432 5.432 0 00-.463.416l-.027.027a7.599 7.599 0 00-.882 1.063 5.268 5.268 0 00-.335.527l-.067.114"/><path class="cls-1" d="M16.083 60.261l.027-29.256a8.05 8.05 0 01.815-3.354c.607-1.281 1.499-2.385 2.496-2.962L41.298 12.09"/><path class="cls-7" d="M16.083 60.261l.027-29.253a7.97 7.97 0 01.815-3.354l7.131 4.116a8.053 8.053 0 00-.835 3.405"/><path class="cls-6" d="M16.083 60.261l.027-29.253a7.97 7.97 0 01.815-3.354l7.131 4.116a8.053 8.053 0 00-.835 3.405"/><path class="cls-5" d="M41.291 12.121l7.138 4.122v6.427l.104-.107a9.715 9.715 0 011.976-1.761h.027c.069-.052.141-.1.215-.144a1.274 1.274 0 011.372-.05l7.114 4.109a.548.548 0 01.107.07l.06.047c.247.231.416.534.483.865a2.966 2.966 0 01.077.714 5.16 5.16 0 01-.614 2.331 4.143 4.143 0 01-1.486 1.677c-.086.05-.174.094-.265.134h-.017a4.405 4.405 0 01-1.945.506 6.044 6.044 0 00-2.982.916 8.015 8.015 0 00-1.124.775l-.04.03c-.164.138-.335.278-.463.419l-.02.023a7.099 7.099 0 00-.882 1.06c-.111.164-.218.335-.335.527M23.228 35.171a8.072 8.072 0 01.835-3.405l-7.131-4.116c.02-.044.037-.084.057-.124.029-.067.063-.132.101-.195.047-.091.094-.178.144-.265s.121-.211.188-.309l.037-.07a.298.298 0 01.03-.04c.057-.094.124-.191.191-.285l.06-.084c.034-.053.072-.104.114-.151.036-.051.075-.101.117-.148l.034-.044c.06-.077.124-.154.191-.225l.081-.084a.405.405 0 01.057-.06l.037-.044.07-.064.124-.121a.152.152 0 01.037-.03c.037-.034.07-.07.104-.097l.037-.03h.017l.091-.067c.034-.03.07-.054.104-.081l.101-.081c.04-.03.081-.058.124-.084.073-.056.15-.107.231-.151l21.88-12.599"/><path fill="#e4d8cb" d="M52.158 20.537l7.114 4.109a1.343 1.343 0 00-1.379.111c-.06.034-.138.087-.215.141l-.023.023h-.017a9.656 9.656 0 00-1.976 1.761 12.41 12.41 0 01-2.982 2.522l-.141.077-.054.027-.04.02c-.107.057-.211.117-.309.164l-.188.081-.064.023-.037.02-.235.087c-.07.027-.142.05-.215.067h-.027l-.238.057c-.081.02-.154.023-.231.037h-.429c-.067 0-.131-.023-.195-.034a1.034 1.034 0 01-.188-.054.973.973 0 01-.171-.077h-.03a1.267 1.267 0 01-.144-.081.999.999 0 01-.127-.107l-.027-.02-.027-.027a1.535 1.535 0 01-.114-.104 1.885 1.885 0 01-.121-.158l-.02-.03a2.912 2.912 0 01-.201-.335l-.02-.044a1.355 1.355 0 01-.077-.158 4.88 4.88 0 01-.074-.195v-.087c-.02-.06-.044-.114-.064-.181s-.047-.181-.07-.275-.044-.161-.057-.245-.04-.201-.057-.309-.03-.174-.044-.262-.027-.225-.04-.335-.02-.184-.03-.278-.023-.245-.03-.376v-.325c0-.117 0-.242-.02-.369v-.05l-.023-1.342v-1.389c.03-.037.067-.07.097-.104a9.715 9.715 0 011.976-1.761h.017l.027-.02c.067-.052.138-.099.211-.141a1.286 1.286 0 011.328-.057z"/><path class="cls-9" d="M41.287 12.118l7.138 4.122-9.617 5.551-12.29 7.101c-.094.054-.184.111-.275.171s-.168.121-.245.188a.88.88 0 00-.127.101c-.081.064-.161.141-.238.215s-.188.184-.278.278a6.71 6.71 0 00-.56.698 8.663 8.663 0 00-.728 1.227l-7.138-4.122c.02-.044.037-.081.06-.121.029-.067.063-.132.101-.195.047-.091.094-.178.144-.265s.121-.211.188-.309a4.724 4.724 0 01.258-.396l.06-.084c.034-.053.072-.104.114-.151.047-.067.097-.13.151-.191.06-.077.124-.154.191-.225l.081-.084a.405.405 0 01.057-.06l.107-.107.124-.121a.152.152 0 01.037-.03c.044-.046.091-.089.141-.127h.017l.091-.067a2.46 2.46 0 01.329-.245c.073-.056.15-.107.231-.151l21.877-12.602"/></g><g clip-path="url(#clippath-1)" id="Calque_5"><path class="cls-7" d="M48.816 67.377l-7.141-4.122.158-.218.017-.02.077-.111c.114-.168.221-.335.335-.513l.03-.054c.104-.184.205-.386.302-.597.02-.05.044-.101.064-.154v-.034c.05-.121.111-.265.168-.426.027-.07.05-.141.077-.218v-.044c.04-.121.081-.242.114-.366s.057-.198.084-.302.054-.225.084-.335.047-.221.067-.335.044-.211.06-.315v-.05c.02-.101.037-.208.054-.315s.017-.124.027-.184v-.067c.074-.537.117-1.1.154-1.711v-.067l.037-1.647V47.34l7.114 4.166v7.836l-.037 1.65v.064a20.59 20.59 0 01-.148 1.707v.07c0 .064-.017.124-.027.188s-.03.211-.05.312v.047c-.017.111-.037.211-.057.319s-.047.218-.074.335-.05.228-.077.335-.057.205-.084.302-.074.245-.117.362v.05c-.023.07-.05.148-.077.218-.054.154-.117.302-.168.426l-.017.03-.06.154c-.097.208-.198.409-.302.6l-.03.054c-.097.168-.205.335-.319.513a.743.743 0 01-.081.104v.023l-.158.171zM43.587 80.999l.02-6.467-.101.104c.295-.335.567-.607.862-.896l.05-.047.087-.084.06-.034a10.043 10.043 0 011.865-1.416l.074-.037h.017l.05-.03c.161-.091.335-.171.48-.248.044-.023.091-.04.134-.06l.047-.023c.107-.04.221-.091.335-.127.06-.027.117-.04.171-.06h.027c.097-.023.191-.05.278-.067s.134-.027.198-.034c.083-.007.166-.007.248 0 .063-.003.125-.003.188 0 .074.006.146.019.218.037h.03l.138.034c.07.025.137.056.201.094a1.67 1.67 0 01.423.308c.038.04.074.083.107.127l.023.034.02.023c.035.044.067.09.097.138.043.064.081.132.114.201.034.064.064.121.091.184s.067.161.101.248.044.127.064.195.057.188.084.288l.04.168v.027c.023.111.05.225.07.335v.138c.074.473.127 1.006.164 1.634v.027l.037 1.496v7.943l-7.114-4.153zM39.81 76.635l-7.02-4.065c-.466-.248-.738-.899-.738-1.761a5.37 5.37 0 01.926-2.861l.134-.188c-.034.054-.074.107-.107.158l7.138 4.122a5.321 5.321 0 00-.976 2.932c0 .808.248 1.385.644 1.664z"/><path class="cls-6" d="M48.816 67.377l-7.141-4.122.158-.218.017-.02.077-.111c.114-.168.221-.335.335-.513l.03-.054c.104-.184.205-.386.302-.597.02-.05.044-.101.064-.154v-.034c.05-.121.111-.265.168-.426.027-.07.05-.141.077-.218v-.044c.04-.121.081-.242.114-.366s.057-.198.084-.302.054-.225.084-.335.047-.221.067-.335.044-.211.06-.315v-.05c.02-.101.037-.208.054-.315s.017-.124.027-.184v-.067c.074-.537.117-1.1.154-1.711v-.067l.037-1.647V47.34l7.114 4.166v7.836l-.037 1.65v.064a20.59 20.59 0 01-.148 1.707v.07c0 .064-.017.124-.027.188s-.03.211-.05.312v.047c-.017.111-.037.211-.057.319s-.047.218-.074.335-.05.228-.077.335-.057.205-.084.302-.074.245-.117.362v.05c-.023.07-.05.148-.077.218-.054.154-.117.302-.168.426l-.017.03-.06.154c-.097.208-.198.409-.302.6l-.03.054c-.097.168-.205.335-.319.513a.743.743 0 01-.081.104v.023l-.158.171zM43.587 80.999l.02-6.467-.101.104c.295-.335.567-.607.862-.896l.05-.047.087-.084.06-.034a10.043 10.043 0 011.865-1.416l.074-.037h.017l.05-.03c.161-.091.335-.171.48-.248.044-.023.091-.04.134-.06l.047-.023c.107-.04.221-.091.335-.127.06-.027.117-.04.171-.06h.027c.097-.023.191-.05.278-.067s.134-.027.198-.034c.083-.007.166-.007.248 0 .063-.003.125-.003.188 0 .074.006.146.019.218.037h.03l.138.034c.07.025.137.056.201.094a1.67 1.67 0 01.423.308c.038.04.074.083.107.127l.023.034.02.023c.035.044.067.09.097.138.043.064.081.132.114.201.034.064.064.121.091.184s.067.161.101.248.044.127.064.195.057.188.084.288l.04.168v.027c.023.111.05.225.07.335v.138c.074.473.127 1.006.164 1.634v.027l.037 1.496v7.943l-7.114-4.153zM39.81 76.635l-7.02-4.065c-.466-.248-.738-.899-.738-1.761a5.37 5.37 0 01.926-2.861l.134-.188c-.034.054-.074.107-.107.158l7.138 4.122a5.321 5.321 0 00-.976 2.932c0 .808.248 1.385.644 1.664z"/><path class="cls-5" d="M39.87 76.659l-.047-.027c-.396-.278-.644-.855-.644-1.65a5.313 5.313 0 01.976-2.932l-7.138-4.122c.034-.05.074-.104.107-.158a5.42 5.42 0 01.426-.486c.049-.055.103-.105.161-.151.138-.128.29-.241.453-.335.06-.035.121-.066.184-.094l.081-.034h.02c.297-.158.611-.281.936-.366l.114-.027c.294-.06.592-.099.892-.117a6.039 6.039 0 002.982-.909l.235-.144c.07-.04.134-.084.201-.131s.104-.064.154-.097h.02l.248-.181.235-.184.044-.034.037-.034.027-.023.101-.087c.03-.027.067-.054.097-.084s.121-.107.181-.168l.084-.084.037-.04.148-.154c.06-.064.121-.131.178-.198l.023-.027.097-.114c.044-.06.097-.121.141-.184l7.145 4.126.127-.174v-.023a.743.743 0 00.081-.104c.114-.174.221-.335.319-.513l.03-.054c.104-.191.205-.392.302-.6l.06-.154.017-.03c.05-.124.114-.272.168-.426.027-.07.054-.148.077-.218v-.05c.044-.117.081-.238.117-.362s.054-.198.084-.302.054-.225.077-.335.05-.218.074-.335.04-.208.057-.319v-.047c.02-.101.034-.205.05-.312l.027-.188v-.07c.07-.533.117-1.097.148-1.707v-.064l.037-1.65v-7.859l-7.114-4.166 2.918-1.677 1.506-.869 1.342-.778.523-.295c.138-.067.262-.141.389-.201a7.11 7.11 0 011.402-.584l.148-.037a1.47 1.47 0 01.463-.034c.087 0 .134.077.201.117l7.198 4.092c.14.091.237.235.268.399 0 .057.03.124.044.195s.02.151.03.238v.795c0 .319 0 .607-.04.882v.205c0 .067 0 .131-.023.198s0 .127-.03.195-.017.127-.027.191l-.067.372c-.023.127-.054.245-.077.366a.042.042 0 000 .027 10.54 10.54 0 00.916-4.099c0-.198 0-.396-.02-.564a10.091 10.091 0 00-.61-3.15 7.033 7.033 0 01-.46-2.623c0-1.657 0-2.569 3.515-4.592l5.739-3.287 7.138 4.122v29.202c0 2.432-1.483 5.266-3.304 6.319L50.723 85.118v-7.936l-.037-1.496v-.027a17.699 17.699 0 00-.164-1.634v-.138c-.02-.121-.047-.235-.07-.335v-.027l-.04-.168c-.027-.101-.05-.195-.084-.288s-.04-.131-.064-.195-.064-.171-.101-.248-.057-.121-.091-.184a1.529 1.529 0 00-.114-.201 1.81 1.81 0 00-.097-.138l-.02-.023-.023-.034a1.306 1.306 0 00-.325-.311 1.256 1.256 0 00-.205-.124 1.149 1.149 0 00-.201-.094l-.138-.034h-.03a1.342 1.342 0 00-.218-.037 1.965 1.965 0 00-.188 0 1.467 1.467 0 00-.248 0c-.064 0-.127.02-.198.034s-.181.044-.278.067h-.027c-.054.02-.111.034-.171.06-.114.037-.228.087-.335.127l-.047.023c-.044.02-.091.037-.134.06a8.426 8.426 0 00-.48.248l-.05.03h-.017l-.074.037a9.99 9.99 0 00-1.885 1.446l-.044.04-.087.084-.05.047c-.295.288-.567.577-.862.896a9.807 9.807 0 01-1.972 1.761c-.087.06-.164.117-.238.158-.196.121-.416.2-.644.231a1.13 1.13 0 01-.426 0 1.122 1.122 0 01-.372-.134z"/><path fill="#e4d8cb" d="M50.725 51.505l-7.114-4.166 2.918-1.677 1.506-.869 1.342-.778.523-.295c.138-.067.262-.141.389-.201a7.11 7.11 0 011.402-.584l.148-.037a1.47 1.47 0 01.463-.034c.087 0 .134.077.201.117l7.111 4.096a.286.286 0 00-.08-.03.222.222 0 00-.111-.023 1.107 1.107 0 00-.335 0 1.547 1.547 0 00-.278.06c-.813.265-1.59.629-2.314 1.083l-1.342.778-1.509.872-2.918 1.687z"/><path fill="#e4d8cb" d="M59.929 59.465c-.671-.671-1.006-1.801-1.006-3.166a5.228 5.228 0 01.023-.587v-.023c0-.335.034-.647.07-1.006 0-.101.023-.198.037-.299.023-.208.054-.413.087-.604s.06-.356.094-.527c.02-.091.037-.178.054-.262.08-.372.164-.745.262-1.144.064-.252.121-.493.174-.735.573-1.283.883-2.667.909-4.072 0-.198 0-.392-.023-.56a10.062 10.062 0 00-.607-3.156 7.099 7.099 0 01-.46-2.62c0-1.654 0-2.566 3.515-4.595l5.739-3.284 7.138 4.122-5.763 3.327c-3.515 2.013-3.515 2.942-3.515 4.595a6.912 6.912 0 00.46 2.623c.367 1.012.572 2.077.607 3.153 0 .168.023.362.02.557 0 3.244-1.976 7.027-4.414 8.429-1.322.768-2.559.704-3.401-.168z"/><path fill="#d7c5b2" d="M40.142 72.053l-7.138-4.122c.034-.05.074-.104.107-.158a5.42 5.42 0 01.426-.486c.049-.055.103-.105.161-.151.138-.128.29-.241.453-.335.06-.035.121-.066.184-.094l.081-.03h.02c.297-.158.611-.281.936-.366l.114-.027c.294-.06.592-.099.892-.117a6.039 6.039 0 002.982-.909l.235-.144c.07-.04.134-.084.201-.131a1.37 1.37 0 00.151-.101h.02l.248-.181.238-.184.04-.034.037-.034.03-.023.097-.087c.03-.027.067-.054.097-.084s.121-.107.181-.168l.084-.084a.234.234 0 01.04-.037l.144-.158c.06-.064.121-.131.178-.198l.023-.027.097-.114c.044-.06.097-.121.141-.184l7.148 4.126-.03.034c-.047.067-.097.131-.148.198s-.064.07-.094.107l-.027.027a4.131 4.131 0 01-.335.352l-.067.067c-.017.02-.037.037-.05.057l-.184.168-.195.168-.027.027-.084.064a6.866 6.866 0 01-.48.369s-.02 0-.037.023a6.704 6.704 0 01-.584.372l-.208.107-.245.124a5.696 5.696 0 01-1.741.574l-.309.04h-.154l-.285.027a4.702 4.702 0 00-1.251.215 4.24 4.24 0 00-.691.292l-.084.034a1.593 1.593 0 00-.184.094 3.246 3.246 0 00-.759.627c-.063.063-.121.13-.174.201a1.5 1.5 0 00-.104.134c-.057.064-.094.101-.121.141z"/></g><g id="Calque_4"><path class="cls-7" d="M69.941 59.85l-7.155-4.132a.85.85 0 01-.097-.057c-.399-.302-.584-.929-.584-1.677a2.733 2.733 0 010-.362v-.044c.051-.968.207-1.927.466-2.861.114-.48.235-1.006.335-1.546l1.55-.896.06-.034.037-.02 1.221-.654.034-.017a9.149 9.149 0 011.187-.49h.047l.158-.05c.062-.02.126-.036.191-.047h.037c.074-.02.151-.04.228-.054l.201-.027h.413c.08.001.16.01.238.027h.03l.114.02c.093.025.183.056.272.094l.08.034a1.7 1.7 0 01.637.593c.073.105.136.218.188.335 0 .023.023.05.034.07v.023c.05.124.094.258.138.399l.027.107c.044.164.078.331.101.5l.017.077c.065.477.095.958.091 1.439a16.912 16.912 0 01-.604 4.32 13.625 13.625 0 00-.463 2.865v.04c0 .154-.017.265-.017.366 0 .748.218 1.322.614 1.623l.174.034zM58.708 51.602l-7.111-4.163v-7.695a19.938 19.938 0 01.215-3.374c.248-1.372.624-1.788 1.704-2.412a4.328 4.328 0 012.167-.641c.252-.02.49-.044.731-.081l.191-.034.335-.07c.138-.04.285-.081.439-.134.064-.018.127-.041.188-.067.246-.09.486-.195.718-.315l.03-.017a2.97 2.97 0 00.419-.208c1.322-.761 2.563-2.261 3.401-4.106.057-.121.104-.242.154-.359l-.178.178c.228-.225.449-.466.671-.714a13.387 13.387 0 012.623-2.321c.137-.103.282-.196.433-.278 2.432-1.409 4.414.091 4.414 3.331a10.687 10.687 0 01-1.006 4.33c-.842 1.848-2.083 3.354-3.405 4.109a3.608 3.608 0 01-.419.205.051.051 0 01-.03 0 6.505 6.505 0 01-.718.335l-.188.067c-.144.05-.291.092-.439.127-.117.03-.225.054-.335.074l-.195.034a9.84 9.84 0 01-.731.081 4.272 4.272 0 00-2.164.641c-1.08.621-1.459 1.036-1.704 2.408a19.928 19.928 0 00-.221 3.381v5.065l.01 2.623z"/><path class="cls-7" d="M59.362 29.628l-7.145-4.132c-.419-.255-.61-1.315-.61-3.978l-.03-7.648 7.138 4.122v7.688c0 2.683.225 3.706.651 3.945l-.003.003z"/><path fill="#6c9ebf" class="cls-3" d="M69.941 59.85l-7.155-4.132a.85.85 0 01-.097-.057c-.399-.302-.584-.929-.584-1.677a2.733 2.733 0 010-.362v-.044c.051-.968.207-1.927.466-2.861.114-.48.235-1.006.335-1.546l1.55-.896.06-.034.037-.02 1.221-.654.034-.017a9.149 9.149 0 011.187-.49h.047l.158-.05c.062-.02.126-.036.191-.047h.037c.074-.02.151-.04.228-.054l.201-.027h.413c.08.001.16.01.238.027h.03l.114.02c.093.025.183.056.272.094l.08.034a1.7 1.7 0 01.637.593c.073.105.136.218.188.335 0 .023.023.05.034.07v.023c.05.124.094.258.138.399l.027.107c.044.164.078.331.101.5l.017.077c.065.477.095.958.091 1.439a16.912 16.912 0 01-.604 4.32 13.625 13.625 0 00-.463 2.865v.04c0 .154-.017.265-.017.366 0 .748.218 1.322.614 1.623l.174.034zM58.708 51.602l-7.111-4.163v-7.695a19.938 19.938 0 01.215-3.374c.248-1.372.624-1.788 1.704-2.412a4.328 4.328 0 012.167-.641c.252-.02.49-.044.731-.081l.191-.034.335-.07c.138-.04.285-.081.439-.134.064-.018.127-.041.188-.067.246-.09.486-.195.718-.315l.03-.017a2.97 2.97 0 00.419-.208c1.322-.761 2.563-2.261 3.401-4.106.057-.121.104-.242.154-.359l-.178.178c.228-.225.449-.466.671-.714a13.387 13.387 0 012.623-2.321c.137-.103.282-.196.433-.278 2.432-1.409 4.414.091 4.414 3.331a10.687 10.687 0 01-1.006 4.33c-.842 1.848-2.083 3.354-3.405 4.109a3.608 3.608 0 01-.419.205.051.051 0 01-.03 0 6.505 6.505 0 01-.718.335l-.188.067c-.144.05-.291.092-.439.127-.117.03-.225.054-.335.074l-.195.034a9.84 9.84 0 01-.731.081 4.272 4.272 0 00-2.164.641c-1.08.621-1.459 1.036-1.704 2.408a19.928 19.928 0 00-.221 3.381v5.065l.01 2.623z"/><path fill="#6c9ebf" class="cls-3" d="M59.362 29.628l-7.145-4.132c-.419-.255-.61-1.315-.61-3.978l-.03-7.648 7.138 4.122v7.688c0 2.683.225 3.706.651 3.945l-.003.003z"/><path fill="#6c9ebf" d="M69.995 59.884l-.054-.03-.114-.074c-.396-.302-.614-.875-.614-1.623 0-.101 0-.211.017-.366v-.04a13.56 13.56 0 01.463-2.865c.387-1.408.59-2.86.604-4.32a9.759 9.759 0 00-.091-1.439l-.017-.077a3.85 3.85 0 00-.101-.5l-.027-.107a4.88 4.88 0 00-.138-.399v-.023c0-.02-.02-.047-.034-.07a1.998 1.998 0 00-.188-.335 1.707 1.707 0 00-.637-.593l-.08-.034a1.986 1.986 0 00-.272-.094l-.114-.02h-.03a1.356 1.356 0 00-.238-.027h-.413l-.201.027c-.077 0-.154.034-.228.054h-.037a1.366 1.366 0 00-.191.047l-.158.05h-.047a9.034 9.034 0 00-1.187.49l-.034.017-1.221.654-.037.02-.06.034-1.55.896-4.26 2.469V43.915c-.023-1.13.05-2.26.218-3.378.245-1.372.624-1.788 1.704-2.408a4.272 4.272 0 012.164-.641c.252 0 .493-.047.731-.081l.195-.034c.111-.02.218-.044.335-.074.149-.035.295-.078.439-.127l.188-.067c.246-.098.485-.21.718-.335.01.003.02.003.03 0 .144-.059.284-.127.419-.205 1.322-.768 2.563-2.261 3.405-4.109a10.687 10.687 0 001.006-4.33c0-3.24-1.982-4.74-4.414-3.331a3.579 3.579 0 00-.433.278 13.387 13.387 0 00-2.623 2.321c-.231.248-.453.49-.671.714a7.588 7.588 0 01-1.161.953l-.151.094-.174.104c-.201.114-.382.221-.553.299l-.164.067a.631.631 0 01-.154.044.414.414 0 01-.144.023.475.475 0 01-.255-.064c-.426-.238-.651-1.254-.651-3.945v-7.688l-7.138-4.122L73.503 1.184c.08-.044.154-.087.235-.124.071-.037.145-.068.221-.094l.221-.07a1.918 1.918 0 01.483-.08c.368-.016.732.081 1.043.278l7.044 4.062c.218.12.408.283.56.48.052.067.1.138.144.211.032.049.061.099.087.151.054.107.104.218.151.335.017.06.04.121.057.184.126.436.186.888.178 1.342v29.202l-5.766 3.327-.104.067-.07.04h-.017l-1.144.708c-.456.299-.894.625-1.312.976l-.03.023-.067.057-.299.268-.023.027c-.044.037-.087.081-.127.121s-.178.174-.262.265-.114.117-.164.178-.164.181-.242.275l-.158.198-.221.295-.121.178-.027.047-.03.047c-.057.084-.117.171-.171.262s-.074.131-.107.198l-.027.054a7.845 7.845 0 00-.295.587l-.02.05c-.04.084-.077.171-.111.255-.03.087-.064.174-.094.265l-.027.067-.101.309c-.034.111-.064.221-.094.335s-.057.228-.084.335-.047.225-.067.335-.044.245-.06.369v.02c0 .104-.034.208-.044.312s-.027.262-.04.409v.081c0 .077 0 .154-.017.231v.745a9.98 9.98 0 00.604 3.626 7.39 7.39 0 01.463 2.348v.037c0 .107.017.218.02.309 0 1.546-.946 3.354-2.106 4.025a1.776 1.776 0 01-.694.245.762.762 0 01-.151 0h-.023a.296.296 0 01-.094 0 .237.237 0 01-.084 0l-.067-.017-.08-.023a.182.182 0 01-.06-.023.206.206 0 01-.117-.02z"/><path d="M58.708 17.993l-7.138-4.122L73.5 1.184c.08-.044.154-.087.235-.124.071-.037.145-.068.221-.094l.221-.07a1.918 1.918 0 01.483-.08c.368-.016.732.081 1.043.278l6.963 4.025a.889.889 0 00-.191-.074 1.007 1.007 0 00-.232-.061h-.064a.514.514 0 00-.124 0h-.121a.076.076 0 00-.03 0 1.011 1.011 0 00-.174 0l-.134.02a1.367 1.367 0 00-.268.06l-.134.04-.262.104a4.877 4.877 0 00-.309.161L58.706 17.991z" style="isolation:isolate" fill="#fff" opacity=".3"/></g></svg>