<svg xmlns="http://www.w3.org/2000/svg" viewBox="0 0 100 100"><defs><style>.cls-1{fill:#e4d8cb}.cls-4{fill:#d7c5b2}</style></defs><!--Generator: Adobe Illustrator 28.7.1, SVG Export Plug-In . SVG Version: 1.2.0 Build 142)--><g id="Calque_1"><path class="cls-4" d="M56.574 92.503a7.027 7.027 0 11-6.997-7.056h.028a7.013 7.013 0 016.969 7.055z"/><path class="cls-1" d="M41.135 92.781c-4.622-2.711-4.578-7.071.087-9.71a18.513 18.513 0 0116.808.131c4.622 2.711 4.592 7.056-.073 9.71a18.63 18.63 0 01-16.823-.131z"/><path class="cls-4" d="M40.902 90.243c-4.767-2.799-4.738-7.289 0-10a19.067 19.067 0 0117.333.131c4.767 2.799 4.738 7.289-.073 10a19.155 19.155 0 01-17.26-.131z"/><path class="cls-1" d="M40.655 87.634c-4.913-2.916-4.869-7.508.087-10.321a19.722 19.722 0 0117.858.145c4.913 2.916 4.883 7.493-.073 10.307a19.753 19.753 0 01-17.873-.131z"/><path class="cls-4" d="M40.406 84.937c-5.074-2.916-5.03-7.727.073-10.627a20.325 20.325 0 0118.427.145c5.058 2.916 5.014 7.727-.087 10.627a20.41 20.41 0 01-18.412-.145h-.001z"/><path class="cls-1" d="M40.231 82.109c-5.161-3.033-5.131-7.886.087-10.846a20.776 20.776 0 0118.791.145c5.161 3.033 5.131 7.886-.087 10.846a20.73 20.73 0 01-18.791-.145z"/><path d="M50.247.501c-18.45-.129-33.516 14.715-33.66 33.165-.189 26.518 21.649 31.081 21.576 41.781a5.717 5.717 0 003.339 4.724 18.036 18.036 0 0016.299.131 5.741 5.741 0 003.411-4.68c.087-10.7 21.998-14.929 22.202-41.461.13-18.45-14.715-33.516-33.165-33.66h-.001z" opacity=".5" fill="#b5cede"/><path d="M43.527 78.741c-3.367-1.983-3.339-5.146 0-7.085a13.557 13.557 0 0112.26.102c3.367 1.983 3.339 5.146 0 7.071a13.514 13.514 0 01-12.26-.088z" style="isolation:isolate" opacity=".5" fill="#6c9ebf"/><path d="M54.154 74.455a1.151 1.151 0 01-1.137-1.122 81.121 81.121 0 012.492-19.068 40.427 40.427 0 011.706-5.292 15.668 15.668 0 01-2.916-1.458 19.586 19.586 0 01-4.374-3.761 19.282 19.282 0 01-4.461 3.688 15.163 15.163 0 01-2.916 1.458 39.824 39.824 0 011.662 5.277 81.936 81.936 0 012.202 19.112 1.136 1.136 0 01-2.274 0 80.157 80.157 0 00-2.128-18.515 37.29 37.29 0 00-1.662-5.306 7.068 7.068 0 01-6.297-1.895 3.632 3.632 0 01-.452-4.68 3.02 3.02 0 013.091-1.283c1.794.38 3.513 2.216 4.986 5.233a12.66 12.66 0 002.639-1.253 17.23 17.23 0 004.272-3.674 8.362 8.362 0 01-1.603-6.385 3.191 3.191 0 016.093 0 8.338 8.338 0 01-1.706 6.356 17.164 17.164 0 004.213 3.674c.817.535 1.698.966 2.624 1.283 1.458-2.916 3.266-4.796 5.058-5.146a3.065 3.065 0 013.077 1.327 3.63 3.63 0 01-.525 4.664 7.13 7.13 0 01-6.341 1.808 38.072 38.072 0 00-1.72 5.277 79.877 79.877 0 00-2.42 18.485 1.137 1.137 0 01-1.122 1.152l-.058.044h-.003zM36.047 43.754c-.189 0-.408 0-.656.408-.337.6-.21 1.352.306 1.808a4.557 4.557 0 003.616 1.239c-1.195-2.23-2.361-3.295-3.105-3.441l-.161-.014zm24.434 3.556a4.618 4.618 0 003.644-1.181c.205-.233.875-1.035.32-1.808-.306-.437-.583-.452-.802-.408-.758.205-1.939 1.239-3.164 3.397h.001zM50.043 35.649a.759.759 0 00-.875.598 5.465 5.465 0 00.845 3.717 5.418 5.418 0 00.889-3.703.746.746 0 00-.854-.614h-.006.001z" fill="#6c9ebf"/></g></svg>