<svg xmlns="http://www.w3.org/2000/svg" viewBox="0 0 100 88.122"><defs><style>.c1{opacity:.1}.c1,.c2,.c3{isolation:isolate}.c2{opacity:.2}.c4{fill:#d6dadc}.c3{fill:#fff;opacity:.3}</style></defs><!--Generator: Adobe Illustrator 28.7.1, SVG Export Plug-In . SVG Version: 1.2.0 Build 142)--><g id="Calque_1"><path class="c4" d="M99.931 59.21L50 88.036V57.688l49.931-28.826V59.21z"/><path class="c1" d="M99.931 59.21L50 88.036V57.688l49.931-28.826V59.21z"/><path class="c4" d="M.077 59.21L50 88.036V57.688L.069 28.862"/><path class="c2" d="M.077 59.21L50 88.036V57.688L.069 28.862"/><path class="c4" d="M.069 28.862L50 57.688l49.931-28.826L50 .036.069 28.862"/><path class="c4" d="M62.445 11.474c0-1.839-1.211-3.679-3.641-5.079-4.86-2.808-12.74-2.808-17.6 0-2.43 1.4-3.649 3.24-3.649 5.079v4.913c0 1.839 1.219 3.671 3.649 5.079 4.86 2.808 12.74 2.808 17.6 0 2.43-1.408 3.649-3.24 3.641-5.079v-4.913z"/><path class="c1" d="M58.804 6.387c2.43 1.4 3.649 3.24 3.641 5.079v4.913c0 1.839-1.211 3.671-3.641 5.079A18.021 18.021 0 0150 23.585V4.283a17.943 17.943 0 018.804 2.104z"/><path class="c2" d="M41.204 6.387c-2.43 1.4-3.649 3.24-3.649 5.079v4.913c0 1.839 1.219 3.671 3.649 5.079A18.013 18.013 0 0050 23.585V4.283a17.931 17.931 0 00-8.796 2.104z"/><path class="c4" d="M41.204 6.387c-4.86 2.801-4.86 7.35 0 10.159s12.74 2.808 17.6 0 4.86-7.358 0-10.159-12.74-2.808-17.6 0z"/><path class="c3" d="M41.204 6.387c-4.86 2.801-4.86 7.35 0 10.159s12.74 2.808 17.6 0 4.86-7.358 0-10.159-12.74-2.808-17.6 0z"/><path class="c4" d="M62.445 39.581c0-1.832-1.211-3.671-3.641-5.079-4.86-2.808-12.74-2.808-17.6 0-2.43 1.408-3.649 3.24-3.649 5.079v4.913c0 1.839 1.219 3.679 3.649 5.079 4.86 2.808 12.74 2.808 17.6 0 2.43-1.4 3.649-3.24 3.641-5.079v-4.913z"/><path class="c1" d="M58.804 34.502c2.43 1.408 3.649 3.24 3.641 5.079v4.913c0 1.839-1.211 3.679-3.641 5.079A17.848 17.848 0 0150 51.677v-19.28a18.022 18.022 0 018.804 2.104z"/><path class="c2" d="M41.204 34.502c-2.43 1.408-3.649 3.24-3.649 5.079v4.913c0 1.839 1.219 3.679 3.649 5.079A17.842 17.842 0 0050 51.677v-19.28a18.014 18.014 0 00-8.796 2.104z"/><path class="c4" d="M41.204 34.502c-4.86 2.808-4.86 7.358 0 10.166s12.74 2.801 17.6 0 4.86-7.358 0-10.166-12.74-2.808-17.6 0z"/><path class="c3" d="M41.204 34.502c-4.86 2.808-4.86 7.358 0 10.166s12.74 2.801 17.6 0 4.86-7.358 0-10.166-12.74-2.808-17.6 0z"/><path class="c4" d="M38.123 25.516c0-1.839-1.219-3.679-3.649-5.079-4.86-2.808-12.74-2.808-17.6 0-2.43 1.4-3.649 3.24-3.649 5.079v4.883c0 1.839 1.219 3.679 3.649 5.079 4.86 2.808 12.74 2.808 17.6 0 2.43-1.4 3.649-3.24 3.649-5.079v-4.883z"/><path class="c1" d="M34.459 20.437c2.43 1.4 3.649 3.24 3.649 5.079v4.913c0 1.839-1.219 3.679-3.649 5.079a17.94 17.94 0 01-8.804 2.104v-19.28a18.022 18.022 0 018.804 2.104z"/><path class="c2" d="M16.859 20.437c-2.43 1.4-3.649 3.24-3.649 5.079v4.883c0 1.839 1.219 3.679 3.649 5.079a17.931 17.931 0 008.796 2.104v-19.25a18.014 18.014 0 00-8.796 2.104z"/><path class="c4" d="M16.859 20.437c-4.86 2.808-4.86 7.358 0 10.159s12.74 2.808 17.6 0 4.86-7.35 0-10.159-12.74-2.808-17.6 0z"/><path class="c3" d="M16.859 20.437c-4.86 2.808-4.86 7.358 0 10.159s12.74 2.808 17.6 0 4.86-7.35 0-10.159-12.74-2.808-17.6 0z"/><path class="c4" d="M86.79 25.524c0-1.839-1.211-3.679-3.641-5.079-4.86-2.808-12.74-2.808-17.6 0-2.438 1.4-3.649 3.24-3.649 5.079v4.913c0 1.839 1.211 3.679 3.641 5.079 4.867 2.808 12.748 2.808 17.608 0 2.43-1.4 3.641-3.24 3.641-5.079v-4.913z"/><path class="c1" d="M83.149 20.444c2.43 1.4 3.641 3.24 3.641 5.079v4.913c0 1.839-1.211 3.679-3.641 5.079a17.94 17.94 0 01-8.804 2.104v-19.28a18.022 18.022 0 018.804 2.104z"/><path class="c2" d="M65.549 20.444c-2.438 1.4-3.649 3.24-3.649 5.079v4.913c0 1.839 1.211 3.679 3.641 5.079a17.964 17.964 0 008.804 2.104v-19.28a17.992 17.992 0 00-8.796 2.104z"/><path class="c4" d="M65.549 20.444c-4.867 2.808-4.867 7.358 0 10.166s12.748 2.801 17.608 0 4.86-7.358 0-10.166-12.748-2.808-17.608 0z"/><path class="c3" d="M65.549 20.444c-4.867 2.808-4.867 7.358 0 10.166s12.748 2.801 17.608 0 4.86-7.358 0-10.166-12.748-2.808-17.608 0z"/></g></svg>