<svg xmlns="http://www.w3.org/2000/svg" viewBox="0 0 1913 1407.5"><defs><style>.c11,.c13,.c16,.c18,.c20,.c22,.c25,.c27,.c9{fill-rule:evenodd}.c28,.c29{isolation:isolate}.c31,.c9{fill:#fff}.c28{opacity:.09}.c11{fill:#c5cfd6}.c13,.c36{fill:#b5cede}.c22,.c59{fill:#6c9ebf}.c27,.c69{fill:#dde3e9}.c25,.c70{fill:#e0eaf1}.c16,.c71{fill:#f2f2f2}.c18{fill:#e8beac}.c20{fill:#e4e4e4}</style></defs><path class="c22" d="M1884.8 365.7c-1.5-1.2-5.2-1.5-7-1.8-7.1-1.4-14.4-2-21.6-2-22.3 0-44.9 2.2-66.9 6-13.9 2.4-30.7 10.5-44.6 6.1-24.2-7.6-48.5-7.2-71.4 3.7-21 10-36.8 29-46.1 49.5-1.4 3.1-7.1 14.5-8.7 22.2-.7 1.5-1.4 3.2-1.9 4.7-1.6 4.5-3.2 9.2-4.6 13.8-.6 2-2.1 6.4-.3 7.2-2.9 5.3-5.4 10.7-7.5 16.4-6.2 16.4-12.8 34.4-15.1 51.7-.8 6.5-.9 12.8 0 19.3.4 3.2.2 9.6 2.3 12 4.5 5.1 7-2 6.4-5.5-4-26.1 3.7-50.6 12.7-75.2 5.8-15.8 15.5-30.3 26.2-43.6 8.7-10.6 18.1-19 30-26.1 14.6-8.6 30.1-15.6 45.6-22.6 10.1-4.6 20.3-9.1 30.7-13 2.3-.9 6-3.2 8.5-3.2 5.4 0 13.1 4 18.5 5.5 17.3 4.9 34.8 11.2 52.7 13.7 11.5 1.6 22.2-.2 32.9-4.1 1.1-.4 2.9-1.4 5.2-2.8 7.9-3.1 15.5-7 22-12.5 3.8-3.2 7.2-7.3 10.3-11.1 1-1.2 1.4-2.4 1.4-3.7.7-.4 1.2-.8 1.3-1.4.8-3.8-6.4-3.8-10.9-3.6v.2l-.1.2z"/><path class="c13" d="M40.7 626.6c-4.3 3.6-8.7 7.2-12.9 10.9-3.2 2.9-8.8 6.3-10 10.6-1.2 4.5 2.6 8.8 5.5 11.5 15.7 14.5 33.3 24.3 55.2 25.8 33.5 2.5 62.6-6.1 91.7-22.9 20.4-11.8 33.9-29.3 36.9-52.9 24.3 10.1 47.8 24.1 67.8 41.2 9.9 8.4 18.4 17.8 26.2 28.1 5 6.7 9.9 13.3 14.4 20.4 1.9 3 4 8.4 7.2 10.1 3.8 2 8.4-1.2 8.2-5.4-.2-3.5-4-7.6-5.7-10.5-3-4.7-6-9.6-9.1-14.2-5.1-7.5-10.3-15-16.1-22-12.9-15.8-29.4-28.9-46.5-40-32.8-21.4-68.7-34.9-108.5-36-24.4-.7-45.1 7.6-66.1 20.2-13 7.8-26.5 15.5-38.4 25v.2l.2-.1z"/><path class="c25" d="M310.7 566.8c-9-35.5-18.3-70.8-31.5-105-7.8-20.2-16.9-39.8-25.6-59.6.9 2.5 1.7 5.1 2.4 7.6-2.9-5.9-7.9-11.2-11.3-17.1-3.7-6.4-6.9-13.3-9.9-20-5.9-13.2-11.6-26.5-18-39.5-7.2-14.5-15-28.7-22.6-42.9-6.4-12.1-12.5-25-20.3-36.4-4.2-6.2-8.2-12.9-12.3-19.3-1.4-2.2-14.2-26.2-14-26.2 1.6-.2 8.9 10.3 10.1 11.8 3.5 4.4 6.5 9.2 9.6 13.9.3-6.1 1.3-12.2 3.2-18 .6-1.8 4.8-15 6.6-15.2 1-.1-4.8 24.6-5.6 26.8-.7 1.8-2.1 4.2-2.4 6-.6 3-.2 2.2.9 4.8 2 4.6 5.7 8.9 8.2 13.2 1.3 2.3 5.1 10.5 8.2 13.9 8.3 12.3 15 27.6 21.9 41 .2-7 1.3-13.9 3.2-20.8.4-1.7 3.6-16.5 5-16.8 1.6-.2-1.7 23.5-2.3 25.7-1.1 3.8-3.1 7.7-3.9 11.7-.9 4.3 2.1 7.7 4.2 11.8 7.8 14.8 14.8 29.8 21.5 45.1 25.6-15.3 26.6-50.8 25.1-76.7-1.1-18.7-6.2-37.2-13-54.6-9-23.2-22-45.2-35.5-66.1-15.7-24.4-35.8-45.5-59.1-63.2-12.1-9.3-25.7-17-39.3-24-6.6-3.5-13.4-6.2-20.8-7.6-3.3-.7-6.8-1-10.1-1.1-2.6-.2-8.1-1.9-10.1-1-16.5 6.9-28.5 16.4-36.7 32.4-7.8 15-11.5 32.5-12.8 49.2-1.3 18.6 0 37 5.4 54.9 4.1 13.6 10 26.8 15.8 39.8 20.7 46.3 52.9 94.8 102.3 115.5 16 6.7 33.2 9.6 50.4 10.1 4.1.1 8.1.2 12.3 0 2.8-.2 11.5-3.1 13.6-2.2 3 1.3 5.6 10.2 7.2 13.4 12.1 24.1 23.3 48.6 33.9 73.5 11.2 26.5 20.8 53.4 29.4 80.6 3.7 11.6 7.3 23.2 10.6 34.9.7 2.8 1.4 11.5 4.4 13.7 1.9 1.3 4.2.4 5.1-1.7 1.4-3.6-2.6-12.3-3.6-16l.2-.3zM1857.9 471c-9.9-2.1-20.8-2-30.8-1.8-54 .8-107.1 26.3-141.5 67.2-29.4 34.8-37.5 78.1-43.3 121.7-.6 4.3-.9 8.7-1.2 13 0 1-.2 1.7-.3 2.5-2.3 2-3.5 4.4-2.1 7.1-5 11-9.3 22.3-12.9 33.9-10.7 34.3-21.6 69.2-15 105.2 1.5-19.8 4.9-40.1 8.9-59.6.2-1.2.5-2.2.8-3.4v-.4c1.4-6 3.2-11.8 5.4-17.5v-.2c.3-.8.6-1.4 1-2.2.7-1.5 1.3-3.1 1.9-4.6.2-.5.5-1.1.7-1.5 3.2-7.9 4.5-16.8 7.4-25 .7-1.8 1.4-3.7 2.1-5.5v-.3c2-4.9 4.3-9.9 6.7-14.7 1.3-1 2-3.4 3.1-5.6.2-.4 2-3.3 2.6-5 1.4-2.7 2.8-5.4 4.3-8.1 1.4-2.6 2.8-5.2 4.3-7.8.3-.6.7-1.2 1-1.7l1.5-2.7c4.7-8.5 9.8-16.7 15-24.9 1.8-2.9 6.3-7.2 7.2-10.4v-.4c11.3-15.8 24.3-30.5 39.9-42.1-1.9 2-5.9 9-7 10.3-3.3 4.2-6.8 8.1-10.3 12.1-6.4 7.1-12.6 14.4-18 22.1-10 14.1-18.7 29-26.9 44.2 0 0-.2.2-.2.3-4.2 5.1-6.7 12.8-9.7 18.6 11.7-5.4 24.7-9 36.7-13.8s23.7-10.1 35-16.4c15-8.4 30.5-17.8 44.6-28.5 16.2-10 29.9-24 41.9-38.5 14.2-17.2 27.2-34.6 35.4-55.5 4-10.2 7.1-21 8.9-31.8 0-.5.2-1 .3-1.5 1.9-3.8 3.6-7.5 5-11.5 2.2-6.2 7.5-13-2.4-15.2v.2-.3z"/><path class="c22" d="M150.1 493.9c-3.1-3.4-6.6-6.4-10.6-8.5-1.1-.6-8.7-4.2-9.2-3.4-1.2 1.8 18.9 10.8 19.9 12l-.1-.1zm36.5-22.4s2.6 4.6 3.4 6.1c1.5 3 3 6 4.3 9-2-5.3-4.1-10.2-7.7-15.1zM0 508.3c1.2-5.1 1.4-6.2 1.4-6.2.4-1.4 1.1-2.7 2.4-5.8 1.8-4 3.9-7.6 6.5-11.2 5.5-7.5 12.1-14 19.6-19.4 13-9.6 27.6-18.3 43.1-22.6 24.6-7 52.7-7.3 77.3-2.6 15.3 3 29.3 8.2 39.4 20.5 5 6.2 9.1 13.3 10.8 21.3.5 2 .4 4.3 1 6.4.9 3.1.5 2.3 4.2 2.9 4 .7 7.9 1.4 12 2 10.4 1.8 20.9 3.7 31 6.7 3.4 1 6.6 2.1 9.8 3.5 2.4 1.1 12 4.3 13.2 7.4 1.9 5.2-4.5 2.9-6.6 1.7-1.7-1-3.6-1.9-5.4-2.8-4.6-2.1-9.5-3.9-14.5-5.1-5.3-1.4-10.8-2.5-16.2-3.6-5.1-1-10.1-1.9-15.3-2.8 0 0-.4 0-8.5-1.4-8.5-.5-15.7-.8-21.1-1.1-12-.5-16.8-.7-22.4-.5-5.4.2-10.8.5-16.1 1.3-3.1.4-6.2 1.1-9.3 1.8-1.6.4-8.3 1.4-9.3 2.8.4-.7 7.7 0 8.7 0 3.8 0 7.4-.5 11.2-1 7-.8 13.8-1.2 20.8-1.2 0 1.3-4.7 3.4-5.9 4.2-2.6 1.8-5.1 3.8-7.4 6-4.1 3.8-9 8.5-11.8 13 .9-1.4 4.9-3.1 6.4-4.1 2.3-1.6 4.6-3.4 6.8-5.2 2-1.7 3.9-3.6 5.7-5.5s4.3-5.8 6.8-7.1c.2 0 1.2.8 1.8.5s1.4-1.7 1.5-1.7c2.2-.9 6.5.2 8.9.3 6.1.3 12.2.7 18.4 1 1.9 0 3.5-.3 4.3 1.1s-.7 5.4-1.1 7.1c-1.4 6-4.1 11.4-8.2 16-7.7 8.7-17.2 14.6-27.9 18.5-41.2 14.9-84.8 20.9-126 5.4-17-6.4-42.6-17.9-39.6-40.5H0z"/><rect class="c71" x="251.5" width="460.9" height="875.4" rx="7.7" ry="7.7"/><path class="c9" d="M442.8 58c3.2 0 5.8-2.6 5.8-5.8s-2.6-5.8-5.8-5.8-5.8 2.6-5.8 5.8 2.6 5.8 5.8 5.8z"/><rect class="c31" x="463.1" y="46.4" width="60.9" height="11.6" rx="1.9" ry="1.9"/><rect class="c31" x="292.1" y="81.2" width="379.7" height="156.5" rx="3.9" ry="3.9"/><rect class="c69" x="405.1" y="128.1" width="211.6" height="23.5" rx="2.9" ry="2.9"/><rect class="c69" x="405.1" y="167.2" width="142" height="23.5" rx="2.9" ry="2.9"/><path class="c11" d="M353 194.2c19.2 0 34.8-15.6 34.8-34.8s-15.6-34.8-34.8-34.8-34.8 15.6-34.8 34.8 15.6 34.8 34.8 34.8z"/><rect class="c31" x="292.1" y="260.9" width="379.7" height="121.7" rx="3.9" ry="3.9"/><rect class="c69" x="405.1" y="297.4" width="211.6" height="18.3" rx="2.9" ry="2.9"/><rect class="c69" x="405.1" y="327.8" width="142" height="18.3" rx="2.9" ry="2.9"/><path class="c11" d="M353 356.5c19.2 0 34.8-15.6 34.8-34.8s-15.6-34.8-34.8-34.8-34.8 15.6-34.8 34.8 15.6 34.8 34.8 34.8z"/><g><rect class="c31" x="292.1" y="405.8" width="379.7" height="121.7" rx="3.9" ry="3.9"/><rect class="c69" x="405.1" y="442.3" width="211.6" height="18.3" rx="2.9" ry="2.9"/><rect class="c69" x="405.1" y="472.8" width="142" height="18.3" rx="2.9" ry="2.9"/><path d="M353 501.5c19.2 0 34.8-15.6 34.8-34.8s-15.6-34.8-34.8-34.8-34.8 15.6-34.8 34.8 15.6 34.8 34.8 34.8z" fill-opacity="0" fill="#afb9c5" fill-rule="evenodd"/></g><g><rect class="c31" x="292.1" y="550.7" width="379.7" height="121.7" rx="3.9" ry="3.9"/><rect class="c69" x="405.1" y="587.3" width="211.6" height="18.3" rx="2.9" ry="2.9"/><rect class="c69" x="405.1" y="617.7" width="142" height="18.3" rx="2.9" ry="2.9"/><path class="c11" d="M353 646.4c19.2 0 34.8-15.6 34.8-34.8s-15.6-34.8-34.8-34.8-34.8 15.6-34.8 34.8 15.6 34.8 34.8 34.8z"/></g><g><path class="c22" d="M338.8 707.3c-3.9 0-7.6 0-11.5.3-2.9.2-7.3-.5-9.9 1.4s-2.4 5.8-2 8.5c2.1 14.5 7.3 27.3 18.2 37.6 16.7 15.7 35.8 23.8 58.5 27.3 15.9 2.5 30.5-1 42.3-12.3 8.6 15.8 15.1 33.4 18.3 51.2 1.6 8.8 2.1 17.4 1.8 26.3-.2 5.7-.5 11.4-1.1 17.1-.3 2.5-1.5 6.2-.6 8.5 1.2 2.7 4.9 3 6.7.7 1.4-1.9 1.2-5.8 1.4-8 .5-3.9 1-7.6 1.3-11.5.5-6.2.9-12.5.9-18.6 0-14-3.2-28.1-7.4-41.4-8.2-25.5-21.5-48.2-42-66-12.7-10.9-27.2-15.4-43.7-17.8-10.2-1.4-20.7-3.2-31-3.2l-.2-.1z"/><path class="c22" d="M398.1 808.7c-41.5 0-69.4 33.4-82.5 68.1-4.9 13.1-6.2 27.4-8 41.2-.6 4.4-.4 11.1-2.2 15.1-.7 1.4-2.1 1.9-1.4 3.9.4 1.2 1.3 1.9 2.5 2.1 2.6.5 6.3-2.3 8.5-3.5 18.6-9.3 30.7-23.7 40.7-41.3 6.2-10.9 12.4-22.2 16-34.2 2.2-7.3 3.6-15 4.3-22.6.3-3 .6-6 .6-9.1s-1.4-4.5-2.4-7.2c13.8-5.2 29.5-6.7 43.5-1.3 12.9 5 23.7 14.7 29.8 26.9 1.5 3.2 2.8 6.5 3.7 10 .6 2.2.6 5.1 1.6 7.2 2.6 4.9 8 1.6 7.5-2.9-1.4-12.8-8.7-25.4-18-34.3-11.7-11.1-27.6-18.2-44.1-18.2l-.1.1z"/></g><rect class="c69" x="442.8" y="75.4" width="460.9" height="875.4" rx="7.7" ry="7.7"/><path class="c9" d="M671.8 895.7c24.1 0 43.5-19.5 43.5-43.5s-19.4-43.5-43.5-43.5-43.5 19.5-43.5 43.5 19.4 43.5 43.5 43.5z"/><g><path class="c9" d="M638 133.3c3.2 0 5.8-2.6 5.8-5.8s-2.6-5.8-5.8-5.8-5.8 2.6-5.8 5.8 2.6 5.8 5.8 5.8z"/><rect class="c31" x="655.1" y="121.7" width="60.9" height="11.6" rx="1.9" ry="1.9"/></g><g><rect class="c31" x="483.4" y="156.5" width="379.7" height="156.5" rx="3.9" ry="3.9"/><rect class="c69" x="509.5" y="203.5" width="211.6" height="23.5" rx="2.9" ry="2.9"/><rect class="c69" x="509.5" y="242.6" width="142" height="23.5" rx="2.9" ry="2.9"/><path class="c27" d="M855.1 274.9c11.2 0 20.3-9.1 20.3-20.3s-9.1-20.3-20.3-20.3-20.3 9.1-20.3 20.3 9.1 20.3 20.3 20.3z"/><path class="c16" d="M855.1 263.3c4.8 0 8.7-3.9 8.7-8.7s-3.9-8.7-8.7-8.7-8.7 3.9-8.7 8.7 3.9 8.7 8.7 8.7z"/><g><rect class="c31" x="483.4" y="336.2" width="379.7" height="121.7" rx="3.9" ry="3.9"/><rect class="c69" x="596.4" y="372.8" width="211.6" height="18.3" rx="2.9" ry="2.9"/><rect class="c69" x="596.4" y="403.2" width="142" height="18.3" rx="2.9" ry="2.9"/><path class="c11" d="M544.3 431.9c19.2 0 34.8-15.6 34.8-34.8s-15.6-34.8-34.8-34.8-34.8 15.6-34.8 34.8 15.6 34.8 34.8 34.8z"/></g><g><rect class="c31" x="483.4" y="481.2" width="379.7" height="121.7" rx="3.9" ry="3.9"/><rect class="c69" x="509.5" y="517.7" width="211.6" height="18.3" rx="2.9" ry="2.9"/><rect x="509.5" y="548.1" width="142" height="18.3" rx="2.9" ry="2.9" fill="#afb9c5"/><path class="c27" d="M855.1 582.1c11.2 0 20.3-9.1 20.3-20.3s-9.1-20.3-20.3-20.3-20.3 9.1-20.3 20.3 9.1 20.3 20.3 20.3z"/><path class="c16" d="M855.1 570.5c4.8 0 8.7-3.9 8.7-8.7s-3.9-8.7-8.7-8.7-8.7 3.9-8.7 8.7 3.9 8.7 8.7 8.7z"/><g><rect class="c31" x="483.4" y="626.1" width="379.7" height="121.7" rx="3.9" ry="3.9"/><rect class="c69" x="596.4" y="662.6" width="211.6" height="18.3" rx="2.9" ry="2.9"/><rect class="c69" x="596.4" y="693.1" width="142" height="18.3" rx="2.9" ry="2.9"/><path class="c11" d="M544.3 721.7c19.2 0 34.8-15.6 34.8-34.8s-15.6-34.8-34.8-34.8-34.8 15.6-34.8 34.8 15.6 34.8 34.8 34.8z"/></g><g><rect class="c71" x="666.7" y="167.6" width="971" height="1002.9" rx="7.7" ry="7.7"/><rect class="c31" x="1388.4" y="292.3" width="202.9" height="234.8" rx="7.7" ry="7.7"/><path d="M666.7 175.3c0-4.3 3.4-7.6 7.6-7.6h955.8c4.3 0 7.6 3.4 7.6 7.6v70.6h-971v-70.6z" fill="#c5cfd6"/><path class="c16" d="M704.4 219.8c6.4 0 11.6-5.2 11.6-11.6s-5.2-11.6-11.6-11.6-11.6 5.2-11.6 11.6 5.2 11.6 11.6 11.6zM739.1 219.8c6.4 0 11.6-5.2 11.6-11.6s-5.2-11.6-11.6-11.6-11.6 5.2-11.6 11.6 5.2 11.6 11.6 11.6zM773.9 219.8c6.4 0 11.6-5.2 11.6-11.6s-5.2-11.6-11.6-11.6-11.6 5.2-11.6 11.6 5.2 11.6 11.6 11.6z"/><rect class="c31" x="1388.4" y="550.2" width="202.9" height="562.3" rx="7.7" ry="7.7"/><rect x="1440.6" y="602.4" width="98.6" height="75.4" rx="3.9" ry="3.9" fill="#184a6b"/><rect x="1440.6" y="701" width="98.6" height="72.5" rx="3.9" ry="3.9" fill="#246e9f"/><rect class="c59" x="1440.6" y="796.6" width="98.6" height="72.5" rx="3.9" ry="3.9"/><rect class="c70" x="1440.6" y="987.9" width="98.6" height="72.5" rx="3.9" ry="3.9"/><rect class="c36" x="1440.6" y="892.3" width="98.6" height="72.5" rx="3.9" ry="3.9"/><rect class="c31" x="713.1" y="295.2" width="652.2" height="136.2" rx="3.9" ry="3.9"/><rect class="c31" x="713.1" y="454.6" width="652.2" height="113" rx="3.9" ry="3.9"/><rect class="c31" x="713.1" y="590.8" width="652.2" height="113" rx="3.9" ry="3.9"/><rect class="c31" x="713.1" y="999.5" width="652.2" height="113" rx="3.9" ry="3.9"/><rect class="c31" x="713.1" y="863.3" width="652.2" height="113" rx="3.9" ry="3.9"/><rect class="c31" x="713.1" y="727.1" width="652.2" height="113" rx="3.9" ry="3.9"/><path class="c13" d="M1907.3 661.5c-11.4-7.7-26.7-9.8-40.3-9.8-53.4 0-103.7 19.8-147.1 49.4-23.8 16.2-45 36.8-63.9 58.3-10.8 12.4-20.5 25.8-27.3 40.7-4.6 10-7.8 20.6-10 31.3-2.6 13.1-4.7 26.7-5.6 40-.4 5.3-3.5 33.2 5.3 33.7v1.9c-19 29.8-30.8 64.6-41.7 97.8-9.5 28.8-18 57.8-23.5 87.6-7.2 39.2-12 79-14.2 118.8-.5 8.5-.8 17.1-1.1 25.7-.2 7.3-.5 14.6-.8 21.9-.3 8.2-1.7 17.6-.4 25.7 1.2 7.1 7.2 6 7.5-1.1.3-8.5.3-17 .7-25.6l1.5-33.9c3.9-78.6 18.3-155.8 44.9-230.1 10.8-30 23.2-58.5 39-86.2 14-24.4 30.8-48 47.9-70 16.7-21.4 34.1-42.3 54.5-60.4 16.6-14.7 34.9-27.5 53.6-39.4 23.9-15.2 47.6-30 73.5-41.5 13.4-6.1 27.1-11.5 40.7-17.3 2.4-1.1 5-2 7.3-3.3 7.8-4.1 5.2-10.1-1-14.3l.5.1z"/><g><path class="c25" d="M68.7 705c54.1 90.8 117.1 178.6 155 277.9-1.5-11.7-3.2-23.4-4.9-35.1-9.6-61.8-21.5-123.3-34.1-184.6-6.4-31.2-13.1-62.3-20.1-93.4-3.8-16.7-7.4-33.4-11.2-50.1-1-4.1-1.7-11.1-2.9-18.3 36.8 120.7 72.3 241.5 98.2 365 3.4 16.2 6.3 32.4 8.7 48.6.8-3.7 1.6-7.3 2.5-11 10.5-44.1 26.3-87.8 45-129 9-19.7 19.2-38.9 31.4-56.9 7.5-11.2 25.4-24.5 32.3-35.9-37.7 69.2-51.3 155.8-73.1 230.9-5.3 18.4-10.6 36.6-15.9 55 32.9-65.9 83.8-120 154.6-143.4-85.7 56.6-137.2 155.8-171.8 257.3 0 1.2-.3 2.4-.4 3.6 10.2-19.3 23-36.9 40.5-49.1 37.3-26.3 78.6-18.6 114.8 3.9-28.4-18.1-79.6-1.6-103.5 16.7-17.1 13.1-31.7 30.7-44.3 47.9-3 4.2-7.1 8.9-11.6 14-6.2 39.9-16.1 79.4-30.3 118.7 2.3-11.3.7-29.3 1.3-37.7 0-.9 0-1.8.2-2.7-2.1 8.6-4.3 17.1-6.3 25.4 4-15.9 6.2-32.7 7.8-49.5.5-7.2.9-14.5 1.4-21.7 0-13.7-.7-27.5-1.6-41.4-3.4-13.4-7.1-26.1-10.3-36.6-11.3-38-27.8-74.3-48.2-108.3-18.6-31-40.9-59-66.6-84.3-13.8-13.7-28.4-26.7-42.6-39.9-5.2-4.7-14.4-16.5-22.4-22.6 58.2 32.1 118.1 66.8 160.6 118.6-5-19.1-10.3-38-16.1-56.4-29-93.7-65.7-190.8-115.7-275.5l-.4-.1z"/><path class="c11" d="M130.4 1218.8c0 104.1 8.2 188.4 118.8 188.4S368 1322.9 368 1218.8"/></g><g><path class="c11" d="M1626.1 1353.2s0-.2 0 0zM1625.9 1352.7v.3-.2c.6 1.5.2.5 0-.2v.1z"/><path class="c11" d="M1626 1353.1v.2c.2.3 0-.2 0-.2zM1626.1 1353.3s-.2-.3 0 0z"/><rect x="1420.3" y="1093.8" width="411.6" height="272.5" rx="11.6" ry="11.6" fill="#edf7ff"/><path class="c13" d="M1679.1 1172l119 194.2h-238l119-194.2z"/><path class="c25" d="M1556.3 1224l105.2 142.2h-210.4l105.2-142.2z"/><path class="c9" d="M1511.6 1209.1c-21.6 0-39.1-17.5-39.1-39.1s17.5-39.1 39.1-39.1 39.1 17.5 39.1 39.1-17.5 39.1-39.1 39.1z"/></g><path class="c13" d="M1684.3 955.8c21.6 0 41 2.8 61 11.4 17.2 7.4 32.9 17.3 48.2 28 21.4 15.1 38.4 32.6 50.1 55.8 7.1 13.9 12.3 33.5 7.5 48.7-5.6 17.9-21 32.8-41.2 29.6-12.5-1.9-24-10.2-33.4-18-11.4-9.4-20.5-20.5-27.9-32.9-12.3-20.3-19.4-43.3-29.9-64.4-4.9-10-9.8-20.2-15.7-29.8-2.9-4.7-6.1-9.5-10.5-12.9-2.4-1.8-12.4-5.1-8.6-9.4-56.2.8-106 43.9-116.8 97.3-1 5-1.7 10-2.6 15-.6 3.2-.3 14.9-3.1 16.8-6.3 4.4-3.7-9.1-3.4-11 .7-5 1.4-10 2.2-15.1 4.3-27.3 16.4-52.8 36.7-72.3 23.2-22.3 54.5-36.8 87.3-36.8h.1z"/><g><rect class="c70" x="1760.5" y="1324.9" width="64.5" height="35" rx="8" ry="8"/><g class="c29"><path class="c36" d="M1782.629 1350.004l-.926-2.435h-7.887l-.927 2.487c-.361.971-.67 1.625-.926 1.965s-.675.51-1.257.51c-.494 0-.932-.182-1.311-.543s-.569-.771-.569-1.23c0-.265.045-.538.133-.82s.233-.675.437-1.178l4.962-12.598.51-1.303c.198-.508.41-.929.635-1.264.226-.335.521-.606.887-.814.366-.207.818-.311 1.356-.311.547 0 1.004.104 1.37.311.365.208.661.475.886.801.226.326.415.678.569 1.052.154.375.351.876.589 1.502l5.068 12.519c.396.952.595 1.645.595 2.077 0 .45-.188.862-.562 1.237a1.848 1.848 0 01-1.356.562c-.31 0-.574-.056-.794-.166a1.625 1.625 0 01-.556-.449c-.15-.189-.312-.481-.483-.874a52.592 52.592 0 01-.443-1.038zm-7.78-5.386h5.796l-2.925-8.006-2.871 8.006zM1793.559 1334.853v14.119h7.966c.636 0 1.123.154 1.463.463.339.309.509.697.509 1.164 0 .477-.167.863-.503 1.158-.335.296-.824.443-1.469.443h-9.487c-.855 0-1.471-.189-1.846-.569-.375-.379-.562-.992-.562-1.839v-14.939c0-.794.179-1.39.536-1.786.357-.397.827-.596 1.409-.596.591 0 1.069.196 1.436.589s.549.99.549 1.793zM1815.286 1336.043h-4.287v14.093c0 .812-.181 1.414-.542 1.807-.362.393-.83.589-1.403.589-.582 0-1.057-.198-1.422-.596-.366-.397-.55-.997-.55-1.8v-14.093h-4.287c-.67 0-1.169-.147-1.495-.442-.326-.296-.489-.687-.489-1.172 0-.503.169-.899.509-1.19s.832-.437 1.476-.437h12.491c.68 0 1.185.149 1.516.449.331.301.496.693.496 1.178s-.168.876-.503 1.172c-.335.295-.838.442-1.509.442z"/></g><circle class="c36" cx="1526.8" cy="466.5" r="10.1"/><path class="c36" d="M1528.4 393.5c3.4 3.4 6.3 7.3 8.5 11.6v-43.3l-20.1-20.1v43.4c4.3 2.2 8.2 5.1 11.7 8.5l-.1-.1z"/><path class="c70" d="M1490.4 456.4c-14.5 0-26.3-11.8-26.3-26.3s11.8-26.3 26.3-26.3 26.3 11.8 26.3 26.3v24.2c2.7-2.3 6.2-3.7 10.1-3.7s7.3 1.4 10.1 3.7v-24.1c0-6.2-1.2-12.3-3.7-18-2.3-5.5-5.7-10.5-10-14.8s-9.2-7.6-14.8-10c-5.7-2.4-11.8-3.7-18.1-3.7s-12.4 1.2-18.1 3.7c-5.5 2.3-10.5 5.7-14.8 10s-7.6 9.2-10 14.8c-2.4 5.7-3.7 11.8-3.7 18.1s1.2 12.4 3.7 18.1c2.3 5.5 5.7 10.5 10 14.8s9.2 7.6 14.8 10c5.7 2.4 11.8 3.7 18.1 3.7s12.4-1.2 18.1-3.7c.8-.3 1.6-.7 2.4-1.1v-25.2c-4.8 5.9-12.2 9.8-20.4 9.8v-.3z"/></g><g data-name="Calque_1-2-2-2-2"><path d="M330.3 775.4l97.1 340.5 70.8 251h51.6l-75.2-591.5H330.3z" fill="#184a6b" fill-rule="evenodd"/><path d="M304.3 775.4c-2.2 175.5-9.9 271.2-12.3 287.2-2.3 16-38 117.4-106.9 304.4h53.5c87.8-179.3 136.7-280.8 147-304.4 10.2-23.6 41.8-119.3 89.2-287.2H304.3z" fill="#246e9f" fill-rule="evenodd"/><path class="c20" d="M191.4 1361.7c-3.1-1.4-6.8 0-8 3.2-2.2 5.9-5 14.7-5 19.6 0 7.9 2.7 23 2.7 23h164.6s6.4-21.2-7.4-23c-13.8-1.7-23-3-23-3l-76.5-34.1c-1.5-.7-3.3 0-3.9 1.6l-4.9 11.9s-12.8 6-20.8 6-12.5-2.9-17.8-5.3v.1zM502.3 1361.7c-3.1-1.4-6.8 0-8 3.2-2.2 5.9-5 14.7-5 19.6 0 7.9 2.6 23 2.6 23h164.6s6.4-21.2-7.4-23c-13.8-1.7-23-3-23-3l-76.5-34.1c-1.5-.7-3.3 0-3.9 1.6l-4.9 11.9s-12.8 6-20.8 6-12.5-2.9-17.8-5.3h.1v.1z"/></g><g><path class="c18" d="M418.3 578.8h-62.1l21.4-99.7c-11.9-14-20-31.2-18.6-50.4 3.9-55.4 81-43.2 96-15.3 15 28 13.2 98.9-6.1 103.8-7.8 2-24.2-2.9-41-13l10.5 74.4v.2h-.1z"/><path d="M414.5 432.6l-.4-1.2-3.5-10.4-1.8-5.4c19.8-.6 34.6-2.1 44.6-4.6-18.2-26.1-90.6-35.8-94.4 17.9-1.4 19.2 6.7 36.4 18.6 50.4l-.9 3.9h.2c2.9-.6 5.4-4.1 7.9-9-4.6-2.2-7.9-7.5-7.9-14.3s5.8-12.9 12.9-12.9 5 .9 7.1 2.2c4.7-7.6 10.6-13.2 18.8-12.6l-1.3-3.9h.1v-.1z" style="isolation:isolate" opacity=".06" fill-rule="evenodd"/><path class="c16" d="M443.3 389.5c5.6 7.2 9.8 15.1 12.6 23.7.3.6.5 1.3.6 1.9-1-1.3-2-2.7-2.8-4.1-2.5-4.1-4.7-8.2-6.7-12.5-2.2-2.3-3.6-5.1-4.2-8.3 0-.6.2-.8.5-.7z"/><path d="M443.3 388.7c6 7.3 10.4 15.5 13.1 24.5 0-.2-.3-.3-.4 0-2.8-8.6-7-16.6-12.6-23.7.2-.3.2-.5 0-.8h-.1z" fill="#dbdbdb" fill-rule="evenodd"/><path d="M443.3 388.7c.3.3.3.5 0 .8-.3 0-.5.2-.5.7.6 3.2 2 6 4.2 8.3 2 4.3 4.2 8.5 6.7 12.5.3.9.7 1.7 1.2 2.6.6.9 1.4 1.7 2.2 2.3-.3.7-.7.9-1.5.5-3.5-5.3-6.6-10.7-9.7-16.2-12 7.2-23.9 14.7-35.6 22.3-5.5 3.8-11 7.8-16.3 11.9-1.8 1.9-3.2 4.1-4.1 6.5-.4 2-.9 4-1.3 6-.3 0-.8 0-1.4.2-.9.2-1 .3-1.2.3-.7-.4 1.4-4.7 2.2-6.6 1.2-2.6 1.8-3.9 2.8-5.1 1.3-1.8 2.9-3.4 4.7-4.7 16.5-10.7 32.9-21.5 49.2-32.4-1.9-2.8-3-5.8-3.4-9.1.4-.5.9-.8 1.5-.8v.2l.3-.2z" fill="#898989" fill-rule="evenodd"/><path class="c18" d="M684.5 813.4c4.8 0 12.4-1.6 1-11s-23-19.8-21-24.8c.9-2.2 3.5-3.1 6.1-4.1 3.5-1.2 7.2-2.5 8.2-6.9 1.1-5.2-16.1-6-51.5-2.3l-82.5-32.2c5.4 15.1 10.9 30.3 16.3 45.4 22.3 4.4 44.8 8.8 67.1 13.2 20.4 11.1 39 18.6 56.1 22.6h.2v.1zM123.3 873.2c10.2-13.8 71.2-162.7 71.2-162.7l45.6 8.3s-79.4 157.5-85 166.5c-7.3 11.7-1.9 31.7 1.8 45.2.6 2.1 1.1 4.1 1.6 5.8-8.8 2.2-11.9-2.8-15.3-8.3-3.7-6-7.7-12.5-20.3-9.1-4.8 1.3-9.6 3-14.2 4.7-15.8 5.8-30.4 11.1-46.3-3.1-2.5-2.2-4.5-9.4 4-13.2 21.1-9.6 52-27.3 57-34.1h-.1z"/><path d="M418.7 520.7L391 532.1c.3 7.2.3 17.5.3 29.3 0 43 2.1 82.6 9.3 107.1 0 0 10.3 34.6 159.3 125.1 9.1-17.2 18-34.3 27.1-51.5-82.3-84.5-98.6-105.1-98.6-105.1-19.8-25-46-63-69.6-116.2h-.1v-.1z" fill="#b9aa9a" fill-rule="evenodd"/><path d="M293.8 810.3s122.1 13.4 192.2 0c5.8-1.1 5.5-26.1 2.8-32.9-41.9-106.1-69.3-183.9-69.3-257.6-11.5 6-40.3 1.8-40.3 1.8-51.5 76-75.2 163.2-85.4 288.6v.1z" fill="#333" fill-rule="evenodd"/><path d="M137.7 815.1c20.2-59.6 59.5-147.4 138-228.7 28.1-29.1 56.5-52.4 82.8-71h29.4c-3.4 44.1 12.3 108.3 30.5 182.8 29.1 119.1 64.5 264.4 39 395.9-31.5 7-68.4 2.2-108.4-2.9-57.7-7.5-121.8-15.8-184.9 9.4 2.4-52.6 33.2-111 63.8-169 19.4-36.8 38.7-73.5 50.8-108.6 4-10.4 7.9-23.6 10.2-39.3 3.5-23.6 1.6-43.8-.9-58-1.1-10.5-2.2-21-2.4-31.3-16.7 15.6-36.8 37.2-55.7 65.6-18.6 27.7-30.7 53.8-38.7 74.9-8.9-3.5-17.9-7.1-27.3-10.5-8.8-3.3-17.5-6.4-26.1-9.2h-.1v-.1z" fill="#d7c5b2" fill-rule="evenodd"/><path d="M367.7 518.1l-8.7 26.8 17.6 20.1-15.9 15.8 38.4 65.8-46.9-65.6 15.6-16-15.6-17.8 15.6-29.2h-.1v.1z" style="isolation:isolate" fill-opacity=".1" opacity=".5" fill-rule="evenodd"/><path class="c28" d="M174.993 752.67l1.04-2.708 36.689 14.084-1.04 2.708zM517.22 745.937l17.35-35.262 2.603 1.28-17.352 35.262z"/><path class="c36" d="M787.961 380.126c-3.689.8-7.013 1.2-9.97 1.2s-5.324-.365-7.099-1.096-3.167-1.896-4.176-3.497c-1.01-1.601-1.706-3.479-2.088-5.638-.384-2.157-.574-4.872-.574-8.144 0-6.855.965-11.632 2.897-14.329 1.931-2.696 5.489-4.045 10.675-4.045 2.993 0 6.455.47 10.388 1.409l-.208 5.742c-3.445-.522-6.308-.783-8.587-.783s-3.907.305-4.881.913c-.975.609-1.696 1.767-2.167 3.472-.47 1.705-.705 4.611-.705 8.718s.478 6.951 1.436 8.534c.957 1.584 2.871 2.375 5.742 2.375s5.924-.243 9.161-.73l.156 5.898z"/><g class="c29"><path class="c36" d="M797.038 372.378v8.322h-5.037v-24.82h9.636c5.84 0 8.76 2.726 8.76 8.177 0 3.236-1.217 5.62-3.65 7.153l3.541 9.49h-5.511l-2.884-8.322h-4.855zm7.337-5.401c.584-.73.876-1.691.876-2.884s-.311-2.141-.931-2.847c-.62-.706-1.515-1.059-2.683-1.059h-4.599v7.884h4.672c1.192 0 2.081-.365 2.665-1.095zM814.631 380.7v-24.82h16.06v4.38h-11.023v5.804h8.833v4.308h-8.833v5.949h11.023v4.38h-16.06zm2.92-30.623l9.198-3.869 1.497 4.38-9.49 2.884-1.205-3.395zM832.771 380.7l5.584-24.82h9.563l5.584 24.82h-5.037l-.985-4.489h-8.687l-.985 4.489h-5.037zm9.489-20.659l-2.519 11.79h6.789l-2.519-11.79h-1.752zM853.247 360.333v-4.453h18.25v4.453h-6.57V380.7h-5.037v-20.367h-6.643zM874.672 380.7v-24.82h5.037v24.82h-5.037zM902.284 378.054c-1.545 2.057-4.204 3.085-7.975 3.085s-6.43-1.028-7.975-3.085c-1.545-2.056-2.318-5.274-2.318-9.654s.772-7.634 2.318-9.764c1.545-2.129 4.203-3.193 7.975-3.193s6.43 1.064 7.975 3.193c1.545 2.13 2.318 5.384 2.318 9.764s-.772 7.599-2.318 9.654zm-12.008-3.212c.717 1.277 2.062 1.916 4.033 1.916s3.315-.639 4.033-1.916 1.077-3.418 1.077-6.424-.365-5.188-1.095-6.552c-.73-1.362-2.068-2.044-4.015-2.044s-3.285.682-4.015 2.044c-.73 1.363-1.095 3.547-1.095 6.552s.359 5.146 1.077 6.424zM908.909 380.7v-24.82h8.504l5.986 20.44h.365v-20.44h5.037v24.82h-8.285l-6.205-20.44h-.365v20.44h-5.037z"/></g><g class="c29"><path class="c36" d="M949.66 380.7h-8.358v-24.82h8.358c2.141 0 3.905.226 5.292.676 1.387.45 2.464 1.192 3.229 2.227.767 1.034 1.296 2.251 1.588 3.649.292 1.399.438 3.219.438 5.457s-.134 4.095-.401 5.566c-.269 1.473-.773 2.786-1.515 3.941-.743 1.156-1.819 1.996-3.23 2.519-1.412.524-3.212.785-5.402.785zm5.292-9.855c.048-.778.073-1.854.073-3.229s-.049-2.476-.146-3.304a6.304 6.304 0 00-.693-2.263 2.89 2.89 0 00-1.624-1.405c-.718-.256-1.686-.384-2.902-.384h-3.322v16.061h3.322c1.825 0 3.151-.462 3.979-1.387.706-.754 1.144-2.117 1.314-4.089h-.001zM964.588 380.7v-24.82h16.06v4.38h-11.023v5.804h8.833v4.308h-8.833v5.949h11.023v4.38h-16.06z"/></g><g class="c29"><path class="c59" d="M1001.63 359.822c-2.653 0-3.979.876-3.979 2.628 0 .779.328 1.375.985 1.788.657.414 2.195 1.011 4.617 1.789 2.421.779 4.118 1.66 5.092 2.646.973.985 1.46 2.5 1.46 4.544 0 2.604-.791 4.575-2.373 5.913s-3.649 2.008-6.204 2.008c-1.898 0-4.223-.292-6.972-.877l-1.314-.255.511-3.905c3.261.438 5.755.656 7.483.656 2.578 0 3.868-1.07 3.868-3.212 0-.778-.298-1.387-.894-1.824-.597-.438-1.783-.913-3.56-1.424-2.822-.803-4.812-1.758-5.967-2.865-1.156-1.107-1.734-2.646-1.734-4.617 0-2.482.754-4.331 2.263-5.548s3.577-1.825 6.205-1.825c1.801 0 4.089.243 6.862.729l1.314.256-.402 3.979c-3.431-.389-5.853-.584-7.263-.584h.002zM1013.856 380.7v-24.82h5.037v24.82h-5.037zM1022.069 360.333v-4.453h18.25v4.453h-6.57V380.7h-5.037v-20.367h-6.643zM1043.494 380.7v-24.82h16.061v4.38h-11.023v5.804h8.833v4.308h-8.833v5.949h11.023v4.38h-16.061zM1071.343 359.822c-2.652 0-3.979.876-3.979 2.628 0 .779.329 1.375.985 1.788.657.414 2.196 1.011 4.617 1.789 2.421.779 4.118 1.66 5.092 2.646.974.985 1.46 2.5 1.46 4.544 0 2.604-.791 4.575-2.372 5.913-1.582 1.338-3.65 2.008-6.205 2.008-1.898 0-4.222-.292-6.972-.877l-1.313-.255.511-3.905c3.261.438 5.754.656 7.482.656 2.579 0 3.869-1.07 3.869-3.212 0-.778-.299-1.387-.895-1.824-.597-.438-1.782-.913-3.559-1.424-2.823-.803-4.812-1.758-5.968-2.865s-1.733-2.646-1.733-4.617c0-2.482.754-4.331 2.263-5.548s3.577-1.825 6.205-1.825c1.801 0 4.088.243 6.862.729l1.313.256-.401 3.979c-3.431-.389-5.853-.584-7.264-.584h.002z"/></g><g class="c29"><path class="c59" d="M1091.993 355.88h5.293l3.065 20.514h.548l4.453-20.514h5.84l4.453 20.514h.548l3.065-20.514h5.293l-4.745 24.82h-7.629l-3.905-18.87-3.905 18.87h-7.629l-4.745-24.82zM1127.946 380.7v-24.82h16.06v4.38h-11.023v5.804h8.833v4.308h-8.833v5.949h11.023v4.38h-16.06zM1148.166 355.88h9.745c2.579 0 4.514.518 5.804 1.552s1.935 2.707 1.935 5.019c0 1.387-.207 2.488-.62 3.304-.414.815-1.12 1.539-2.117 2.171 1.095.463 1.903 1.132 2.427 2.008s.785 2.093.785 3.65c0 2.408-.706 4.197-2.117 5.365s-3.395 1.752-5.949 1.752h-9.892v-24.82h-.001zm9.49 4.308h-4.453v5.913h4.489c1.898 0 2.848-.986 2.848-2.957s-.962-2.956-2.884-2.956zm.146 10.146h-4.599v6.06h4.599c1.096 0 1.904-.22 2.428-.657.522-.438.784-1.241.784-2.409 0-1.995-1.07-2.993-3.212-2.993z"/></g><g class="c29"><path class="c59" d="M762.487 529.4l7.987-35.496h13.676l7.987 35.496h-7.204l-1.41-6.421H771.1l-1.41 6.421h-7.204zm13.573-29.545l-3.602 16.86h9.709l-3.602-16.86h-2.505z"/></g><g class="c29"><path class="c59" d="M810.732 528.999c-2.58.56-4.904.84-6.972.84s-3.723-.256-4.964-.767a6.125 6.125 0 01-2.92-2.446c-.706-1.118-1.193-2.433-1.46-3.941-.268-1.509-.402-3.406-.402-5.694 0-4.793.675-8.133 2.026-10.02 1.351-1.885 3.838-2.828 7.464-2.828 2.092 0 4.513.328 7.264.985l-.146 4.015c-2.409-.364-4.411-.547-6.004-.547s-2.732.213-3.413.639-1.186 1.235-1.515 2.427c-.328 1.192-.493 3.225-.493 6.096s.334 4.86 1.004 5.968c.669 1.107 2.007 1.661 4.015 1.661s4.143-.17 6.406-.512l.109 4.125zM830.552 528.999c-2.58.56-4.904.84-6.972.84s-3.723-.256-4.964-.767a6.125 6.125 0 01-2.92-2.446c-.706-1.118-1.193-2.433-1.46-3.941-.268-1.509-.402-3.406-.402-5.694 0-4.793.675-8.133 2.026-10.02 1.351-1.885 3.838-2.828 7.464-2.828 2.092 0 4.513.328 7.264.985l-.146 4.015c-2.409-.364-4.411-.547-6.004-.547s-2.732.213-3.413.639-1.186 1.235-1.515 2.427c-.328 1.192-.493 3.225-.493 6.096s.334 4.86 1.004 5.968c.669 1.107 2.007 1.661 4.015 1.661s4.143-.17 6.406-.512l.109 4.125zM834.64 529.4v-24.82h16.06v4.38h-11.023v5.804h8.833v4.308h-8.833v5.949H850.7v4.38h-16.06zM862.489 508.522c-2.653 0-3.979.876-3.979 2.628 0 .779.329 1.375.985 1.788.657.414 2.196 1.011 4.617 1.789 2.421.779 4.118 1.66 5.092 2.646.973.985 1.46 2.5 1.46 4.544 0 2.604-.791 4.575-2.373 5.913s-3.65 2.008-6.205 2.008c-1.898 0-4.222-.292-6.972-.877l-1.314-.255.511-3.905c3.261.438 5.754.656 7.483.656 2.579 0 3.869-1.07 3.869-3.212 0-.778-.298-1.387-.894-1.824-.597-.438-1.783-.913-3.559-1.424-2.823-.803-4.812-1.758-5.967-2.865-1.156-1.107-1.734-2.646-1.734-4.617 0-2.482.754-4.331 2.263-5.548s3.577-1.825 6.205-1.825c1.801 0 4.088.243 6.862.729l1.314.256-.402 3.979c-3.431-.389-5.853-.584-7.263-.584zM882.344 508.522c-2.653 0-3.979.876-3.979 2.628 0 .779.329 1.375.985 1.788.657.414 2.196 1.011 4.617 1.789 2.421.779 4.118 1.66 5.092 2.646.973.985 1.46 2.5 1.46 4.544 0 2.604-.791 4.575-2.373 5.913s-3.65 2.008-6.205 2.008c-1.898 0-4.222-.292-6.972-.877l-1.314-.255.511-3.905c3.261.438 5.754.656 7.483.656 2.579 0 3.869-1.07 3.869-3.212 0-.778-.298-1.387-.894-1.824-.597-.438-1.783-.913-3.559-1.424-2.823-.803-4.812-1.758-5.967-2.865-1.156-1.107-1.734-2.646-1.734-4.617 0-2.482.754-4.331 2.263-5.548s3.577-1.825 6.205-1.825c1.801 0 4.088.243 6.862.729l1.314.256-.402 3.979c-3.431-.389-5.853-.584-7.263-.584zM894.572 529.4v-24.82h5.037v24.82h-5.037zM905.011 504.58h9.745c2.579 0 4.514.518 5.804 1.552s1.935 2.707 1.935 5.019c0 1.387-.207 2.488-.621 3.304-.414.815-1.12 1.539-2.117 2.171 1.095.463 1.904 1.132 2.427 2.008s.785 2.093.785 3.65c0 2.408-.706 4.197-2.117 5.365-1.412 1.168-3.395 1.752-5.95 1.752h-9.891v-24.82zm9.489 4.307h-4.453v5.913h4.49c1.898 0 2.847-.986 2.847-2.957s-.962-2.956-2.884-2.956zm.146 10.147h-4.599v6.06h4.599c1.095 0 1.904-.22 2.427-.657.523-.438.785-1.241.785-2.409 0-1.995-1.071-2.993-3.212-2.993zM927.239 529.4v-24.82h5.037v24.82h-5.037zM951.803 529.4h-14.125v-24.82h5.037v20.367h9.089v4.453zM954.905 529.4v-24.82h5.037v24.82h-5.037zM963.117 509.033v-4.453h18.25v4.453h-6.57V529.4h-5.036v-20.367h-6.644zM984.543 529.4v-24.82h16.06v4.38H989.58v5.804h8.833v4.308h-8.833v5.949h11.023v4.38h-16.06zm2.92-30.623l9.197-3.869 1.497 4.38-9.49 2.884-1.204-3.395z"/></g><g class="c29"><path class="c36" d="M1013.102 529.4v-24.82h8.504l5.986 20.44h.365v-20.44h5.036v24.82h-8.285l-6.205-20.44h-.365v20.44h-5.036zM1043.214 521.115c0 2.896 1.472 4.343 4.416 4.343s4.417-1.447 4.417-4.343V504.58h5.037v16.426c0 3.042-.785 5.273-2.354 6.697s-3.937 2.136-7.1 2.136-5.529-.712-7.099-2.136-2.354-3.655-2.354-6.697V504.58h5.037v16.535zM1062.267 529.4v-24.82h8.577l4.38 18.104 4.38-18.104h8.578v24.82h-5.037v-19.199h-.548l-4.854 18.104h-5.037l-4.854-18.104h-.548V529.4h-5.037zM1093.583 529.4v-24.82h16.06v4.38h-11.023v5.804h8.833v4.308h-8.833v5.949h11.023v4.38h-16.06zm2.92-30.623l9.197-3.869 1.497 4.38-9.49 2.884-1.204-3.395zM1118.84 521.078v8.322h-5.036v-24.82h9.636c5.84 0 8.76 2.726 8.76 8.177 0 3.236-1.217 5.62-3.65 7.153l3.541 9.49h-5.512l-2.884-8.322h-4.855zm7.337-5.402c.584-.73.876-1.691.876-2.884s-.311-2.141-.931-2.847-1.515-1.059-2.683-1.059h-4.6v7.884h4.673c1.191 0 2.08-.365 2.664-1.095h.001zM1136.433 529.4v-24.82h5.037v24.82h-5.037zM1156.069 529.838c-3.796 0-6.46-1.022-7.993-3.066s-2.3-5.262-2.3-9.654.772-7.652 2.318-9.782c1.545-2.129 4.203-3.193 7.975-3.193s6.43 1.064 7.976 3.193c1.545 2.13 2.317 5.396 2.317 9.801 0 5.401-1.277 9.04-3.832 10.913l3.029 4.891-4.599 2.154-3.285-5.366c-.243.073-.779.11-1.606.11zm-4.033-6.278c.718 1.266 2.062 1.897 4.033 1.897s3.315-.632 4.033-1.897c.718-1.265 1.077-3.406 1.077-6.424s-.365-5.207-1.095-6.57c-.73-1.362-2.068-2.044-4.016-2.044s-3.285.682-4.015 2.044c-.73 1.363-1.095 3.553-1.095 6.57s.358 5.159 1.076 6.424h.002zM1175.487 521.115c0 2.896 1.473 4.343 4.417 4.343s4.416-1.447 4.416-4.343V504.58h5.037v16.426c0 3.042-.784 5.273-2.354 6.697-1.569 1.424-3.936 2.136-7.099 2.136s-5.53-.712-7.1-2.136-2.354-3.655-2.354-6.697V504.58h5.037v16.535zM1194.54 529.4v-24.82h16.061v4.38h-11.023v5.804h8.833v4.308h-8.833v5.949h11.023v4.38h-16.061z"/></g><g class="c29"><path class="c36" d="M762.487 665.4l7.987-35.496h13.676l7.987 35.496h-7.204l-1.41-6.421H771.1l-1.41 6.421h-7.204zm13.573-29.545l-3.602 16.86h9.709l-3.602-16.86h-2.505z"/></g><g class="c29"><path class="c36" d="M799.819 657.115c0 2.896 1.472 4.343 4.417 4.343s4.417-1.447 4.417-4.343V640.58h5.037v16.426c0 3.042-.785 5.273-2.354 6.697-1.569 1.424-3.936 2.136-7.099 2.136s-5.53-.712-7.099-2.136c-1.57-1.424-2.354-3.655-2.354-6.697V640.58h5.037v16.535h-.002zM827.23 665.4h-8.358v-24.82h8.358c2.141 0 3.905.226 5.292.676 1.387.45 2.464 1.192 3.23 2.227.767 1.034 1.296 2.251 1.588 3.649.292 1.399.438 3.219.438 5.457s-.134 4.095-.401 5.566c-.268 1.473-.773 2.786-1.515 3.941-.743 1.156-1.819 1.996-3.23 2.519-1.412.524-3.212.785-5.402.785zm5.292-9.856c.048-.778.073-1.854.073-3.229s-.049-2.476-.146-3.304a6.304 6.304 0 00-.693-2.263 2.89 2.89 0 00-1.624-1.405c-.718-.256-1.686-.384-2.902-.384h-3.322v16.061h3.322c1.825 0 3.151-.462 3.979-1.387.706-.754 1.144-2.117 1.314-4.089h-.001zM842.158 665.4v-24.82h5.037v24.82h-5.037zM850.371 645.033v-4.453h18.25v4.453h-6.57V665.4h-5.037v-20.367h-6.643z"/></g><g class="c29"><path class="c59" d="M888.667 653.499V665.4h-7.204v-35.496h13.781c8.352 0 12.528 3.898 12.528 11.693 0 4.628-1.74 8.038-5.22 10.23l5.063 13.572h-7.882l-4.124-11.901h-6.942zm10.492-7.726c.835-1.044 1.253-2.419 1.253-4.124s-.444-3.062-1.331-4.071c-.888-1.009-2.167-1.514-3.837-1.514h-6.577v11.274h6.682c1.705 0 2.976-.521 3.811-1.565zM928.599 652.664v-6.265h10.336v18.427c-4.977.8-9.014 1.2-12.11 1.2-5.533 0-9.336-1.479-11.406-4.437-2.071-2.957-3.106-7.655-3.106-14.094s1.078-11.084 3.236-13.938c2.157-2.854 5.829-4.28 11.014-4.28 3.236 0 6.734.365 10.492 1.096l1.879.365-.209 5.586c-4.176-.452-7.595-.679-10.257-.679s-4.533.313-5.611.939c-1.079.626-1.871 1.784-2.375 3.472s-.757 4.576-.757 8.665.504 6.951 1.514 8.587c1.009 1.636 3.097 2.453 6.264 2.453l4.333-.209v-6.89H928.6v.002zM942.745 665.4l7.987-35.496h13.676l7.987 35.496h-7.204l-1.409-6.421h-12.423l-1.41 6.421h-7.204zm13.572-29.545l-3.602 16.86h9.709l-3.602-16.86h-2.505zM974.169 665.4l7.986-35.496h13.677l7.986 35.496h-7.203l-1.41-6.421h-12.423l-1.41 6.421h-7.203zm13.572-29.545l-3.603 16.86h9.71l-3.603-16.86h-2.505.001z"/></g><g class="c29"><path class="c36" d="M762.487 801.7l7.987-35.496h13.676l7.987 35.496h-7.204l-1.41-6.421H771.1l-1.41 6.421h-7.204zm13.573-29.545l-3.602 16.86h9.709l-3.602-16.86h-2.505z"/></g><g class="c29"><path class="c36" d="M802.629 780.822c-2.653 0-3.979.876-3.979 2.628 0 .779.329 1.375.985 1.788.657.414 2.196 1.011 4.617 1.789 2.421.779 4.118 1.66 5.092 2.646.973.985 1.46 2.5 1.46 4.544 0 2.604-.791 4.575-2.373 5.913s-3.65 2.008-6.205 2.008c-1.898 0-4.222-.292-6.972-.877l-1.314-.255.511-3.905c3.261.438 5.754.656 7.483.656 2.579 0 3.869-1.07 3.869-3.212 0-.778-.298-1.387-.894-1.824-.597-.438-1.783-.913-3.559-1.424-2.823-.803-4.812-1.758-5.967-2.865-1.156-1.107-1.734-2.646-1.734-4.617 0-2.482.754-4.331 2.263-5.548s3.577-1.825 6.205-1.825c1.801 0 4.088.243 6.862.729l1.314.256-.402 3.979c-3.431-.389-5.853-.584-7.263-.584zM822.485 780.822c-2.653 0-3.979.876-3.979 2.628 0 .779.329 1.375.985 1.788.657.414 2.196 1.011 4.617 1.789 2.421.779 4.118 1.66 5.092 2.646.973.985 1.46 2.5 1.46 4.544 0 2.604-.791 4.575-2.373 5.913s-3.65 2.008-6.205 2.008c-1.898 0-4.222-.292-6.972-.877l-1.314-.255.511-3.905c3.261.438 5.754.656 7.483.656 2.579 0 3.869-1.07 3.869-3.212 0-.778-.298-1.387-.894-1.824-.597-.438-1.783-.913-3.559-1.424-2.823-.803-4.812-1.758-5.967-2.865-1.156-1.107-1.734-2.646-1.734-4.617 0-2.482.754-4.331 2.263-5.548s3.577-1.825 6.205-1.825c1.801 0 4.088.243 6.862.729l1.314.256-.402 3.979c-3.431-.389-5.853-.584-7.263-.584zM839.53 793.415c0 2.896 1.472 4.343 4.417 4.343s4.417-1.447 4.417-4.343V776.88h5.037v16.426c0 3.042-.785 5.273-2.354 6.697-1.569 1.424-3.936 2.136-7.099 2.136s-5.53-.712-7.099-2.136c-1.57-1.424-2.354-3.655-2.354-6.697V776.88h5.037v16.535h-.002zM863.62 793.378v8.322h-5.037v-24.82h9.636c5.84 0 8.76 2.726 8.76 8.177 0 3.236-1.217 5.62-3.65 7.153l3.541 9.49h-5.511l-2.884-8.322h-4.855zm7.337-5.401c.584-.73.876-1.691.876-2.884s-.311-2.141-.931-2.847c-.62-.706-1.515-1.059-2.683-1.059h-4.599v7.884h4.672c1.192 0 2.081-.365 2.665-1.095zM878.84 801.7l5.584-24.82h9.563l5.584 24.82h-5.037l-.985-4.489h-8.687l-.985 4.489h-5.037zm9.49-20.659l-2.519 11.79h6.789l-2.519-11.79h-1.752zM902.894 801.7v-24.82h8.504l5.986 20.44h.365v-20.44h5.037v24.82h-8.285l-6.205-20.44h-.365v20.44h-5.037zM943.919 801.299c-2.58.56-4.904.84-6.972.84s-3.723-.256-4.964-.767a6.125 6.125 0 01-2.92-2.446c-.706-1.118-1.193-2.433-1.46-3.941-.268-1.509-.402-3.406-.402-5.694 0-4.793.675-8.133 2.026-10.02 1.351-1.885 3.838-2.828 7.464-2.828 2.092 0 4.513.328 7.264.985l-.146 4.015c-2.409-.364-4.411-.547-6.004-.547s-2.732.213-3.413.639-1.186 1.235-1.515 2.427c-.328 1.192-.493 3.225-.493 6.096s.334 4.86 1.004 5.968c.669 1.107 2.007 1.661 4.015 1.661s4.143-.17 6.406-.512l.109 4.125zM948.007 801.7v-24.82h16.06v4.38h-11.023v5.804h8.833v4.308h-8.833v5.949h11.023v4.38h-16.06z"/></g><g class="c29"><path class="c59" d="M987.599 802.139c-3.796 0-6.46-1.022-7.993-3.066s-2.3-5.262-2.3-9.654.772-7.652 2.318-9.782c1.545-2.129 4.203-3.193 7.975-3.193s6.43 1.064 7.976 3.193c1.545 2.13 2.317 5.396 2.317 9.801 0 5.401-1.277 9.04-3.832 10.913l3.029 4.891-4.599 2.154-3.285-5.366c-.243.073-.779.11-1.606.11zm-4.034-6.279c.718 1.266 2.062 1.897 4.033 1.897s3.315-.632 4.033-1.897c.718-1.265 1.077-3.406 1.077-6.424s-.365-5.207-1.095-6.57c-.73-1.362-2.068-2.044-4.016-2.044s-3.285.682-4.015 2.044c-.73 1.363-1.095 3.553-1.095 6.57s.358 5.159 1.076 6.424h.002zM1007.017 793.415c0 2.896 1.473 4.343 4.417 4.343s4.416-1.447 4.416-4.343V776.88h5.037v16.426c0 3.042-.784 5.273-2.354 6.697-1.569 1.424-3.936 2.136-7.099 2.136s-5.53-.712-7.1-2.136-2.354-3.655-2.354-6.697V776.88h5.037v16.535zM1023.807 801.7l5.585-24.82h9.562l5.585 24.82h-5.037l-.985-4.489h-8.688l-.985 4.489h-5.037zm9.49-20.659l-2.519 11.79h6.789l-2.519-11.79h-1.752.001zM1061.985 801.7h-14.125v-24.82h5.036v20.367h9.089v4.453zM1065.088 801.7v-24.82h5.036v24.82h-5.036zM1073.3 781.333v-4.453h18.25v4.453h-6.57V801.7h-5.037v-20.367h-6.643zM1094.725 801.7v-24.82h16.061v4.38h-11.023v5.804h8.833v4.308h-8.833v5.949h11.023v4.38h-16.061zm2.92-30.623l9.198-3.869 1.496 4.38-9.489 2.884-1.205-3.395z"/></g><g class="c29"><path class="c59" d="M1122.793 776.88h5.293l3.065 20.514h.548l4.453-20.514h5.84l4.453 20.514h.548l3.065-20.514h5.293l-4.745 24.82h-7.629l-3.905-18.87-3.905 18.87h-7.629l-4.745-24.82zM1158.746 801.7v-24.82h16.06v4.38h-11.023v5.804h8.833v4.308h-8.833v5.949h11.023v4.38h-16.06zM1178.966 776.88h9.745c2.579 0 4.514.518 5.804 1.552s1.935 2.707 1.935 5.019c0 1.387-.207 2.488-.62 3.304-.414.815-1.12 1.539-2.117 2.171 1.095.463 1.903 1.132 2.427 2.008s.785 2.093.785 3.65c0 2.408-.706 4.197-2.117 5.365s-3.395 1.752-5.949 1.752h-9.892v-24.82h-.001zm9.49 4.308h-4.453v5.913h4.489c1.898 0 2.848-.986 2.848-2.957s-.962-2.956-2.884-2.956zm.146 10.146h-4.599v6.06h4.599c1.096 0 1.904-.22 2.428-.657.522-.438.784-1.241.784-2.409 0-1.995-1.07-2.993-3.212-2.993z"/></g><g class="c29"><path class="c59" d="M765.463 938v-35.496h22.968v6.264h-15.764v8.3h12.632v6.16h-12.632v8.509h15.764v6.264h-22.968zm4.176-43.796l13.155-5.533 2.14 6.264-13.572 4.124-1.723-4.854z"/></g><g class="c29"><path class="c59" d="M808.232 937.599c-2.58.56-4.904.84-6.972.84s-3.723-.256-4.964-.767a6.125 6.125 0 01-2.92-2.446c-.706-1.118-1.193-2.433-1.46-3.941-.268-1.509-.402-3.406-.402-5.694 0-4.793.675-8.133 2.026-10.02 1.351-1.885 3.838-2.828 7.464-2.828 2.092 0 4.513.328 7.264.985l-.146 4.015c-2.409-.364-4.411-.547-6.004-.547s-2.732.213-3.413.639-1.186 1.235-1.515 2.427c-.328 1.192-.493 3.225-.493 6.096s.334 4.86 1.004 5.968c.669 1.107 2.007 1.661 4.015 1.661s4.143-.17 6.406-.512l.109 4.125zM829.274 935.354c-1.545 2.057-4.204 3.085-7.975 3.085s-6.43-1.028-7.975-3.085c-1.545-2.056-2.318-5.274-2.318-9.654s.772-7.634 2.318-9.764c1.545-2.129 4.203-3.193 7.975-3.193s6.43 1.064 7.975 3.193c1.545 2.13 2.318 5.384 2.318 9.764s-.772 7.599-2.318 9.654zm-12.008-3.212c.717 1.277 2.062 1.916 4.033 1.916s3.315-.639 4.033-1.916 1.077-3.418 1.077-6.424-.365-5.188-1.095-6.552c-.73-1.362-2.068-2.044-4.015-2.044s-3.285.682-4.015 2.044c-.73 1.363-1.095 3.547-1.095 6.552s.359 5.146 1.077 6.424z"/></g><g class="c29"><path class="c36" d="M839.523 927.299v-6.368h15.451v6.368h-15.451z"/></g><g class="c29"><path class="c36" d="M880.433 937.599c-2.58.56-4.904.84-6.972.84s-3.723-.256-4.964-.767a6.125 6.125 0 01-2.92-2.446c-.706-1.118-1.193-2.433-1.46-3.941-.268-1.509-.402-3.406-.402-5.694 0-4.793.675-8.133 2.026-10.02 1.351-1.885 3.838-2.828 7.464-2.828 2.092 0 4.513.328 7.264.985l-.146 4.015c-2.409-.364-4.411-.547-6.004-.547s-2.732.213-3.413.639-1.186 1.235-1.515 2.427c-.328 1.192-.493 3.225-.493 6.096s.334 4.86 1.004 5.968c.669 1.107 2.007 1.661 4.015 1.661s4.143-.17 6.406-.512l.109 4.125zM901.475 935.354c-1.545 2.057-4.204 3.085-7.975 3.085s-6.43-1.028-7.975-3.085c-1.545-2.056-2.318-5.274-2.318-9.654s.772-7.634 2.318-9.764c1.545-2.129 4.203-3.193 7.975-3.193s6.43 1.064 7.975 3.193c1.545 2.13 2.318 5.384 2.318 9.764s-.772 7.599-2.318 9.654zm-12.009-3.212c.717 1.277 2.062 1.916 4.033 1.916s3.315-.639 4.033-1.916 1.077-3.418 1.077-6.424-.365-5.188-1.095-6.552c-.73-1.362-2.068-2.044-4.015-2.044s-3.285.682-4.015 2.044c-.73 1.363-1.095 3.547-1.095 6.552s.359 5.146 1.077 6.424zM908.1 938v-24.82h8.504l5.986 20.44h.365v-20.44h5.037V938h-8.285l-6.205-20.44h-.365V938H908.1zM949.125 937.599c-2.58.56-4.904.84-6.972.84s-3.723-.256-4.964-.767a6.125 6.125 0 01-2.92-2.446c-.706-1.118-1.193-2.433-1.46-3.941-.268-1.509-.402-3.406-.402-5.694 0-4.793.675-8.133 2.026-10.02 1.351-1.885 3.838-2.828 7.464-2.828 2.092 0 4.513.328 7.264.985l-.146 4.015c-2.409-.364-4.411-.547-6.004-.547s-2.732.213-3.413.639-1.186 1.235-1.515 2.427c-.328 1.192-.493 3.225-.493 6.096s.334 4.86 1.004 5.968c.669 1.107 2.007 1.661 4.015 1.661s4.143-.17 6.406-.512l.109 4.125zM953.213 938v-24.82h16.06v4.38H958.25v5.804h8.833v4.308h-8.833v5.949h11.023v4.38h-16.06zM982.559 930.773h-4.088V938h-5.037v-24.82h9.125c5.889 0 8.833 2.872 8.833 8.614 0 2.896-.749 5.116-2.245 6.661-1.496 1.546-3.692 2.318-6.588 2.318zm-4.088-4.307h4.051c2.506 0 3.76-1.557 3.76-4.672 0-1.533-.305-2.634-.912-3.303-.609-.67-1.558-1.004-2.848-1.004h-4.051v8.979zM992.705 917.633v-4.453h18.25v4.453h-6.57V938h-5.037v-20.367h-6.643zM1014.131 938v-24.82h5.036V938h-5.036zM1041.742 935.354c-1.545 2.057-4.203 3.085-7.975 3.085s-6.431-1.028-7.976-3.085c-1.546-2.056-2.317-5.274-2.317-9.654s.771-7.634 2.317-9.764c1.545-2.129 4.203-3.193 7.976-3.193s6.43 1.064 7.975 3.193c1.545 2.13 2.318 5.384 2.318 9.764s-.773 7.599-2.318 9.654zm-12.008-3.212c.717 1.277 2.062 1.916 4.033 1.916s3.314-.639 4.033-1.916c.717-1.277 1.076-3.418 1.076-6.424s-.365-5.188-1.095-6.552c-.729-1.362-2.068-2.044-4.015-2.044s-3.285.682-4.016 2.044c-.73 1.363-1.095 3.547-1.095 6.552s.358 5.146 1.077 6.424h.002zM1048.367 938v-24.82h8.504l5.986 20.44h.365v-20.44h5.036V938h-8.285l-6.205-20.44h-.365V938h-5.036z"/></g><g class="c29"><path class="c59" d="M765.463 1073.2v-35.496h22.968v6.264h-15.764v8.3h12.632v6.16h-12.632v8.509h15.764v6.264h-22.968z"/></g><g class="c29"><path class="c59" d="M797.538 1064.878v8.322h-5.037v-24.82h9.636c5.84 0 8.76 2.726 8.76 8.177 0 3.236-1.217 5.62-3.65 7.153l3.541 9.49h-5.511l-2.884-8.322h-4.855zm7.337-5.401c.584-.73.876-1.691.876-2.884s-.311-2.141-.931-2.847c-.62-.706-1.515-1.059-2.683-1.059h-4.599v7.884h4.672c1.192 0 2.081-.365 2.665-1.095zM825.46 1064.294v-4.38h7.227v12.885c-3.48.56-6.302.84-8.468.84-3.869 0-6.528-1.034-7.975-3.103-1.448-2.068-2.172-5.354-2.172-9.855s.754-7.75 2.263-9.745 4.076-2.993 7.702-2.993c2.263 0 4.708.255 7.336.767l1.314.255-.146 3.906c-2.92-.316-5.311-.475-7.172-.475s-3.17.219-3.924.656c-.755.438-1.309 1.248-1.661 2.428-.353 1.181-.529 3.2-.529 6.059s.352 4.861 1.058 6.005 2.166 1.715 4.38 1.715l3.029-.146v-4.818h-2.263zM854.605 1070.554c-1.545 2.057-4.204 3.085-7.975 3.085s-6.43-1.028-7.975-3.085c-1.545-2.056-2.318-5.274-2.318-9.654s.772-7.634 2.318-9.764c1.545-2.129 4.203-3.193 7.975-3.193s6.43 1.064 7.975 3.193c1.545 2.13 2.318 5.384 2.318 9.764s-.772 7.599-2.318 9.654zm-12.008-3.212c.717 1.277 2.062 1.916 4.033 1.916s3.315-.639 4.033-1.916 1.077-3.418 1.077-6.424-.365-5.188-1.095-6.552c-.73-1.362-2.068-2.044-4.015-2.044s-3.285.682-4.015 2.044c-.73 1.363-1.095 3.547-1.095 6.552s.359 5.146 1.077 6.424zM861.23 1073.2v-24.82h8.504l5.986 20.44h.365v-20.44h5.037v24.82h-8.285l-6.205-20.44h-.365v20.44h-5.037zM903.697 1070.554c-1.545 2.057-4.204 3.085-7.975 3.085s-6.43-1.028-7.975-3.085c-1.545-2.056-2.318-5.274-2.318-9.654s.772-7.634 2.318-9.764c1.545-2.129 4.203-3.193 7.975-3.193s6.43 1.064 7.975 3.193c1.545 2.13 2.318 5.384 2.318 9.764s-.772 7.599-2.318 9.654zm-12.009-3.212c.717 1.277 2.062 1.916 4.033 1.916s3.315-.639 4.033-1.916 1.077-3.418 1.077-6.424-.365-5.188-1.095-6.552c-.73-1.362-2.068-2.044-4.015-2.044s-3.285.682-4.015 2.044c-.73 1.363-1.095 3.547-1.095 6.552s.359 5.146 1.077 6.424zM910.322 1073.2v-24.82h8.577l4.38 18.104 4.38-18.104h8.578v24.82H931.2v-19.199h-.547l-4.855 18.104h-5.037l-4.854-18.104h-.548v19.199h-5.037zM941.638 1073.2v-24.82h5.037v24.82h-5.037zM952.077 1073.2v-24.82h16.061v4.38h-11.023v5.804h8.833v4.308h-8.833v5.949h11.023v4.38h-16.061z"/></g><g class="c29"><path class="c36" d="M981.201 1073.2v-24.82h8.577l4.38 18.104 4.381-18.104h8.577v24.82h-5.037v-19.199h-.548l-4.854 18.104h-5.036l-4.855-18.104h-.547v19.199h-5.038zM1029.69 1070.554c-1.546 2.057-4.204 3.085-7.976 3.085s-6.43-1.028-7.975-3.085c-1.545-2.056-2.318-5.274-2.318-9.654s.773-7.634 2.318-9.764c1.545-2.129 4.203-3.193 7.975-3.193s6.43 1.064 7.976 3.193c1.546 2.13 2.317 5.384 2.317 9.764s-.771 7.599-2.317 9.654zm-12.008-3.212c.718 1.277 2.062 1.916 4.033 1.916s3.316-.639 4.033-1.916c.719-1.277 1.077-3.418 1.077-6.424s-.364-5.188-1.095-6.552c-.73-1.362-2.068-2.044-4.016-2.044s-3.285.682-4.015 2.044c-.729 1.363-1.095 3.547-1.095 6.552s.359 5.146 1.076 6.424h.002zM1036.315 1048.38h9.745c2.579 0 4.514.518 5.804 1.552s1.935 2.707 1.935 5.019c0 1.387-.207 2.488-.621 3.304s-1.119 1.539-2.117 2.171c1.096.463 1.904 1.132 2.428 2.008s.785 2.093.785 3.65c0 2.408-.706 4.197-2.117 5.365-1.412 1.168-3.395 1.752-5.949 1.752h-9.892v-24.82h-.001zm9.49 4.308h-4.453v5.913h4.49c1.898 0 2.848-.986 2.848-2.957s-.963-2.956-2.885-2.956zm.146 10.146h-4.6v6.06h4.6c1.096 0 1.904-.22 2.428-.657.522-.438.784-1.241.784-2.409 0-1.995-1.071-2.993-3.212-2.993zM1058.543 1073.2v-24.82h5.037v24.82h-5.037zM1083.107 1073.2h-14.125v-24.82h5.037v20.367h9.088v4.453zM1086.21 1073.2v-24.82h16.06v4.38h-11.023v5.804h8.834v4.308h-8.834v5.949h11.023v4.38h-16.06z"/></g><path d="M391.847 686.666c3.563-.65 5.827-4.117 5.177-7.68s-4.117-5.827-7.68-5.177-5.827 4.117-5.177 7.68 4.117 5.827 7.68 5.177zm13.318 55.707c3.563-.65 5.827-4.117 5.177-7.68s-4.117-5.827-7.68-5.177-5.827 4.117-5.177 7.68 4.117 5.827 7.68 5.177zm18.052 48.859c.65 3.563-1.713 7.037-5.177 7.68s-7.037-1.713-7.68-5.177 1.713-7.037 5.177-7.68 7.037 1.713 7.68 5.177zm12.59 56.76c.65 3.563-1.713 7.037-5.177 7.68s-7.037-1.713-7.68-5.177 1.713-7.037 5.177-7.68 7.037 1.713 7.68 5.177z" style="isolation:isolate" fill-rule="evenodd" fill-opacity=".4" opacity=".3"/></g></g></g></g></svg>