<svg xmlns="http://www.w3.org/2000/svg" viewBox="0 0 58.8 58.8"><path d="M16.4 23.4h.2c.3.5.5 1 .8 1.5 4.4 8.1 8.7 16.2 13.1 24.3 1.1 2.1 2.7 3 5 2.9 6-.3 10.8-2.9 14-8 5.7-9.3 5.6-18.8.2-28.1-3.6-6.1-9.2-9-16.3-9-2.6-.2-4.4 1.6-4.4 4v7.2c0 2.4 1.9 4.2 4.2 4.2 2.3 0 4.2-1.8 4.3-4.2v-2.4c1.4 1.1 2.6 1.8 3.5 2.7 5 5.2 5.3 15.8.8 21.4-1.2 1.5-2.7 2.7-4.8 3-.3-.5-.5-.9-.7-1.3C30.7 31.3 25 20.9 19.5 10.4c-1.4-2.6-3.1-4-6.1-3.6-.4.1-.8 0-1.3 0-2.5.1-4.3 1.8-4.3 4.3v36.6c0 2.5 1.8 4.2 4.3 4.3H19c2.5 0 4.3-1.8 4.4-4.2 0-2.5-1.8-4.3-4.4-4.3h-2.6V23.4z" stroke="#fff" fill="purple"/></svg>