<svg version="1.1" id="UL" xmlns="http://www.w3.org/2000/svg" x="0" y="0" viewBox="0 0 650.4 213.9" xml:space="preserve"><style>.st0{fill:#000}</style><path fill="#fff" d="M48.2 37.8h97.4v132.9H48.2z"/><path d="M181.9 0v210.4L152.4 197l-21.1 8.8-1.8.8c-12.3 5-25.4 7.5-38.7 7.4-25.3 0-48.3-8.6-64.8-24.1-17-16.1-26-38-26-63.3V0h181.9zM48.2 37.8v112.7l44.1 20.1V37.8H48.2zm54.2 107.7v25.2l43.2-19.7v-25.2l-43.2 19.7z" fill="#ac2773"/><path class="st0" d="M398.5 40.2c-1.7 20.3-10.1 38.1-12.7 43.2l-.7 1.3-.7-1.3c-2.5-5-11-22.9-12.7-43.2h-8.6c.5 5 3.8 31.9 17.1 50.4h9.8c13.3-18.5 16.6-45.5 17.1-50.5l-8.6.1zM595.8 90.7h4.8v-7.8h-3c-4.5 0-6.6-2.2-6.6-7V46.7h9.6v-6.4H591V19.5h-8.9v20.8h-6.3v6.4h6.3v29.9c.1 12.7 9.6 14.1 13.7 14.1zM271 19.5h-9.1v47c0 10.1-6.2 16.6-15.9 16.6s-15.9-6.5-15.9-16.6v-47H221V67c-.1 6.6 2.4 12.9 7.1 17.4 4.9 4.4 11.3 6.8 17.9 6.7 5.4.1 10.7-1.5 15.2-4.5l.4-.2 9.4 4.3V19.5zM306.7 47.7c7 0 11.1 4.6 11.1 12.3v30.7h8.9V58.5c0-6.3-1.5-10.7-5-14-2.3-2.2-6.8-4.9-15-4.9-4.2 0-8.3 1.3-11.8 3.7l-.4.2-7.8-3.6v50.8h8.9V60c0-7.7 4.2-12.3 11.1-12.3zM488.1 47.7c1.8 0 3.6.3 5.2 1.1l4.7-7.6c-3.2-1.2-6.5-1.8-9.9-1.7-4.2 0-8.3 1.3-11.8 3.7l-.4.2-7.8-3.6v50.8h8.9V60c0-7.7 4.2-12.3 11.1-12.3zM341.2 40.2h8.9v50.5h-8.9zM341.2 19.5h8.9v8.9h-8.9zM554.1 40.2h8.9v50.5h-8.9zM554.1 19.5h8.9v8.9h-8.9zM393.5 141.3h8.9v50.4h-8.9zM393.5 120.5h8.9v8.9h-8.9zM451.2 79.3c-1.5 1.5-3.4 2.7-5.4 3.5-2.4.8-5 1.2-7.6 1.1-6.8 0-11.5-3.4-13.2-9.7l-.2-.8.9-.1 1.7-.2c5.5-.7 13.7-1.7 20.8-5.6 4.2-2.3 6.6-4.6 7.7-7.7 1.1-2.8 1.3-6 .6-8.9-.8-3.5-3-6.5-6-8.4-3.1-2.1-7.4-3-13.7-3-3.1 0-6.1.5-9 1.7-2.6 1.1-4.8 2.8-6.6 5-1.9 2.4-3.3 5.2-4.1 8.1-1 3.6-1.5 7.3-1.4 11.1 0 9.1 2.2 16 6.5 20.3 3.8 3.8 9.1 5.7 16 5.7 6.9.4 13.6-2.3 18.3-7.4l-5.3-4.7zm-27-13.6v-4.5c0-1.3.1-2.7.3-4 .2-1.2.6-2.3 1.1-3.4 1.6-3.9 5.9-6.3 11.1-6.3 3.7 0 8.5.7 10.8 4 1 1.5 1.2 3.4.6 5.1-.9 2.7-3.5 5-7.6 6.5-5 1.7-10.2 2.9-15.4 3.4l-.8.1-.1-.9zM309.6 180.3c-1.5 1.5-3.4 2.7-5.4 3.5-2.4.8-5 1.2-7.6 1.1-6.8 0-11.5-3.4-13.2-9.6l-.2-.8.8-.2 1.7-.2c5.5-.7 13.7-1.7 20.8-5.6 4.2-2.3 6.6-4.6 7.7-7.7 1.1-2.8 1.3-6 .6-8.9-.8-3.5-3-6.5-6-8.4-3.1-2.1-7.4-3-13.7-3-3.1 0-6.1.5-9 1.7-2.6 1.1-4.8 2.8-6.6 5-1.9 2.4-3.3 5.2-4.1 8.1-1 3.6-1.5 7.3-1.4 11.1 0 9.1 2.2 16 6.5 20.3 3.8 3.8 9.1 5.7 16 5.7 6.9.4 13.6-2.3 18.3-7.4l-5.2-4.7zm-27-13.6v-4.5c0-1.3.1-2.7.3-4 .2-1.2.6-2.3 1.1-3.4 1.6-3.9 5.9-6.3 11.1-6.3 3.7 0 8.5.7 10.8 4 1 1.5 1.2 3.4.6 5.1-.9 2.7-3.5 5-7.6 6.5-5 1.7-10.2 2.9-15.4 3.4l-.8.1-.1-.9zM509.8 180.3c-1.5 1.5-3.4 2.7-5.4 3.5-2.4.8-5 1.2-7.6 1.1-6.8 0-11.5-3.4-13.2-9.6l-.2-.8.8-.2 1.7-.2c5.5-.7 13.7-1.7 20.8-5.6 4.2-2.3 6.6-4.6 7.7-7.7 1.1-2.8 1.3-6 .6-8.9-.8-3.5-3-6.5-6-8.4-3.1-2.1-7.4-3-13.7-3-3.1 0-6.1.5-9 1.7-2.6 1.1-4.8 2.8-6.6 5-1.9 2.4-3.3 5.2-4.1 8.1-1 3.6-1.5 7.3-1.4 11.1 0 9.1 2.2 16 6.5 20.3 3.8 3.8 9.1 5.7 16 5.7 6.9.4 13.6-2.3 18.3-7.4l-5.2-4.7zm-27-13.6v-4.5c0-1.3.1-2.7.3-4 .2-1.2.6-2.3 1.1-3.4 1.6-3.9 5.9-6.3 11.1-6.3 3.7 0 8.5.7 10.8 4 1 1.5 1.2 3.4.6 5.1-.9 2.7-3.5 5-7.6 6.5-5 1.7-10.2 2.9-15.4 3.4l-.8.1-.1-.9zM644.9 79.3c-1.5 1.5-3.4 2.7-5.4 3.5-2.4.8-5 1.2-7.6 1.1-6.8 0-11.5-3.4-13.2-9.7l-.2-.8.9-.1 1.7-.2c5.5-.7 13.7-1.7 20.8-5.6 4.2-2.3 6.6-4.6 7.7-7.7 1.1-2.8 1.3-6 .6-8.9-.8-3.5-3-6.5-6-8.4-3.1-2.1-7.4-3-13.7-3-3.1 0-6.1.5-9 1.7-2.6 1.1-4.8 2.8-6.6 5-1.9 2.4-3.3 5.2-4.1 8.1-1 3.6-1.5 7.3-1.4 11.1 0 9.1 2.2 16 6.5 20.3 3.8 3.8 9.2 5.7 16 5.7 6.9.4 13.6-2.4 18.2-7.4l-5.2-4.7zm-27-13.6v-4.5c0-1.3.1-2.7.3-4 .2-1.2.6-2.3 1.1-3.4 1.6-3.9 5.9-6.3 11.1-6.3 3.7 0 8.5.7 10.8 4 1 1.5 1.2 3.4.7 5.1-.9 2.7-3.5 5-7.6 6.5-5 1.7-10.2 2.9-15.4 3.4l-.8.1-.2-.9zM527.7 61.6l-8.2-.7c-5.3-.5-7.8-2.7-7.8-6.7 0-4.6 3.9-7.4 10.1-7.4 5.3 0 9.6 1.2 12.7 3.5l5.5-5.6c-4.3-3.5-10.2-5.2-18-5.2-9.3 0-18.7 4.7-18.7 15.2 0 8.4 4.8 12.8 14.6 13.7l8.2.7c5 .4 7.6 2.8 7.6 6.9 0 4.9-4.6 8-12 8-6.3 0-11.2-1.7-14.9-5.2l-5.8 5.8c5.1 4.8 11.1 6.8 20.6 6.8 12.8 0 20.7-6.1 20.7-15.8.1-8.4-4.8-13.1-14.6-14zM262.5 120.5h-8.9v22.6l-1.1-.5c-3.5-1.4-7.2-2.1-10.9-2-14 0-21.1 8.6-21.1 25.6 0 21.3 12.2 25.7 22.5 25.7 4.1 0 8-1.3 11.2-3.8l.4-.3 8 3.6-.1-70.9zm-8.8 55.6c0 4.2-3.9 8.5-10.5 8.5-8.7 0-13.9-5.7-13.9-15.2v-7.2c-.1-2.5.4-5 1.4-7.3 1.6-3.9 5.8-6.2 11-6.2 7.7 0 11.9 2.9 12 8.2v19.2zM362.5 191.8h21.4v-7.4h-19.6c-4.3 0-6.4-2.1-6.4-6.8v-57.1H349v57.7c0 8.5 5.1 13.6 13.5 13.6zM432.6 191.8h4.8V184h-3c-4.5 0-6.6-2.2-6.6-7v-56.5h-8.9v57.1c0 12.8 9.6 14.2 13.7 14.2zM462 191.8h4.8V184h-3c-4.5 0-6.6-2.2-6.6-7v-56.5h-8.9v57.1c0 12.8 9.6 14.2 13.7 14.2zM619.4 27.4v7.4l22.2-10.2v-7.4z"/></svg>