<svg xmlns="http://www.w3.org/2000/svg" viewBox="0 0 600.01 873.4"><defs><style>.cls-1{fill:#246e9f}</style></defs><!--Generator: Adobe Illustrator 28.7.1, SVG Export Plug-In . SVG Version: 1.2.0 Build 142)--><g id="Calque_1"><circle class="cls-1" cx="535.01" cy="808.4" r="65"/><path class="cls-1" d="M545.34 336.92c22.16 22.16 40.48 47.26 54.67 74.84V132l-130-130v280c27.77 14.22 53.04 32.64 75.33 54.93v-.01z"/><path d="M300.01 743.4c-93.74 0-170-76.26-170-170s76.26-170 170-170S469.79 479.45 470 573v155.94c17.59-14.74 40.27-23.63 65.02-23.63s47.39 8.87 64.98 23.59V573c-.05-40.33-7.99-79.49-23.6-116.39-15.11-35.73-36.73-67.81-64.27-95.34-27.53-27.53-59.61-49.15-95.34-64.27-37.03-15.66-76.32-23.6-116.79-23.6s-79.77 7.94-116.79 23.6c-35.73 15.11-67.81 36.74-95.34 64.27s-49.15 59.61-64.27 95.34C7.94 493.64 0 532.93 0 573.4s7.94 79.77 23.6 116.79c15.11 35.73 36.74 67.81 64.27 95.34 27.53 27.53 59.61 49.15 95.34 64.27 37.03 15.66 76.32 23.6 116.79 23.6s79.77-7.94 116.79-23.6c5.15-2.18 10.21-4.51 15.21-6.95V680.4c-31.19 38.41-78.78 63-132 63h.01z" fill="#333"/></g></svg>