<!--Generator: Adobe Illustrator 25.1.0, SVG Export Plug-In . SVG Version: 6.00 Build 0)--><svg version="1.1" id="Layer_1" xmlns="http://www.w3.org/2000/svg" x="0" y="0" viewBox="0 0 391.5 512" xml:space="preserve"><style>.st4{fill:#a07765}.st5{fill:#f2a661}</style><path d="M360.7 437c0 41-23.1 70.7-54.9 70.7-37.6 0-61.3-19.1-68.4-54.3-26.1 9.5-57 9.5-83.1 0-7.1 35.2-30.8 54.3-68.4 54.3-31.8 0-54.9-29.8-54.9-70.7 0-24.5-42.1-53.1-21.9-93.5 14.4-28.7 29.8-112.7 29.8-150.1 0-32.9 18.5-50.9 33.5-58.6-.5-30.8 4.7-55.9 15.6-74.9 23.3-41.2 67.8-58.4 107.7-55.1 5.3-.4 20.8-1.1 39.1 3.4 30 7.5 53.8 25.4 68.7 51.6 10.9 19 16.1 44.1 15.7 74.9 15 7.7 33.5 25.7 33.5 58.6 0 37.5 15.4 121.4 29.8 150.1 20.4 40.5-21.8 69-21.8 93.6z" fill="#734835"/><path d="M297.4 260c-6.9 27.4 8.6 75.3.2 117.2-6.2 31.1-1.8 58.2-20.9 68.7-7.7 4.2-16.4 3.6-24.6.9-33.2 18.4-79.2 18.5-112.6 0-8.3 2.8-16.9 3.3-24.6-.9-19.2-10.5-14.7-37.6-20.9-68.7-4.4-22.1-2.3-45.4-.1-67.4 3.7-39 2.3-42.5-2.3-59.4-15-57-33.2-138.7-3.7-190.4 15.3-26.8 39.3-44.3 68.7-51.6 18.3-4.6 33.8-3.9 39.1-3.4 5.3-.4 20.8-1.1 39.1 3.4 30 7.5 53.8 25.4 68.7 51.6 14 24.5 18.7 59.1 14 102.8-4.1 39.4-14.4 74.5-20.1 97.2z" fill="#f2f2f2"/><path d="M235.1 275.9c0 10.1-12.7 51.1-39.3 51.1s-39.3-41-39.3-51.1c-.1-36.7 78.6-36.7 78.6 0z" fill="#999"/><path d="M259.6 442.1c-36 24.6-91.8 24.7-127.8 0-9.8-6.8-8.8-21.6 1.9-27 22.4-11.2 46.3-72.7 46.3-95.9 0-8.7 7.1-15.7 15.7-15.7 8.7 0 15.7 7.1 15.7 15.7 0 23.4 24 84.7 46.3 95.9 10.8 5.3 11.8 20.2 1.9 27z" fill="#ece2e2"/><path class="st4" d="M156.4 209.1c-24.9 20.7-62.8 102.1-62.8 149.3 0 3.9-.4 7.5-1.1 10.1-4.9-39.1 8-83 1.6-108.4-15.7-62.6-40.4-152.9-.3-209.5 27.1-8.7 69.9-15.7 86.3 17.1 7.8 15.7 23.5 102.1-23.7 141.4z"/><path class="st4" d="M235.1 209.1c24.9 20.7 62.8 102.1 62.8 149.3 0 3.9.4 7.5 1.1 10.1 4.9-39.1-8-83-1.6-108.4 15.7-62.6 40.4-152.9.3-209.5-27.1-8.7-69.9-15.7-86.3 17.1-7.8 15.7-23.5 102.1 23.7 141.4z"/><circle cx="144.6" cy="142.3" r="19.7"/><circle cx="246.9" cy="142.3" r="19.7"/><path d="M386 345c-14.6-29.2-30.3-114.6-30.3-152.7 0-33.5-18.8-51.8-34.1-59.6.4-31.3-4.9-56.9-16-76.2-15.4-26.9-39.6-45-70-52.6C217-.8 201.2-.1 195.8.4 190.4 0 174.6-.7 156 3.9c-30.5 7.6-54.7 25.8-69.9 52.5-11 19.3-16.4 44.9-16 76.2-15.3 7.8-34.1 26.1-34.1 59.6C36 230.3 20.3 315.8 5.7 345-14.9 386.1 28 415.1 28 440.1c0 41.7 23.5 71.9 55.9 71.9 38.3 0 62.4-19.4 69.6-55.2 26.6 9.7 58 9.7 84.5 0 7.2 35.8 31.3 55.2 69.6 55.2 32.4 0 55.9-30.3 55.9-71.9.2-25 43.1-54.1 22.5-95.1zM113.8 72.2c27-47.2 79.7-39.5 83.9-40 2.2-.3 54-5.7 80.1 40 25.9 45.3 2.9 132.5-6.9 169.7-6.1 23-7.1 30.1-3.2 71.6 5.3 55.2.7 45.8-3.8 88.9-.6 5.4-1.3 12.2-2.2 16.6-25.7-10.8-48-72.2-49.9-96.4 16.1-11.6 23.9-38.5 23.9-46.5 0-37.2-79.9-37.4-79.9 0 0 8 7.7 34.8 23.9 46.5-1.8 24.1-24.1 85.5-49.9 96.4-.9-4.4-1.6-11.2-2.2-16.6-4.5-42.9-9-33.6-3.8-88.9 3.8-39.8 3.1-47.8-3.2-71.6-9.7-37.2-32.7-124.4-6.8-169.7zm82 221.6c-2.4-3.3-4.9-8.6-6.5-13 4-.9 9-.9 13 0-1.6 4.4-4.1 9.7-6.5 13zM83.9 480c-15.7 0-24-20.1-24-40 0-36.4-36.1-59.9-25.7-80.8 17.3-34.7 33.7-123.5 33.7-167 0-8.2 1.7-15.1 5.2-20.6 4.3 31.3 11.9 60.4 16.7 78.5 4.4 16.8 6.1 19.9 2.3 60.4-5.7 59.7-.4 54.6 3.8 95.2 2 18.9 3.9 42.9 26.1 46.1-5.3 24.4-21.2 28.2-38.1 28.2zm85.1-51.7c11.2-13 20.1-29.9 26.8-45.9 6.7 16 15.6 32.8 26.8 45.9-16.9 5-36.6 5-53.6 0zm162.8 11.8c0 19.9-8.2 40-24 40-16.9 0-32.8-3.9-38.1-28.1 2.8-.4 5.7-1.3 8.5-2.8 19.5-10.7 15-38.2 21.3-69.9 8.5-42.6-7.2-91.2-.2-119.1 4.1-16.5 14.1-50.5 19.3-88.4 3.4 5.5 5.2 12.4 5.2 20.6 0 43.5 16.3 132.3 33.7 167 10.4 20.8-25.7 44.3-25.7 80.7z"/><path class="st5" d="M118.3 98s33.3-22.2 38.9-5.6c10.5 31.9-58.8 25.6-38.9 5.6zM273.2 98s-33.3-22.2-38.9-5.6c-10.5 31.9 58.8 25.6 38.9 5.6z"/></svg>