<svg xmlns="http://www.w3.org/2000/svg" viewBox="0 0 40.9 19.5"><g fill="#ac73e3"><path d="M40.1 6.5h-4c-1 0-1.8-.8-1.8-1.8v-4c0-.4.3-.8.8-.8s.8.3.8.8v4c0 .2.1.3.2.3h4c.4 0 .8.3.8.8s-.4.7-.8.7z"/><path d="M38.1 19.5h-10c-1.5 0-2.8-1.2-2.8-2.8v-14c0-1.5 1.2-2.8 2.8-2.8h7c.2 0 .4.1.5.2l5 5c.1.1.2.3.2.5v11c.1 1.7-1.2 2.9-2.7 2.9zm-10-18c-.7 0-1.2.6-1.2 1.2v14c0 .7.6 1.2 1.2 1.2h10c.7 0 1.2-.6 1.2-1.2V6.1l-4.6-4.6h-6.6z"/><path d="M31.1 7.5h-1c-.4 0-.8-.3-.8-.8s.4-.7.8-.7h1c.4 0 .8.3.8.8s-.4.7-.8.7zM36.1 11.5h-6c-.4 0-.8-.3-.8-.8s.3-.8.8-.8h6c.4 0 .8.3.8.8s-.4.8-.8.8zM36.1 15.5h-6c-.4 0-.8-.3-.8-.8s.3-.8.8-.8h6c.4 0 .8.3.8.8s-.4.8-.8.8z"/></g><g fill="#c87478"><path d="M18.8 16.5h-16c-1.5 0-2.8-1.2-2.8-2.8v-8C0 4.2 1.2 3 2.8 3h16c1.5 0 2.8 1.2 2.8 2.8v8c-.1 1.5-1.3 2.7-2.8 2.7zm-16-12c-.7 0-1.2.6-1.2 1.2v8c0 .7.6 1.2 1.2 1.2h16c.7 0 1.2-.6 1.2-1.2v-8c0-.7-.6-1.2-1.2-1.2h-16z"/><path d="M6.8 12.5c-.5 0-.8-.3-.8-.7v-1.3H4.8c-.5 0-.8-.3-.8-.7s.3-.8.8-.8H6V7.8c0-.5.3-.8.8-.8s.8.3.8.8V9h1.2c.4 0 .8.3.8.8s-.4.7-.8.7H7.5v1.2c0 .5-.3.8-.7.8zM13.8 9.5c-.4 0-.8-.3-.8-.8s.3-.7.8-.7.8.3.8.7c-.1.5-.4.8-.8.8zM16.8 11.5c-.4 0-.8-.3-.8-.8s.3-.7.8-.7.8.3.8.7c-.1.5-.4.8-.8.8z"/></g></svg>