<svg xmlns="http://www.w3.org/2000/svg" viewBox="0 0 300 204"><defs><style>.cls-1{opacity:.1}.cls-1,.cls-2,.cls-3{isolation:isolate}.cls-2{opacity:.2}.cls-4{fill:#6891c8}.cls-3{fill:#fff;opacity:.3}</style></defs><!--Generator: Adobe Illustrator 28.7.1, SVG Export Plug-In . SVG Version: 1.2.0 Build 142)--><g id="Calque_8"><g id="Calque_3"><g id="Calque_1"><path class="cls-4" d="M100 59.67L50 88.536v-30.39l50-28.866v30.39z"/><path class="cls-1" d="M100 59.67L50 88.536v-30.39l50-28.866v30.39z"/><path class="cls-4" d="M.008 59.67L50 88.536v-30.39L0 29.28"/><path class="cls-2" d="M.008 59.67L50 88.536v-30.39L0 29.28"/><path class="cls-4" d="M0 29.28l50 28.866 50-28.866L50 .414 0 29.28"/><path class="cls-4" d="M62.462 11.868c0-1.842-1.213-3.684-3.646-5.086-4.867-2.813-12.758-2.813-17.624 0-2.434 1.402-3.654 3.244-3.654 5.086v4.92c0 1.842 1.22 3.676 3.654 5.086 4.866 2.813 12.757 2.813 17.624 0 2.433-1.41 3.654-3.244 3.646-5.086v-4.92z"/><path class="cls-1" d="M58.816 6.774c2.433 1.403 3.654 3.245 3.646 5.087v4.92c0 1.841-1.213 3.676-3.646 5.086A18.05 18.05 0 0150 23.997V4.667c3.07-.063 6.106.663 8.816 2.107z"/><path class="cls-2" d="M41.192 6.774c-2.434 1.403-3.654 3.245-3.654 5.087v4.92c0 1.841 1.22 3.676 3.654 5.086A18.04 18.04 0 0050 23.997V4.667c-3.068-.062-6.1.664-8.808 2.107z"/><path class="cls-4" d="M41.192 6.774c-4.867 2.805-4.867 7.36 0 10.173s12.757 2.812 17.624 0 4.866-7.368 0-10.173-12.758-2.812-17.624 0z"/><path class="cls-3" d="M41.192 6.774c-4.867 2.805-4.867 7.36 0 10.173s12.757 2.812 17.624 0 4.866-7.368 0-10.173-12.758-2.812-17.624 0z"/><path class="cls-4" d="M62.462 40.014c0-1.834-1.213-3.676-3.646-5.086-4.867-2.813-12.758-2.813-17.624 0-2.434 1.41-3.654 3.244-3.654 5.086v4.92c0 1.842 1.22 3.684 3.654 5.086 4.866 2.812 12.757 2.812 17.624 0 2.433-1.402 3.654-3.244 3.646-5.086v-4.92z"/><path class="cls-1" d="M58.816 34.928c2.433 1.41 3.654 3.244 3.646 5.086v4.92c0 1.842-1.213 3.684-3.646 5.086A17.882 17.882 0 0150 52.127V32.82a18.05 18.05 0 018.816 2.108z"/><path class="cls-2" d="M41.192 34.928c-2.434 1.41-3.654 3.244-3.654 5.086v4.92c0 1.842 1.22 3.684 3.654 5.086A17.874 17.874 0 0050 52.127V32.82c-3.067-.058-6.1.668-8.808 2.108z"/><path class="cls-4" d="M41.192 34.928c-4.867 2.812-4.867 7.368 0 10.18s12.757 2.805 17.624 0 4.866-7.368 0-10.18-12.758-2.813-17.624 0z"/><path class="cls-3" d="M41.192 34.928c-4.867 2.812-4.867 7.368 0 10.18s12.757 2.805 17.624 0 4.866-7.368 0-10.18-12.758-2.813-17.624 0z"/><path class="cls-4" d="M38.106 25.93c0-1.842-1.22-3.684-3.653-5.087-4.867-2.812-12.758-2.812-17.625 0-2.433 1.403-3.653 3.245-3.653 5.087v4.89c0 1.841 1.22 3.683 3.653 5.085 4.867 2.813 12.758 2.813 17.625 0 2.433-1.402 3.653-3.244 3.653-5.086v-4.89z"/><path class="cls-1" d="M34.438 20.843c2.433 1.403 3.653 3.245 3.653 5.087v4.92c0 1.841-1.22 3.683-3.654 5.086a17.965 17.965 0 01-8.815 2.107V18.736a18.05 18.05 0 018.815 2.107z"/><path class="cls-2" d="M16.813 20.843c-2.433 1.403-3.654 3.245-3.654 5.087v4.89c0 1.841 1.22 3.683 3.654 5.085a17.957 17.957 0 008.809 2.108V18.736c-3.068-.058-6.1.667-8.809 2.107z"/><path class="cls-4" d="M16.813 20.843c-4.866 2.813-4.866 7.368 0 10.173s12.758 2.812 17.625 0 4.866-7.36 0-10.173-12.758-2.812-17.625 0z"/><path class="cls-3" d="M16.813 20.843c-4.866 2.813-4.866 7.368 0 10.173s12.758 2.812 17.625 0 4.866-7.36 0-10.173-12.758-2.812-17.625 0z"/><path class="cls-4" d="M86.84 25.937c0-1.842-1.212-3.684-3.646-5.086-4.866-2.812-12.757-2.812-17.624 0-2.44 1.402-3.654 3.244-3.654 5.086v4.92c0 1.842 1.213 3.684 3.646 5.086 4.875 2.813 12.766 2.813 17.632 0 2.434-1.402 3.646-3.244 3.646-5.086v-4.92z"/><path class="cls-1" d="M83.194 20.851c2.434 1.402 3.646 3.244 3.646 5.086v4.92c0 1.842-1.212 3.684-3.646 5.086a17.965 17.965 0 01-8.816 2.108V18.744a18.05 18.05 0 018.816 2.107z"/><path class="cls-2" d="M65.57 20.851c-2.44 1.402-3.654 3.244-3.654 5.086v4.92c0 1.842 1.213 3.684 3.646 5.086a17.988 17.988 0 008.817 2.108V18.744c-3.068-.06-6.1.666-8.809 2.107z"/><path class="cls-4" d="M65.57 20.851c-4.874 2.812-4.874 7.368 0 10.18s12.765 2.805 17.632 0 4.867-7.368 0-10.18-12.765-2.812-17.632 0z"/><path class="cls-3" d="M65.57 20.851c-4.874 2.812-4.874 7.368 0 10.18s12.765 2.805 17.632 0 4.867-7.368 0-10.18-12.765-2.812-17.632 0z"/></g><g id="Calque_2"><path class="cls-4" d="M150 88.536l-50 28.866v-30.39l50-28.866v30.39z"/><path class="cls-1" d="M150 88.536l-50 28.866v-30.39l50-28.866v30.39z"/><path class="cls-4" d="M50.008 88.536L100 117.402v-30.39L50 58.146"/><path class="cls-2" d="M50.008 88.536L100 117.402v-30.39L50 58.146"/><path class="cls-4" d="M50 58.146l50 28.866 50-28.866-50-28.866-50 28.866"/><path class="cls-4" d="M112.462 40.734c0-1.842-1.213-3.684-3.646-5.086-4.867-2.812-12.758-2.812-17.624 0-2.434 1.402-3.654 3.244-3.654 5.086v4.92c0 1.842 1.22 3.676 3.654 5.086 4.866 2.813 12.757 2.813 17.624 0 2.433-1.41 3.654-3.244 3.646-5.086v-4.92z"/><path class="cls-1" d="M108.816 35.64c2.433 1.403 3.654 3.245 3.646 5.087v4.92c0 1.841-1.213 3.676-3.646 5.086a18.05 18.05 0 01-8.816 2.13v-19.33c3.07-.063 6.106.663 8.816 2.107z"/><path class="cls-2" d="M91.192 35.64c-2.434 1.403-3.654 3.245-3.654 5.087v4.92c0 1.841 1.22 3.676 3.654 5.086a18.04 18.04 0 008.808 2.13v-19.33c-3.068-.062-6.1.664-8.808 2.107z"/><path class="cls-4" d="M91.192 35.64c-4.867 2.805-4.867 7.36 0 10.173 4.866 2.812 12.757 2.812 17.624 0 4.866-2.812 4.866-7.368 0-10.173s-12.758-2.812-17.624 0z"/><path class="cls-3" d="M91.192 35.64c-4.867 2.805-4.867 7.36 0 10.173 4.866 2.812 12.757 2.812 17.624 0 4.866-2.812 4.866-7.368 0-10.173s-12.758-2.812-17.624 0z"/><path class="cls-4" d="M112.462 68.88c0-1.834-1.213-3.676-3.646-5.086-4.867-2.812-12.758-2.812-17.624 0-2.434 1.41-3.654 3.244-3.654 5.086v4.92c0 1.842 1.22 3.684 3.654 5.086 4.866 2.813 12.757 2.813 17.624 0 2.433-1.402 3.654-3.244 3.646-5.086v-4.92z"/><path class="cls-1" d="M108.816 63.794c2.433 1.41 3.654 3.244 3.646 5.086v4.92c0 1.842-1.213 3.684-3.646 5.086A17.882 17.882 0 01100 80.993V61.686a18.05 18.05 0 018.816 2.108z"/><path class="cls-2" d="M91.192 63.794c-2.434 1.41-3.654 3.244-3.654 5.086v4.92c0 1.842 1.22 3.684 3.654 5.086A17.874 17.874 0 00100 80.993V61.686c-3.067-.058-6.1.668-8.808 2.108z"/><path class="cls-4" d="M91.192 63.794c-4.867 2.812-4.867 7.368 0 10.18s12.757 2.805 17.624 0c4.866-2.805 4.866-7.368 0-10.18-4.867-2.813-12.758-2.813-17.624 0z"/><path class="cls-3" d="M91.192 63.794c-4.867 2.812-4.867 7.368 0 10.18s12.757 2.805 17.624 0c4.866-2.805 4.866-7.368 0-10.18-4.867-2.813-12.758-2.813-17.624 0z"/><path class="cls-4" d="M88.106 54.796c0-1.842-1.22-3.684-3.653-5.087-4.867-2.812-12.758-2.812-17.625 0-2.433 1.403-3.653 3.245-3.653 5.087v4.89c0 1.841 1.22 3.683 3.653 5.085 4.867 2.813 12.758 2.813 17.625 0 2.433-1.402 3.653-3.244 3.653-5.086v-4.89z"/><path class="cls-1" d="M84.438 49.71c2.433 1.402 3.653 3.244 3.653 5.086v4.92c0 1.841-1.22 3.683-3.653 5.086a17.965 17.965 0 01-8.817 2.107V47.602a18.05 18.05 0 018.817 2.107z"/><path class="cls-2" d="M66.813 49.71c-2.433 1.402-3.654 3.244-3.654 5.086v4.89c0 1.841 1.22 3.683 3.654 5.085a17.957 17.957 0 008.809 2.108V47.602c-3.068-.058-6.1.667-8.809 2.107z"/><path class="cls-4" d="M66.813 49.71c-4.866 2.812-4.866 7.368 0 10.172s12.758 2.813 17.624 0 4.867-7.36 0-10.173c-4.866-2.812-12.757-2.812-17.624 0z"/><path class="cls-3" d="M66.813 49.71c-4.866 2.812-4.866 7.368 0 10.172s12.758 2.813 17.624 0 4.867-7.36 0-10.173c-4.866-2.812-12.757-2.812-17.624 0z"/><path class="cls-4" d="M136.84 54.803c0-1.842-1.212-3.684-3.646-5.086-4.866-2.812-12.757-2.812-17.624 0-2.44 1.402-3.654 3.244-3.654 5.086v4.92c0 1.842 1.213 3.684 3.646 5.086 4.875 2.813 12.766 2.813 17.632 0 2.434-1.402 3.647-3.244 3.647-5.086v-4.92z"/><path class="cls-1" d="M133.194 49.717c2.434 1.402 3.647 3.244 3.647 5.086v4.92c0 1.842-1.213 3.684-3.647 5.086a17.965 17.965 0 01-8.816 2.108V47.61a18.05 18.05 0 018.816 2.107z"/><path class="cls-2" d="M115.57 49.717c-2.44 1.402-3.654 3.244-3.654 5.086v4.92c0 1.842 1.213 3.684 3.646 5.086a17.988 17.988 0 008.817 2.108V47.61c-3.068-.06-6.1.666-8.809 2.107z"/><path class="cls-4" d="M115.57 49.717c-4.874 2.812-4.874 7.368 0 10.18s12.765 2.805 17.632 0 4.867-7.368 0-10.18-12.765-2.812-17.632 0z"/><path class="cls-3" d="M115.57 49.717c-4.874 2.812-4.874 7.368 0 10.18s12.765 2.805 17.632 0 4.867-7.368 0-10.18-12.765-2.812-17.632 0z"/></g></g><g id="Calque_5"><path class="cls-4" d="M199.993 117.401l-50 28.866v-30.39l50-28.866v30.39z"/><path class="cls-1" d="M199.993 117.401l-50 28.866v-30.39l50-28.866v30.39z"/><path class="cls-4" d="M100 117.401l49.993 28.866v-30.39l-50-28.866"/><path class="cls-2" d="M100 117.401l49.993 28.866v-30.39l-50-28.866"/><path class="cls-4" d="M99.993 87.011l50 28.866 50-28.866-50-28.866-50 28.866"/><path class="cls-4" d="M162.455 69.6c0-1.843-1.213-3.685-3.647-5.087-4.866-2.812-12.757-2.812-17.624 0-2.433 1.402-3.653 3.244-3.653 5.086v4.92c0 1.842 1.22 3.676 3.653 5.086 4.867 2.813 12.758 2.813 17.625 0 2.433-1.41 3.653-3.244 3.646-5.086v-4.92z"/><path class="cls-1" d="M158.809 64.505c2.433 1.403 3.653 3.245 3.646 5.087v4.92c0 1.841-1.213 3.676-3.647 5.086a18.05 18.05 0 01-8.815 2.13v-19.33c3.07-.063 6.105.663 8.816 2.107z"/><path class="cls-2" d="M141.184 64.505c-2.433 1.403-3.654 3.245-3.654 5.087v4.92c0 1.841 1.22 3.676 3.654 5.086a18.04 18.04 0 008.809 2.13v-19.33c-3.068-.062-6.101.664-8.809 2.107z"/><path class="cls-4" d="M141.184 64.505c-4.866 2.805-4.866 7.36 0 10.173s12.758 2.812 17.624 0 4.867-7.368 0-10.173-12.757-2.812-17.624 0z"/><path class="cls-3" d="M141.184 64.505c-4.866 2.805-4.866 7.36 0 10.173s12.758 2.812 17.624 0 4.867-7.368 0-10.173-12.757-2.812-17.624 0z"/><path class="cls-4" d="M162.455 97.745c0-1.834-1.213-3.676-3.647-5.086-4.866-2.813-12.757-2.813-17.624 0-2.433 1.41-3.653 3.244-3.653 5.086v4.92c0 1.842 1.22 3.684 3.653 5.086 4.867 2.812 12.758 2.812 17.625 0 2.433-1.402 3.653-3.244 3.646-5.086v-4.92z"/><path class="cls-1" d="M158.809 92.659c2.433 1.41 3.653 3.244 3.646 5.086v4.92c0 1.842-1.213 3.684-3.647 5.086a17.882 17.882 0 01-8.815 2.107V90.551a18.05 18.05 0 018.816 2.108z"/><path class="cls-2" d="M141.184 92.659c-2.433 1.41-3.654 3.244-3.654 5.086v4.92c0 1.842 1.22 3.684 3.654 5.086a17.874 17.874 0 008.809 2.107V90.551c-3.068-.058-6.1.668-8.809 2.108z"/><path class="cls-4" d="M141.184 92.659c-4.866 2.812-4.866 7.368 0 10.18 4.867 2.812 12.758 2.805 17.624 0s4.867-7.368 0-10.18-12.757-2.813-17.624 0z"/><path class="cls-3" d="M141.184 92.659c-4.866 2.812-4.866 7.368 0 10.18 4.867 2.812 12.758 2.805 17.624 0s4.867-7.368 0-10.18-12.757-2.813-17.624 0z"/><path class="cls-4" d="M138.099 83.66c0-1.841-1.22-3.683-3.654-5.086-4.866-2.812-12.757-2.812-17.624 0-2.433 1.403-3.654 3.245-3.654 5.087v4.89c0 1.841 1.22 3.683 3.654 5.085 4.866 2.813 12.758 2.813 17.624 0 2.434-1.402 3.654-3.244 3.654-5.086v-4.89z"/><path class="cls-1" d="M134.43 78.574c2.433 1.403 3.654 3.245 3.654 5.087v4.92c0 1.841-1.22 3.683-3.654 5.086a17.965 17.965 0 01-8.816 2.107V76.467a18.05 18.05 0 018.816 2.107z"/><path class="cls-2" d="M116.806 78.574c-2.434 1.403-3.654 3.245-3.654 5.087v4.89c0 1.841 1.22 3.683 3.654 5.085a17.957 17.957 0 008.808 2.108V76.467c-3.067-.058-6.1.667-8.808 2.107z"/><path class="cls-4" d="M116.806 78.574c-4.867 2.813-4.867 7.368 0 10.173s12.757 2.812 17.624 0 4.867-7.36 0-10.173c-4.867-2.812-12.758-2.812-17.624 0z"/><path class="cls-3" d="M116.806 78.574c-4.867 2.813-4.867 7.368 0 10.173s12.757 2.812 17.624 0 4.867-7.36 0-10.173c-4.867-2.812-12.758-2.812-17.624 0z"/><path class="cls-4" d="M186.833 83.668c0-1.842-1.213-3.684-3.646-5.086-4.867-2.812-12.758-2.812-17.624 0-2.441 1.402-3.654 3.244-3.654 5.086v4.92c0 1.842 1.213 3.684 3.646 5.086 4.874 2.813 12.765 2.813 17.632 0 2.433-1.402 3.646-3.244 3.646-5.086v-4.92z"/><path class="cls-1" d="M183.187 78.582c2.433 1.402 3.646 3.244 3.646 5.086v4.92c0 1.842-1.213 3.684-3.646 5.086a17.965 17.965 0 01-8.816 2.108V76.475a18.05 18.05 0 018.816 2.107z"/><path class="cls-2" d="M165.563 78.582c-2.441 1.402-3.654 3.244-3.654 5.086v4.92c0 1.842 1.213 3.684 3.646 5.086a17.988 17.988 0 008.816 2.108V76.475c-3.068-.06-6.1.666-8.808 2.107z"/><path class="cls-4" d="M165.563 78.582c-4.875 2.812-4.875 7.368 0 10.18s12.765 2.805 17.632 0 4.866-7.368 0-10.18c-4.867-2.812-12.766-2.812-17.632 0z"/><path class="cls-3" d="M165.563 78.582c-4.875 2.812-4.875 7.368 0 10.18s12.765 2.805 17.632 0 4.866-7.368 0-10.18c-4.867-2.812-12.766-2.812-17.632 0z"/><path class="cls-4" d="M249.993 146.267l-50 28.866v-30.39l50-28.866v30.39z"/><path class="cls-1" d="M249.993 146.267l-50 28.866v-30.39l50-28.866v30.39z"/><path class="cls-4" d="M150 146.267l49.993 28.866v-30.39l-50-28.866"/><path class="cls-2" d="M150 146.267l49.993 28.866v-30.39l-50-28.866"/><path class="cls-4" d="M149.993 115.877l50 28.866 50-28.866-50-28.866-50 28.866"/><path class="cls-4" d="M212.455 98.465c0-1.842-1.213-3.684-3.647-5.086-4.866-2.812-12.757-2.812-17.624 0-2.433 1.402-3.653 3.244-3.653 5.086v4.92c0 1.842 1.22 3.676 3.653 5.086 4.867 2.813 12.758 2.813 17.625 0 2.433-1.41 3.653-3.244 3.646-5.086v-4.92z"/><path class="cls-1" d="M208.809 93.371c2.433 1.403 3.653 3.245 3.646 5.087v4.92c0 1.841-1.213 3.676-3.647 5.086a18.05 18.05 0 01-8.815 2.13v-19.33c3.07-.063 6.105.663 8.816 2.107z"/><path class="cls-2" d="M191.184 93.371c-2.433 1.403-3.654 3.245-3.654 5.087v4.92c0 1.841 1.22 3.676 3.654 5.086a18.04 18.04 0 008.809 2.13v-19.33c-3.068-.062-6.101.664-8.809 2.107z"/><path class="cls-4" d="M191.184 93.371c-4.866 2.805-4.866 7.36 0 10.173 4.867 2.812 12.758 2.812 17.624 0 4.867-2.812 4.867-7.368 0-10.173-4.866-2.804-12.757-2.812-17.624 0z"/><path class="cls-3" d="M191.184 93.371c-4.866 2.805-4.866 7.36 0 10.173 4.867 2.812 12.758 2.812 17.624 0 4.867-2.812 4.867-7.368 0-10.173-4.866-2.804-12.757-2.812-17.624 0z"/><path class="cls-4" d="M212.455 126.611c0-1.834-1.213-3.676-3.647-5.086-4.866-2.813-12.757-2.813-17.624 0-2.433 1.41-3.653 3.244-3.653 5.086v4.92c0 1.842 1.22 3.684 3.653 5.086 4.867 2.813 12.758 2.813 17.625 0 2.433-1.402 3.653-3.244 3.646-5.086v-4.92z"/><path class="cls-1" d="M208.809 121.525c2.433 1.41 3.653 3.244 3.646 5.086v4.92c0 1.842-1.213 3.684-3.647 5.086a17.882 17.882 0 01-8.815 2.108v-19.308a18.05 18.05 0 018.816 2.108z"/><path class="cls-2" d="M191.184 121.525c-2.433 1.41-3.654 3.244-3.654 5.086v4.92c0 1.842 1.22 3.684 3.654 5.086a17.874 17.874 0 008.809 2.108v-19.308c-3.068-.057-6.1.668-8.809 2.108z"/><path class="cls-4" d="M191.184 121.525c-4.866 2.812-4.866 7.368 0 10.18s12.758 2.805 17.624 0c4.867-2.805 4.867-7.368 0-10.18-4.866-2.813-12.757-2.813-17.624 0z"/><path class="cls-3" d="M191.184 121.525c-4.866 2.812-4.866 7.368 0 10.18s12.758 2.805 17.624 0c4.867-2.805 4.867-7.368 0-10.18-4.866-2.813-12.757-2.813-17.624 0z"/><path class="cls-4" d="M188.099 112.527c0-1.842-1.22-3.684-3.654-5.087-4.866-2.812-12.757-2.812-17.624 0-2.433 1.403-3.654 3.245-3.654 5.087v4.89c0 1.841 1.22 3.683 3.654 5.086 4.866 2.812 12.758 2.812 17.624 0 2.434-1.403 3.654-3.245 3.654-5.087v-4.89z"/><path class="cls-1" d="M184.43 107.44c2.433 1.403 3.654 3.245 3.654 5.087v4.92c0 1.841-1.22 3.683-3.654 5.086a17.965 17.965 0 01-8.816 2.107v-19.307a18.05 18.05 0 018.816 2.107z"/><path class="cls-2" d="M166.806 107.44c-2.434 1.403-3.654 3.245-3.654 5.087v4.89c0 1.841 1.22 3.683 3.654 5.086a17.957 17.957 0 008.808 2.107v-19.277c-3.067-.058-6.1.668-8.808 2.107z"/><path class="cls-4" d="M166.806 107.44c-4.867 2.813-4.867 7.369 0 10.173s12.757 2.813 17.624 0 4.867-7.36 0-10.173c-4.867-2.812-12.758-2.812-17.624 0z"/><path class="cls-3" d="M166.806 107.44c-4.867 2.813-4.867 7.369 0 10.173s12.757 2.813 17.624 0 4.867-7.36 0-10.173c-4.867-2.812-12.758-2.812-17.624 0z"/><path class="cls-4" d="M236.833 112.534c0-1.842-1.213-3.684-3.646-5.086-4.867-2.812-12.758-2.812-17.624 0-2.441 1.403-3.654 3.245-3.654 5.087v4.92c0 1.841 1.213 3.683 3.646 5.085 4.874 2.813 12.765 2.813 17.632 0 2.433-1.402 3.646-3.244 3.646-5.086v-4.92z"/><path class="cls-1" d="M233.187 107.448c2.433 1.403 3.646 3.245 3.646 5.087v4.92c0 1.841-1.213 3.683-3.646 5.085a17.965 17.965 0 01-8.816 2.108V105.34a18.05 18.05 0 018.816 2.107z"/><path class="cls-2" d="M215.563 107.448c-2.441 1.403-3.654 3.245-3.654 5.087v4.92c0 1.841 1.213 3.683 3.646 5.085a17.988 17.988 0 008.816 2.108V105.34c-3.068-.06-6.1.666-8.808 2.107z"/><path class="cls-4" d="M215.563 107.448c-4.875 2.812-4.875 7.368 0 10.18s12.765 2.805 17.632 0 4.866-7.368 0-10.18-12.766-2.812-17.632 0z"/><path class="cls-3" d="M215.563 107.448c-4.875 2.812-4.875 7.368 0 10.18s12.765 2.805 17.632 0 4.866-7.368 0-10.18-12.766-2.812-17.632 0z"/></g><g id="Calque_6"><path class="cls-4" d="M299.984 175.129l-50 28.866v-30.39l50-28.866v30.39z"/><path class="cls-1" d="M299.984 175.129l-50 28.866v-30.39l50-28.866v30.39z"/><path class="cls-4" d="M199.992 175.129l49.992 28.866v-30.39l-50-28.866"/><path class="cls-2" d="M199.992 175.129l49.992 28.866v-30.39l-50-28.866"/><path class="cls-4" d="M199.984 144.74l50 28.865 50-28.866-50-28.866-50 28.866"/><path class="cls-4" d="M262.446 127.327c0-1.842-1.213-3.684-3.646-5.086-4.867-2.812-12.758-2.812-17.624 0-2.434 1.402-3.654 3.244-3.654 5.086v4.92c0 1.842 1.22 3.676 3.654 5.086 4.866 2.813 12.757 2.813 17.624 0 2.433-1.41 3.654-3.244 3.646-5.086v-4.92z"/><path class="cls-1" d="M258.8 122.233c2.433 1.403 3.654 3.245 3.646 5.087v4.92c0 1.841-1.213 3.676-3.646 5.086a18.05 18.05 0 01-8.816 2.13v-19.33c3.07-.063 6.106.663 8.816 2.107z"/><path class="cls-2" d="M241.176 122.233c-2.434 1.403-3.654 3.245-3.654 5.087v4.92c0 1.841 1.22 3.676 3.654 5.086a18.04 18.04 0 008.808 2.13v-19.33c-3.068-.062-6.1.664-8.808 2.107z"/><path class="cls-4" d="M241.176 122.233c-4.867 2.805-4.867 7.36 0 10.173s12.757 2.812 17.624 0c4.866-2.812 4.866-7.368 0-10.173s-12.758-2.812-17.624 0z"/><path class="cls-3" d="M241.176 122.233c-4.867 2.805-4.867 7.36 0 10.173s12.757 2.812 17.624 0c4.866-2.812 4.866-7.368 0-10.173s-12.758-2.812-17.624 0z"/><path class="cls-4" d="M262.446 155.473c0-1.834-1.213-3.676-3.646-5.086-4.867-2.813-12.758-2.813-17.624 0-2.434 1.41-3.654 3.244-3.654 5.086v4.92c0 1.842 1.22 3.684 3.654 5.086 4.866 2.812 12.757 2.812 17.624 0 2.433-1.402 3.654-3.244 3.646-5.086v-4.92z"/><path class="cls-1" d="M258.8 150.387c2.433 1.41 3.654 3.244 3.646 5.086v4.92c0 1.842-1.213 3.684-3.646 5.086a17.882 17.882 0 01-8.816 2.107V148.28a18.05 18.05 0 018.816 2.108z"/><path class="cls-2" d="M241.176 150.387c-2.434 1.41-3.654 3.244-3.654 5.086v4.92c0 1.842 1.22 3.684 3.654 5.086a17.874 17.874 0 008.808 2.107V148.28c-3.067-.058-6.1.668-8.808 2.108z"/><path class="cls-4" d="M241.176 150.387c-4.867 2.812-4.867 7.368 0 10.18 4.866 2.812 12.757 2.805 17.624 0s4.866-7.368 0-10.18-12.758-2.813-17.624 0z"/><path class="cls-3" d="M241.176 150.387c-4.867 2.812-4.867 7.368 0 10.18 4.866 2.812 12.757 2.805 17.624 0s4.866-7.368 0-10.18-12.758-2.813-17.624 0z"/><path class="cls-4" d="M238.09 141.389c0-1.842-1.22-3.684-3.653-5.087-4.867-2.812-12.758-2.812-17.625 0-2.433 1.403-3.653 3.245-3.653 5.087v4.89c0 1.841 1.22 3.683 3.653 5.085 4.867 2.813 12.758 2.813 17.625 0 2.433-1.402 3.653-3.244 3.653-5.086v-4.89z"/><path class="cls-1" d="M234.422 136.302c2.433 1.403 3.653 3.245 3.653 5.087v4.92c0 1.841-1.22 3.683-3.653 5.086a17.965 17.965 0 01-8.816 2.107v-19.307a18.05 18.05 0 018.816 2.107z"/><path class="cls-2" d="M216.797 136.302c-2.433 1.403-3.653 3.245-3.653 5.087v4.89c0 1.841 1.22 3.683 3.653 5.085a17.957 17.957 0 008.809 2.108v-19.277c-3.068-.058-6.1.667-8.809 2.107z"/><path class="cls-4" d="M216.797 136.302c-4.866 2.813-4.866 7.369 0 10.173s12.758 2.813 17.625 0c4.866-2.812 4.866-7.36 0-10.173-4.867-2.812-12.758-2.812-17.625 0z"/><path class="cls-3" d="M216.797 136.302c-4.866 2.813-4.866 7.369 0 10.173s12.758 2.813 17.625 0c4.866-2.812 4.866-7.36 0-10.173-4.867-2.812-12.758-2.812-17.625 0z"/><path class="cls-4" d="M286.825 141.396c0-1.842-1.213-3.684-3.647-5.086-4.866-2.812-12.757-2.812-17.624 0-2.44 1.402-3.654 3.244-3.654 5.086v4.92c0 1.842 1.213 3.684 3.647 5.086 4.874 2.813 12.765 2.813 17.631 0 2.434-1.402 3.647-3.244 3.647-5.086v-4.92z"/><path class="cls-1" d="M283.178 136.31c2.434 1.402 3.647 3.244 3.647 5.086v4.92c0 1.842-1.213 3.684-3.647 5.086a17.965 17.965 0 01-8.816 2.108v-19.307a18.05 18.05 0 018.816 2.107z"/><path class="cls-2" d="M265.554 136.31c-2.44 1.402-3.654 3.244-3.654 5.086v4.92c0 1.842 1.213 3.684 3.647 5.086a17.988 17.988 0 008.815 2.108v-19.307c-3.067-.06-6.1.666-8.808 2.107z"/><path class="cls-4" d="M265.554 136.31c-4.874 2.812-4.874 7.368 0 10.18 4.874 2.813 12.765 2.805 17.632 0 4.867-2.804 4.867-7.368 0-10.18-4.867-2.812-12.765-2.812-17.632 0z"/><path class="cls-3" d="M265.554 136.31c-4.874 2.812-4.874 7.368 0 10.18 4.874 2.813 12.765 2.805 17.632 0 4.867-2.804 4.867-7.368 0-10.18-4.867-2.812-12.765-2.812-17.632 0z"/></g></g></svg>