<svg xmlns="http://www.w3.org/2000/svg" viewBox="0 0 65.178 118.577"><!--Generator: Adobe Illustrator 28.7.1, SVG Export Plug-In . SVG Version: 1.2.0 Build 142)--><g fill="#d7c5b2"><path d="M.116 118.495c.098-.003.205.194.394-.011l37.248-13.152c.199-.006.298-.106.295-.208.102-.003.096-.202-.008-.301l-9.863-16.429-21.154 23.201c-.489.416-1.286.536-1.797.152-.511-.384-.632-1.08-.348-1.69l17.801-32.114-4.299-10.583c-.103-.196-.305-.292-.407-.289-.098.003-.294.11-.39.312L0 117.998c.008.301.011.398.116.497z"/><path d="M12.941 101.531l14.554-16.114c-.003-.102.099-.104.099-.104.099-.1.196-.103.295-.208q.095-.104.196-.107.095-.104.196-.107l9.667-1.272-13.118-4.032-11.889 21.944z"/><path d="M30.547 87.226L33.7 92.64l6.021-6.57-9.174 1.156z"/></g><g fill="#e4d8cb"><path d="M57.611 48.853c.537-.636.583-1.538.218-2.22-.145-.272-.291-.544-.503-.608-.92-.735-2.232-.561-2.967.359a7.37 7.37 0 01-1.212 1.347c-.809.782-.774 2.168.013 2.973.782.809 2.168.774 2.973-.013.468-.778 1.005-1.414 1.477-1.838zM37.611 48.84c-.358-.336-.71-.675-1.14-1.145-.358-.336-.648-.88-.868-1.29l-.074-.139-.074-.139c-.51-.954-1.769-1.336-2.723-.826s-1.469 1.84-.959 2.794c.439.821.803 1.503 1.378 2.244.503.608 1.001 1.219 1.563 1.617.636.537 1.609.716 2.43.277.272-.145.41-.219.608-.503.537-.636.716-1.609.277-2.43-.199-.051-.273-.19-.418-.462zM64.93 53.354c-.007-.346-.093-.827-.238-1.099-.365-.682-.927-1.08-1.624-1.064-.417-.127-.827.093-1.099.238-.544.291-1.08.927-1.064 1.624-.105 1.111-.277 2.43-.733 3.551-.318 1.047.338 2.272 1.384 2.59.556.052 1.111.105 1.655-.186.41-.219.809-.782.935-1.199.381-1.608.686-2.998.784-4.455zM49.687 52.731l-.219-.41c-.439-.821-1.347-1.212-2.313-1.046-1.099.238-2.272.338-3.384.233-1.111-.105-2.053.748-2.166 1.857-.105 1.111.822 2.192 1.928 2.299 1.59.027 3.186.051 4.696-.406.484-.081 1.028-.371 1.29-.868.197-.619.329-1.039.168-1.659zM52.967 30.636q-.213-.064 0 0c-.775-.463-1.464-.444-2.146-.079-.272.145-.47.429-.675.71-.601.849-.351 2.291.631 2.821.849.601 1.974 1.398 2.829 2.345.358.336.849.601 1.538.583.556.052 1.099-.238 1.438-.591.675-.71.716-1.609.277-2.43-.074-.139-.219-.41-.429-.47-1.132-1.156-2.336-2.088-3.463-2.89zM63.445 44.33c-.445-1.167-1.029-2.259-1.61-3.346l-.291-.544c-.51-.954-1.769-1.336-2.856-.755-.954.51-1.336 1.769-.755 2.856.074.139.284.198.219.41.51.954 1.02 1.908 1.394 2.941.371 1.028 1.702 1.543 2.73 1.172.618-.152.88-.648 1.145-1.14.257-.494.315-1.052.024-1.596zM35.818 36.293c.265-.491.311-1.393.017-1.942-.219-.41-.503-.608-.856-.947-.982-.53-2.285-.005-2.809.974-.654 1.405-1.098 2.869-1.468 4.471-.105 1.111.609 2.127 1.656 2.445.417.127.901.046 1.312-.174.544-.291.947-.856 1.138-1.485.162-1.313.479-2.36 1.009-3.342zM60.286 65.662c.398-.562.444-1.464.079-2.146-.145-.272-.503-.608-.71-.675-.562-.398-1.464-.444-2.146-.079-.272.145-.47.429-.675.71-.663 1.053-1.537 2.048-2.41 3.042-.735.92-.561 2.232.285 2.828.358.336.982.53 1.464.444a2.598 2.598 0 001.364-.729c1.015-1.063 1.947-2.267 2.749-3.395zM51.401 74.975c.747-.577 1.064-1.624.554-2.578l-.145-.272c-.648-.88-1.757-.993-2.578-.554l-.272.145-.747.577c-.747.577-1.562 1.013-2.383 1.452-1.503.803-1.224 3.286.452 3.794.63.191 1.111.105 1.655-.186.954-.51 1.834-1.158 2.722-1.804l.272-.145c.139-.074.41-.219.47-.429q-.062.204 0 0 .071.133 0 0zM40.617 32.144c1.099-.238 2.272-.338 3.451-.44 1.111.105 2.192-.822 2.092-1.995-.007-.346-.019-.689-.238-1.099-.365-.682-1.066-1.006-1.757-.993-1.457-.098-3.112.087-4.486.465l-.139.074c-.139.074-.346.007-.484.081-.821.439-1.346 1.418-1.046 2.313.315 1.243 1.507 1.832 2.606 1.594zM28.321 4.869c.544-.291 1.167-.445 1.648-.532 1.099-.238 1.689-1.43 1.456-2.532l-.219-.41C30.767.574 29.859.183 28.893.349c-.756.226-1.51.457-2.266.683-1.028.371-1.543 1.702-1.172 2.73.641.891 1.833 1.48 2.866 1.106zM37.238 4.489c1.259.382 2.377.833 3.431 1.496.982.53 2.22.218 2.747-.77.398-.562.382-1.259.017-1.942-.219-.41-.503-.608-.782-.809-1.476-.787-2.875-1.444-4.268-1.755-1.047-.318-2.272.338-2.59 1.384-.261.845.323 1.938 1.444 2.394zM60.138 22.068l-.949-1.775c-.365-.682-.729-1.364-1.232-1.972-.51-.954-1.769-1.336-2.723-.826l-.139.074c-.88.648-1.191 2.041-.755 2.856l1.897 3.549c.371 1.028 1.702 1.543 2.794.959.544-.291.88-.648 1.145-1.14.199-.627.039-1.247-.039-1.726zM46.885 10.734c1.066 1.006 1.921 1.954 2.777 2.901.782.809 2.1.981 2.914.196.747-.577.993-1.757.554-2.578l-.219-.41c-1.001-1.219-2.067-2.225-2.996-3.311-.636-.537-1.609-.716-2.43-.277-.139.074-.41.219-.47.429-.876.989-.915 2.236-.131 3.05zM63.196 32.713c-.019-.689-.245-1.445-.338-2.272-.074-.139-.081-.484-.152-.618-.439-.821-1.347-1.212-2.313-1.046-.139.074-.346.007-.618.152l-.139.074c-.272.145-.47.429-.675.71-.139.074-.065.213-.127.417-.198.284-.191.63-.179.973.152.618.174 1.312.331 1.927.1 1.173 1.232 1.972 2.193 1.808 1.452.101 2.254-1.027 2.016-2.126z"/></g></svg>