<svg xmlns="http://www.w3.org/2000/svg" viewBox="0 0 188.543 261.59"><defs><style>.c1{fill:#e0eaf2}.c8{fill:#f5f5f5}.c9{fill:#dbdbdb;isolation:isolate}.c10{fill:#263238;opacity:.1}.c11{fill:#6c9ebf}</style></defs><path d="M176.271 16.55H3.641a3.65 3.65 0 00-3.64 3.75l7 237.75a3.65 3.65 0 003.65 3.54h172.58a3.651 3.651 0 003.652-3.648c0-.037 0-.074-.002-.112l-7-237.74a3.64 3.64 0 00-3.61-3.54z" fill="#407bff"/><path class="c9" d="M176.271 16.55H3.641a3.65 3.65 0 00-3.64 3.75l7 237.75a3.65 3.65 0 003.65 3.54h172.58a3.651 3.651 0 003.652-3.648c0-.037 0-.074-.002-.112l-7-237.74a3.64 3.64 0 00-3.61-3.54z"/><path d="M177.931 16.55H5.311a3.65 3.65 0 00-3.65 3.75l7 237.75a3.66 3.66 0 003.65 3.54h172.59a3.65 3.65 0 003.642-3.658c0-.034 0-.068-.002-.102l-7-237.74a3.65 3.65 0 00-3.61-3.54z" fill="#ebebeb"/><path class="c9" d="M9.061 29.46l6.48 221.43a3.7 3.7 0 003.67 3.57h156.32a3.44 3.44 0 003.452-3.428c0-.047 0-.095-.002-.142l-6.48-221.43a3.691 3.691 0 00-3.67-3.56H12.511a3.43 3.43 0 00-3.45 3.56z"/><path d="M10.141 28.38l6.48 221.43a3.691 3.691 0 003.67 3.56h156.32a3.43 3.43 0 003.452-3.407c0-.051 0-.102-.002-.153l-6.48-221.43a3.691 3.691 0 00-3.67-3.56H13.591a3.43 3.43 0 00-3.45 3.56z" fill="#fff"/><path class="c8" d="M58.201 99.7h-30.04l-.88-30.05h30.04l.88 30.05z"/><path class="c1" d="M156.001 81.58h-84.94l-.16-5.6h84.94l.16 5.6zM137.871 93.37h-66.46l-.17-5.6h66.47l.16 5.6z"/><path class="c8" d="M59.781 153.59h-30.04l-.88-30.04h30.04l.88 30.04z"/><path class="c1" d="M103.851 135.48h-31.21l-.16-5.61h31.2l.17 5.61zM133.401 135.48h-22.95l-.17-5.61h22.96l.16 5.61zM147.311 147.27h-74.33l-.16-5.61h74.33l.16 5.61z"/><path class="c8" d="M61.361 207.49h-30.04l-.88-30.05h30.04l.88 30.05z"/><path class="c1" d="M159.341 195.55h-84.94l.16 5.61h84.94l-.16-5.61zM140.521 183.77h-66.47l.17 5.6h66.46l-.16-5.6z"/><path class="c11" d="M44.671 91.89a1.31 1.31 0 01-2.2-.1c-2-3.2-5.68-6.12-7.82-7.57a1.33 1.33 0 01-.43-1.75 1.28 1.28 0 011.85-.4 36.02 36.02 0 016.47 5.56 1.29 1.29 0 002 0 85.628 85.628 0 0115.25-14.17 1.32 1.32 0 011.84.28 1.3 1.3 0 01-.223 1.825l-.007.005c-7.68 5.81-13.14 11.16-16.68 16.32h-.05zM46.251 145.79a1.32 1.32 0 01-2.2-.11c-1.95-3.2-5.68-6.12-7.83-7.56a1.33 1.33 0 01-.42-1.75 1.3 1.3 0 011.86-.39 35.533 35.533 0 016.46 5.55 1.3 1.3 0 002 0 85.619 85.619 0 0115.21-14.16 1.31 1.31 0 011.833.27l.007.01a1.3 1.3 0 01-.23 1.82c-7.68 5.82-13.14 11.17-16.68 16.33l-.01-.01zM47.791 199.8a1.32 1.32 0 01-2.2-.11c-2-3.2-5.68-6.12-7.82-7.56a1.34 1.34 0 01-.43-1.75 1.28 1.28 0 011.85-.4 36.265 36.265 0 016.47 5.55 1.3 1.3 0 002 0 85.205 85.205 0 0115.2-14.16 1.31 1.31 0 011.833.27l.007.01a1.28 1.28 0 01-.203 1.799l-.027.021c-7.67 5.82-13.14 11.17-16.68 16.33z"/><path d="M117.201 239.92a14.527 14.527 0 01-9.23-3.2c-2.08-1.44-4-2.79-7.93-2.79a11.62 11.62 0 00-7.77 2.79 13.74 13.74 0 01-9 3.2 14.542 14.542 0 01-9.24-3.2c-2.08-1.44-4-2.79-7.93-2.79a11.565 11.565 0 00-7.76 2.79 13.773 13.773 0 01-9 3.2 14.527 14.527 0 01-9.23-3.2c-2.08-1.44-4-2.79-7.93-2.79l-.07-2.25a14.542 14.542 0 019.24 3.2 12.23 12.23 0 007.93 2.79 11.565 11.565 0 007.76-2.79 13.752 13.752 0 019.05-3.2 14.527 14.527 0 019.23 3.2c2.08 1.44 4 2.79 7.93 2.79a11.565 11.565 0 007.76-2.79 13.787 13.787 0 019.05-3.2 14.542 14.542 0 019.24 3.2c2.08 1.44 4 2.79 7.93 2.79l-.03 2.25z" fill="#ebebeb"/><path d="M132.081 23.43h-.19c-2.31-7.33-7.85-12.19-13.9-12.19h-12.32a4.61 4.61 0 01-4.23-3.24c-1.65-4.67-5.7-8-10.35-8s-8.52 3.33-9.93 8a4.33 4.33 0 01-4.06 3.24h-12.31c-6.05 0-11.34 4.86-13.26 12.19h-.18a2.64 2.64 0 00-2.455 2.812l.005.068a2.81 2.81 0 002.6 2.87h80.75a2.64 2.64 0 002.465-2.804l-.005-.066a2.81 2.81 0 00-2.63-2.88z" fill="#b5cede"/><path class="c10" d="M40.511 48.2l.53.35.5.23-.55 1.19a6.94 6.94 0 01-.9-.51 7.586 7.586 0 01-.62-.45 4.244 4.244 0 01-1.75.31 3.62 3.62 0 01-2.5-.82 3.538 3.538 0 01-1.14-2.71 3.141 3.141 0 013.44-3.57 3.671 3.671 0 012.66.91 4.26 4.26 0 01.33 5.07zm-1.65-1.09a2.78 2.78 0 00.21-1.36 2.348 2.348 0 00-.43-1.48 1.377 1.377 0 00-1.08-.45 1.23 1.23 0 00-1 .46 1.997 1.997 0 00-.35 1.42c-.037.56.114 1.116.43 1.58.268.302.657.467 1.06.45.136.016.274.016.41 0a2.675 2.675 0 00-.86-.49l.31-.76c.152.019.3.059.44.12.218.121.428.254.63.4l.23.11zM46.701 42.33h2.09l.12 4.1c.024.377-.016.756-.12 1.12a2.283 2.283 0 01-.56.95c-.234.25-.521.444-.84.57a4.28 4.28 0 01-1.48.23c-.364 0-.728-.024-1.09-.07a2.986 2.986 0 01-1-.28 2.75 2.75 0 01-.75-.59 2.42 2.42 0 01-.47-.79 3.997 3.997 0 01-.23-1.16l-.12-4.1h2.12l.12 4.19c-.012.327.111.645.34.88.234.221.548.336.87.32.316.017.624-.099.85-.32.184-.235.27-.533.24-.83l-.09-4.22zM54.291 48.07h-2.41l-.3 1.13h-2.17l2.38-6.87h2.31l2.79 6.87h-2.23l-.37-1.13zm-.5-1.52l-.83-2.47-.67 2.47h1.5zM57.361 42.33h2.12l.15 5.18h3.32l.05 1.69h-5.44l-.2-6.87zM63.841 42.33h2.13l.2 6.87h-2.13l-.2-6.87zM67.011 42.33h6.45l.05 1.7h-2.16l.15 5.17h-2.12l-.16-5.17h-2.16l-.05-1.7zM73.731 42.33h2.36l1.45 2.32 1.32-2.32h2.34l-2.55 4 .08 2.87h-2.13l-.08-2.87-2.79-4zM89.471 48.07h-2.41l-.3 1.13h-2.16l2.38-6.87h2.31l2.78 6.87h-2.22l-.38-1.13zm-.48-1.52l-.83-2.47-.68 2.47h1.51zM92.311 46.93l2-.13c.03.269.126.527.28.75.244.295.618.452 1 .42a.998.998 0 00.7-.21.649.649 0 00.23-.5.67.67 0 00-.25-.48 2.76 2.76 0 00-1.1-.39 4.699 4.699 0 01-2-.84 1.77 1.77 0 01-.36-2.32c.214-.336.529-.595.9-.74a4.187 4.187 0 011.68-.27 3.484 3.484 0 012 .49c.498.369.815.933.87 1.55l-2 .12a1.1 1.1 0 00-.35-.67 1.125 1.125 0 00-.71-.21.87.87 0 00-.56.15.45.45 0 00-.17.38c.003.12.062.231.16.3.22.133.465.219.72.25.688.124 1.36.329 2 .61.365.165.677.428.9.76.187.301.29.646.3 1 .013.427-.102.849-.33 1.21-.235.382-.585.68-1 .85a4.137 4.137 0 01-1.65.29 3.502 3.502 0 01-2.45-.68 2.761 2.761 0 01-.81-1.69zM99.241 46.93l2-.13c.033.27.132.528.29.75.234.281.585.436.95.42a.998.998 0 00.7-.21.649.649 0 00.23-.5.67.67 0 00-.25-.48 2.76 2.76 0 00-1.1-.39 4.64 4.64 0 01-2-.84 1.702 1.702 0 01-.64-1.32 1.765 1.765 0 01.27-1c.22-.335.538-.593.91-.74a4.187 4.187 0 011.68-.27 3.51 3.51 0 012 .49c.498.369.815.933.87 1.55l-2 .12a1.06 1.06 0 00-.36-.67 1.088 1.088 0 00-.71-.21.86.86 0 00-.55.15.49.49 0 00-.18.38.43.43 0 00.17.3c.22.133.465.219.72.25.688.124 1.36.329 2 .61.363.167.674.43.9.76.187.301.29.646.3 1 .013.427-.102.849-.33 1.21a2.097 2.097 0 01-1 .85 4.089 4.089 0 01-1.64.29 3.502 3.502 0 01-2.45-.68 2.756 2.756 0 01-.78-1.69zM110.871 42.33h2.12l.12 4.1c.014.386-.04.772-.16 1.14a2.293 2.293 0 01-.56.95c-.234.25-.521.444-.84.57a4.28 4.28 0 01-1.48.23c-.364 0-.729-.024-1.09-.07a2.986 2.986 0 01-1-.28 2.75 2.75 0 01-.75-.59 2.423 2.423 0 01-.44-.83 3.997 3.997 0 01-.23-1.16l-.12-4.1h2.11l.13 4.19a1.23 1.23 0 00.33.88c.239.219.556.335.88.32.316.017.624-.099.85-.32.216-.239.318-.56.28-.88l-.15-4.15zM114.621 49.2l-.2-6.87h3.54a5.264 5.264 0 011.51.17c.346.114.647.335.86.63a2 2 0 01.35 1.11c.022.347-.055.694-.22 1a1.809 1.809 0 01-.65.67c-.23.13-.48.221-.74.27.198.054.387.138.56.25.251.236.473.501.66.79l1.09 2h-2.4l-1.19-2.1a1.904 1.904 0 00-.4-.53.998.998 0 00-.53-.16h-.19l.09 2.79-2.14-.02zm2-4.08h.89a2.73 2.73 0 00.56-.1.582.582 0 00.34-.21.696.696 0 00.12-.4.65.65 0 00-.23-.51 1.267 1.267 0 00-.79-.18h-.94l.05 1.4z"/><path class="c10" d="M126.251 48.07h-2.41l-.3 1.13h-2.17l2.38-6.87h2.31l2.79 6.87h-2.23l-.37-1.13zm-.46-1.52l-.83-2.47-.67 2.47h1.5zM129.331 42.33h2l2.69 3.8-.11-3.8h2l.2 6.87h-2l-2.68-3.77.11 3.77h-2l-.21-6.87zM142.001 46.39l1.88.56a3.338 3.338 0 01-.55 1.31 2.51 2.51 0 01-1 .79 3.647 3.647 0 01-1.51.27 4.426 4.426 0 01-1.84-.33 2.993 2.993 0 01-1.19-1.14 3.997 3.997 0 01-.58-2.1 3.52 3.52 0 01.83-2.62 3.368 3.368 0 012.54-.91 3.57 3.57 0 012.06.52c.541.404.943.967 1.15 1.61l-1.86.42a2.184 2.184 0 00-.22-.46 1.3 1.3 0 00-.45-.37 1.27 1.27 0 00-.58-.14 1.23 1.23 0 00-1.09.58c-.211.42-.297.892-.25 1.36a2.583 2.583 0 00.39 1.56c.249.29.618.448 1 .43.34.024.674-.104.91-.35a2 2 0 00.36-.99zM144.791 42.33h5.69v1.47h-3.56v1.09h3.3v1.4h-3.3v1.36h3.67v1.55h-5.79l-.01-6.87z"/></svg>