<svg xmlns="http://www.w3.org/2000/svg" viewBox="0 0 426.11 355.86"><defs><style>.cls-1{fill:#ebebeb}.cls-2{fill:#dbdbdb}.cls-4{isolation:isolate}.cls-6{fill:#37474f;opacity:.2}.cls-4,.cls-7{fill:#6c9ec0}.cls-8{fill:#c7c7c7}.cls-9{fill:#e0eaf1}.cls-10{fill:#fff}.cls-11{fill:#b5cede}.cls-13{fill:#226f9f}</style></defs><!--Generator: Adobe Illustrator 28.7.1, SVG Export Plug-In . SVG Version: 1.2.0 Build 142)--><path class="cls-6" d="M0 0h426.11v289.74H0z"/><path class="cls-1" d="M0 247.01h426.11v42.74H0z"/><path class="cls-2" d="M130.02 341.98h166.06v13.88H130.02z"/><path class="cls-1" d="M276.31 341.99H149.79l3.22-24.08.16-1.14.29-2.26.15-1.14.31-2.26.04-.35.11-.78.3-2.26.15-1.14 2.25-16.82h112.56l2.12 15.87.1.76.35 2.63.1.77.14.97.22 1.66.1.76.35 2.64.1.76 3.4 25.41z"/><path class="cls-6" d="M219.98 265.5a7.06 7.06 0 11-7.06-7.06 7.06 7.06 0 017.06 7.06z"/><path class="cls-2" d="M272.14 310.76l-117.62-4.18 2.25-16.82h112.56l2.81 21z"/><path class="cls-10" d="M19.66 18.84h386.78V226.9H19.66z"/><path class="cls-10" d="M19.66 18.84h386.78V226.9H19.66z"/><path class="cls-7" d="M19.66 28.26h379.92v26.91H19.66z"/><path class="cls-10" d="M32.43 37.25h9.18v1.48h-9.18zM32.43 43.87h9.18v1.48h-9.18zM32.43 40.6h9.18v1.48h-9.18zM131.36 37.33h208.31v7.92H131.36z"/><path class="cls-10" d="M339.75 45.34H131.28v-8.09h208.47v8.09z"/><path class="cls-13" d="M331.66 37.25h8.09v8.09h-8.09z"/><path class="cls-10" d="M338.22 43.52l-.74.55-1.35-1.79-.5-.65c.102-.043.199-.097.29-.16.16-.132.287-.3.37-.49l.53.69 1.4 1.85z"/><path class="cls-10" d="M336.77 39.3a2 2 0 10-.64 3.001c.096-.051.186-.111.27-.18.164-.117.306-.263.42-.43a2 2 0 00-.05-2.39zm-.85 2.17a1.606 1.606 0 01-.29.16 1.2 1.2 0 11.66-.651c-.083.19-.21.358-.37.49z"/><path class="cls-8" d="M133.02 38.89h.43v4.81h-.43z"/><path class="cls-13" d="M385.66 45.57c-.4.244-.835.426-1.29.54a4.51 4.51 0 01-5.44-3.3 4.5 4.5 0 116.73 2.761z"/><path class="cls-10" d="M384.67 41.22a1.37 1.37 0 11-1.37-1.37c.757 0 1.37.613 1.37 1.37z"/><path class="cls-10" d="M385.66 45v.57c-.4.244-.835.426-1.29.54a4.45 4.45 0 01-3.44-.55V45a2.37 2.37 0 114.73 0z"/><path class="cls-13" d="M370.05 46.24h-3.13v-1.11a.162.162 0 00-.09-.15 2.313 2.313 0 01-.34-.2.191.191 0 00-.18 0l-1 .56-1.57-2.71 1-.56a.162.162 0 00.08-.15 1.335 1.335 0 010-.2 1.205 1.205 0 010-.19.179.179 0 00-.08-.16l-1-.56 1.57-2.71 1 .56a.172.172 0 00.18 0c.11-.073.223-.139.34-.2a.162.162 0 00.09-.15v-1.1h3.13v1.1c0 .066.039.125.1.15l.34.2a.172.172 0 00.18 0l1-.56 1.56 2.71-1 .56a.15.15 0 00-.08.16v.4a.15.15 0 00.08.16l1 .56-1.56 2.71-1-.55a.172.172 0 00-.18 0 2.968 2.968 0 01-.34.2.18.18 0 00-.1.15v1.08zm-2.35-.78h1.57v-.33a.93.93 0 01.52-.84l.27-.16a.932.932 0 011 0l.29.17.78-1.36-.28-.17a.94.94 0 01-.47-.88v-.3a1.002 1.002 0 01.47-.88l.28-.16-.78-1.36-.28.16a.998.998 0 01-1 0 1.736 1.736 0 00-.27-.15 1 1 0 01-.52-.85v-.42h-1.57v.32a1 1 0 01-.52.85c-.09 0-.18.1-.27.15a.932.932 0 01-1 0l-.28-.16-.79 1.36.29.16c.298.191.473.526.46.88v.31a1 1 0 01-.46.87l-.29.17.79 1.36.28-.17a.932.932 0 011 0l.27.16a.93.93 0 01.52.84l-.01.43zm.79-1.44a2.31 2.31 0 112.31-2.31 2.31 2.31 0 01-2.29 2.31h-.02zm0-3.84a1.54 1.54 0 101.53 1.55v-.02a1.54 1.54 0 00-1.51-1.53h-.02zM49.4 40.6h63.11v3.01H49.4zM19.66 18.84h386.78v9.42H19.66z"/><path class="cls-8" d="M27.14 23.55a2.34 2.34 0 11-2.35-2.33h.02a2.33 2.33 0 012.33 2.33z"/><path class="cls-10" d="M36.68 23.55a2.34 2.34 0 11-2.35-2.33h.01a2.34 2.34 0 012.34 2.33z"/><path d="M46.21 23.55a2.34 2.34 0 11-2.35-2.33h.02a2.33 2.33 0 012.33 2.33z" fill="#6b9ebf"/><path class="cls-9" d="M399.58 28.26h6.86v198.65h-6.86z"/><path class="cls-11" d="M403.05 109.83a1.78 1.78 0 01-1.78-1.78V31.41a1.78 1.78 0 011.78-1.77c.978 0 1.77.792 1.77 1.77v76.64a1.78 1.78 0 01-1.77 1.78zM184.75 154.33H247v47.76h-62.25z"/><path d="M190.94 164.77a5.65 5.65 0 1011.083 2.203 5.65 5.65 0 10-11.083-2.203z" style="isolation:isolate" fill="#e0eaf1"/><path style="isolation:isolate" fill="#256e9f" opacity=".75" d="M205.28 191.8h41.71l-20.85-25.71-20.86 25.71z"/><path class="cls-4" d="M184.74 191.82h37l-18.5-16.74-18.5 16.74z"/><path class="cls-4" d="M184.74 191.8h62.25v10.29h-62.25z"/><path class="cls-9" d="M37.24 154.32H84v3.93H37.24z"/><path class="cls-1" d="M37.24 163.45h135.32v3.93H37.24zM37.24 172.11h135.32v3.93H37.24zM37.24 180.76h135.32v3.93H37.24zM37.24 189.42h135.32v3.93H37.24zM37.24 198.07h135.32V202H37.24z"/><path class="cls-9" d="M150.93 76.1H247v10.52h-96.07z"/><path class="cls-1" d="M150.93 93.88H247v3.93h-96.07zM150.93 102.53H247v3.93h-96.07zM150.93 111.19H247v3.93h-96.07zM150.93 119.84H247v3.93h-96.07zM150.93 131.36H247v3.93h-96.07zM150.93 140.01H247v3.93h-96.07z"/><path class="cls-2" d="M139.16 143.93h-2v-.75h2v.75zm-4 0h-2v-.75h2v.75zm-4 0h-2v-.75h2v.75zm-4 0h-2v-.75h2v.75zm-4 0h-2v-.75h2v.75zm-4 0h-2v-.75h2v.75zm-4 0h-2v-.75h2v.75zm-4 0h-2v-.75h2v.75zm-4 0h-2v-.75h2v.75zm-4 0h-2v-.75h2v.75zm-4 0h-2v-.75h2v.75zm-4 0h-2v-.75h2v.75zm-4 0h-2v-.75h2v.75zm-4 0h-2v-.75h2v.75zm-4 0h-2v-.75h2v.75zm-4 0h-2v-.75h2v.75zm-4 0h-2v-.75h2v.75zm-4 0h-2v-.75h2v.75zm-4 0h-2v-.75h2v.75zm-4 0h-2v-.75h2v.75zm-4 0h-2v-.75h2v.75zm-4 0h-2v-.75h2v.75zm-4 0h-2v-.75h2v.75zm-4 0h-2v-.75h2v.75zm-4 0h-2v-.75h2v.75zm-4 0h-2.3v-.37h.38v-.34h1.92v.71zm100.38-1.19h-.75v-2h.75v2zm-101.93-1.26h-.75v-2h.75v2zm101.93-2.74h-.75v-2h.75v2zm-101.93-1.26h-.75v-2h.75v2zm101.93-2.74h-.75v-2h.75v2zm-101.93-1.26h-.75v-2h.75v2zm101.93-2.74h-.75v-2h.75v2zm-101.93-1.26h-.75v-2h.75v2zm101.93-2.74h-.75v-2h.75v2zm-101.93-1.26h-.75v-2h.75v2zm101.93-2.74h-.75v-2h.75v2zm-101.93-1.26h-.75v-2h.75v2zm101.93-2.74h-.75v-2h.75v2zm-101.93-1.26h-.75v-2h.75v2zm101.93-2.74h-.75v-2h.75v2zm-101.93-1.26h-.75v-2h.75v2zm101.93-2.74h-.75v-2h.75v2zm-101.93-1.26h-.75v-2h.75v2zm101.93-2.74h-.75v-2h.75v2zm-101.93-1.26h-.75v-2h.75v2zm101.93-2.74h-.75v-2h.75v2zm-101.93-1.26h-.75v-2h.75v2zm101.93-2.74h-.75v-2h.75v2zM37.61 97.48h-.75v-2h.75v2zm101.93-2.74h-.75v-2h.75v2zM37.61 93.48h-.75v-2h.75v2zm101.93-2.74h-.75v-2h.75v2zM37.61 89.48h-.75v-2h.75v2zm101.93-2.74h-.75v-2h.75v2zM37.61 85.48h-.75v-2h.75v2zm101.93-2.74h-.75v-2h.75v2zM37.61 81.48h-.75v-2h.75v2zm101.93-2.74h-.75v-2h.75v2zM37.61 77.48h-.75V75.7h1v.75h-.22l-.03 1.03zm100.22-1h-2v-.75h2v.75zm-4 0h-2v-.75h2v.75zm-4 0h-2v-.75h2v.75zm-4 0h-2v-.75h2v.75zm-4 0h-2v-.75h2v.75zm-4 0h-2v-.75h2v.75zm-4 0h-2v-.75h2v.75zm-4 0h-2v-.75h2v.75zm-4 0h-2v-.75h2v.75zm-4 0h-2v-.75h2v.75zm-4 0h-2v-.75h2v.75zm-4 0h-2v-.75h2v.75zm-4 0h-2v-.75h2v.75zm-4 0h-2v-.75h2v.75zm-4 0h-2v-.75h2v.75zm-4 0h-2v-.75h2v.75zm-4 0h-2v-.75h2v.75zm-4 0h-2v-.75h2v.75zm-4 0h-2v-.75h2v.75zm-4 0h-2v-.75h2v.75zm-4 0h-2v-.75h2v.75zm-4 0h-2v-.75h2v.75zm-4 0h-2v-.75h2v.75zm-4 0h-2v-.75h2v.75zm-4 0h-2v-.75h2v.75z"/><circle class="cls-7" cx="88.2" cy="109.84" r="9.2" transform="rotate(-80.783 88.2 109.84)"/><path class="cls-10" d="M87.33 104.37h1.75v10.94h-1.75z"/><path class="cls-10" d="M82.72 108.97h10.94v1.75H82.72z"/><path class="cls-2" d="M385.44 202.46h-2v-.75h2v.75zm-4 0h-2v-.75h2v.75zm-4 0h-2v-.75h2v.75zm-4 0h-2v-.75h2v.75zm-4 0h-2v-.75h2v.75zm-4 0h-2v-.75h2v.75zm-4 0h-2v-.75h2v.75zm-4 0h-2v-.75h2v.75zm-4 0h-2v-.75h2v.75zm-4 0h-2v-.75h2v.75zm-4 0h-2v-.75h2v.75zm-4 0h-2v-.75h2v.75zm-4 0h-2v-.75h2v.75zm-4 0h-2v-.75h2v.75zm-4 0h-2v-.75h2v.75zm-4 0h-2v-.75h2v.75zm-4 0h-2v-.75h2v.75zm-4 0h-2v-.75h2v.75zm-4 0h-2v-.75h2v.75zm-4 0h-2v-.75h2v.75zm-4 0h-2v-.75h2v.75zm-4 0h-2v-.75h2v.75zm-4 0h-2v-.75h2v.75zm-4 0h-2v-.75h2v.75zm-4 0h-2v-.75h2v.75zm-4 0h-2v-.75h2v.75zm-4 0h-2v-.75h2v.75zm-4 0h-2v-.75h2v.75zm-4 0h-2v-.75h2v.75zm-4 0h-2v-.75h2v.75zm-4 0h-2v-.75h2v.75zm-4 0h-2.28v-.48h.38v-.27h1.9v.75zm124.37-1.41h-.76v-2h.75l.01 2zm-125.9-1.07h-.75v-2h.75v2zm125.9-2.93h-.76v-2h.75l.01 2zm-125.9-1.07h-.75v-2h.75v2zm125.9-2.93h-.76v-2h.75l.01 2zm-125.9-1.07h-.75v-2h.75v2zm125.9-2.93h-.76v-2h.75l.01 2zm-125.9-1.07h-.75v-2h.75v2zm125.9-2.93h-.76v-2h.75l.01 2zm-125.9-1.07h-.75v-2h.75v2zm125.9-2.93h-.76v-2h.75l.01 2zm-125.9-1.07h-.75v-2h.75v2zm125.9-2.93h-.76v-2h.75l.01 2zm-125.9-1.07h-.75v-2h.75v2zm125.9-2.93h-.76v-2h.75l.01 2zm-125.9-1.07h-.75v-2h.75v2zm125.9-2.93h-.76v-2h.75l.01 2zm-125.9-1.07h-.75v-2h.75v2zm125.9-2.93h-.76v-2h.75l.01 2zm-125.9-1.07h-.75v-2h.75v2zm125.9-2.93h-.76v-2h.75l.01 2zm-125.9-1.07h-.75v-2h.75v2zm125.9-2.93h-.76v-2h.75l.01 2zm-125.9-1.07h-.75v-2h.75v2zm125.9-2.93h-.76v-2h.75l.01 2zm-125.9-1.07h-.75v-2h.75v2zm125.9-2.93h-.76v-2h.75l.01 2zm-125.9-1.07h-.75v-2h.75v2zm125.9-2.93h-.76v-.21h-1v-.75h1.79l-.03.96zm-3.79-.21h-2v-.75h2v.75zm-4 0h-2v-.75h2v.75zm-4 0h-2v-.75h2v.75zm-4 0h-2v-.75h2v.75zm-4 0h-2v-.75h2v.75zm-4 0h-2v-.75h2v.75zm-4 0h-2v-.75h2v.75zm-4 0h-2v-.75h2v.75zm-4 0h-2v-.75h2v.75zm-4 0h-2v-.75h2v.75zm-4 0h-2v-.75h2v.75zm-4 0h-2v-.75h2v.75zm-4 0h-2v-.75h2v.75zm-4 0h-2v-.75h2v.75zm-4 0h-2v-.75h2v.75zm-4 0h-2v-.75h2v.75zm-4 0h-2v-.75h2v.75zm-4 0h-2v-.75h2v.75zm-4 0h-2v-.75h2v.75zm-4 0h-2v-.75h2v.75zm-4 0h-2v-.75h2v.75zm-4 0h-2v-.75h2v.75zm-4 0h-2v-.75h2v.75zm-4 0h-2v-.75h2v.75zm-4 0h-2v-.75h2v.75zm-4 0h-2v-.75h2v.75zm-4 0h-2v-.75h2v.75zm-4 0h-2v-.75h2v.75zm-4 0h-2v-.75h2v.75zm-4 0h-2v-.75h2v.75zm-4 0h-2v-.75h2v.75z"/><circle class="cls-7" cx="322.49" cy="173.28" r="9.2"/><path class="cls-10" d="M321.62 167.81h1.75v10.94h-1.75z"/><path class="cls-10" d="M317.01 172.41h10.94v1.75h-10.94z"/><path class="cls-2" d="M294.51 111.17h-1.38v-.75h.63v-.63h.75v1.38zM291.21 111.17h-1.91v-.75h1.91v.75zm-3.83 0h-1.92v-.75h1.92v.75zm-3.83 0h-1.92v-.75h1.92v.75zm-3.84 0h-1.92v-.75h1.92v.75zm-3.83 0h-1.92v-.75h1.92v.75zm-3.84 0h-1.92v-.75h1.93l-.01.75zm-3.83 0h-1.92v-.75h1.92v.75zm-3.84 0h-1.91v-.75h1.91v.75zM260.54 111.17h-1.38v-1.38h.75v.63h.63v.75zM259.91 107.93h-.75v-2h.75v2zm0-3.84h-.75v-1.92h.75v1.92zm0-3.83h-.75v-1.92h.75v1.92zm0-3.84h-.75V94.5h.75v1.92zm0-3.83h-.75v-1.92h.75v1.92zm0-3.84h-.75v-1.91h.75v1.91zm0-3.83h-.75v-1.99h.75v1.99zm0-3.84h-.75v-1.91h.75v1.91zM259.91 77.2h-.75v-1.37h1.38v.75h-.63v.62zM291.22 76.57h-1.92v-.75h1.92v.75zm-3.84 0h-1.92v-.75h1.92v.75zm-3.83 0h-1.92v-.75h1.92v.75zm-3.84 0h-1.92v-.75h1.92v.75zm-3.83 0h-1.92v-.75h1.92v.75zm-3.84 0h-1.91v-.75h1.92l-.01.75zm-3.83 0h-1.92v-.75h1.92v.75zm-3.84 0h-1.91v-.75h1.91v.75zM294.51 77.2h-.75v-.62h-.63v-.75h1.38v1.37zM294.51 107.93h-.75v-2h.75v2zm0-3.84h-.75v-1.92h.75v1.92zm0-3.83h-.75v-1.92h.75v1.92zm0-3.84h-.75V94.5h.75v1.92zm0-3.83h-.75v-1.92h.75v1.92zm0-3.84h-.75v-1.91h.75v1.91zm0-3.83h-.75v-1.99h.75v1.99zm0-3.84h-.75v-1.91h.75v1.91z"/><path class="cls-2" d="M259.57 76.2c2.91 2.8 5.81 5.64 8.7 8.49l8.65 8.6 8.62 8.7 4.29 4.38 4.27 4.42-4.36-4.22-4.34-4.27-8.65-8.6-8.62-8.7c-2.86-2.91-5.72-5.83-8.56-8.8z"/><path class="cls-2" d="M294.1 76.2c-2.84 3-5.7 5.89-8.56 8.8l-8.62 8.7-8.65 8.6-4.34 4.27-4.36 4.22 4.27-4.42 4.29-4.38 8.62-8.7 8.65-8.6c2.89-2.85 5.79-5.69 8.7-8.49z"/><path class="cls-7" d="M329.39 93.58a6.91 6.91 0 11-6.92-6.9h.02a6.9 6.9 0 016.9 6.9z"/><path class="cls-10" d="M321.83 89.48h1.31v8.21h-1.31z"/><path class="cls-10" d="M318.38 92.93h8.21v1.31h-8.21z"/><path class="cls-9" d="M340.16 111.25h-1.38v-.75h.63v-.62h.75v1.37zM336.87 111.25h-1.92v-.75h1.92v.75zm-3.84 0h-1.91v-.75h1.93l-.02.75zm-3.83 0h-1.92v-.75h1.92v.75zm-3.84 0h-1.91v-.75h1.91v.75zm-3.83 0h-1.92v-.75h1.92v.75zm-3.83 0h-1.92v-.75h1.92v.75zm-3.84 0h-1.92v-.75h1.92v.75zm-3.83 0h-1.92v-.75h1.94l-.02.75zM306.19 111.25h-1.37v-1.37h.75v.62h.62v.75zM305.57 107.93h-.75v-1.91h.75v1.91zm0-3.83h-.75v-1.92h.75v1.92zm0-3.84h-.75v-1.91h.75v1.91zm0-3.83h-.75v-1.92h.75v1.92zm0-3.84h-.75v-1.91h.75v1.91zm0-3.83h-.75v-1.92h.75v1.92zm0-3.83h-.75v-1.92h.75v1.92zm0-3.84h-.75v-1.92h.75v1.92zM305.57 77.29h-.75v-1.38h1.37v.75h-.62v.63zM336.87 76.66h-1.92v-.73h1.92v.73zm-3.84 0h-1.91v-.73h1.93l-.02.73zm-3.83 0h-1.92v-.73h1.92v.73zm-3.84 0h-1.91v-.73h1.91v.73zm-3.83 0h-1.92v-.73h1.92v.73zm-3.83 0h-1.92v-.73h1.92v.73zm-3.84 0h-1.92v-.73h1.92v.73zm-3.83 0h-1.92v-.73h1.94l-.02.73zM340.16 77.29h-.75v-.63h-.63v-.75h1.38v1.38zM340.16 107.93h-.75v-1.91h.75v1.91zm0-3.83h-.75v-1.92h.75v1.92zm0-3.84h-.75v-1.91h.75v1.91zm0-3.83h-.75v-1.92h.75v1.92zm0-3.84h-.75v-1.91h.75v1.91zm0-3.83h-.75v-1.92h.75v1.92zm0-3.83h-.75v-1.92h.75v1.92zm0-3.84h-.75v-1.92h.75v1.92z"/><path class="cls-2" d="M350.9 76.29c2.92 2.8 5.81 5.64 8.7 8.49l8.66 8.6 8.61 8.69 4.29 4.39 4.28 4.42-4.39-4.23-4.34-4.26-8.66-8.6-8.61-8.7c-2.83-2.91-5.7-5.84-8.54-8.8z"/><path class="cls-2" d="M385.44 76.29a829.706 829.706 0 01-8.57 8.8l-8.61 8.7-8.65 8.6-4.35 4.26-4.36 4.28 4.28-4.42 4.29-4.39 8.61-8.69 8.66-8.6c2.89-2.9 5.78-5.74 8.7-8.54zM385.84 111.17h-1.37v-.75h.62v-.63h.75v1.38zM382.55 111.17h-1.92v-.75h1.92v.75zm-3.83 0h-1.92v-.75h1.92v.75zm-3.84 0h-1.92v-.75h1.92v.75zm-3.83 0h-1.92v-.75h1.92v.75zm-3.84 0h-1.91v-.75h1.91v.75zm-3.83 0h-1.92v-.75h1.92v.75zm-3.84 0h-1.91v-.75h1.91v.75zm-3.83 0h-1.92v-.75h1.92v.75z"/><path class="cls-2" d="M351.87 111.17h-1.37v-1.38h.75v.63h.62v.75zM351.25 107.93h-.75v-2h.75v2zm0-3.84h-.75v-1.92h.75v1.92zm0-3.83h-.75v-1.92h.75v1.92zm0-3.84h-.75V94.5h.75v1.92zm0-3.83h-.75v-1.92h.75v1.92zm0-3.84h-.75v-1.91h.75v1.91zm0-3.83h-.75v-1.99h.75v1.99zm0-3.84h-.75v-1.91h.75v1.91zM351.25 77.2h-.75v-1.37h1.37v.75h-.62v.62zM382.55 76.57h-1.92v-.75h1.92v.75zm-3.83 0h-1.92v-.75h1.92v.75zm-3.84 0h-1.92v-.75h1.92v.75zm-3.83 0h-1.92v-.75h1.92v.75zm-3.84 0h-1.92v-.75h1.92v.75zm-3.83 0h-1.92v-.75h1.92v.75zm-3.84 0h-1.91v-.75h1.91v.75zm-3.83 0h-1.92v-.75h1.92v.75zM385.84 77.2h-.75v-.62h-.62v-.75h1.37v1.37zM385.84 107.93h-.79v-2h.75l.04 2zm0-3.84h-.79v-1.92h.75l.04 1.92zm0-3.83h-.79v-1.92h.75l.04 1.92zm0-3.84h-.79V94.5h.75l.04 1.92zm0-3.83h-.79v-1.92h.75l.04 1.92zm0-3.84h-.79v-1.91h.75l.04 1.91zm0-3.83h-.79v-1.99h.75l.04 1.99zm0-3.84h-.79v-1.91h.75l.04 1.91z"/><path class="cls-9" d="M259.54 119.84h126.12v15.45H259.54z"/></svg>