<svg xmlns="http://www.w3.org/2000/svg" viewBox="0 0 94.366 88.203"><defs><style>.c5{fill:#b5cedf}</style></defs><path d="M80.826 56.665a13.54 13.54 0 11-5.184 26.047 13.537 13.537 0 01-8.359-12.508c0-7.48 6.062-13.539 13.543-13.539zm-8.051 14.758l4 5.109c.359.418.992.461 1.41.102l10.777-10.23a.99.99 0 00-.141-1.176 1.002 1.002 0 00-1.168-.215l-10 9.52-3.398-4.289a1.004 1.004 0 00-1.184.039.997.997 0 00-.316 1.141h.02z" fill="#6c9ebf" fill-rule="evenodd"/><path class="c5" d="M67.619 30.321c1.4-.3 2.6-1.5 2.5-2.9 0-1.8-1.7-3.1-3.4-2.8l-12.8 2.4c-2.9.5-5.8.8-8.7.8s-5.8-.3-8.7-.8l-12.6-2.3c-1.4-.3-2.9.5-3.4 1.8-.6 1.7.5 3.5 2.2 3.9l15.3 2.8.2 7.8c.1 5-.4 10.1-1.6 15l-3.9 15.2c-.4 1.6.3 3.3 1.8 3.9 1.9.8 3.9-.3 4.4-2.2l5.5-22.2c.2-.8 1.3-.8 1.5 0l5.6 22.2c.4 1.5 1.7 2.4 3.1 2.4.5 0 1-.1 1.5-.4 1.4-.7 2-2.3 1.6-3.8l-3.8-15.3c-1.2-4.9-1.8-9.9-1.6-15l.2-7.8 15.1-2.7z"/><circle class="c5" cx="45.239" cy="19.521" r="6.5"/><path d="M44.166 0A43.991 43.991 0 008.74 17.68a44.003 44.003 0 0020.367 67.722 44.004 44.004 0 0039.301-4.793 15.152 15.152 0 01-1.242-1.48 41.997 41.997 0 01-63.16-22.992 42.01 42.01 0 016.347-37.039A42.006 42.006 0 0143.798 1.965a41.995 41.995 0 0133.766 16.484 41.993 41.993 0 017.062 36.91c.609.211 1.203.457 1.781.738a44.012 44.012 0 00-7.152-38.566A44.003 44.003 0 0044.166 0z" fill-rule="evenodd" fill="#dbdbdb"/><path d="M45.353.204a43.988 43.988 0 00-35.426 17.68 44.003 44.003 0 0020.367 67.722 44.004 44.004 0 0039.301-4.793 15.152 15.152 0 01-1.242-1.48 41.997 41.997 0 01-63.16-22.992 42 42 0 0173.558-37.689 41.993 41.993 0 017.062 36.91c.609.211 1.203.457 1.781.738a44.012 44.012 0 00-7.152-38.566A44.005 44.005 0 0045.353.204z" fill="#ebebeb" fill-rule="evenodd"/></svg>