<svg xmlns="http://www.w3.org/2000/svg" viewBox="0 0 170.079 11.324"><path fill-rule="evenodd" fill="#ebebeb" d="M169.893 5.063a1 1 0 00-1.395-.234l-.036.027c-8.389 6.263-17.168 5.874-26.889-.048-10.173-6.191-20.15-6.643-29.126.057-8.372 6.24-17.133 5.863-26.83-.019-.012-.008-.018-.021-.03-.028l-.022-.013C80.322 1.614 75.129-.051 70.097.001c-4.727.049-9.312 1.614-13.66 4.855-8.389 6.263-17.157 5.874-26.889-.048C19.382-1.383 9.396-1.835.42 4.866a1 1 0 101.161 1.629l.036-.027C10.006.206 18.784.595 28.506 6.517c10.173 6.191 20.15 6.643 29.126-.057h.001c8.372-6.24 17.133-5.863 26.83.019.012.008.018.021.03.028l.022.013c5.241 3.19 10.434 4.855 15.466 4.803 4.727-.049 9.312-1.614 13.659-4.855h.001c8.389-6.263 17.157-5.874 26.889.048 10.164 6.192 20.151 6.643 29.126-.058a1 1 0 00.234-1.395z"/></svg>