<?xml version="1.0" encoding="UTF-8"?>
<svg xmlns="http://www.w3.org/2000/svg" viewBox="0 0 603 873.4">
  <style>
      circle, path:first-of-type {
        fill: #246e9f;
      }
      path:last-of-type {
        fill: #333;
      }
      @media (prefers-color-scheme: dark) {
        path:last-of-type {
          fill: #fff;
        }
        circle, path:first-of-type {
          fill: #6c9ebf;
        }
      }
  </style>
  <circle cx="538" cy="808.4" r="65"/>
  <path d="M548.33,336.92c22.16,22.16,40.48,47.26,54.67,74.84V132L473,2v280c27.77,14.22,53.04,32.64,75.33,54.93Z"/>
  <path d="M303,743.4c-93.74,0-170-76.26-170-170s76.26-170,170-170,169.78,76.05,169.99,169.6h0v155.94c17.59-14.74,40.27-23.63,65.02-23.63s47.39,8.87,64.98,23.59v-155.9h0c-.05-40.33-7.99-79.49-23.6-116.39-15.11-35.73-36.73-67.81-64.27-95.34-27.53-27.53-59.61-49.15-95.34-64.27-37.03-15.66-76.32-23.6-116.79-23.6s-79.77,7.94-116.79,23.6c-35.73,15.11-67.81,36.74-95.34,64.27-27.53,27.53-49.15,59.61-64.27,95.34-15.66,37.03-23.6,76.32-23.6,116.79s7.94,79.77,23.6,116.79c15.11,35.73,36.74,67.81,64.27,95.34,27.53,27.53,59.61,49.15,95.34,64.27,37.03,15.66,76.32,23.6,116.79,23.6s79.77-7.94,116.79-23.6c5.15-2.18,10.21-4.51,15.21-6.95v-162.45c-31.19,38.41-78.78,63-132,63Z"/>
</svg>