<?xml version="1.0" encoding="utf-8"?>
<!-- Generator: Adobe Illustrator 26.3.1, SVG Export Plug-In . SVG Version: 6.00 Build 0)  -->
<svg version="1.1" id="Layer_1" xmlns="http://www.w3.org/2000/svg" xmlns:xlink="http://www.w3.org/1999/xlink" x="0px" y="0px"
	 viewBox="0 0 58.8 58.8" style="enable-background:new 0 0 58.8 58.8;" xml:space="preserve">
<style type="text/css">
	.st0{stroke:#fff;fill:#800080}
</style>
<g>
	<path class="st0" d="M16.4,23.4c0.1,0,0.1,0,0.2,0c0.3,0.5,0.5,1,0.8,1.5c4.4,8.1,8.7,16.2,13.1,24.3c1.1,2.1,2.7,3,5,2.9c6-0.3,10.8-2.9,14-8
		c5.7-9.3,5.6-18.8,0.2-28.1c-3.6-6.1-9.2-9-16.3-9C30.8,6.8,29,8.6,29,11c0,2.4,0,4.8,0,7.2c0,2.4,1.9,4.2,4.2,4.2
		c2.3,0,4.2-1.8,4.3-4.2c0-0.6,0-1.3,0-2.4c1.4,1.1,2.6,1.8,3.5,2.7c5,5.2,5.3,15.8,0.8,21.4c-1.2,1.5-2.7,2.7-4.8,3
		c-0.3-0.5-0.5-0.9-0.7-1.3C30.7,31.3,25,20.9,19.5,10.4c-1.4-2.6-3.1-4-6.1-3.6c-0.4,0.1-0.8,0-1.3,0c-2.5,0.1-4.3,1.8-4.3,4.3
		c0,12.2,0,24.4,0,36.6c0,2.5,1.8,4.2,4.3,4.3c2.3,0,4.6,0,6.9,0c2.5,0,4.3-1.8,4.4-4.2c0-2.5-1.8-4.3-4.4-4.3c-0.9,0-1.7,0-2.6,0
		C16.4,36.6,16.4,30,16.4,23.4z"/>
</g>
</svg>
