<svg width="428" height="82" xmlns="http://www.w3.org/2000/svg"><g fill="none" fill-rule="evenodd"><path d="M108.78 38.084c0 8.869 6.28 16.153 14.969 16.153 8.068 0 14.92-7.118 14.92-16.153 0-8.44-7.098-15.932-14.92-15.932-7.94 0-14.969 7.436-14.969 15.932m-10.13.006c0-13.762 11.763-24.568 25.154-24.568 13.393 0 25.045 10.862 25.045 24.624 0 13.761-11.646 24.728-25.038 24.728-13.391 0-25.16-11.022-25.16-24.784m235.014 1.816c-5.818 0-10.319 3.456-10.319 7.726 0 4.402 4.759 7.724 10.579 7.724 5.91 0 10.693-3.882 10.693-8.042 0-3.888-5.042-7.408-10.953-7.408zm11.022 17.736c-2.249 2.428-7.643 5.187-12.774 5.187-9.421 0-17.531-6.477-17.531-15.712 0-8.866 8.245-15.095 17.851-15.095 5.2 0 10.023 2.154 12.398 4.596v-4.025c0-5.634-4.857-10.385-11.523-10.385-5.172 0-9.572 1.483-13.359 3.793l-.029-8.635c3.509-2.032 8.792-3.787 14.795-3.787 11.175 0 19.995 7.806 19.995 18.15l.003 29.91-9.849.047.023-4.044zm32.143-3.851c3.332 0 7.292-.754 7.292-5.095 0-2.753-1.642-3.694-4.25-4.805l-8.741-3.646c-4.988-2.401-9.055-5.476-9.055-12.219 0-7.666 7.775-14.464 16.733-14.464 5.265 0 9.917 1.331 13.426 4.008v10.215c-3.879-3.233-8.478-5.433-13.28-5.433-4.526 0-6.504 2.396-6.504 4.883 0 2.68 1.377 3.621 5.256 5.468l8.389 3.638c5.541 2.586 8.82 5.797 8.82 11.8 0 8.405-9.055 14.706-18.014 14.706-6.003 0-11.848-1.906-15.357-4.492V47.924c4.248 3.971 10.205 5.867 15.285 5.867m43.972.71c2.519 0 4.685-.733 7.182-2.512v9.034c-2.124 1.294-5.645 2.175-9.431 2.175-9.052 0-15.806-6.675-15.806-16.557l.059-23.345-7.801-.148-.089-8.126 7.949-.009.017-11.843L412.823 0l.03 14.934 13.445.03-.018 8.214-13.309.089-.029 22.339c0 5.542 2.879 8.895 7.86 8.895M165.514 38.084c0 9.605 7.461 16.039 14.471 16.039 7.185 0 15.529-6.279 15.529-15.885 0-9.697-7.565-16.129-14.882-16.129-7.671 0-15.118 6.278-15.118 15.975m39.928.13c0 13.576-9.826 24.703-23.033 24.703-8.781 0-13.614-4.205-16.759-8.248L165.684 81h-9.863l.034-66.357 10.207-.021.066 7.316c2.919-4.614 8.261-8.427 16.111-8.427 13.208 0 23.203 11.034 23.203 24.703m27.863-16.017c-7.317 0-14.882 6.432-14.882 16.13 0 9.604 8.343 15.884 15.528 15.884 7.01 0 14.472-6.434 14.472-16.038 0-9.699-7.447-15.976-15.118-15.976m-1.607-8.599c7.85 0 13.191 3.814 16.111 8.428l.065-7.316 10.207.02.035 66.36h-9.864l.034-26.333c-3.144 4.043-7.977 8.25-16.757 8.25-13.208 0-23.035-11.128-23.035-24.706 0-13.668 9.996-24.703 23.204-24.703m66.792 1.18l10.124.041-.082 47.165-10.082-.066.04-6.296c-2.57 4.38-8.212 7.231-13.698 7.231-11.135 0-17.033-8.328-17.033-18.359l-.04-29.695h9.922l.04 27.566c0 7.02 4.143 11.65 10.083 11.65 5.817 0 10.807-5.073 10.807-12.092l-.081-27.146z" fill="#231F20"/><path d="M74.317 37.933l-3.976 3.923-38.108 38.029c-.92.917-2.28 1.123-3.56-.157l-7.417-7.312c-.91-.996-.955-2.378.101-3.43L52.45 37.915l21.868.018z" fill="#0C727E"/><path d="M74.317 37.933l16.975 17.012c.85.85.91 2.615-.142 3.665l-7.394 7.379c-.886.883-2.377.825-3.33-.131L52.448 37.915l21.868.018z" fill="#139A9B"/><path d="M17.662 45.797l3.865-3.837 37.36-37.358c.918-.918 2.477-1.05 3.56.153l7.423 7.304c.955.955.958 2.376-.097 3.43L39.424 45.854l-21.762-.057z" fill="#1B9346"/><path d="M17.638 45.842L.644 28.849c-.85-.851-.912-2.614.139-3.666l7.386-7.386c.885-.885 2.376-.828 3.33.127l27.926 27.93-21.787-.012z" fill="#5BBA47"/></g></svg>