<!--Credit : https://tablericons.com/--><svg xmlns="http://www.w3.org/2000/svg" viewBox="0 0 38.9 36.5" fill="#fff"><path d="M9.1 18H9c-5 0-9-4-9-9s4-9 9-9 9 3.6 9 8.1c0 2.4-2.2 4.4-4.8 4.4h-2.3c-.6 0-1.2.5-1.2 1.1 0 .4.2.8.6 1l.1.1c.8.7.8 1.9.1 2.7-.4.4-.9.6-1.4.6zM9 1.4C4.8 1.4 1.4 4.8 1.4 9s3.4 7.6 7.6 7.6h.1c.2 0 .3 0 .4-.2.2-.2.2-.5 0-.7-.8-.5-1.2-1.3-1.2-2.2 0-.7.3-1.3.8-1.8s1.1-.7 1.8-.7h2.3c1.9 0 3.5-1.3 3.5-3-.1-3.6-3.5-6.6-7.7-6.6z"/><circle cx="4.8" cy="7.6" r=".5"/><path d="M4.8 8.8c-.6 0-1.2-.5-1.2-1.2s.5-1.2 1.2-1.2S6 7 6 7.6s-.5 1.2-1.2 1.2zm0-1.4c-.1 0-.2.1-.2.2 0 .3.5.3.5 0 0-.1-.1-.2-.3-.2z"/><circle cx="9" cy="4.8" r=".5"/><path d="M9 6c-.6 0-1.2-.5-1.2-1.2S8.4 3.7 9 3.7s1.2.5 1.2 1.2S9.6 6 9 6zm0-1.4c-.1 0-.2.1-.2.2 0 .3.5.3.5 0-.1-.1-.2-.2-.3-.2z"/><g><circle cx="13.2" cy="7.6" r=".5"/><path d="M13.2 8.8c-.6 0-1.2-.5-1.2-1.2s.5-1.2 1.2-1.2 1.2.5 1.2 1.2-.6 1.2-1.2 1.2zm0-1.4c-.1 0-.2.1-.2.2 0 .3.5.3.5 0-.1-.1-.2-.2-.3-.2z"/></g><g><path d="M35.2 10.5c-.2 0-.4-.1-.5-.2l-6-6c-.3-.3-.3-.8 0-1.1s.8-.3 1.1 0l6 6c.3.3.3.8 0 1.1-.3.1-.5.2-.6.2z"/><path d="M26.2 17.5h-4c-.4 0-.8-.3-.8-.8v-4c0-.2.1-.4.2-.5L33.3.5c.7-.7 1.8-.7 2.5 0l2.6 2.6c.7.7.7 1.8 0 2.5L26.7 17.3c-.2.1-.4.2-.5.2zM22.9 16h2.9L37.3 4.5c.1-.1.1-.2 0-.3l-2.6-2.6c-.1-.1-.2-.1-.3 0L22.9 13.1V16z"/></g><g><path d="M19.8 36.5c-.5 0-1-.2-1.5-.5-.2-.1-.3-.3-.4-.4-.1-.2-.4-.3-.6-.3-.2 0-.5 0-.7.2-.1 0-.1.1-.2.2-.5.5-1.1.8-1.8.9-.7 0-1.3-.2-1.8-.6-.6-.6-.9-1.4-.8-2.2v-6.9c0-4.3 3.5-7.8 7.8-7.8s7.8 3.5 7.8 7.8v7c.2 1.3-.8 2.6-2.2 2.7-.8.1-1.7-.2-2.2-.8-.2-.2-.4-.3-.6-.4-.2 0-.5 0-.7.2-.1 0-.1.1-.2.2-.4.5-1 .8-1.6.9-.1-.2-.2-.2-.3-.2zm-2.6-2.7h.3c.6.1 1.2.4 1.6.9 0 .1.1.1.2.2.2.2.4.2.7.2.2 0 .5-.1.6-.3.1-.2.3-.3.4-.4.5-.4 1.1-.6 1.8-.5.6.1 1.2.4 1.6.9.2.2.5.3.9.3.3 0 .5-.2.7-.4s.2-.5.2-.8v-7.1c0-3.4-2.8-6.2-6.2-6.2s-6.2 2.8-6.2 6.2v7c0 .4.1.8.3 1 .2.2.5.3.7.3.3 0 .5-.1.7-.3.1-.1.2-.3.4-.4.2-.5.7-.6 1.3-.6z"/><path d="M17.8 26.5c-.4 0-.8-.3-.8-.8s.3-.8.7-.8c.4 0 .8.3.8.8s-.3.8-.7.8zM21.8 26.5c-.4 0-.8-.3-.8-.8s.3-.8.7-.8c.4 0 .8.3.8.8s-.3.8-.7.8zM19.8 31.1c-.9 0-1.7-.3-2.4-.8-.3-.2-.4-.7-.2-1 .2-.3.7-.4 1-.2.9.7 2.2.7 3.1 0 .3-.2.8-.2 1 .2.2.3.2.8-.2 1-.6.6-1.5.8-2.3.8z"/></g></svg>