<svg width="137" height="32" viewBox="0 0 137 32" fill="none" xmlns="http://www.w3.org/2000/svg"><path fill-rule="evenodd" clip-rule="evenodd" d="M6.735 9.636h-.699c-.222 0-.413.04-.54.16-.127.079-.222.238-.286.357-.063.16-.095.319-.127.478-.032.2-.032.358-.032.478v3.582c0 .438-.063.796-.222 1.075-.159.279-.35.518-.604.677-.222.159-.508.278-.762.358-.286.08-.54.12-.763.12v.04c.198 0 .42.03.668.065l.095.014c.286.04.54.159.762.318.223.16.445.398.604.717.159.318.222.756.222 1.274v3.383c0 .16 0 .319.032.478.032.199.064.358.159.477.064.16.19.279.35.359.158.08.349.159.635.159h.54v3.94H4.511c-.317 0-.635-.079-.953-.198a3.277 3.277 0 01-.921-.558c-.286-.238-.508-.597-.699-.995-.19-.398-.254-.876-.254-1.433v-4.458c0-.358-.064-.637-.19-.836a1.518 1.518 0 00-.477-.478 1.754 1.754 0 00-.572-.238c-.19-.04-.35-.04-.445-.04v-3.782c.127 0 .254 0 .445-.04.19-.04.381-.08.54-.199.19-.12.318-.239.476-.438.16-.199.191-.437.191-.756V9.04c0-.557.095-1.035.254-1.433.19-.398.413-.717.7-.995.285-.24.571-.438.92-.558.318-.119.636-.199.954-.199h2.255v3.782zm27.53 0h.699c.222 0 .413.04.54.16.127.079.222.238.286.357.063.16.095.319.127.478.032.2.032.358.032.478v3.582c0 .438.063.796.222 1.075.159.279.35.518.604.677.222.159.508.278.762.358.286.08.54.12.763.12v.04c-.198 0-.42.03-.668.065l-.095.014c-.286.04-.54.159-.762.318-.223.16-.445.398-.604.717-.159.318-.222.756-.222 1.274v3.383c0 .16 0 .319-.032.478-.032.199-.064.358-.159.477a.698.698 0 01-.35.359c-.158.08-.349.159-.635.159h-.54v3.94h2.256c.317 0 .635-.079.953-.198.318-.12.635-.319.921-.558.286-.238.508-.597.699-.995.19-.398.254-.876.254-1.433v-4.458c0-.358.064-.637.19-.836.128-.199.287-.358.477-.478.191-.12.382-.199.572-.238.19-.04.35-.04.445-.04v-3.782c-.127 0-.254 0-.445-.04-.19-.04-.381-.08-.54-.199a1.754 1.754 0 01-.476-.438c-.16-.199-.191-.437-.191-.756V9.04a3.85 3.85 0 00-.254-1.433 3.387 3.387 0 00-.7-.995c-.285-.24-.571-.438-.92-.558a2.724 2.724 0 00-.954-.199h-2.255v3.782zM27.237 19.93L14.094 6.65H10.97V9.81l13.143 13.279-2.342 2.365 1.557 1.574 2.695-2.756 3.556 3.537c.431.435 1.127.435 1.558 0l.784-.792a1.12 1.12 0 000-1.574l-3.512-3.548 2.728-2.756-1.558-1.574-2.341 2.366zm2.794-10.133l-5.235 5.29-3.125-3.147 5.235-5.29h3.125v3.147zm-13.827 7.667l3.125 3.202-2.44 2.422 2.341 2.365-1.557 1.574-2.695-2.756-3.556 3.548a1.092 1.092 0 01-1.557 0l-.785-.792a1.12 1.12 0 010-1.574l3.512-3.56-2.727-2.756 1.557-1.573 2.341 2.366 2.44-2.466z" fill="#FFDF00"/><path d="M52.058 26.208c-1.56 0-2.817-.46-3.77-1.378-.936-.936-1.404-2.184-1.404-3.744v-8.424c0-1.543.468-2.773 1.404-3.692.953-.919 2.21-1.378 3.77-1.378 1.577 0 2.834.46 3.77 1.378.953.919 1.43 2.15 1.43 3.692v.286a.323.323 0 01-.104.234.281.281 0 01-.208.078l-3.042.13c-.208 0-.312-.095-.312-.286v-.676c0-.503-.139-.91-.416-1.222-.277-.312-.65-.468-1.118-.468-.45 0-.815.156-1.092.468-.277.312-.416.72-.416 1.222v8.97c0 .503.139.91.416 1.222.277.295.641.442 1.092.442.468 0 .84-.147 1.118-.442.277-.312.416-.72.416-1.222v-.702c0-.087.026-.156.078-.208a.323.323 0 01.234-.104l3.042.13c.087 0 .156.035.208.104.07.052.104.121.104.208v.26c0 1.56-.477 2.808-1.43 3.744-.953.919-2.21 1.378-3.77 1.378zm11.827 0c-1.006 0-1.89-.2-2.652-.598a4.314 4.314 0 01-1.768-1.664c-.417-.728-.625-1.56-.625-2.496v-.754c0-.087.026-.156.078-.208a.324.324 0 01.235-.104h2.99c.086 0 .155.035.207.104.07.052.105.121.105.208v.572c0 .537.138.97.416 1.3.277.33.623.494 1.04.494.415 0 .762-.156 1.04-.468.277-.312.416-.72.416-1.222 0-.52-.174-.962-.52-1.326-.347-.381-1.023-.936-2.028-1.664-.867-.624-1.57-1.179-2.107-1.664a6.581 6.581 0 01-1.378-1.794c-.38-.71-.572-1.534-.572-2.47 0-1.473.46-2.652 1.379-3.536.918-.884 2.132-1.326 3.64-1.326 1.525 0 2.747.46 3.666 1.378.935.919 1.403 2.123 1.403 3.614v.624a.323.323 0 01-.103.234.281.281 0 01-.209.078h-2.99a.38.38 0 01-.234-.078.38.38 0 01-.077-.234v-.702c0-.537-.14-.962-.416-1.274a1.258 1.258 0 00-1.04-.494c-.416 0-.755.156-1.014.468-.26.295-.39.71-.39 1.248 0 .52.164.98.493 1.378.33.399.98.953 1.95 1.664 1.075.797 1.881 1.447 2.419 1.95.554.485.979 1.031 1.273 1.638.313.59.469 1.3.469 2.132 0 1.525-.468 2.739-1.404 3.64-.936.901-2.167 1.352-3.692 1.352zm11.552 0c-1.005 0-1.89-.2-2.652-.598a4.314 4.314 0 01-1.768-1.664c-.416-.728-.624-1.56-.624-2.496v-.754c0-.087.026-.156.078-.208a.323.323 0 01.234-.104h2.99c.087 0 .156.035.208.104.07.052.104.121.104.208v.572c0 .537.139.97.416 1.3.278.33.624.494 1.04.494.416 0 .763-.156 1.04-.468.278-.312.416-.72.416-1.222 0-.52-.173-.962-.52-1.326-.346-.381-1.022-.936-2.028-1.664-.866-.624-1.568-1.179-2.106-1.664a6.577 6.577 0 01-1.378-1.794c-.381-.71-.572-1.534-.572-2.47 0-1.473.46-2.652 1.378-3.536.919-.884 2.132-1.326 3.64-1.326 1.526 0 2.748.46 3.666 1.378.936.919 1.404 2.123 1.404 3.614v.624a.323.323 0 01-.104.234.281.281 0 01-.208.078h-2.99a.38.38 0 01-.234-.078.38.38 0 01-.078-.234v-.702c0-.537-.138-.962-.416-1.274a1.258 1.258 0 00-1.04-.494c-.416 0-.754.156-1.014.468-.26.295-.39.71-.39 1.248 0 .52.165.98.494 1.378.33.399.98.953 1.95 1.664 1.075.797 1.88 1.447 2.418 1.95.555.485.98 1.031 1.274 1.638.312.59.468 1.3.468 2.132 0 1.525-.468 2.739-1.404 3.64-.936.901-2.166 1.352-3.692 1.352zm17.249-5.226c0 1.612-.486 2.851-1.456 3.718S89.002 26 87.46 26h-4.914a.38.38 0 01-.234-.078.38.38 0 01-.078-.234V8.112c0-.087.026-.156.078-.208a.324.324 0 01.234-.104h4.342c1.733 0 3.085.416 4.056 1.248.988.832 1.482 2.071 1.482 3.718 0 1.716-.59 2.964-1.768 3.744-.07.052-.078.104-.026.156 1.37.97 2.054 2.41 2.054 4.316zM86.03 10.946c-.087 0-.13.043-.13.13v4.082c0 .087.043.13.13.13h.936c.59 0 1.049-.182 1.378-.546.33-.381.494-.91.494-1.586 0-.71-.165-1.257-.494-1.638-.312-.381-.771-.572-1.378-.572h-.936zm1.144 11.882c.572 0 1.022-.208 1.352-.624.33-.416.494-1.005.494-1.768 0-.763-.165-1.37-.494-1.82a1.56 1.56 0 00-1.326-.676h-1.17c-.087 0-.13.043-.13.13v4.628c0 .087.043.13.13.13h1.144zm11.953-10.4c1.473 0 2.669.399 3.588 1.196.918.797 1.378 1.846 1.378 3.146v8.918a.325.325 0 01-.104.234.282.282 0 01-.208.078h-3.042a.379.379 0 01-.234-.078.38.38 0 01-.078-.234v-.572c0-.052-.018-.087-.052-.104-.035-.017-.07 0-.104.052-.572.728-1.456 1.11-2.652 1.144-1.006 0-1.88-.277-2.626-.832-.728-.555-1.092-1.612-1.092-3.172 0-1.612.442-2.721 1.326-3.328.901-.607 2.192-.91 3.874-.91h1.196c.086 0 .13-.043.13-.13v-.65c0-.468-.13-.85-.39-1.144a1.135 1.135 0 00-.936-.468c-.295 0-.546.095-.754.286-.19.173-.312.425-.364.754-.018.208-.13.312-.338.312l-3.12-.026c-.208 0-.312-.104-.312-.312.086-1.265.58-2.27 1.482-3.016.901-.763 2.045-1.144 3.432-1.144zm-.26 10.946c.398 0 .754-.13 1.066-.39.329-.277.494-.641.494-1.092V20.67c0-.087-.044-.13-.13-.13h-1.066c-.468 0-.85.139-1.144.416-.278.26-.416.624-.416 1.092 0 .433.104.763.312.988.225.225.52.338.884.338zm13.111-8.476a.32.32 0 01-.104.234.28.28 0 01-.208.078h-1.456c-.086 0-.13.043-.13.13v6.188c0 .503.096.85.286 1.04.191.19.477.277.858.26h.182c.087 0 .156.035.208.104.07.052.104.121.104.208v2.548a.32.32 0 01-.104.234.28.28 0 01-.208.078h-1.04c-1.265 0-2.218-.208-2.86-.624-.641-.433-.962-1.248-.962-2.444V15.34c0-.087-.043-.13-.13-.13h-.858a.383.383 0 01-.234-.078.38.38 0 01-.078-.234v-1.95c0-.087.026-.156.078-.208a.326.326 0 01.234-.104h.858c.087 0 .13-.043.13-.13V9.62c0-.087.026-.156.078-.208a.326.326 0 01.234-.104h2.912c.087 0 .156.035.208.104.07.052.104.121.104.208v2.886c0 .087.044.13.13.13h1.456c.087 0 .156.035.208.104.07.052.104.121.104.208v1.95zm7.567 0a.325.325 0 01-.104.234.282.282 0 01-.208.078h-1.456c-.087 0-.13.043-.13.13v6.188c0 .503.095.85.286 1.04.19.19.476.277.858.26h.182c.086 0 .156.035.208.104a.248.248 0 01.104.208v2.548a.325.325 0 01-.104.234.282.282 0 01-.208.078h-1.04c-1.266 0-2.219-.208-2.86-.624-.642-.433-.962-1.248-.962-2.444V15.34c0-.087-.044-.13-.13-.13h-.858a.379.379 0 01-.234-.078.38.38 0 01-.078-.234v-1.95c0-.087.026-.156.078-.208a.322.322 0 01.234-.104h.858c.086 0 .13-.043.13-.13V9.62c0-.087.026-.156.078-.208a.322.322 0 01.234-.104h2.912c.086 0 .156.035.208.104a.248.248 0 01.104.208v2.886c0 .087.043.13.13.13h1.456c.086 0 .156.035.208.104a.248.248 0 01.104.208v1.95zM121.235 26a.379.379 0 01-.234-.078.38.38 0 01-.078-.234V8.112c0-.087.026-.156.078-.208a.322.322 0 01.234-.104h3.042c.087 0 .156.035.208.104a.248.248 0 01.104.208v17.576a.325.325 0 01-.104.234.28.28 0 01-.208.078h-3.042zm14.872-5.85a.325.325 0 01-.104.234.282.282 0 01-.208.078h-5.72c-.087 0-.13.043-.13.13v.962c0 .433.112.797.338 1.092.242.277.546.416.91.416.329 0 .598-.104.806-.312.208-.225.346-.503.416-.832.052-.173.164-.26.338-.26l2.99.156c.086 0 .156.035.208.104.069.052.095.13.078.234-.122 1.335-.59 2.349-1.404 3.042-.798.676-1.942 1.014-3.432 1.014-1.543 0-2.748-.381-3.614-1.144-.867-.78-1.3-1.855-1.3-3.224v-5.044c0-1.317.433-2.375 1.3-3.172.884-.797 2.088-1.196 3.614-1.196 1.525 0 2.721.399 3.588 1.196.884.797 1.326 1.855 1.326 3.172v3.354zm-4.914-4.576c-.364 0-.668.139-.91.416-.226.277-.338.633-.338 1.066v1.014c0 .087.043.13.13.13h2.236c.086 0 .13-.043.13-.13v-1.014c0-.433-.122-.789-.364-1.066a1.086 1.086 0 00-.884-.416z" fill="#FFDF00"/></svg>