<?xml version="1.0" encoding="UTF-8"?>
<svg xmlns="http://www.w3.org/2000/svg" version="1.1" viewBox="0 0 16 16">
  <!-- Generator: Adobe Illustrator 28.7.1, SVG Export Plug-In . SVG Version: 1.2.0 Build 142)  -->
  <g>
    <g id="Calque_1">
      <path d="M11.2,16c-.4,0-.8-.2-1-.5l-2.2-3.3-2.2,3.3c-.4.6-1.1.7-1.7.3-.6-.4-.7-1.1-.3-1.7l3-4.6v-2l-4-1.3c-.6-.2-1-.9-.8-1.5.2-.6.9-1,1.5-.8l4.5,1.5,4.5-1.5c.6-.2,1.3.1,1.5.8.2.6-.1,1.3-.8,1.5l-4,1.3v2l3,4.6c.4.6.2,1.3-.3,1.7-.2.1-.4.2-.7.2Z"/>
      <g>
        <circle cx="8" cy="2" r=".8"/>
        <path d="M8,4.1c-1.1,0-2-.9-2-2S6.9,0,8,0s2,.9,2,2-.9,2-2,2ZM8,1.6c-.2,0-.4.2-.4.4,0,.4.8.4.8,0s-.2-.4-.4-.4Z"/>
      </g>
    </g>
  </g>
</svg>