<?xml version="1.0" encoding="UTF-8"?>
<svg xmlns="http://www.w3.org/2000/svg" version="1.1" viewBox="0 0 16 16">
  <!-- Generator: Adobe Illustrator 28.7.1, SVG Export Plug-In . SVG Version: 1.2.0 Build 142)  -->
  <g>
    <g id="Calque_1">
      <path d="M15.129.921c.447.125.66.348.811.857.082.279.079,1.15-.003,2.119-.007.062-.023.233-.033.378-.013.145-.03.315-.036.378s-.02.233-.033.378c-.02.276-.076.798-.099.936-.007.046-.02.171-.033.279-.02.174-.043.322-.095.562-.036.177-.207.545-.365.788-.355.549-.923.992-1.544,1.212-.092.03-.194.069-.23.085-.099.043-.595.151-.821.181-.108.013-.371.026-.582.026-.21.003-.375.013-.361.023.02.013.214.056.647.141.036.007.154.036.263.069.108.03.24.066.296.079.164.046.591.223.805.338.299.161.568.391.719.618.164.246.2.368.223.713.039.591-.306,1.35-1.018,2.237-.729.91-1.452,1.478-2.178,1.722-.289.095-.765.102-1.015.013-.591-.21-1.094-.752-1.554-1.679-.253-.509-.621-1.492-.811-2.181-.062-.22-.095-.25-.128-.112-.03.128-.089.329-.299,1.041-.486,1.623-1.002,2.477-1.695,2.793-.243.112-.358.131-.719.128-.355-.003-.664-.089-1.068-.299-.302-.158-.877-.529-.969-.631-.01-.01-.082-.069-.164-.135-.171-.138-.496-.47-.673-.687-.066-.082-.145-.177-.174-.214-.092-.108-.401-.588-.401-.621,0-.016-.02-.056-.046-.082-.026-.03-.092-.187-.151-.348-.355-1.015.043-1.833,1.166-2.388.427-.214.959-.388,1.429-.473.24-.046.177-.062-.223-.066-.834-.003-1.538-.174-2.168-.526-.792-.444-1.383-1.301-1.469-2.132-.013-.125-.026-.237-.033-.246-.007-.016-.016-.092-.066-.552-.01-.076-.023-.2-.033-.279-.007-.076-.023-.243-.036-.368-.01-.128-.023-.283-.03-.345s-.023-.25-.033-.411c-.013-.164-.026-.348-.033-.411C0,3.162-.02,2.255.023,1.999c.085-.503.263-.811.552-.959.667-.342,1.485-.131,2.684.687.43.296.532.375.815.611,1.048.887,2.244,2.25,3.177,3.63.299.44.716,1.13.716,1.183,0,.076.059.023.128-.118.089-.191.444-.759.69-1.114.21-.306.693-.969.742-1.022.016-.02.069-.085.115-.145s.099-.125.115-.145c.02-.02.128-.151.243-.296.407-.499,1.216-1.347,1.679-1.761.062-.056.145-.128.181-.161.716-.637,1.912-1.34,2.503-1.465.187-.043.621-.043.765-.003Z"/>
    </g>
  </g>
</svg>