<?xml version="1.0" encoding="utf-8"?>
<!-- Generator: Adobe Illustrator 25.1.0, SVG Export Plug-In . SVG Version: 6.00 Build 0)  -->
<svg version="1.1" id="Calque_1" xmlns="http://www.w3.org/2000/svg" xmlns:xlink="http://www.w3.org/1999/xlink" x="0px" y="0px"
	 viewBox="0 0 16 16" style="enable-background:new 0 0 16 16;" xml:space="preserve">
<g>
	<path d="M2.1,7.4h0.4c0.9,0,1.3-0.5,1.3-1.4c0-0.4,0-0.8-0.1-1.2L3.5,4.1c-0.1-0.5-0.2-1-0.2-1.4c0-0.4,0.1-0.9,0.4-1.3
		C4,1,4.3,0.6,4.7,0.4C5.1,0.2,5.7,0,6.4,0v1.3H6.2c-0.3,0-0.6,0.1-0.9,0.3C5,1.7,4.8,2,4.8,2.3c0,0.1,0,0.4,0.1,0.8L5.1,4
		c0.1,0.4,0.1,0.8,0.1,1.3c0,0.6-0.1,1.1-0.3,1.5C4.7,7.2,4.4,7.6,3.9,8c0.4,0.4,0.8,0.8,1,1.2c0.2,0.4,0.3,0.9,0.3,1.5
		c0,0.5,0,1-0.1,1.3l-0.1,0.9c-0.1,0.4-0.1,0.7-0.1,0.8c0,0.3,0.1,0.6,0.4,0.8c0.3,0.2,0.6,0.3,0.9,0.3h0.2V16
		c-0.7,0-1.3-0.2-1.7-0.4c-0.4-0.2-0.7-0.5-1-0.9c-0.2-0.4-0.4-0.8-0.4-1.3c0-0.5,0.1-0.9,0.2-1.4l0.2-0.7c0.1-0.4,0.1-0.8,0.1-1.2
		c0-0.9-0.4-1.4-1.3-1.4H2.1V7.4z"/>
</g>
<g>
	<path d="M13.9,8.6h-0.4c-0.9,0-1.3,0.5-1.3,1.4c0,0.4,0,0.8,0.1,1.2l0.2,0.7c0.1,0.5,0.2,1,0.2,1.4c0,0.4-0.1,0.9-0.4,1.3
		c-0.2,0.4-0.6,0.7-1,0.9c-0.4,0.2-1,0.4-1.7,0.4v-1.3h0.2c0.3,0,0.6-0.1,0.9-0.3c0.3-0.2,0.4-0.4,0.4-0.8c0-0.1,0-0.4-0.1-0.8
		L10.9,12c-0.1-0.4-0.1-0.8-0.1-1.3c0-0.6,0.1-1.1,0.3-1.5c0.2-0.4,0.5-0.8,1-1.2c-0.4-0.4-0.8-0.8-1-1.2c-0.2-0.4-0.3-0.9-0.3-1.5
		c0-0.5,0-1,0.1-1.3l0.1-0.9c0.1-0.4,0.1-0.7,0.1-0.8c0-0.3-0.1-0.6-0.4-0.8c-0.3-0.2-0.6-0.3-0.9-0.3H9.6V0c0.7,0,1.3,0.2,1.7,0.4
		c0.4,0.2,0.7,0.5,1,0.9c0.2,0.4,0.4,0.8,0.4,1.3c0,0.5-0.1,0.9-0.2,1.4l-0.2,0.7c-0.1,0.4-0.1,0.8-0.1,1.2c0,0.9,0.4,1.4,1.3,1.4
		h0.4V8.6z"/>
</g>
</svg>
