<?xml version="1.0" encoding="UTF-8"?>
<svg xmlns="http://www.w3.org/2000/svg" version="1.1" viewBox="0 0 16 16">
  <!-- Generator: Adobe Illustrator 28.7.1, SVG Export Plug-In . SVG Version: 1.2.0 Build 142)  -->
  <g>
    <g id="Calque_1">
      <path d="M13.743,15.59H2.256C1.012,15.59,0,14.578,0,13.333v-7.385C0,4.705,1.012,3.692,2.256,3.692h11.487c1.244,0,2.256,1.012,2.256,2.256v7.385c0,1.244-1.012,2.256-2.256,2.256ZM2.256,4.923c-.566,0-1.026.46-1.026,1.026v7.385c0,.566.46,1.026,1.026,1.026h11.487c.566,0,1.026-.46,1.026-1.026v-7.385c0-.566-.46-1.026-1.026-1.026H2.256Z"/>
      <path d="M11.282,4.923c-.34,0-.615-.276-.615-.615v-1.641c0-.566-.46-1.026-1.026-1.026h-3.282c-.566,0-1.026.46-1.026,1.026v1.641c0,.34-.276.615-.615.615s-.615-.276-.615-.615v-1.641c0-1.244,1.012-2.256,2.256-2.256h3.282c1.244,0,2.256,1.012,2.256,2.256v1.641c0,.34-.276.615-.615.615Z"/>
      <path d="M8,9.034c-.34,0-.615-.276-.615-.615s.276-.619.615-.619.615.271.615.611v.008c0,.34-.276.615-.615.615Z"/>
      <path d="M8,11.593c-2.631,0-5.263-.604-7.661-1.813-.304-.153-.425-.523-.273-.826.153-.304.526-.424.827-.273,4.451,2.242,9.765,2.242,14.215,0,.304-.152.674-.03.827.273s.03.673-.272.826c-2.399,1.209-5.03,1.813-7.662,1.813Z"/>
    </g>
  </g>
</svg>