<?xml version="1.0" encoding="UTF-8"?>
<svg xmlns="http://www.w3.org/2000/svg" version="1.1" viewBox="0 0 16 16">
  <!-- Generator: Adobe Illustrator 28.7.1, SVG Export Plug-In . SVG Version: 1.2.0 Build 142)  -->
  <g>
    <g>
      <path d="M14.244,5.073h-3.122c-.753,0-1.366-.613-1.366-1.366V.585c0-.323.262-.585.585-.585s.585.262.585.585v3.122c0,.107.088.195.195.195h3.122c.323,0,.585.262.585.585s-.262.585-.585.585Z"/>
      <path d="M12.683,15.22h-3.902c-.323,0-.585-.262-.585-.585s.262-.585.585-.585h3.902c.538,0,.976-.437.976-.976V4.73l-3.559-3.559h-5.221c-.538,0-.976.437-.976.976v2.341c0,.323-.262.585-.585.585s-.585-.262-.585-.585v-2.341c0-1.183.963-2.146,2.146-2.146h5.463c.155,0,.304.062.414.171l3.902,3.902c.11.11.171.259.171.414v8.586c0,1.184-.963,2.146-2.146,2.146Z"/>
      <path d="M4.098,12.098c-1.614,0-2.927-1.313-2.927-2.927s1.313-2.927,2.927-2.927,2.927,1.313,2.927,2.927-1.313,2.927-2.927,2.927ZM4.098,7.414c-.968,0-1.756.788-1.756,1.756s.788,1.756,1.756,1.756,1.756-.788,1.756-1.756-.788-1.756-1.756-1.756Z"/>
      <path d="M6.439,16c-.089,0-.179-.021-.262-.062l-2.08-1.04-2.08,1.04c-.209.103-.46.075-.639-.075-.179-.15-.251-.393-.184-.617l1.171-3.902c.093-.309.421-.485.729-.393.31.093.486.419.393.729l-.781,2.604,1.13-.565c.165-.082.359-.082.524,0l1.13.565-.781-2.604c-.093-.31.083-.636.393-.729.308-.093.636.083.729.393l1.171,3.902c.067.224-.005.466-.184.617-.108.091-.242.137-.377.137Z"/>
    </g>
  </g>
</svg>