<?xml version="1.0" encoding="utf-8"?>
<!-- Generator: Adobe Illustrator 25.1.0, SVG Export Plug-In . SVG Version: 6.00 Build 0)  -->
<svg version="1.1" id="Calque_1" xmlns="http://www.w3.org/2000/svg" xmlns:xlink="http://www.w3.org/1999/xlink" x="0px" y="0px"
	 viewBox="0 0 16 16" style="enable-background:new 0 0 16 16;" xml:space="preserve">
<path d="M8,16c-4.4,0-8-3.6-8-8s3.6-8,8-8s8,3.6,8,8S12.4,16,8,16z M8,0.8C4,0.8,0.8,4,0.8,8S4,15.2,8,15.2S15.2,12,15.2,8
	S12,0.8,8,0.8z M9.7,9.5l0.9,1l1.4-0.2l-0.7,1.2l0.6,1.2l-1.3-0.3l-1,0.9L9.4,12l-1.2-0.7l1.3-0.5L9.7,9.5z M4.6,7.6l0.9,1l1.4-0.2
	L6.2,9.6l0.6,1.2l-1.3-0.3l-1,0.9l-0.1-1.4L3.1,9.4l1.3-0.5L4.6,7.6z M10.3,4.5l0.9,1l1.4-0.2l-0.7,1.2l0.6,1.2l-1.3-0.3l-1,0.9
	L10,7.1L8.8,6.4L10,5.9L10.3,4.5z M5.3,2.6l0.9,1l1.4-0.2L6.8,4.6l0.6,1.2L6.1,5.5l-1,0.9L5,5.1L3.8,4.5L5,3.9L5.3,2.6z"/>
</svg>
