<?xml version="1.0" encoding="UTF-8"?>
<svg xmlns="http://www.w3.org/2000/svg" version="1.1" viewBox="0 0 16 16">
  <!-- Generator: Adobe Illustrator 28.7.1, SVG Export Plug-In . SVG Version: 1.2.0 Build 142)  -->
  <g>
    <g id="Calque_1">
      <g id="Calque_1-2" data-name="Calque_1">
        <g id="Calque_1-2">
          <path d="M13.615,14.359H2.289C.997,14.359.004,13.265.004,12.074V3.926C.004,2.734.997,1.641,2.289,1.641h11.426c1.192,0,2.285.994,2.285,2.285v8.147c0,1.192-.994,2.285-2.285,2.285h-.1ZM2.289,2.932c-.596,0-.994.497-.994.994v8.147c0,.596.497.994.994.994h11.426c.596,0,.994-.497.994-.994V3.926c0-.596-.497-.994-.994-.994H2.289Z"/>
          <path d="M7.952,9.39s-.199,0-.298-.099L.302,4.423c-.298-.199-.397-.596-.199-.894s.596-.397.894-.199l6.955,4.67,6.955-4.67c.298-.199.695,0,.894.199.199.298.099.695-.199.894l-7.352,4.868c-.099,0-.199.099-.298,0,0,0,0,.099,0,.099Z"/>
        </g>
        <g>
          <path d="M1.343,12.807c-.099,0-.298,0-.397-.199-.199-.199-.199-.596,0-.795l4.471-4.471c.199-.199.596-.199.795,0s.199.596,0,.795L1.74,12.607c-.099.099-.298.199-.397.199Z"/>
          <path d="M14.656,12.807c-.099,0-.298,0-.397-.199l-4.471-4.471c-.199-.199-.199-.596,0-.795s.596-.199.795,0l4.471,4.471c.199.199.199.596,0,.795s-.298.199-.397.199h0Z"/>
        </g>
      </g>
    </g>
  </g>
</svg>