<?xml version="1.0" encoding="UTF-8"?>
<svg xmlns="http://www.w3.org/2000/svg" version="1.1" viewBox="0 0 16 16">
  <!-- Generator: Adobe Illustrator 28.7.1, SVG Export Plug-In . SVG Version: 1.2.0 Build 142)  -->
  <g>
    <g id="Calque_1">
      <path d="M3.43,16h-1.829C.719,16,.001,15.282.001,14.4V1.6C.001.718.719,0,1.601,0h1.829c.882,0,1.6.718,1.6,1.6v12.8c0,.882-.718,1.6-1.6,1.6ZM1.601,1.371c-.126,0-.229.103-.229.229v12.8c0,.126.103.229.229.229h1.829c.126,0,.229-.103.229-.229V1.6c0-.126-.103-.229-.229-.229h-1.829Z"/>
      <path d="M7.087,16h-1.829c-.882,0-1.6-.718-1.6-1.6V1.6c0-.882.718-1.6,1.6-1.6h1.829c.882,0,1.6.718,1.6,1.6v12.8c0,.882-.718,1.6-1.6,1.6ZM5.258,1.371c-.126,0-.229.103-.229.229v12.8c0,.126.103.229.229.229h1.829c.126,0,.229-.103.229-.229V1.6c0-.126-.103-.229-.229-.229h-1.829Z"/>
      <path d="M4.344,5.028H.687C.308,5.028.001,4.721.001,4.343s.307-.686.686-.686h3.657c.379,0,.686.307.686.686s-.307.686-.686.686Z"/>
      <path d="M8.001,12.343h-3.657c-.379,0-.686-.307-.686-.686s.307-.686.686-.686h3.657c.379,0,.686.307.686.686s-.307.686-.686.686Z"/>
      <path d="M12.356,15.999c-.732,0-1.408-.482-1.605-1.201L7.373,2.532c-.217-.819.215-1.65,1.004-1.941l.155-.049c.013-.004.028-.008.041-.011l1.997-.484c.872-.209,1.762.309,1.995,1.154l3.378,12.267c.217.819-.215,1.65-1.004,1.94l-.155.049-2.038.496c-.129.031-.261.046-.389.046ZM8.917,1.859l-.101.031c-.087.033-.153.159-.12.283l3.377,12.261c.037.136.194.225.351.185l2.076-.511c.087-.032.152-.159.12-.283L11.243,1.565c-.038-.137-.198-.223-.35-.185l-1.976.479Z"/>
      <path d="M8.914,5.943c-.307,0-.587-.208-.664-.519-.092-.367.131-.74.499-.832l3.657-.914c.363-.089.739.132.831.499.092.367-.131.74-.499.832l-3.657.914c-.055.014-.112.021-.167.021Z"/>
      <path d="M10.743,12.343c-.307,0-.587-.208-.664-.52-.092-.367.131-.739.499-.831l3.587-.896c.362-.093.74.132.831.499.092.367-.131.739-.499.831l-3.587.896c-.055.014-.112.021-.167.021Z"/>
    </g>
  </g>
</svg>