<?xml version="1.0" encoding="UTF-8"?>
<svg xmlns="http://www.w3.org/2000/svg" version="1.1" viewBox="0 0 16 16">
  <!-- Generator: Adobe Illustrator 28.7.1, SVG Export Plug-In . SVG Version: 1.2.0 Build 142)  -->
  <g>
    <g id="Calque_1">
      <path d="M2,16s0,0,0,0c-.4,0-.6-.4-.6-.7.5-4.5,2.6-7.5,6.4-9.2.3-.1.7,0,.9.3.1.3,0,.7-.3.9-3.4,1.5-5.2,4.1-5.7,8.1,0,.3-.3.6-.6.6Z"/>
      <path d="M5.4,13.4h-2.6c-.2,0-.3,0-.5-.2-1.9-1.9-1.9-3.9-1.9-4.8C.4,4.6,2.4,0,11.5,0h3.5c.4,0,.6.3.6.6v1.7c-.4,7.3-3.8,11-10.2,11ZM3.1,12.1h2.3c5.6,0,8.5-3.2,8.9-9.8v-1h-2.8C5,1.3,1.7,3.7,1.7,8.4c0,.8,0,2.2,1.4,3.7Z"/>
    </g>
  </g>
</svg>