<?xml version="1.0" encoding="UTF-8"?>
<svg xmlns="http://www.w3.org/2000/svg" version="1.1" viewBox="0 0 16 15.999">
  <!-- Generator: Adobe Illustrator 28.7.1, SVG Export Plug-In . SVG Version: 1.2.0 Build 142)  -->
  <g>
    <g id="Calque_1">
      <path d="M5.714,5.142h3.162v1.621h.046c.44-.79,1.517-1.621,3.122-1.621,3.338,0,3.955,2.078,3.955,4.781v5.505h-3.297v-4.88c0-1.163-.024-2.662-1.714-2.662-1.717,0-1.979,1.267-1.979,2.577v4.965h-3.295s0-10.286,0-10.286Z"/>
      <path d="M0,5.142h3.429v10.286H0V5.142Z"/>
      <path d="M3.429,2.285c0,.946-.768,1.714-1.714,1.714s-1.714-.768-1.714-1.714S.768.571,1.714.571s1.714.768,1.714,1.714Z"/>
    </g>
  </g>
</svg>