<?xml version="1.0" encoding="utf-8"?>
<!-- Generator: Adobe Illustrator 25.1.0, SVG Export Plug-In . SVG Version: 6.00 Build 0)  -->
<svg version="1.1" id="Calque_1" xmlns="http://www.w3.org/2000/svg" xmlns:xlink="http://www.w3.org/1999/xlink" x="0px" y="0px"
	 viewBox="0 0 16 16" style="enable-background:new 0 0 16 16;" xml:space="preserve">
<path d="M8,0C3.6,0,0,3.6,0,8s3.6,8,8,8s8-3.6,8-8S12.4,0,8,0z M8,1.3c3.5,0,6.3,2.6,6.6,6h-4.1c-0.3-1.1-1.3-2-2.6-2
	s-2.3,0.9-2.6,2H1.4C1.7,4,4.5,1.3,8,1.3z M8,6.7c0.7,0,1.3,0.6,1.3,1.3c0,0.7-0.6,1.3-1.3,1.3C7.3,9.3,6.7,8.7,6.7,8
	C6.7,7.3,7.3,6.7,8,6.7z M8,7.3C7.6,7.3,7.3,7.6,7.3,8c0,0.4,0.3,0.7,0.7,0.7c0.4,0,0.7-0.3,0.7-0.7C8.7,7.6,8.4,7.3,8,7.3z
	 M1.4,8.7h4.1c0.3,1.1,1.3,2,2.6,2s2.3-0.9,2.6-2h4.1c-0.3,3.4-3.2,6-6.6,6S1.7,12,1.4,8.7z"/>
</svg>
