<?xml version="1.0" encoding="UTF-8"?>
<svg xmlns="http://www.w3.org/2000/svg" version="1.1" viewBox="0 0 16 16">
  <!-- Generator: Adobe Illustrator 28.7.1, SVG Export Plug-In . SVG Version: 1.2.0 Build 142)  -->
  <g>
    <g id="Calque_1">
      <path d="M7.086,15.979c-.105,0-.21-.024-.306-.072-.206-.103-.345-.303-.373-.531-.361-3.044-2.74-5.422-5.783-5.784-.228-.027-.428-.167-.531-.373s-.096-.449.019-.648c.993-1.721,2.714-2.835,4.667-3.045C6.077,2.357,9.068.215,12.518.026h.002c1.922,0,3.454,1.533,3.454,3.418-.189,3.486-2.332,6.479-5.503,7.777-.208,1.953-1.323,3.674-3.044,4.667-.105.061-.223.092-.341.092ZM1.884,8.443c2.778.729,4.943,2.894,5.673,5.673.961-.861,1.537-2.075,1.58-3.401.01-.282.191-.529.457-.622,2.88-1.014,4.847-3.638,5.014-6.686,0-1.094-.921-2.014-2.052-2.014-3.011.165-5.635,2.133-6.648,5.013-.093.266-.341.447-.622.456-1.326.044-2.541.62-3.401,1.581Z"/>
      <path d="M1.423,16.025c-.267,0-.536-.017-.807-.052-.308-.04-.55-.282-.59-.59-.326-2.5.882-4.915,3.077-6.153.329-.185.745-.07.932.26.186.329.069.745-.26.931-1.545.872-2.462,2.494-2.433,4.236,1.757.059,3.364-.888,4.237-2.433.186-.329.604-.442.931-.259.329.186.445.603.26.932-1.105,1.957-3.146,3.128-5.347,3.128Z"/>
      <path d="M10.733,6.863c-.88,0-1.595-.716-1.595-1.595s.716-1.595,1.595-1.595,1.595.716,1.595,1.595-.716,1.595-1.595,1.595ZM10.733,5.039c-.126,0-.228.102-.228.228,0,.251.456.251.456,0,0-.126-.102-.228-.228-.228Z"/>
    </g>
  </g>
</svg>