<?xml version="1.0" encoding="utf-8"?>
<!-- Generator: Adobe Illustrator 25.1.0, SVG Export Plug-In . SVG Version: 6.00 Build 0)  -->
<svg version="1.1" id="Calque_1" xmlns="http://www.w3.org/2000/svg" xmlns:xlink="http://www.w3.org/1999/xlink" x="0px" y="0px"
	 viewBox="0 0 16 16" style="enable-background:new 0 0 16 16;" xml:space="preserve">
<path d="M12.5,11.6l1.8,3.6L12.7,16l-1.8-3.6l-2.2,1.9V6l6.7,5.1C15.3,11.1,12.5,11.6,12.5,11.6z M14,6.7h1.3V4H14V6.7z M14,8.4
	l1.3,1V8H14V8.4z M7.3,14.3v-0.9H4.7v1.3h2.7V14.3z M2,12H0.7v2.7h2.7v-1.3H2V12z M0.7,2.7H2V1.3h1.3V0H0.7V2.7z M2,8H0.7v2.7H2V8z
	 M7.3,0H4.7v1.3h2.7V0z M11.3,0H8.7v1.3h2.7V0z M14,2.7h1.3V0h-2.7v1.3H14V2.7z M2,4H0.7v2.7H2V4z"/>
</svg>
