<?xml version="1.0" encoding="utf-8"?>
<!-- Generator: Adobe Illustrator 25.1.0, SVG Export Plug-In . SVG Version: 6.00 Build 0)  -->
<svg version="1.1" id="Calque_1" xmlns="http://www.w3.org/2000/svg" xmlns:xlink="http://www.w3.org/1999/xlink" x="0px" y="0px"
	 viewBox="0 0 16 16" style="enable-background:new 0 0 16 16;" xml:space="preserve">
<path d="M12.7,1.3c0-0.7-0.6-1.3-1.3-1.3H4.7C3.9,0,3.3,0.6,3.3,1.3v13.3c0,0.7,0.6,1.3,1.3,1.3h6.7c0.7,0,1.3-0.6,1.3-1.3V1.3z
	 M7,1.3h2c0.2,0,0.3,0.1,0.3,0.3S9.2,2,9,2H7C6.8,2,6.7,1.9,6.7,1.7S6.8,1.3,7,1.3z M8,14.7c-0.4,0-0.7-0.3-0.7-0.7s0.3-0.7,0.7-0.7
	c0.4,0,0.7,0.3,0.7,0.7S8.4,14.7,8,14.7z M11.3,12.7H4.7V3.3h6.7V12.7z"/>
</svg>
