<?xml version="1.0" encoding="UTF-8"?>
<svg xmlns="http://www.w3.org/2000/svg" version="1.1" viewBox="0 0 16 16">
  <!-- Generator: Adobe Illustrator 28.7.1, SVG Export Plug-In . SVG Version: 1.2.0 Build 142)  -->
  <g>
    <g id="Calque_1">
      <path d="M13.699,15.562c-.302,0-.548-.246-.548-.548,0-.664-.541-1.205-1.205-1.205-.302,0-.548-.246-.548-.548s.246-.548.548-.548c.664,0,1.205-.541,1.205-1.205,0-.302.246-.548.548-.548s.548.246.548.548c0,.664.541,1.205,1.205,1.205.302,0,.548.246.548.548s-.246.548-.548.548c-.664,0-1.205.541-1.205,1.205,0,.302-.246.548-.548.548ZM13.434,13.26c.095.08.184.17.265.265.08-.095.17-.184.265-.265-.095-.08-.184-.17-.265-.265-.08.095-.17.184-.265.265ZM5.808,13.808c-.303,0-.548-.246-.548-.548,0-2.598-2.114-4.712-4.712-4.712-.303,0-.548-.245-.548-.548s.245-.548.548-.548c2.598,0,4.712-2.114,4.712-4.712,0-.303.245-.548.548-.548s.548.245.548.548c0,2.598,2.114,4.712,4.712,4.712.302,0,.548.245.548.548s-.246.548-.548.548c-2.598,0-4.712,2.114-4.712,4.712,0,.302-.245.548-.548.548ZM3.01,8c1.227.577,2.222,1.571,2.798,2.798.577-1.227,1.571-2.221,2.798-2.798-1.227-.577-2.222-1.571-2.798-2.798-.577,1.227-1.571,2.222-2.798,2.798ZM13.699,5.041c-.302,0-.548-.245-.548-.548,0-.665-.541-1.205-1.205-1.205-.302,0-.548-.245-.548-.548s.246-.548.548-.548c.664,0,1.205-.541,1.205-1.205,0-.303.246-.548.548-.548s.548.245.548.548c0,.665.541,1.205,1.205,1.205.302,0,.548.245.548.548s-.246.548-.548.548c-.664,0-1.205.541-1.205,1.205,0,.303-.246.548-.548.548ZM13.434,2.74c.095.081.184.17.265.265.08-.095.17-.184.265-.265-.095-.081-.184-.17-.265-.265-.08.095-.17.184-.265.265Z"/>
    </g>
  </g>
</svg>