<?xml version="1.0" encoding="UTF-8"?>
<svg xmlns="http://www.w3.org/2000/svg" version="1.1" viewBox="0 0 16 16">
  <!-- Generator: Adobe Illustrator 28.7.1, SVG Export Plug-In . SVG Version: 1.2.0 Build 142)  -->
  <g>
    <g id="Calque_1">
      <path d="M7.024,16c-.15,0-.3-.057-.414-.171l-3.122-3.122c-.142-.143-.202-.348-.157-.543l1.912-8.415-.713-1.903c-.058-.153-.087-.314-.087-.479C4.444.614,5.056,0,5.809,0h2.431c.165,0,.326.029.48.088.703.263,1.062,1.052.799,1.757l-.713,1.904,1.912,8.415c.044.196-.014.401-.157.543l-3.122,3.122c-.114.114-.264.171-.414.171ZM4.545,12.108l2.479,2.479,2.479-2.479-1.88-8.271c-.025-.111-.018-.228.023-.335l.775-2.067c.037-.101-.014-.213-.114-.251l-2.499-.013c-.107,0-.195.088-.195.195l.787,2.136c.04.107.048.224.023.335l-1.88,8.271Z"/>
      <path d="M12.097,8.585c-.159,0-.318-.064-.433-.192l-3.729-4.101h-2.082c-.323,0-.585-.262-.585-.585s.262-.585.585-.585h2.341c.165,0,.322.07.433.192l3.902,4.293c.218.239.2.609-.039.827-.113.102-.253.152-.394.152Z"/>
    </g>
  </g>
</svg>