<?xml version="1.0" encoding="UTF-8"?>
<svg xmlns="http://www.w3.org/2000/svg" version="1.1" viewBox="0 0 16 16">
  <!-- Generator: Adobe Illustrator 28.7.1, SVG Export Plug-In . SVG Version: 1.2.0 Build 142)  -->
  <g>
    <g>
      <path d="M15.314,16h-3.901c-.219,0-.424-.104-.553-.28L.133,1.091C-.02.883-.043.606.074.376.191.145.427,0,.686,0h3.901C4.805,0,5.011.104,5.14.28l10.727,14.629c.153.208.176.485.059.715s-.354.376-.612.376ZM11.761,14.629h2.2L4.24,1.371h-2.201l9.722,13.258Z"/>
      <path d="M.686,16c-.175,0-.351-.067-.485-.201-.268-.268-.268-.702,0-.97l6.188-6.188c.268-.268.702-.268.97,0s.268.702,0,.97L1.171,15.799c-.134.134-.309.201-.485.201ZM9.122,7.563c-.176,0-.351-.067-.485-.201-.268-.268-.268-.702,0-.97L14.829.201c.268-.268.702-.268.97,0s.268.702,0,.97l-6.192,6.191c-.134.134-.309.201-.485.201Z"/>
    </g>
  </g>
</svg>