<?xml version="1.0" encoding="UTF-8"?>
<svg xmlns="http://www.w3.org/2000/svg" version="1.1" viewBox="0 0 16 16">
  <g>
    <g> 
      <path d="M8,7.795c-2.149,0-3.897-1.748-3.897-3.897s1.748-3.897,3.897-3.897,3.897,1.748,3.897,3.897-1.748,3.897-3.897,3.897ZM8,1.231c-1.47,0-2.667,1.196-2.667,2.667s1.196,2.667,2.667,2.667,2.667-1.196,2.667-2.667-1.196-2.667-2.667-2.667Z"/>
      <path d="M12.923,16c-.34,0-.615-.276-.615-.615v-1.641c0-1.47-1.196-2.667-2.667-2.667h-3.282c-1.47,0-2.667,1.196-2.667,2.667v1.641c0,.34-.276.615-.615.615s-.615-.276-.615-.615v-1.641c0-2.149,1.748-3.897,3.897-3.897h3.282c2.149,0,3.897,1.748,3.897,3.897v1.641c0,.34-.276.615-.615.615Z"/>
    </g>
  </g>
</svg>