<?xml version="1.0" encoding="UTF-8"?>
<svg xmlns="http://www.w3.org/2000/svg" version="1.1" viewBox="0 0 16 16">
  <!-- Generator: Adobe Illustrator 28.7.1, SVG Export Plug-In . SVG Version: 1.2.0 Build 142)  -->
  <g>
    <g id="Calque_1">
      <path d="M13.744,14.359H2.256c-1.244,0-2.256-1.012-2.256-2.256V3.897C0,2.653,1.012,1.641,2.256,1.641h11.487c1.244,0,2.256,1.012,2.256,2.256v8.205c0,1.244-1.012,2.256-2.256,2.256ZM2.256,2.872c-.566,0-1.026.46-1.026,1.026v8.205c0,.566.46,1.026,1.026,1.026h11.487c.566,0,1.026-.46,1.026-1.026V3.897c0-.566-.46-1.026-1.026-1.026H2.256Z"/>
      <path d="M3.085,5.333c-.34,0-.619-.276-.619-.615s.272-.615.611-.615h.008c.34,0,.615.276.615.615s-.276.615-.615.615Z"/>
      <path d="M5.546,5.333c-.34,0-.619-.276-.619-.615s.272-.615.611-.615h.008c.34,0,.615.276.615.615s-.276.615-.615.615Z"/>
    </g>
  </g>
</svg>