<?xml version="1.0" encoding="utf-8"?>
<!-- Generator: Adobe Illustrator 25.1.0, SVG Export Plug-In . SVG Version: 6.00 Build 0)  -->
<svg version="1.1" id="Calque_1" xmlns="http://www.w3.org/2000/svg" xmlns:xlink="http://www.w3.org/1999/xlink" x="0px" y="0px"
	 viewBox="0 0 16 16" style="enable-background:new 0 0 16 16;" xml:space="preserve">
<g id="Layer_2">
	<g id="Blue">
		<path d="M4.7,7.4C4.6,7.2,4.3,7.2,4.1,7.3C4,7.3,4,7.4,4,7.5L0,15.3c-0.1,0.2,0,0.5,0.2,0.6c0.1,0,0.1,0,0.2,0h5.5
			c0.2,0,0.3-0.1,0.4-0.3C7.5,13.3,6.8,9.6,4.7,7.4z"/>
		<path d="M7.6,0.3C5.6,3.3,5.4,7.2,7,10.5l2.6,5.3c0.1,0.2,0.2,0.3,0.4,0.3h5.5c0.3,0,0.5-0.2,0.5-0.5c0-0.1,0-0.1,0-0.2
			c0,0-7.3-14.7-7.5-15.1C8.3,0,8-0.1,7.8,0.1C7.7,0.1,7.7,0.2,7.6,0.3z"/>
	</g>
</g>
</svg>
