<?xml version="1.0" encoding="utf-8"?>
<!-- Generator: Adobe Illustrator 25.1.0, SVG Export Plug-In . SVG Version: 6.00 Build 0)  -->
<svg version="1.1" id="Layer_1" xmlns="http://www.w3.org/2000/svg" xmlns:xlink="http://www.w3.org/1999/xlink" x="0px" y="0px"
	 viewBox="0 0 16 16" style="enable-background:new 0 0 16 16;" xml:space="preserve">
<circle cx="6.4" cy="4.4" r="0.6"/>
<circle cx="9.6" cy="4.4" r="0.6"/>
<path d="M13.9,10.8C13.5,9.9,13,7.2,13,6c0-1-0.6-1.6-1.1-1.9c0-1-0.2-1.8-0.5-2.4C11,0.9,10.2,0.4,9.2,0.1C8.7,0,8.2,0,8,0
	C7.8,0,7.3,0,6.8,0.1C5.8,0.4,5,0.9,4.6,1.8C4.2,2.4,4.1,3.2,4.1,4.1C3.6,4.4,3,5,3,6c0,1.2-0.5,3.9-0.9,4.8c-0.6,1.3,0.7,2.2,0.7,3
	c0,1.3,0.7,2.2,1.7,2.2c1.2,0,2-0.6,2.2-1.7c0.8,0.3,1.8,0.3,2.6,0c0.2,1.1,1,1.7,2.2,1.7c1,0,1.7-0.9,1.7-2.2
	C13.2,13,14.6,12.1,13.9,10.8L13.9,10.8z M5.4,2.3C6.3,0.8,7.9,1,8.1,1c0.1,0,1.7-0.2,2.5,1.3c0.8,1.4,0.1,4.1-0.2,5.3
	c-0.2,0.7-0.2,0.9-0.1,2.2c0.2,1.7,0,1.4-0.1,2.8c0,0.2,0,0.4-0.1,0.5c-0.8-0.3-1.5-2.3-1.6-3C9,9.7,9.2,8.9,9.2,8.6
	c0-1.2-2.5-1.2-2.5,0c0,0.3,0.2,1.1,0.7,1.5c-0.1,0.8-0.8,2.7-1.6,3c0-0.1-0.1-0.4-0.1-0.5c-0.1-1.3-0.3-1.1-0.1-2.8
	c0.1-1.2,0.1-1.5-0.1-2.2C5.3,6.4,4.6,3.7,5.4,2.3L5.4,2.3z M8,9.2C7.9,9.1,7.8,8.9,7.8,8.8c0.1,0,0.3,0,0.4,0
	C8.2,8.9,8.1,9.1,8,9.2z M4.5,15c-0.5,0-0.8-0.6-0.8-1.3c0-1.1-1.1-1.9-0.8-2.5C3.5,10.1,4,7.4,4,6c0-0.3,0.1-0.5,0.2-0.6
	c0.1,1,0.4,1.9,0.5,2.5c0.1,0.5,0.2,0.6,0.1,1.9c-0.2,1.9,0,1.7,0.1,3C4.9,13.3,5,14,5.7,14.1C5.5,14.9,5,15,4.5,15z M7.2,13.4
	C7.5,13,7.8,12.4,8,11.9c0.2,0.5,0.5,1,0.8,1.4C8.3,13.5,7.7,13.5,7.2,13.4z M12.2,13.8c0,0.6-0.3,1.3-0.8,1.3c-0.5,0-1-0.1-1.2-0.9
	c0.1,0,0.2,0,0.3-0.1c0.6-0.3,0.5-1.2,0.7-2.2c0.3-1.3-0.2-2.9,0-3.7c0.1-0.5,0.4-1.6,0.6-2.8C11.9,5.5,12,5.8,12,6
	c0,1.4,0.5,4.1,1.1,5.2C13.4,11.9,12.2,12.6,12.2,13.8L12.2,13.8z"/>
<g>
	<path d="M5.5,3c0,0,1.1-0.7,1.2-0.2C7.1,3.8,4.9,3.6,5.5,3z"/>
	<path d="M10.5,3c0,0-1.1-0.7-1.2-0.2C8.9,3.8,11.1,3.6,10.5,3z"/>
</g>
</svg>
