<?xml version="1.0" encoding="utf-8"?>
<!-- Generator: Adobe Illustrator 25.1.0, SVG Export Plug-In . SVG Version: 6.00 Build 0)  -->
<svg version="1.1" id="Bold" xmlns="http://www.w3.org/2000/svg" xmlns:xlink="http://www.w3.org/1999/xlink" x="0px" y="0px"
	 viewBox="0 0 16 16" style="enable-background:new 0 0 16 16;" xml:space="preserve">
<path d="M0.3,11l7.3,4.9c0.2,0.2,0.5,0.2,0.8,0l7.3-4.9c0.2-0.1,0.3-0.3,0.3-0.6V5.6c0-0.2-0.1-0.4-0.3-0.6L8.4,0.1
	C8.1,0,7.9,0,7.6,0.1L0.3,5C0.1,5.1,0,5.3,0,5.6v4.9C0,10.7,0.1,10.9,0.3,11L0.3,11z M7.3,14l-5.4-3.6l2.4-1.6l3,2V14z M8.7,14v-3.2
	l3-2l2.4,1.6L8.7,14z M14.6,9.1L12.9,8l1.7-1.2V9.1z M8.7,2l5.4,3.6l-2.4,1.6l-3-2V2z M8,6.4L10.4,8L8,9.6L5.6,8L8,6.4z M7.3,2v3.2
	l-3,2L1.9,5.6L7.3,2z M1.4,6.8L1.4,6.8L3.1,8L1.4,9.1V6.8z"/>
</svg>
