<?xml version="1.0" encoding="utf-8"?>
<!-- Generator: Adobe Illustrator 26.3.1, SVG Export Plug-In . SVG Version: 6.00 Build 0)  -->
<svg version="1.1" id="Calque_1" xmlns="http://www.w3.org/2000/svg" xmlns:xlink="http://www.w3.org/1999/xlink" x="0px" y="0px"
	 viewBox="0 0 16 16" style="enable-background:new 0 0 16 16;" xml:space="preserve">
<path d="M15.5,5.3c0-3.5-2.3-4.5-2.3-4.5C12,0.2,10.1,0,8,0H8c-2,0-4,0.2-5.2,0.8c0,0-2.3,1-2.3,4.5c0,0.8,0,1.7,0,2.8
	c0.1,3.4,0.6,6.7,3.8,7.6C5.8,16,7,16,8,16c1.8-0.1,2.8-0.6,2.8-0.6L10.8,14c0,0-1.3,0.4-2.8,0.4c-1.4,0-3-0.2-3.2-1.9
	c0-0.2,0-0.3,0-0.5c0,0,1.4,0.3,3.2,0.4c1.1,0.1,2.1-0.1,3.2-0.2c2-0.2,3.8-1.5,4-2.6C15.5,7.8,15.5,5.3,15.5,5.3z M12.8,9.7h-1.7
	V5.6c0-0.9-0.4-1.3-1.1-1.3c-0.8,0-1.2,0.5-1.2,1.5v2.2H7.2V5.9c0-1-0.4-1.5-1.2-1.5c-0.7,0-1.1,0.4-1.1,1.3v4.1H3.2V5.5
	c0-0.9,0.2-1.5,0.7-2c0.5-0.5,1-0.8,1.8-0.8c0.9,0,1.5,0.3,1.9,1L8,4.4l0.4-0.7c0.4-0.7,1.1-1,1.9-1c0.7,0,1.3,0.3,1.8,0.8
	c0.4,0.5,0.7,1.2,0.7,2V9.7z"/>
</svg>
