<?xml version="1.0" encoding="utf-8"?>
<!-- Generator: Adobe Illustrator 25.1.0, SVG Export Plug-In . SVG Version: 6.00 Build 0)  -->
<svg version="1.1" id="Calque_1" xmlns="http://www.w3.org/2000/svg" xmlns:xlink="http://www.w3.org/1999/xlink" x="0px" y="0px"
	 viewBox="0 0 16 16" style="enable-background:new 0 0 16 16;" xml:space="preserve">
<path d="M14.5,7.1L16,8l-8,4.7L0,8l1.5-0.9L8,10.9C8,10.9,14.5,7.1,14.5,7.1z M8,14.2l-6.5-3.8L0,11.3L8,16l8-4.7l-1.5-0.9L8,14.2z
	 M8,1.5l5.4,3.1L8,7.8L2.6,4.7C2.6,4.7,8,1.5,8,1.5z M8,0L0,4.7l8,4.7l8-4.7C16,4.7,8,0,8,0z"/>
</svg>
