<svg xmlns="http://www.w3.org/2000/svg"><symbol viewBox="0 0 16 16" id="icon-atlassian"> <g id="atlassian-Layer_2"> <g id="atlassian-Blue"> <path d="M4.7,7.4C4.6,7.2,4.3,7.2,4.1,7.3C4,7.3,4,7.4,4,7.5L0,15.3c-0.1,0.2,0,0.5,0.2,0.6c0.1,0,0.1,0,0.2,0h5.5
			c0.2,0,0.3-0.1,0.4-0.3C7.5,13.3,6.8,9.6,4.7,7.4z"/> <path d="M7.6,0.3C5.6,3.3,5.4,7.2,7,10.5l2.6,5.3c0.1,0.2,0.2,0.3,0.4,0.3h5.5c0.3,0,0.5-0.2,0.5-0.5c0-0.1,0-0.1,0-0.2
			c0,0-7.3-14.7-7.5-15.1C8.3,0,8-0.1,7.8,0.1C7.7,0.1,7.7,0.2,7.6,0.3z"/> </g> </g> </symbol><symbol viewBox="0 0 16 16" id="icon-bacsset"> <circle cx="6.4" cy="4.4" r="0.6"/> <circle cx="9.6" cy="4.4" r="0.6"/> <path d="M13.9,10.8C13.5,9.9,13,7.2,13,6c0-1-0.6-1.6-1.1-1.9c0-1-0.2-1.8-0.5-2.4C11,0.9,10.2,0.4,9.2,0.1C8.7,0,8.2,0,8,0
	C7.8,0,7.3,0,6.8,0.1C5.8,0.4,5,0.9,4.6,1.8C4.2,2.4,4.1,3.2,4.1,4.1C3.6,4.4,3,5,3,6c0,1.2-0.5,3.9-0.9,4.8c-0.6,1.3,0.7,2.2,0.7,3
	c0,1.3,0.7,2.2,1.7,2.2c1.2,0,2-0.6,2.2-1.7c0.8,0.3,1.8,0.3,2.6,0c0.2,1.1,1,1.7,2.2,1.7c1,0,1.7-0.9,1.7-2.2
	C13.2,13,14.6,12.1,13.9,10.8L13.9,10.8z M5.4,2.3C6.3,0.8,7.9,1,8.1,1c0.1,0,1.7-0.2,2.5,1.3c0.8,1.4,0.1,4.1-0.2,5.3
	c-0.2,0.7-0.2,0.9-0.1,2.2c0.2,1.7,0,1.4-0.1,2.8c0,0.2,0,0.4-0.1,0.5c-0.8-0.3-1.5-2.3-1.6-3C9,9.7,9.2,8.9,9.2,8.6
	c0-1.2-2.5-1.2-2.5,0c0,0.3,0.2,1.1,0.7,1.5c-0.1,0.8-0.8,2.7-1.6,3c0-0.1-0.1-0.4-0.1-0.5c-0.1-1.3-0.3-1.1-0.1-2.8
	c0.1-1.2,0.1-1.5-0.1-2.2C5.3,6.4,4.6,3.7,5.4,2.3L5.4,2.3z M8,9.2C7.9,9.1,7.8,8.9,7.8,8.8c0.1,0,0.3,0,0.4,0
	C8.2,8.9,8.1,9.1,8,9.2z M4.5,15c-0.5,0-0.8-0.6-0.8-1.3c0-1.1-1.1-1.9-0.8-2.5C3.5,10.1,4,7.4,4,6c0-0.3,0.1-0.5,0.2-0.6
	c0.1,1,0.4,1.9,0.5,2.5c0.1,0.5,0.2,0.6,0.1,1.9c-0.2,1.9,0,1.7,0.1,3C4.9,13.3,5,14,5.7,14.1C5.5,14.9,5,15,4.5,15z M7.2,13.4
	C7.5,13,7.8,12.4,8,11.9c0.2,0.5,0.5,1,0.8,1.4C8.3,13.5,7.7,13.5,7.2,13.4z M12.2,13.8c0,0.6-0.3,1.3-0.8,1.3c-0.5,0-1-0.1-1.2-0.9
	c0.1,0,0.2,0,0.3-0.1c0.6-0.3,0.5-1.2,0.7-2.2c0.3-1.3-0.2-2.9,0-3.7c0.1-0.5,0.4-1.6,0.6-2.8C11.9,5.5,12,5.8,12,6
	c0,1.4,0.5,4.1,1.1,5.2C13.4,11.9,12.2,12.6,12.2,13.8L12.2,13.8z"/> <g> <path d="M5.5,3c0,0,1.1-0.7,1.2-0.2C7.1,3.8,4.9,3.6,5.5,3z"/> <path d="M10.5,3c0,0-1.1-0.7-1.2-0.2C8.9,3.8,11.1,3.6,10.5,3z"/> </g> </symbol><symbol viewBox="0 0 16 16" id="icon-brackets"> <g> <path d="M2.1,7.4h0.4c0.9,0,1.3-0.5,1.3-1.4c0-0.4,0-0.8-0.1-1.2L3.5,4.1c-0.1-0.5-0.2-1-0.2-1.4c0-0.4,0.1-0.9,0.4-1.3
		C4,1,4.3,0.6,4.7,0.4C5.1,0.2,5.7,0,6.4,0v1.3H6.2c-0.3,0-0.6,0.1-0.9,0.3C5,1.7,4.8,2,4.8,2.3c0,0.1,0,0.4,0.1,0.8L5.1,4
		c0.1,0.4,0.1,0.8,0.1,1.3c0,0.6-0.1,1.1-0.3,1.5C4.7,7.2,4.4,7.6,3.9,8c0.4,0.4,0.8,0.8,1,1.2c0.2,0.4,0.3,0.9,0.3,1.5
		c0,0.5,0,1-0.1,1.3l-0.1,0.9c-0.1,0.4-0.1,0.7-0.1,0.8c0,0.3,0.1,0.6,0.4,0.8c0.3,0.2,0.6,0.3,0.9,0.3h0.2V16
		c-0.7,0-1.3-0.2-1.7-0.4c-0.4-0.2-0.7-0.5-1-0.9c-0.2-0.4-0.4-0.8-0.4-1.3c0-0.5,0.1-0.9,0.2-1.4l0.2-0.7c0.1-0.4,0.1-0.8,0.1-1.2
		c0-0.9-0.4-1.4-1.3-1.4H2.1V7.4z"/> </g> <g> <path d="M13.9,8.6h-0.4c-0.9,0-1.3,0.5-1.3,1.4c0,0.4,0,0.8,0.1,1.2l0.2,0.7c0.1,0.5,0.2,1,0.2,1.4c0,0.4-0.1,0.9-0.4,1.3
		c-0.2,0.4-0.6,0.7-1,0.9c-0.4,0.2-1,0.4-1.7,0.4v-1.3h0.2c0.3,0,0.6-0.1,0.9-0.3c0.3-0.2,0.4-0.4,0.4-0.8c0-0.1,0-0.4-0.1-0.8
		L10.9,12c-0.1-0.4-0.1-0.8-0.1-1.3c0-0.6,0.1-1.1,0.3-1.5c0.2-0.4,0.5-0.8,1-1.2c-0.4-0.4-0.8-0.8-1-1.2c-0.2-0.4-0.3-0.9-0.3-1.5
		c0-0.5,0-1,0.1-1.3l0.1-0.9c0.1-0.4,0.1-0.7,0.1-0.8c0-0.3-0.1-0.6-0.4-0.8c-0.3-0.2-0.6-0.3-0.9-0.3H9.6V0c0.7,0,1.3,0.2,1.7,0.4
		c0.4,0.2,0.7,0.5,1,0.9c0.2,0.4,0.4,0.8,0.4,1.3c0,0.5-0.1,0.9-0.2,1.4l-0.2,0.7c-0.1,0.4-0.1,0.8-0.1,1.2c0,0.9,0.4,1.4,1.3,1.4
		h0.4V8.6z"/> </g> </symbol><symbol viewBox="0 0 16 16" id="icon-calendar"> <path d="M5 6h2v2h-2zM8 6h2v2h-2zM11 6h2v2h-2zM2 12h2v2h-2zM5 12h2v2h-2zM8 12h2v2h-2zM5 9h2v2h-2zM8 9h2v2h-2zM11 9h2v2h-2zM2 9h2v2h-2zM13 0v1h-2v-1h-7v1h-2v-1h-2v16h15v-16h-2zM14 15h-13v-11h13v11z"/> </symbol><symbol viewBox="0 0 16 16" id="icon-chevron-down"> <path d="M2.5,3.2L0,5.7l8,8l8-8l-2.5-2.5L8,8.7L2.5,3.2z"/> </symbol><symbol viewBox="0 0 16 16" id="icon-chevron-left"> <path d="M12.8,2.5L10.3,0l-8,8l8,8l2.5-2.5L7.3,8L12.8,2.5z"/> </symbol><symbol viewBox="0 0 16 16" id="icon-chevron-right"> <path d="M3.2,13.5L5.7,16l8-8l-8-8L3.2,2.5L8.7,8L3.2,13.5z"/> </symbol><symbol viewBox="0 0 16 16" id="icon-chevron-up"> <path d="M13.5,13.3l2.5-2.5l-8-8l-8,8l2.5,2.5L8,7.8L13.5,13.3z"/> </symbol><symbol viewBox="0 0 16 16" id="icon-code"> <path d="M4.3,10.3l-3-2.5l3-2.5c0.2-0.2,0.2-0.5,0.1-0.7C4.2,4.5,4.1,4.4,3.9,4.4c-0.1,0-0.2,0-0.3,0.1L0.2,7.4C0.1,7.5,0,7.6,0,7.8
	s0.1,0.3,0.2,0.4l3.4,2.9c0.1,0.1,0.2,0.1,0.3,0.1c0.1,0,0.3-0.1,0.4-0.2C4.5,10.8,4.5,10.5,4.3,10.3z"/> <path d="M16,8c0-0.1-0.1-0.3-0.2-0.4l-3.5-2.9c-0.1-0.1-0.2-0.1-0.3-0.1c-0.1,0-0.3,0.1-0.4,0.2c-0.2,0.2-0.1,0.5,0.1,0.7l3,2.5
	l-3,2.5c-0.2,0.2-0.2,0.5-0.1,0.7c0.1,0.1,0.2,0.2,0.4,0.2c0.1,0,0.2,0,0.3-0.1l3.4-2.9C15.9,8.3,16,8.1,16,8z"/> <path d="M9.7,1.7c0,0-0.1,0-0.1,0C9.4,1.7,9.2,1.8,9.1,2L5.5,13.7c-0.1,0.3,0.1,0.5,0.3,0.6c0,0,0.1,0,0.1,0c0.2,0,0.4-0.1,0.5-0.4
	l3.6-11.7C10.1,2,10,1.8,9.7,1.7z"/> </symbol><symbol viewBox="0 0 16 16" id="icon-codepen"> <path d="M0.3,11l7.3,4.9c0.2,0.2,0.5,0.2,0.8,0l7.3-4.9c0.2-0.1,0.3-0.3,0.3-0.6V5.6c0-0.2-0.1-0.4-0.3-0.6L8.4,0.1
	C8.1,0,7.9,0,7.6,0.1L0.3,5C0.1,5.1,0,5.3,0,5.6v4.9C0,10.7,0.1,10.9,0.3,11L0.3,11z M7.3,14l-5.4-3.6l2.4-1.6l3,2V14z M8.7,14v-3.2
	l3-2l2.4,1.6L8.7,14z M14.6,9.1L12.9,8l1.7-1.2V9.1z M8.7,2l5.4,3.6l-2.4,1.6l-3-2V2z M8,6.4L10.4,8L8,9.6L5.6,8L8,6.4z M7.3,2v3.2
	l-3,2L1.9,5.6L7.3,2z M1.4,6.8L1.4,6.8L3.1,8L1.4,9.1V6.8z"/> </symbol><symbol viewBox="0 0 16 16" id="icon-cog"> <path d="M14.59 9.535c-0.839-1.454-0.335-3.317 1.127-4.164l-1.572-2.723c-0.449 0.263-0.972 0.414-1.529 0.414-1.68 0-3.042-1.371-3.042-3.062h-3.145c0.004 0.522-0.126 1.051-0.406 1.535-0.839 1.454-2.706 1.948-4.17 1.106l-1.572 2.723c0.453 0.257 0.845 0.634 1.123 1.117 0.838 1.452 0.336 3.311-1.12 4.16l1.572 2.723c0.448-0.261 0.967-0.41 1.522-0.41 1.675 0 3.033 1.362 3.042 3.046h3.145c-0.001-0.517 0.129-1.040 0.406-1.519 0.838-1.452 2.7-1.947 4.163-1.11l1.572-2.723c-0.45-0.257-0.839-0.633-1.116-1.113zM8 11.24c-1.789 0-3.24-1.45-3.24-3.24s1.45-3.24 3.24-3.24c1.789 0 3.24 1.45 3.24 3.24s-1.45 3.24-3.24 3.24z"/> </symbol><symbol viewBox="0 0 16 16" id="icon-dragonball"> <path d="M8,16c-4.4,0-8-3.6-8-8s3.6-8,8-8s8,3.6,8,8S12.4,16,8,16z M8,0.8C4,0.8,0.8,4,0.8,8S4,15.2,8,15.2S15.2,12,15.2,8
	S12,0.8,8,0.8z M9.7,9.5l0.9,1l1.4-0.2l-0.7,1.2l0.6,1.2l-1.3-0.3l-1,0.9L9.4,12l-1.2-0.7l1.3-0.5L9.7,9.5z M4.6,7.6l0.9,1l1.4-0.2
	L6.2,9.6l0.6,1.2l-1.3-0.3l-1,0.9l-0.1-1.4L3.1,9.4l1.3-0.5L4.6,7.6z M10.3,4.5l0.9,1l1.4-0.2l-0.7,1.2l0.6,1.2l-1.3-0.3l-1,0.9
	L10,7.1L8.8,6.4L10,5.9L10.3,4.5z M5.3,2.6l0.9,1l1.4-0.2L6.8,4.6l0.6,1.2L6.1,5.5l-1,0.9L5,5.1L3.8,4.5L5,3.9L5.3,2.6z"/> </symbol><symbol viewBox="0 0 16 16" id="icon-envelop"> <path d="M14.5 2h-13c-0.825 0-1.5 0.675-1.5 1.5v10c0 0.825 0.675 1.5 1.5 1.5h13c0.825 0 1.5-0.675 1.5-1.5v-10c0-0.825-0.675-1.5-1.5-1.5zM6.23 8.6l-4.23 3.295v-7.838l4.23 4.543zM2.756 4h10.488l-5.244 3.938-5.244-3.938zM6.395 8.777l1.605 1.723 1.605-1.723 3.29 4.223h-9.79l3.29-4.223zM9.77 8.6l4.23-4.543v7.838l-4.23-3.295z"/> </symbol><symbol viewBox="0 0 16 16" id="icon-image"> <path d="M14.998 2c0.001 0.001 0.001 0.001 0.002 0.002v11.996c-0.001 0.001-0.001 0.001-0.002 0.002h-13.996c-0.001-0.001-0.001-0.001-0.002-0.002v-11.996c0.001-0.001 0.001-0.001 0.002-0.002h13.996zM15 1h-14c-0.55 0-1 0.45-1 1v12c0 0.55 0.45 1 1 1h14c0.55 0 1-0.45 1-1v-12c0-0.55-0.45-1-1-1v0z"/> <path d="M13 4.5c0 0.828-0.672 1.5-1.5 1.5s-1.5-0.672-1.5-1.5 0.672-1.5 1.5-1.5 1.5 0.672 1.5 1.5z"/> <path d="M14 13h-12v-2l3.5-6 4 5h1l3.5-3z"/> </symbol><symbol viewBox="0 0 16 16" id="icon-js"> <g> <path d="M6.3,8.5H5.9C5,8.5,4.6,9,4.6,9.9c0,0.4,0,0.8,0.1,1.2l0.2,0.7c0.1,0.5,0.2,0.9,0.2,1.4c0,0.4-0.1,0.9-0.4,1.2
		c-0.2,0.4-0.6,0.7-1,0.9c-0.4,0.2-1,0.4-1.7,0.4v-1.2h0.2c0.3,0,0.6-0.1,0.9-0.3c0.3-0.2,0.4-0.4,0.4-0.8c0-0.1,0-0.4-0.1-0.8
		l-0.1-0.9c-0.1-0.4-0.1-0.8-0.1-1.3c0-0.6,0.1-1.1,0.3-1.5c0.2-0.4,0.5-0.8,0.9-1.2C4.1,7.5,3.8,7.1,3.6,6.7
		C3.4,6.4,3.3,5.9,3.3,5.3c0-0.5,0-1,0.1-1.3l0.1-0.9c0.1-0.4,0.1-0.7,0.1-0.8c0-0.3-0.1-0.6-0.4-0.8C2.9,1.3,2.6,1.2,2.3,1.2H2V0
		c0.7,0,1.3,0.2,1.7,0.4c0.4,0.2,0.7,0.5,1,0.9c0.2,0.4,0.4,0.8,0.4,1.3C5.1,3.1,5,3.5,4.9,4L4.7,4.7C4.7,5.1,4.6,5.5,4.6,5.9
		c0,0.9,0.4,1.3,1.3,1.3h0.4V8.5z"/> <path d="M6.3,1.1V0c0.9,0.6,1.7,1.4,2.2,2.2C9.1,3.1,9.5,4,9.8,5c0.3,1,0.4,1.9,0.4,2.9c0,0.9-0.1,1.9-0.4,2.9
		c-0.3,1-0.7,1.9-1.3,2.8c-0.6,0.9-1.3,1.6-2.2,2.2v-1.1c0.6-0.7,1.1-1.4,1.4-2C8,12,8.2,11.3,8.3,10.5s0.2-1.7,0.2-2.6
		c0-0.9-0.1-1.7-0.2-2.5S8,3.8,7.7,3.1C7.4,2.5,6.9,1.8,6.3,1.1z"/> <path d="M12.3,5.8V4.2H14v1.7H12.3z M12.3,16v-0.6c0.2-0.1,0.4-0.3,0.5-0.5c0.1-0.2,0.1-0.7,0.1-1.3v-0.2h-0.6v-1.7H14V13
		c0,0.7-0.1,1.2-0.2,1.6c-0.1,0.3-0.3,0.6-0.6,0.9C12.9,15.8,12.6,15.9,12.3,16z"/> </g> </symbol><symbol viewBox="0 0 16 16" id="icon-linkedin"> <path d="M6 6h2.767v1.418h0.040c0.385-0.691 1.327-1.418 2.732-1.418 2.921 0 3.461 1.818 3.461 4.183v4.817h-2.885v-4.27c0-1.018-0.021-2.329-1.5-2.329-1.502 0-1.732 1.109-1.732 2.255v4.344h-2.883v-9z"/> <path d="M1 6h3v9h-3v-9z"/> <path d="M4 3.5c0 0.828-0.672 1.5-1.5 1.5s-1.5-0.672-1.5-1.5c0-0.828 0.672-1.5 1.5-1.5s1.5 0.672 1.5 1.5z"/> </symbol><symbol viewBox="0 0 16 16" id="icon-menu"> <path d="M16,4H0V1.3h16V4z M16,6.7H0v2.7h16V6.7z M16,12H0v2.7h16V12z"/> </symbol><symbol viewBox="0 0 16 16" id="icon-mushroom"> <path d="M13.8,3.8c-0.4,0.1-0.4,1.4-0.1,3c0.4,1.6,1,2.8,1.4,2.7c0.4-0.1,0.7-1.3,0.3-2.8C15.1,5.1,14.2,3.7,13.8,3.8L13.8,3.8z
	 M1,11.6c-0.8-0.9-1-2.1-1-3.7c0-2.4,1-4.4,2.6-5.9C4,0.8,5.9,0,8,0c2.4,0,4.3,0.7,5.7,2.5C14.9,3.9,16,5.9,16,7.9
	c0,1.5-0.2,2.6-0.9,3.5c-0.6,0.7-1.3,1.3-2.3,1.7c0,0.9-0.1,1.8-1.1,2.3C10.9,15.9,9.1,16,7.9,16c-1.5,0-3,0-3.9-0.7
	c-0.6-0.5-0.8-1.4-0.8-2.1C2.3,12.8,1.5,12.3,1,11.6L1,11.6z M8,8.9c2.1,0,3.8-1.7,3.8-3.8S10.1,1.2,8,1.2S4.1,2.9,4.1,5
	S5.8,8.9,8,8.9L8,8.9z M0.9,9.3c0.4,0.1,1.1-1.1,1.5-2.6c0.4-1.6,0.4-2.9,0-3C2,3.6,1.2,4.5,0.8,6S0.5,9.2,0.9,9.3L0.9,9.3z
	 M4.2,14.7c0.8,0.5,2.2,0.6,3.6,0.6c1.5,0,3.3,0,4.1-0.7c0.5-0.4,0.5-1.5,0.5-2c0-0.2-0.1-0.5-0.2-0.7c-0.3-0.4-1-0.7-1.5-0.9
	c-0.8-0.4-1.4-0.4-2.7-0.4c-1.2,0-2.1,0.1-2.9,0.4c-0.7,0.3-1.5,0.6-1.7,1.1c-0.1,0.2,0,0.4,0,0.6C3.4,13.2,3.6,14.4,4.2,14.7
	L4.2,14.7z M6.3,14c-0.2,0-0.4-0.2-0.4-1.4c0-1.2,0.2-1.4,0.4-1.4s0.4,0.2,0.4,1.4C6.7,13.8,6.5,14,6.3,14z M9.7,14
	c-0.2,0-0.4-0.2-0.4-1.4c0-1.2,0.2-1.4,0.4-1.4s0.4,0.2,0.4,1.4C10.1,13.8,9.9,14,9.7,14z"/> </symbol><symbol viewBox="0 0 16 16" id="icon-new-tab"> <path d="M3 1v12h12v-12h-12zM14 12h-10v-10h10v10zM2 14v-10.5l-1-1v12.5h12.5l-1-1h-10.5z"/> <path d="M5.5 4l2.5 2.5-3 3 1.5 1.5 3-3 2.5 2.5v-6.5z"/> </symbol><symbol viewBox="0 0 16 16" id="icon-note-1"> <style type="text/css"> .st0{fill-rule:evenodd;clip-rule:evenodd;} </style> <path class="st0" d="M11.9,0l-1.8,0l0.1,9.4C7.2,8.3,4,9.7,4,12.7C4,14.6,5.7,16,7.5,16c2.1,0,4.5-1.4,4.5-4.2L11.9,0z"/> </symbol><symbol viewBox="0 0 16 16" id="icon-note-2"> <style type="text/css"> .st0{fill-rule:evenodd;clip-rule:evenodd;} </style> <path class="st0" d="M8.8,0L7.2,0l0.2,9.4C4.7,8.9,1.9,11,1.9,13.2C2,15.1,3.5,16,5.1,16C7,16,9,14.6,9,11.8L8.9,4.7
	c3.2,1.9,4,1.9,4.3,4.1c0.7-1.3,0.9-2.2,0.9-3.2C14,2.6,8.8,2.4,8.8,0z"/> </symbol><symbol viewBox="0 0 16 16" id="icon-note-3"> <style type="text/css"> .st0{fill-rule:evenodd;clip-rule:evenodd;} </style> <path class="st0" d="M15.3,0L4.6,2.4l0,8.7c-2-0.4-4,1.1-4,2.8C0.7,15.3,1.8,16,3,16c1.4,0,3-1,3-3.1l0-7.2L14,4l0,5.7
	c-2-0.4-4,1.1-4,2.8c0,1.4,1.1,2.1,2.3,2.1c1.4,0,3-1,3-3.1C15.3,11.5,15.3,0,15.3,0z"/> </symbol><symbol viewBox="0 0 16 16" id="icon-pin"> <path d="M8 0c-2.761 0-5 2.239-5 5 0 5 5 11 5 11s5-6 5-11c0-2.761-2.239-5-5-5zM8 8c-1.657 0-3-1.343-3-3s1.343-3 3-3 3 1.343 3 3-1.343 3-3 3z"/> </symbol><symbol viewBox="0 0 16 16" id="icon-pokeball"> <path d="M8,0C3.6,0,0,3.6,0,8s3.6,8,8,8s8-3.6,8-8S12.4,0,8,0z M8,1.3c3.5,0,6.3,2.6,6.6,6h-4.1c-0.3-1.1-1.3-2-2.6-2
	s-2.3,0.9-2.6,2H1.4C1.7,4,4.5,1.3,8,1.3z M8,6.7c0.7,0,1.3,0.6,1.3,1.3c0,0.7-0.6,1.3-1.3,1.3C7.3,9.3,6.7,8.7,6.7,8
	C6.7,7.3,7.3,6.7,8,6.7z M8,7.3C7.6,7.3,7.3,7.6,7.3,8c0,0.4,0.3,0.7,0.7,0.7c0.4,0,0.7-0.3,0.7-0.7C8.7,7.6,8.4,7.3,8,7.3z
	 M1.4,8.7h4.1c0.3,1.1,1.3,2,2.6,2s2.3-0.9,2.6-2h4.1c-0.3,3.4-3.2,6-6.6,6S1.7,12,1.4,8.7z"/> </symbol><symbol viewBox="0 0 16 16" id="icon-search"> <path d="M15.504 13.616l-3.79-3.223c-0.392-0.353-0.811-0.514-1.149-0.499 0.895-1.048 1.435-2.407 1.435-3.893 0-3.314-2.686-6-6-6s-6 2.686-6 6 2.686 6 6 6c1.486 0 2.845-0.54 3.893-1.435-0.016 0.338 0.146 0.757 0.499 1.149l3.223 3.79c0.552 0.613 1.453 0.665 2.003 0.115s0.498-1.452-0.115-2.003zM6 10c-2.209 0-4-1.791-4-4s1.791-4 4-4 4 1.791 4 4-1.791 4-4 4z"/> </symbol><symbol viewBox="0 0 16 16" id="icon-selection"> <path d="M12.5,11.6l1.8,3.6L12.7,16l-1.8-3.6l-2.2,1.9V6l6.7,5.1C15.3,11.1,12.5,11.6,12.5,11.6z M14,6.7h1.3V4H14V6.7z M14,8.4
	l1.3,1V8H14V8.4z M7.3,14.3v-0.9H4.7v1.3h2.7V14.3z M2,12H0.7v2.7h2.7v-1.3H2V12z M0.7,2.7H2V1.3h1.3V0H0.7V2.7z M2,8H0.7v2.7H2V8z
	 M7.3,0H4.7v1.3h2.7V0z M11.3,0H8.7v1.3h2.7V0z M14,2.7h1.3V0h-2.7v1.3H14V2.7z M2,4H0.7v2.7H2V4z"/> </symbol><symbol viewBox="0 0 16 16" id="icon-smartphone"> <path d="M12.7,1.3c0-0.7-0.6-1.3-1.3-1.3H4.7C3.9,0,3.3,0.6,3.3,1.3v13.3c0,0.7,0.6,1.3,1.3,1.3h6.7c0.7,0,1.3-0.6,1.3-1.3V1.3z
	 M7,1.3h2c0.2,0,0.3,0.1,0.3,0.3S9.2,2,9,2H7C6.8,2,6.7,1.9,6.7,1.7S6.8,1.3,7,1.3z M8,14.7c-0.4,0-0.7-0.3-0.7-0.7s0.3-0.7,0.7-0.7
	c0.4,0,0.7,0.3,0.7,0.7S8.4,14.7,8,14.7z M11.3,12.7H4.7V3.3h6.7V12.7z"/> </symbol><symbol viewBox="0 0 16 16" id="icon-stack"> <path d="M14.5,7.1L16,8l-8,4.7L0,8l1.5-0.9L8,10.9C8,10.9,14.5,7.1,14.5,7.1z M8,14.2l-6.5-3.8L0,11.3L8,16l8-4.7l-1.5-0.9L8,14.2z
	 M8,1.5l5.4,3.1L8,7.8L2.6,4.7C2.6,4.7,8,1.5,8,1.5z M8,0L0,4.7l8,4.7l8-4.7C16,4.7,8,0,8,0z"/> </symbol><symbol viewBox="0 0 16 16" id="icon-tag"> <path d="M15.25 0h-6c-0.412 0-0.989 0.239-1.28 0.53l-7.439 7.439c-0.292 0.292-0.292 0.769 0 1.061l6.439 6.439c0.292 0.292 0.769 0.292 1.061 0l7.439-7.439c0.292-0.292 0.53-0.868 0.53-1.28v-6c0-0.412-0.338-0.75-0.75-0.75zM11.5 6c-0.828 0-1.5-0.672-1.5-1.5s0.672-1.5 1.5-1.5 1.5 0.672 1.5 1.5-0.672 1.5-1.5 1.5z"/> </symbol><symbol viewBox="0 0 16 16" id="icon-triforce"><path d="M7.987 1.1l-4 6.9h8l-4-6.9zM4 8.038l-4 6.9h8l-4-6.9zM12 8.038l4 6.9H8l4-6.9z"/></symbol><symbol viewBox="0 0 16 16" id="icon-twitter"> <path d="M16 3.538c-0.588 0.263-1.222 0.438-1.884 0.516 0.678-0.406 1.197-1.050 1.444-1.816-0.634 0.375-1.338 0.65-2.084 0.797-0.6-0.638-1.453-1.034-2.397-1.034-1.813 0-3.281 1.469-3.281 3.281 0 0.256 0.028 0.506 0.084 0.747-2.728-0.138-5.147-1.444-6.766-3.431-0.281 0.484-0.444 1.050-0.444 1.65 0 1.138 0.578 2.144 1.459 2.731-0.538-0.016-1.044-0.166-1.488-0.409 0 0.013 0 0.028 0 0.041 0 1.591 1.131 2.919 2.634 3.219-0.275 0.075-0.566 0.116-0.866 0.116-0.212 0-0.416-0.022-0.619-0.059 0.419 1.303 1.631 2.253 3.066 2.281-1.125 0.881-2.538 1.406-4.078 1.406-0.266 0-0.525-0.016-0.784-0.047 1.456 0.934 3.181 1.475 5.034 1.475 6.037 0 9.341-5.003 9.341-9.341 0-0.144-0.003-0.284-0.009-0.425 0.641-0.459 1.197-1.038 1.637-1.697z"/> </symbol><symbol viewBox="0 0 16 16" id="icon-x"> <path d="M15.854 12.854c-0-0-0-0-0-0l-4.854-4.854 4.854-4.854c0-0 0-0 0-0 0.052-0.052 0.090-0.113 0.114-0.178 0.066-0.178 0.028-0.386-0.114-0.529l-2.293-2.293c-0.143-0.143-0.351-0.181-0.529-0.114-0.065 0.024-0.126 0.062-0.178 0.114 0 0-0 0-0 0l-4.854 4.854-4.854-4.854c-0-0-0-0-0-0-0.052-0.052-0.113-0.090-0.178-0.114-0.178-0.066-0.386-0.029-0.529 0.114l-2.293 2.293c-0.143 0.143-0.181 0.351-0.114 0.529 0.024 0.065 0.062 0.126 0.114 0.178 0 0 0 0 0 0l4.854 4.854-4.854 4.854c-0 0-0 0-0 0-0.052 0.052-0.090 0.113-0.114 0.178-0.066 0.178-0.029 0.386 0.114 0.529l2.293 2.293c0.143 0.143 0.351 0.181 0.529 0.114 0.065-0.024 0.126-0.062 0.178-0.114 0-0 0-0 0-0l4.854-4.854 4.854 4.854c0 0 0 0 0 0 0.052 0.052 0.113 0.090 0.178 0.114 0.178 0.066 0.386 0.029 0.529-0.114l2.293-2.293c0.143-0.143 0.181-0.351 0.114-0.529-0.024-0.065-0.062-0.126-0.114-0.178z"/> </symbol></svg>