<svg xmlns="http://www.w3.org/2000/svg"><symbol viewBox="0 0 16 16" id="icon-accessible">
  <!-- Generator: Adobe Illustrator 28.7.1, SVG Export Plug-In . SVG Version: 1.2.0 Build 142)  -->
  <g>
    <g id="accessible-Calque_1">
      <path d="M11.2,16c-.4,0-.8-.2-1-.5l-2.2-3.3-2.2,3.3c-.4.6-1.1.7-1.7.3-.6-.4-.7-1.1-.3-1.7l3-4.6v-2l-4-1.3c-.6-.2-1-.9-.8-1.5.2-.6.9-1,1.5-.8l4.5,1.5,4.5-1.5c.6-.2,1.3.1,1.5.8.2.6-.1,1.3-.8,1.5l-4,1.3v2l3,4.6c.4.6.2,1.3-.3,1.7-.2.1-.4.2-.7.2Z"/>
      <g>
        <circle cx="8" cy="2" r=".8"/>
        <path d="M8,4.1c-1.1,0-2-.9-2-2S6.9,0,8,0s2,.9,2,2-.9,2-2,2ZM8,1.6c-.2,0-.4.2-.4.4,0,.4.8.4.8,0s-.2-.4-.4-.4Z"/>
      </g>
    </g>
  </g>
</symbol><symbol viewBox="0 0 16 16" id="icon-bluesky">
  <!-- Generator: Adobe Illustrator 28.7.1, SVG Export Plug-In . SVG Version: 1.2.0 Build 142)  -->
  <g>
    <g id="bluesky-Calque_1">
      <path d="M15.129.921c.447.125.66.348.811.857.082.279.079,1.15-.003,2.119-.007.062-.023.233-.033.378-.013.145-.03.315-.036.378s-.02.233-.033.378c-.02.276-.076.798-.099.936-.007.046-.02.171-.033.279-.02.174-.043.322-.095.562-.036.177-.207.545-.365.788-.355.549-.923.992-1.544,1.212-.092.03-.194.069-.23.085-.099.043-.595.151-.821.181-.108.013-.371.026-.582.026-.21.003-.375.013-.361.023.02.013.214.056.647.141.036.007.154.036.263.069.108.03.24.066.296.079.164.046.591.223.805.338.299.161.568.391.719.618.164.246.2.368.223.713.039.591-.306,1.35-1.018,2.237-.729.91-1.452,1.478-2.178,1.722-.289.095-.765.102-1.015.013-.591-.21-1.094-.752-1.554-1.679-.253-.509-.621-1.492-.811-2.181-.062-.22-.095-.25-.128-.112-.03.128-.089.329-.299,1.041-.486,1.623-1.002,2.477-1.695,2.793-.243.112-.358.131-.719.128-.355-.003-.664-.089-1.068-.299-.302-.158-.877-.529-.969-.631-.01-.01-.082-.069-.164-.135-.171-.138-.496-.47-.673-.687-.066-.082-.145-.177-.174-.214-.092-.108-.401-.588-.401-.621,0-.016-.02-.056-.046-.082-.026-.03-.092-.187-.151-.348-.355-1.015.043-1.833,1.166-2.388.427-.214.959-.388,1.429-.473.24-.046.177-.062-.223-.066-.834-.003-1.538-.174-2.168-.526-.792-.444-1.383-1.301-1.469-2.132-.013-.125-.026-.237-.033-.246-.007-.016-.016-.092-.066-.552-.01-.076-.023-.2-.033-.279-.007-.076-.023-.243-.036-.368-.01-.128-.023-.283-.03-.345s-.023-.25-.033-.411c-.013-.164-.026-.348-.033-.411C0,3.162-.02,2.255.023,1.999c.085-.503.263-.811.552-.959.667-.342,1.485-.131,2.684.687.43.296.532.375.815.611,1.048.887,2.244,2.25,3.177,3.63.299.44.716,1.13.716,1.183,0,.076.059.023.128-.118.089-.191.444-.759.69-1.114.21-.306.693-.969.742-1.022.016-.02.069-.085.115-.145s.099-.125.115-.145c.02-.02.128-.151.243-.296.407-.499,1.216-1.347,1.679-1.761.062-.056.145-.128.181-.161.716-.637,1.912-1.34,2.503-1.465.187-.043.621-.043.765-.003Z"/>
    </g>
  </g>
</symbol><symbol viewBox="0 0 16 16" id="icon-briefcase">
  <!-- Generator: Adobe Illustrator 28.7.1, SVG Export Plug-In . SVG Version: 1.2.0 Build 142)  -->
  <g>
    <g id="briefcase-Calque_1">
      <path d="M13.743,15.59H2.256C1.012,15.59,0,14.578,0,13.333v-7.385C0,4.705,1.012,3.692,2.256,3.692h11.487c1.244,0,2.256,1.012,2.256,2.256v7.385c0,1.244-1.012,2.256-2.256,2.256ZM2.256,4.923c-.566,0-1.026.46-1.026,1.026v7.385c0,.566.46,1.026,1.026,1.026h11.487c.566,0,1.026-.46,1.026-1.026v-7.385c0-.566-.46-1.026-1.026-1.026H2.256Z"/>
      <path d="M11.282,4.923c-.34,0-.615-.276-.615-.615v-1.641c0-.566-.46-1.026-1.026-1.026h-3.282c-.566,0-1.026.46-1.026,1.026v1.641c0,.34-.276.615-.615.615s-.615-.276-.615-.615v-1.641c0-1.244,1.012-2.256,2.256-2.256h3.282c1.244,0,2.256,1.012,2.256,2.256v1.641c0,.34-.276.615-.615.615Z"/>
      <path d="M8,9.034c-.34,0-.615-.276-.615-.615s.276-.619.615-.619.615.271.615.611v.008c0,.34-.276.615-.615.615Z"/>
      <path d="M8,11.593c-2.631,0-5.263-.604-7.661-1.813-.304-.153-.425-.523-.273-.826.153-.304.526-.424.827-.273,4.451,2.242,9.765,2.242,14.215,0,.304-.152.674-.03.827.273s.03.673-.272.826c-2.399,1.209-5.03,1.813-7.662,1.813Z"/>
    </g>
  </g>
</symbol><symbol viewBox="0 0 16 16" id="icon-calendar">
<path d="M5 6h2v2h-2zM8 6h2v2h-2zM11 6h2v2h-2zM2 12h2v2h-2zM5 12h2v2h-2zM8 12h2v2h-2zM5 9h2v2h-2zM8 9h2v2h-2zM11 9h2v2h-2zM2 9h2v2h-2zM13 0v1h-2v-1h-7v1h-2v-1h-2v16h15v-16h-2zM14 15h-13v-11h13v11z"/>
</symbol><symbol viewBox="0 0 16 16" id="icon-certificate">
  <!-- Generator: Adobe Illustrator 28.7.1, SVG Export Plug-In . SVG Version: 1.2.0 Build 142)  -->
  <g>
    <g>
      <path d="M14.244,5.073h-3.122c-.753,0-1.366-.613-1.366-1.366V.585c0-.323.262-.585.585-.585s.585.262.585.585v3.122c0,.107.088.195.195.195h3.122c.323,0,.585.262.585.585s-.262.585-.585.585Z"/>
      <path d="M12.683,15.22h-3.902c-.323,0-.585-.262-.585-.585s.262-.585.585-.585h3.902c.538,0,.976-.437.976-.976V4.73l-3.559-3.559h-5.221c-.538,0-.976.437-.976.976v2.341c0,.323-.262.585-.585.585s-.585-.262-.585-.585v-2.341c0-1.183.963-2.146,2.146-2.146h5.463c.155,0,.304.062.414.171l3.902,3.902c.11.11.171.259.171.414v8.586c0,1.184-.963,2.146-2.146,2.146Z"/>
      <path d="M4.098,12.098c-1.614,0-2.927-1.313-2.927-2.927s1.313-2.927,2.927-2.927,2.927,1.313,2.927,2.927-1.313,2.927-2.927,2.927ZM4.098,7.414c-.968,0-1.756.788-1.756,1.756s.788,1.756,1.756,1.756,1.756-.788,1.756-1.756-.788-1.756-1.756-1.756Z"/>
      <path d="M6.439,16c-.089,0-.179-.021-.262-.062l-2.08-1.04-2.08,1.04c-.209.103-.46.075-.639-.075-.179-.15-.251-.393-.184-.617l1.171-3.902c.093-.309.421-.485.729-.393.31.093.486.419.393.729l-.781,2.604,1.13-.565c.165-.082.359-.082.524,0l1.13.565-.781-2.604c-.093-.31.083-.636.393-.729.308-.093.636.083.729.393l1.171,3.902c.067.224-.005.466-.184.617-.108.091-.242.137-.377.137Z"/>
    </g>
  </g>
</symbol><symbol viewBox="0 0 16 16" id="icon-check">
<path d="M13.5 2l-7.5 7.5-3.5-3.5-2.5 2.5 6 6 10-10z"/>
</symbol><symbol viewBox="0 0 16 16" id="icon-chevron-down">
  <!-- Generator: Adobe Illustrator 28.7.1, SVG Export Plug-In . SVG Version: 1.2.0 Build 142)  -->
  <g>
    <g id="chevron-down-Calque_1">
      <path d="M0,4.445C0,4.217.087,3.99.26,3.816c.347-.347.91-.347,1.257,0l6.483,6.482,6.482-6.482c.347-.347.91-.347,1.257,0s.347.91,0,1.257l-7.111,7.111c-.347.347-.91.347-1.257,0L.26,5.073C.087,4.899,0,4.672,0,4.445Z"/>
    </g>
  </g>
</symbol><symbol viewBox="0 0 16 16" id="icon-chevron-left">
  <!-- Generator: Adobe Illustrator 28.7.1, SVG Export Plug-In . SVG Version: 1.2.0 Build 142)  -->
  <g>
    <g id="chevron-left-Calque_1">
      <path d="M11.555,0C11.783,0,12.01.087,12.184.26c.347.347.347.91,0,1.257l-6.482,6.483,6.482,6.482c.347.347.347.91,0,1.257s-.91.347-1.257,0l-7.111-7.111c-.347-.347-.347-.91,0-1.257L10.927.26C11.101.087,11.328,0,11.555,0Z"/>
    </g>
  </g>
</symbol><symbol viewBox="0 0 16 16" id="icon-chevron-right">
  <g>
    <g>
      <path d="M4.445,16c-.227,0-.455-.087-.628-.26-.347-.347-.347-.91,0-1.257l6.482-6.483L3.816,1.517c-.347-.347-.347-.91,0-1.257s.91-.347,1.257,0l7.111,7.111c.347.347.347.91,0,1.257l-7.111,7.111c-.174.174-.401.26-.628.26Z"/>
    </g>
  </g>
</symbol><symbol viewBox="0 0 16 16" id="icon-chevron-up">
  <!-- Generator: Adobe Illustrator 28.7.1, SVG Export Plug-In . SVG Version: 1.2.0 Build 142)  -->
  <g>
    <g id="chevron-up-Calque_1">
      <path d="M16,11.555c0,.227-.087.455-.26.628-.347.347-.91.347-1.257,0l-6.483-6.482L1.517,12.184c-.347.347-.91.347-1.257,0s-.347-.91,0-1.257L7.371,3.816c.347-.347.91-.347,1.257,0l7.111,7.111c.174.174.26.401.26.628Z"/>
    </g>
  </g>
</symbol><symbol viewBox="0 0 16 16" id="icon-code">
<path d="M4.3,10.3l-3-2.5l3-2.5c0.2-0.2,0.2-0.5,0.1-0.7C4.2,4.5,4.1,4.4,3.9,4.4c-0.1,0-0.2,0-0.3,0.1L0.2,7.4C0.1,7.5,0,7.6,0,7.8
	s0.1,0.3,0.2,0.4l3.4,2.9c0.1,0.1,0.2,0.1,0.3,0.1c0.1,0,0.3-0.1,0.4-0.2C4.5,10.8,4.5,10.5,4.3,10.3z"/>
<path d="M16,8c0-0.1-0.1-0.3-0.2-0.4l-3.5-2.9c-0.1-0.1-0.2-0.1-0.3-0.1c-0.1,0-0.3,0.1-0.4,0.2c-0.2,0.2-0.1,0.5,0.1,0.7l3,2.5
	l-3,2.5c-0.2,0.2-0.2,0.5-0.1,0.7c0.1,0.1,0.2,0.2,0.4,0.2c0.1,0,0.2,0,0.3-0.1l3.4-2.9C15.9,8.3,16,8.1,16,8z"/>
<path d="M9.7,1.7c0,0-0.1,0-0.1,0C9.4,1.7,9.2,1.8,9.1,2L5.5,13.7c-0.1,0.3,0.1,0.5,0.3,0.6c0,0,0.1,0,0.1,0c0.2,0,0.4-0.1,0.5-0.4
	l3.6-11.7C10.1,2,10,1.8,9.7,1.7z"/>
</symbol><symbol viewBox="0 0 16 16" id="icon-codepen">
<path d="M0.3,11l7.3,4.9c0.2,0.2,0.5,0.2,0.8,0l7.3-4.9c0.2-0.1,0.3-0.3,0.3-0.6V5.6c0-0.2-0.1-0.4-0.3-0.6L8.4,0.1
	C8.1,0,7.9,0,7.6,0.1L0.3,5C0.1,5.1,0,5.3,0,5.6v4.9C0,10.7,0.1,10.9,0.3,11L0.3,11z M7.3,14l-5.4-3.6l2.4-1.6l3,2V14z M8.7,14v-3.2
	l3-2l2.4,1.6L8.7,14z M14.6,9.1L12.9,8l1.7-1.2V9.1z M8.7,2l5.4,3.6l-2.4,1.6l-3-2V2z M8,6.4L10.4,8L8,9.6L5.6,8L8,6.4z M7.3,2v3.2
	l-3,2L1.9,5.6L7.3,2z M1.4,6.8L1.4,6.8L3.1,8L1.4,9.1V6.8z"/>
</symbol><symbol viewBox="0 0 16 16" id="icon-envelop">
  <!-- Generator: Adobe Illustrator 28.7.1, SVG Export Plug-In . SVG Version: 1.2.0 Build 142)  -->
  <g>
    <g id="envelop-Calque_1">
      <g id="envelop-Calque_1-2" data-name="Calque_1">
        <g id="envelop-Calque_1-2">
          <path d="M13.615,14.359H2.289C.997,14.359.004,13.265.004,12.074V3.926C.004,2.734.997,1.641,2.289,1.641h11.426c1.192,0,2.285.994,2.285,2.285v8.147c0,1.192-.994,2.285-2.285,2.285h-.1ZM2.289,2.932c-.596,0-.994.497-.994.994v8.147c0,.596.497.994.994.994h11.426c.596,0,.994-.497.994-.994V3.926c0-.596-.497-.994-.994-.994H2.289Z"/>
          <path d="M7.952,9.39s-.199,0-.298-.099L.302,4.423c-.298-.199-.397-.596-.199-.894s.596-.397.894-.199l6.955,4.67,6.955-4.67c.298-.199.695,0,.894.199.199.298.099.695-.199.894l-7.352,4.868c-.099,0-.199.099-.298,0,0,0,0,.099,0,.099Z"/>
        </g>
        <g>
          <path d="M1.343,12.807c-.099,0-.298,0-.397-.199-.199-.199-.199-.596,0-.795l4.471-4.471c.199-.199.596-.199.795,0s.199.596,0,.795L1.74,12.607c-.099.099-.298.199-.397.199Z"/>
          <path d="M14.656,12.807c-.099,0-.298,0-.397-.199l-4.471-4.471c-.199-.199-.199-.596,0-.795s.596-.199.795,0l4.471,4.471c.199.199.199.596,0,.795s-.298.199-.397.199h0Z"/>
        </g>
      </g>
    </g>
  </g>
</symbol><symbol viewBox="0 0 16 16" id="icon-formation">
  <!-- Generator: Adobe Illustrator 28.7.1, SVG Export Plug-In . SVG Version: 1.2.0 Build 142)  -->
  <g>
    <g id="formation-Calque_1">
      <path d="M3.43,16h-1.829C.719,16,.001,15.282.001,14.4V1.6C.001.718.719,0,1.601,0h1.829c.882,0,1.6.718,1.6,1.6v12.8c0,.882-.718,1.6-1.6,1.6ZM1.601,1.371c-.126,0-.229.103-.229.229v12.8c0,.126.103.229.229.229h1.829c.126,0,.229-.103.229-.229V1.6c0-.126-.103-.229-.229-.229h-1.829Z"/>
      <path d="M7.087,16h-1.829c-.882,0-1.6-.718-1.6-1.6V1.6c0-.882.718-1.6,1.6-1.6h1.829c.882,0,1.6.718,1.6,1.6v12.8c0,.882-.718,1.6-1.6,1.6ZM5.258,1.371c-.126,0-.229.103-.229.229v12.8c0,.126.103.229.229.229h1.829c.126,0,.229-.103.229-.229V1.6c0-.126-.103-.229-.229-.229h-1.829Z"/>
      <path d="M4.344,5.028H.687C.308,5.028.001,4.721.001,4.343s.307-.686.686-.686h3.657c.379,0,.686.307.686.686s-.307.686-.686.686Z"/>
      <path d="M8.001,12.343h-3.657c-.379,0-.686-.307-.686-.686s.307-.686.686-.686h3.657c.379,0,.686.307.686.686s-.307.686-.686.686Z"/>
      <path d="M12.356,15.999c-.732,0-1.408-.482-1.605-1.201L7.373,2.532c-.217-.819.215-1.65,1.004-1.941l.155-.049c.013-.004.028-.008.041-.011l1.997-.484c.872-.209,1.762.309,1.995,1.154l3.378,12.267c.217.819-.215,1.65-1.004,1.94l-.155.049-2.038.496c-.129.031-.261.046-.389.046ZM8.917,1.859l-.101.031c-.087.033-.153.159-.12.283l3.377,12.261c.037.136.194.225.351.185l2.076-.511c.087-.032.152-.159.12-.283L11.243,1.565c-.038-.137-.198-.223-.35-.185l-1.976.479Z"/>
      <path d="M8.914,5.943c-.307,0-.587-.208-.664-.519-.092-.367.131-.74.499-.832l3.657-.914c.363-.089.739.132.831.499.092.367-.131.74-.499.832l-3.657.914c-.055.014-.112.021-.167.021Z"/>
      <path d="M10.743,12.343c-.307,0-.587-.208-.664-.52-.092-.367.131-.739.499-.831l3.587-.896c.362-.093.74.132.831.499.092.367-.131.739-.499.831l-3.587.896c-.055.014-.112.021-.167.021Z"/>
    </g>
  </g>
</symbol><symbol viewBox="0 0 16 16" id="icon-image">
<path d="M14.998 2c0.001 0.001 0.001 0.001 0.002 0.002v11.996c-0.001 0.001-0.001 0.001-0.002 0.002h-13.996c-0.001-0.001-0.001-0.001-0.002-0.002v-11.996c0.001-0.001 0.001-0.001 0.002-0.002h13.996zM15 1h-14c-0.55 0-1 0.45-1 1v12c0 0.55 0.45 1 1 1h14c0.55 0 1-0.45 1-1v-12c0-0.55-0.45-1-1-1v0z"/>
<path d="M13 4.5c0 0.828-0.672 1.5-1.5 1.5s-1.5-0.672-1.5-1.5 0.672-1.5 1.5-1.5 1.5 0.672 1.5 1.5z"/>
<path d="M14 13h-12v-2l3.5-6 4 5h1l3.5-3z"/>
</symbol><symbol viewBox="0 0 16 16" id="icon-leaf">
  <!-- Generator: Adobe Illustrator 28.7.1, SVG Export Plug-In . SVG Version: 1.2.0 Build 142)  -->
  <g>
    <g id="leaf-Calque_1">
      <path d="M2,16s0,0,0,0c-.4,0-.6-.4-.6-.7.5-4.5,2.6-7.5,6.4-9.2.3-.1.7,0,.9.3.1.3,0,.7-.3.9-3.4,1.5-5.2,4.1-5.7,8.1,0,.3-.3.6-.6.6Z"/>
      <path d="M5.4,13.4h-2.6c-.2,0-.3,0-.5-.2-1.9-1.9-1.9-3.9-1.9-4.8C.4,4.6,2.4,0,11.5,0h3.5c.4,0,.6.3.6.6v1.7c-.4,7.3-3.8,11-10.2,11ZM3.1,12.1h2.3c5.6,0,8.5-3.2,8.9-9.8v-1h-2.8C5,1.3,1.7,3.7,1.7,8.4c0,.8,0,2.2,1.4,3.7Z"/>
    </g>
  </g>
</symbol><symbol viewBox="0 0 16 15.999" id="icon-linkedin">
  <!-- Generator: Adobe Illustrator 28.7.1, SVG Export Plug-In . SVG Version: 1.2.0 Build 142)  -->
  <g>
    <g id="linkedin-Calque_1">
      <path d="M5.714,5.142h3.162v1.621h.046c.44-.79,1.517-1.621,3.122-1.621,3.338,0,3.955,2.078,3.955,4.781v5.505h-3.297v-4.88c0-1.163-.024-2.662-1.714-2.662-1.717,0-1.979,1.267-1.979,2.577v4.965h-3.295s0-10.286,0-10.286Z"/>
      <path d="M0,5.142h3.429v10.286H0V5.142Z"/>
      <path d="M3.429,2.285c0,.946-.768,1.714-1.714,1.714s-1.714-.768-1.714-1.714S.768.571,1.714.571s1.714.768,1.714,1.714Z"/>
    </g>
  </g>
</symbol><symbol viewBox="0 0 16 16" id="icon-mastodon">
<path d="M15.5,5.3c0-3.5-2.3-4.5-2.3-4.5C12,0.2,10.1,0,8,0H8c-2,0-4,0.2-5.2,0.8c0,0-2.3,1-2.3,4.5c0,0.8,0,1.7,0,2.8
	c0.1,3.4,0.6,6.7,3.8,7.6C5.8,16,7,16,8,16c1.8-0.1,2.8-0.6,2.8-0.6L10.8,14c0,0-1.3,0.4-2.8,0.4c-1.4,0-3-0.2-3.2-1.9
	c0-0.2,0-0.3,0-0.5c0,0,1.4,0.3,3.2,0.4c1.1,0.1,2.1-0.1,3.2-0.2c2-0.2,3.8-1.5,4-2.6C15.5,7.8,15.5,5.3,15.5,5.3z M12.8,9.7h-1.7
	V5.6c0-0.9-0.4-1.3-1.1-1.3c-0.8,0-1.2,0.5-1.2,1.5v2.2H7.2V5.9c0-1-0.4-1.5-1.2-1.5c-0.7,0-1.1,0.4-1.1,1.3v4.1H3.2V5.5
	c0-0.9,0.2-1.5,0.7-2c0.5-0.5,1-0.8,1.8-0.8c0.9,0,1.5,0.3,1.9,1L8,4.4l0.4-0.7c0.4-0.7,1.1-1,1.9-1c0.7,0,1.3,0.3,1.8,0.8
	c0.4,0.5,0.7,1.2,0.7,2V9.7z"/>
</symbol><symbol viewBox="0 0 16 16" id="icon-new-tab">
<path d="M3 1v12h12v-12h-12zM14 12h-10v-10h10v10zM2 14v-10.5l-1-1v12.5h12.5l-1-1h-10.5z"/>
<path d="M5.5 4l2.5 2.5-3 3 1.5 1.5 3-3 2.5 2.5v-6.5z"/>
</symbol><symbol viewBox="0 0 16 16" id="icon-paper-plane">
  <!-- Generator: Adobe Illustrator 28.7.1, SVG Export Plug-In . SVG Version: 1.2.0 Build 142)  -->
  <g>
    <g id="paper-plane-Calque_1">
      <path d="M11.493,14.239l-3.59-3.199-1.618,1.866c-.142.16-.391.053-.391-.142v-3.412c0-.071.035-.142.089-.178l6.718-5.011c.035-.018,0-.071-.035-.053l-8.371,3.91c-.053.018-.124.035-.178,0L.136,6.313c-.196-.089-.178-.355.035-.409L15.722,1.71c.178-.053.32.124.267.285l-4.14,12.156c-.053.16-.249.195-.355.089h0Z"/>
    </g>
  </g>
</symbol><symbol viewBox="0 0 16 16" id="icon-pin">
<path d="M8 0c-2.761 0-5 2.239-5 5 0 5 5 11 5 11s5-6 5-11c0-2.761-2.239-5-5-5zM8 8c-1.657 0-3-1.343-3-3s1.343-3 3-3 3 1.343 3 3-1.343 3-3 3z"/>
</symbol><symbol viewBox="0 0 16 16" id="icon-rocket">
  <!-- Generator: Adobe Illustrator 28.7.1, SVG Export Plug-In . SVG Version: 1.2.0 Build 142)  -->
  <g>
    <g id="rocket-Calque_1">
      <path d="M7.086,15.979c-.105,0-.21-.024-.306-.072-.206-.103-.345-.303-.373-.531-.361-3.044-2.74-5.422-5.783-5.784-.228-.027-.428-.167-.531-.373s-.096-.449.019-.648c.993-1.721,2.714-2.835,4.667-3.045C6.077,2.357,9.068.215,12.518.026h.002c1.922,0,3.454,1.533,3.454,3.418-.189,3.486-2.332,6.479-5.503,7.777-.208,1.953-1.323,3.674-3.044,4.667-.105.061-.223.092-.341.092ZM1.884,8.443c2.778.729,4.943,2.894,5.673,5.673.961-.861,1.537-2.075,1.58-3.401.01-.282.191-.529.457-.622,2.88-1.014,4.847-3.638,5.014-6.686,0-1.094-.921-2.014-2.052-2.014-3.011.165-5.635,2.133-6.648,5.013-.093.266-.341.447-.622.456-1.326.044-2.541.62-3.401,1.581Z"/>
      <path d="M1.423,16.025c-.267,0-.536-.017-.807-.052-.308-.04-.55-.282-.59-.59-.326-2.5.882-4.915,3.077-6.153.329-.185.745-.07.932.26.186.329.069.745-.26.931-1.545.872-2.462,2.494-2.433,4.236,1.757.059,3.364-.888,4.237-2.433.186-.329.604-.442.931-.259.329.186.445.603.26.932-1.105,1.957-3.146,3.128-5.347,3.128Z"/>
      <path d="M10.733,6.863c-.88,0-1.595-.716-1.595-1.595s.716-1.595,1.595-1.595,1.595.716,1.595,1.595-.716,1.595-1.595,1.595ZM10.733,5.039c-.126,0-.228.102-.228.228,0,.251.456.251.456,0,0-.126-.102-.228-.228-.228Z"/>
    </g>
  </g>
</symbol><symbol viewBox="0 0 16 16" id="icon-search">
<path d="M15.504 13.616l-3.79-3.223c-0.392-0.353-0.811-0.514-1.149-0.499 0.895-1.048 1.435-2.407 1.435-3.893 0-3.314-2.686-6-6-6s-6 2.686-6 6 2.686 6 6 6c1.486 0 2.845-0.54 3.893-1.435-0.016 0.338 0.146 0.757 0.499 1.149l3.223 3.79c0.552 0.613 1.453 0.665 2.003 0.115s0.498-1.452-0.115-2.003zM6 10c-2.209 0-4-1.791-4-4s1.791-4 4-4 4 1.791 4 4-1.791 4-4 4z"/>
</symbol><symbol viewBox="0 0 16 16" id="icon-sparkles">
  <!-- Generator: Adobe Illustrator 28.7.1, SVG Export Plug-In . SVG Version: 1.2.0 Build 142)  -->
  <g>
    <g id="sparkles-Calque_1">
      <path d="M13.699,15.562c-.302,0-.548-.246-.548-.548,0-.664-.541-1.205-1.205-1.205-.302,0-.548-.246-.548-.548s.246-.548.548-.548c.664,0,1.205-.541,1.205-1.205,0-.302.246-.548.548-.548s.548.246.548.548c0,.664.541,1.205,1.205,1.205.302,0,.548.246.548.548s-.246.548-.548.548c-.664,0-1.205.541-1.205,1.205,0,.302-.246.548-.548.548ZM13.434,13.26c.095.08.184.17.265.265.08-.095.17-.184.265-.265-.095-.08-.184-.17-.265-.265-.08.095-.17.184-.265.265ZM5.808,13.808c-.303,0-.548-.246-.548-.548,0-2.598-2.114-4.712-4.712-4.712-.303,0-.548-.245-.548-.548s.245-.548.548-.548c2.598,0,4.712-2.114,4.712-4.712,0-.303.245-.548.548-.548s.548.245.548.548c0,2.598,2.114,4.712,4.712,4.712.302,0,.548.245.548.548s-.246.548-.548.548c-2.598,0-4.712,2.114-4.712,4.712,0,.302-.245.548-.548.548ZM3.01,8c1.227.577,2.222,1.571,2.798,2.798.577-1.227,1.571-2.221,2.798-2.798-1.227-.577-2.222-1.571-2.798-2.798-.577,1.227-1.571,2.222-2.798,2.798ZM13.699,5.041c-.302,0-.548-.245-.548-.548,0-.665-.541-1.205-1.205-1.205-.302,0-.548-.245-.548-.548s.246-.548.548-.548c.664,0,1.205-.541,1.205-1.205,0-.303.246-.548.548-.548s.548.245.548.548c0,.665.541,1.205,1.205,1.205.302,0,.548.245.548.548s-.246.548-.548.548c-.664,0-1.205.541-1.205,1.205,0,.303-.246.548-.548.548ZM13.434,2.74c.095.081.184.17.265.265.08-.095.17-.184.265-.265-.095-.081-.184-.17-.265-.265-.08.095-.17.184-.265.265Z"/>
    </g>
  </g>
</symbol><symbol viewBox="0 0 16 16" id="icon-tie">
  <!-- Generator: Adobe Illustrator 28.7.1, SVG Export Plug-In . SVG Version: 1.2.0 Build 142)  -->
  <g>
    <g>
      <path d="M7.024,16c-.15,0-.3-.057-.414-.171l-3.122-3.122c-.142-.143-.202-.348-.157-.543l1.912-8.415-.713-1.903c-.058-.153-.087-.314-.087-.479C4.444.614,5.056,0,5.809,0h2.431c.165,0,.326.029.48.088.703.263,1.062,1.052.799,1.757l-.713,1.904,1.912,8.415c.044.196-.014.401-.157.543l-3.122,3.122c-.114.114-.264.171-.414.171ZM4.545,12.108l2.479,2.479,2.479-2.479-1.88-8.271c-.025-.111-.018-.228.023-.335l.775-2.067c.037-.101-.014-.213-.114-.251l-2.499-.013c-.107,0-.195.088-.195.195l.787,2.136c.04.107.048.224.023.335l-1.88,8.271Z"/>
      <path d="M12.097,8.585c-.159,0-.318-.064-.433-.192l-3.729-4.101h-2.082c-.323,0-.585-.262-.585-.585s.262-.585.585-.585h2.341c.165,0,.322.07.433.192l3.902,4.293c.218.239.2.609-.039.827-.113.102-.253.152-.394.152Z"/>
    </g>
  </g>
</symbol><symbol viewBox="0 0 16 16" id="icon-twitter">
  <!-- Generator: Adobe Illustrator 28.7.1, SVG Export Plug-In . SVG Version: 1.2.0 Build 142)  -->
  <g>
    <g>
      <path d="M15.314,16h-3.901c-.219,0-.424-.104-.553-.28L.133,1.091C-.02.883-.043.606.074.376.191.145.427,0,.686,0h3.901C4.805,0,5.011.104,5.14.28l10.727,14.629c.153.208.176.485.059.715s-.354.376-.612.376ZM11.761,14.629h2.2L4.24,1.371h-2.201l9.722,13.258Z"/>
      <path d="M.686,16c-.175,0-.351-.067-.485-.201-.268-.268-.268-.702,0-.97l6.188-6.188c.268-.268.702-.268.97,0s.268.702,0,.97L1.171,15.799c-.134.134-.309.201-.485.201ZM9.122,7.563c-.176,0-.351-.067-.485-.201-.268-.268-.268-.702,0-.97L14.829.201c.268-.268.702-.268.97,0s.268.702,0,.97l-6.192,6.191c-.134.134-.309.201-.485.201Z"/>
    </g>
  </g>
</symbol><symbol viewBox="0 0 16 16" id="icon-user">
  <g>
    <g> 
      <path d="M8,7.795c-2.149,0-3.897-1.748-3.897-3.897s1.748-3.897,3.897-3.897,3.897,1.748,3.897,3.897-1.748,3.897-3.897,3.897ZM8,1.231c-1.47,0-2.667,1.196-2.667,2.667s1.196,2.667,2.667,2.667,2.667-1.196,2.667-2.667-1.196-2.667-2.667-2.667Z"/>
      <path d="M12.923,16c-.34,0-.615-.276-.615-.615v-1.641c0-1.47-1.196-2.667-2.667-2.667h-3.282c-1.47,0-2.667,1.196-2.667,2.667v1.641c0,.34-.276.615-.615.615s-.615-.276-.615-.615v-1.641c0-2.149,1.748-3.897,3.897-3.897h3.282c2.149,0,3.897,1.748,3.897,3.897v1.641c0,.34-.276.615-.615.615Z"/>
    </g>
  </g>
</symbol><symbol viewBox="0 0 16 16" id="icon-website">
  <!-- Generator: Adobe Illustrator 28.7.1, SVG Export Plug-In . SVG Version: 1.2.0 Build 142)  -->
  <g>
    <g id="website-Calque_1">
      <path d="M13.744,14.359H2.256c-1.244,0-2.256-1.012-2.256-2.256V3.897C0,2.653,1.012,1.641,2.256,1.641h11.487c1.244,0,2.256,1.012,2.256,2.256v8.205c0,1.244-1.012,2.256-2.256,2.256ZM2.256,2.872c-.566,0-1.026.46-1.026,1.026v8.205c0,.566.46,1.026,1.026,1.026h11.487c.566,0,1.026-.46,1.026-1.026V3.897c0-.566-.46-1.026-1.026-1.026H2.256Z"/>
      <path d="M3.085,5.333c-.34,0-.619-.276-.619-.615s.272-.615.611-.615h.008c.34,0,.615.276.615.615s-.276.615-.615.615Z"/>
      <path d="M5.546,5.333c-.34,0-.619-.276-.619-.615s.272-.615.611-.615h.008c.34,0,.615.276.615.615s-.276.615-.615.615Z"/>
    </g>
  </g>
</symbol><symbol viewBox="0 0 16 16" id="icon-x">
<path d="M15.854 12.854c-0-0-0-0-0-0l-4.854-4.854 4.854-4.854c0-0 0-0 0-0 0.052-0.052 0.090-0.113 0.114-0.178 0.066-0.178 0.028-0.386-0.114-0.529l-2.293-2.293c-0.143-0.143-0.351-0.181-0.529-0.114-0.065 0.024-0.126 0.062-0.178 0.114 0 0-0 0-0 0l-4.854 4.854-4.854-4.854c-0-0-0-0-0-0-0.052-0.052-0.113-0.090-0.178-0.114-0.178-0.066-0.386-0.029-0.529 0.114l-2.293 2.293c-0.143 0.143-0.181 0.351-0.114 0.529 0.024 0.065 0.062 0.126 0.114 0.178 0 0 0 0 0 0l4.854 4.854-4.854 4.854c-0 0-0 0-0 0-0.052 0.052-0.090 0.113-0.114 0.178-0.066 0.178-0.029 0.386 0.114 0.529l2.293 2.293c0.143 0.143 0.351 0.181 0.529 0.114 0.065-0.024 0.126-0.062 0.178-0.114 0-0 0-0 0-0l4.854-4.854 4.854 4.854c0 0 0 0 0 0 0.052 0.052 0.113 0.090 0.178 0.114 0.178 0.066 0.386 0.029 0.529-0.114l2.293-2.293c0.143-0.143 0.181-0.351 0.114-0.529-0.024-0.065-0.062-0.126-0.114-0.178z"/>
</symbol></svg>