<svg xmlns="http://www.w3.org/2000/svg"><symbol viewBox="0 0 16 16" id="icon-calendar">
<path d="M5 6h2v2h-2zM8 6h2v2h-2zM11 6h2v2h-2zM2 12h2v2h-2zM5 12h2v2h-2zM8 12h2v2h-2zM5 9h2v2h-2zM8 9h2v2h-2zM11 9h2v2h-2zM2 9h2v2h-2zM13 0v1h-2v-1h-7v1h-2v-1h-2v16h15v-16h-2zM14 15h-13v-11h13v11z"/>
</symbol><symbol viewBox="0 0 16 16" id="icon-chevron-down">
<path d="M2.5,3.2L0,5.7l8,8l8-8l-2.5-2.5L8,8.7L2.5,3.2z"/>
</symbol><symbol viewBox="0 0 16 16" id="icon-chevron-left">
<path d="M12.8,2.5L10.3,0l-8,8l8,8l2.5-2.5L7.3,8L12.8,2.5z"/>
</symbol><symbol viewBox="0 0 16 16" id="icon-chevron-right">
<path d="M3.2,13.5L5.7,16l8-8l-8-8L3.2,2.5L8.7,8L3.2,13.5z"/>
</symbol><symbol viewBox="0 0 16 16" id="icon-chevron-up">
<path d="M13.5,13.3l2.5-2.5l-8-8l-8,8l2.5,2.5L8,7.8L13.5,13.3z"/>
</symbol><symbol viewBox="0 0 16 16" id="icon-code">
<path d="M4.3,10.3l-3-2.5l3-2.5c0.2-0.2,0.2-0.5,0.1-0.7C4.2,4.5,4.1,4.4,3.9,4.4c-0.1,0-0.2,0-0.3,0.1L0.2,7.4C0.1,7.5,0,7.6,0,7.8
	s0.1,0.3,0.2,0.4l3.4,2.9c0.1,0.1,0.2,0.1,0.3,0.1c0.1,0,0.3-0.1,0.4-0.2C4.5,10.8,4.5,10.5,4.3,10.3z"/>
<path d="M16,8c0-0.1-0.1-0.3-0.2-0.4l-3.5-2.9c-0.1-0.1-0.2-0.1-0.3-0.1c-0.1,0-0.3,0.1-0.4,0.2c-0.2,0.2-0.1,0.5,0.1,0.7l3,2.5
	l-3,2.5c-0.2,0.2-0.2,0.5-0.1,0.7c0.1,0.1,0.2,0.2,0.4,0.2c0.1,0,0.2,0,0.3-0.1l3.4-2.9C15.9,8.3,16,8.1,16,8z"/>
<path d="M9.7,1.7c0,0-0.1,0-0.1,0C9.4,1.7,9.2,1.8,9.1,2L5.5,13.7c-0.1,0.3,0.1,0.5,0.3,0.6c0,0,0.1,0,0.1,0c0.2,0,0.4-0.1,0.5-0.4
	l3.6-11.7C10.1,2,10,1.8,9.7,1.7z"/>
</symbol><symbol viewBox="0 0 16 16" id="icon-codepen">
<path d="M0.3,11l7.3,4.9c0.2,0.2,0.5,0.2,0.8,0l7.3-4.9c0.2-0.1,0.3-0.3,0.3-0.6V5.6c0-0.2-0.1-0.4-0.3-0.6L8.4,0.1
	C8.1,0,7.9,0,7.6,0.1L0.3,5C0.1,5.1,0,5.3,0,5.6v4.9C0,10.7,0.1,10.9,0.3,11L0.3,11z M7.3,14l-5.4-3.6l2.4-1.6l3,2V14z M8.7,14v-3.2
	l3-2l2.4,1.6L8.7,14z M14.6,9.1L12.9,8l1.7-1.2V9.1z M8.7,2l5.4,3.6l-2.4,1.6l-3-2V2z M8,6.4L10.4,8L8,9.6L5.6,8L8,6.4z M7.3,2v3.2
	l-3,2L1.9,5.6L7.3,2z M1.4,6.8L1.4,6.8L3.1,8L1.4,9.1V6.8z"/>
</symbol><symbol viewBox="0 0 16 16" id="icon-envelop">
  <!-- Generator: Adobe Illustrator 28.7.1, SVG Export Plug-In . SVG Version: 1.2.0 Build 142)  -->
  <g>
    <g id="envelop-Calque_1">
      <g id="envelop-Calque_1-2" data-name="Calque_1">
        <g id="envelop-Calque_1-2">
          <path d="M13.615,14.359H2.289C.997,14.359.004,13.265.004,12.074V3.926C.004,2.734.997,1.641,2.289,1.641h11.426c1.192,0,2.285.994,2.285,2.285v8.147c0,1.192-.994,2.285-2.285,2.285h-.1ZM2.289,2.932c-.596,0-.994.497-.994.994v8.147c0,.596.497.994.994.994h11.426c.596,0,.994-.497.994-.994V3.926c0-.596-.497-.994-.994-.994H2.289Z"/>
          <path d="M7.952,9.39s-.199,0-.298-.099L.302,4.423c-.298-.199-.397-.596-.199-.894s.596-.397.894-.199l6.955,4.67,6.955-4.67c.298-.199.695,0,.894.199.199.298.099.695-.199.894l-7.352,4.868c-.099,0-.199.099-.298,0,0,0,0,.099,0,.099Z"/>
        </g>
        <g>
          <path d="M1.343,12.807c-.099,0-.298,0-.397-.199-.199-.199-.199-.596,0-.795l4.471-4.471c.199-.199.596-.199.795,0s.199.596,0,.795L1.74,12.607c-.099.099-.298.199-.397.199Z"/>
          <path d="M14.656,12.807c-.099,0-.298,0-.397-.199l-4.471-4.471c-.199-.199-.199-.596,0-.795s.596-.199.795,0l4.471,4.471c.199.199.199.596,0,.795s-.298.199-.397.199h0Z"/>
        </g>
      </g>
    </g>
  </g>
</symbol><symbol viewBox="0 0 16 16" id="icon-image">
<path d="M14.998 2c0.001 0.001 0.001 0.001 0.002 0.002v11.996c-0.001 0.001-0.001 0.001-0.002 0.002h-13.996c-0.001-0.001-0.001-0.001-0.002-0.002v-11.996c0.001-0.001 0.001-0.001 0.002-0.002h13.996zM15 1h-14c-0.55 0-1 0.45-1 1v12c0 0.55 0.45 1 1 1h14c0.55 0 1-0.45 1-1v-12c0-0.55-0.45-1-1-1v0z"/>
<path d="M13 4.5c0 0.828-0.672 1.5-1.5 1.5s-1.5-0.672-1.5-1.5 0.672-1.5 1.5-1.5 1.5 0.672 1.5 1.5z"/>
<path d="M14 13h-12v-2l3.5-6 4 5h1l3.5-3z"/>
</symbol><symbol viewBox="0 0 16 16" id="icon-linkedin">
<path d="M6 6h2.767v1.418h0.040c0.385-0.691 1.327-1.418 2.732-1.418 2.921 0 3.461 1.818 3.461 4.183v4.817h-2.885v-4.27c0-1.018-0.021-2.329-1.5-2.329-1.502 0-1.732 1.109-1.732 2.255v4.344h-2.883v-9z"/>
<path d="M1 6h3v9h-3v-9z"/>
<path d="M4 3.5c0 0.828-0.672 1.5-1.5 1.5s-1.5-0.672-1.5-1.5c0-0.828 0.672-1.5 1.5-1.5s1.5 0.672 1.5 1.5z"/>
</symbol><symbol viewBox="0 0 16 16" id="icon-mastodon">
<path d="M15.5,5.3c0-3.5-2.3-4.5-2.3-4.5C12,0.2,10.1,0,8,0H8c-2,0-4,0.2-5.2,0.8c0,0-2.3,1-2.3,4.5c0,0.8,0,1.7,0,2.8
	c0.1,3.4,0.6,6.7,3.8,7.6C5.8,16,7,16,8,16c1.8-0.1,2.8-0.6,2.8-0.6L10.8,14c0,0-1.3,0.4-2.8,0.4c-1.4,0-3-0.2-3.2-1.9
	c0-0.2,0-0.3,0-0.5c0,0,1.4,0.3,3.2,0.4c1.1,0.1,2.1-0.1,3.2-0.2c2-0.2,3.8-1.5,4-2.6C15.5,7.8,15.5,5.3,15.5,5.3z M12.8,9.7h-1.7
	V5.6c0-0.9-0.4-1.3-1.1-1.3c-0.8,0-1.2,0.5-1.2,1.5v2.2H7.2V5.9c0-1-0.4-1.5-1.2-1.5c-0.7,0-1.1,0.4-1.1,1.3v4.1H3.2V5.5
	c0-0.9,0.2-1.5,0.7-2c0.5-0.5,1-0.8,1.8-0.8c0.9,0,1.5,0.3,1.9,1L8,4.4l0.4-0.7c0.4-0.7,1.1-1,1.9-1c0.7,0,1.3,0.3,1.8,0.8
	c0.4,0.5,0.7,1.2,0.7,2V9.7z"/>
</symbol><symbol viewBox="0 0 16 16" id="icon-new-tab">
<path d="M3 1v12h12v-12h-12zM14 12h-10v-10h10v10zM2 14v-10.5l-1-1v12.5h12.5l-1-1h-10.5z"/>
<path d="M5.5 4l2.5 2.5-3 3 1.5 1.5 3-3 2.5 2.5v-6.5z"/>
</symbol><symbol viewBox="0 0 16 16" id="icon-pin">
<path d="M8 0c-2.761 0-5 2.239-5 5 0 5 5 11 5 11s5-6 5-11c0-2.761-2.239-5-5-5zM8 8c-1.657 0-3-1.343-3-3s1.343-3 3-3 3 1.343 3 3-1.343 3-3 3z"/>
</symbol><symbol viewBox="0 0 16 16" id="icon-search">
<path d="M15.504 13.616l-3.79-3.223c-0.392-0.353-0.811-0.514-1.149-0.499 0.895-1.048 1.435-2.407 1.435-3.893 0-3.314-2.686-6-6-6s-6 2.686-6 6 2.686 6 6 6c1.486 0 2.845-0.54 3.893-1.435-0.016 0.338 0.146 0.757 0.499 1.149l3.223 3.79c0.552 0.613 1.453 0.665 2.003 0.115s0.498-1.452-0.115-2.003zM6 10c-2.209 0-4-1.791-4-4s1.791-4 4-4 4 1.791 4 4-1.791 4-4 4z"/>
</symbol><symbol viewBox="0 0 16 16" id="icon-sparkles">
  <!-- Generator: Adobe Illustrator 28.7.1, SVG Export Plug-In . SVG Version: 1.2.0 Build 142)  -->
  <g>
    <g id="sparkles-Calque_1">
      <path d="M13.699,15.562c-.302,0-.548-.246-.548-.548,0-.664-.541-1.205-1.205-1.205-.302,0-.548-.246-.548-.548s.246-.548.548-.548c.664,0,1.205-.541,1.205-1.205,0-.302.246-.548.548-.548s.548.246.548.548c0,.664.541,1.205,1.205,1.205.302,0,.548.246.548.548s-.246.548-.548.548c-.664,0-1.205.541-1.205,1.205,0,.302-.246.548-.548.548ZM13.434,13.26c.095.08.184.17.265.265.08-.095.17-.184.265-.265-.095-.08-.184-.17-.265-.265-.08.095-.17.184-.265.265ZM5.808,13.808c-.303,0-.548-.246-.548-.548,0-2.598-2.114-4.712-4.712-4.712-.303,0-.548-.245-.548-.548s.245-.548.548-.548c2.598,0,4.712-2.114,4.712-4.712,0-.303.245-.548.548-.548s.548.245.548.548c0,2.598,2.114,4.712,4.712,4.712.302,0,.548.245.548.548s-.246.548-.548.548c-2.598,0-4.712,2.114-4.712,4.712,0,.302-.245.548-.548.548ZM3.01,8c1.227.577,2.222,1.571,2.798,2.798.577-1.227,1.571-2.221,2.798-2.798-1.227-.577-2.222-1.571-2.798-2.798-.577,1.227-1.571,2.222-2.798,2.798ZM13.699,5.041c-.302,0-.548-.245-.548-.548,0-.665-.541-1.205-1.205-1.205-.302,0-.548-.245-.548-.548s.246-.548.548-.548c.664,0,1.205-.541,1.205-1.205,0-.303.246-.548.548-.548s.548.245.548.548c0,.665.541,1.205,1.205,1.205.302,0,.548.245.548.548s-.246.548-.548.548c-.664,0-1.205.541-1.205,1.205,0,.303-.246.548-.548.548ZM13.434,2.74c.095.081.184.17.265.265.08-.095.17-.184.265-.265-.095-.081-.184-.17-.265-.265-.08.095-.17.184-.265.265Z"/>
    </g>
  </g>
</symbol><symbol viewBox="0 0 16 16" id="icon-twitter">
<path d="M16 3.538c-0.588 0.263-1.222 0.438-1.884 0.516 0.678-0.406 1.197-1.050 1.444-1.816-0.634 0.375-1.338 0.65-2.084 0.797-0.6-0.638-1.453-1.034-2.397-1.034-1.813 0-3.281 1.469-3.281 3.281 0 0.256 0.028 0.506 0.084 0.747-2.728-0.138-5.147-1.444-6.766-3.431-0.281 0.484-0.444 1.050-0.444 1.65 0 1.138 0.578 2.144 1.459 2.731-0.538-0.016-1.044-0.166-1.488-0.409 0 0.013 0 0.028 0 0.041 0 1.591 1.131 2.919 2.634 3.219-0.275 0.075-0.566 0.116-0.866 0.116-0.212 0-0.416-0.022-0.619-0.059 0.419 1.303 1.631 2.253 3.066 2.281-1.125 0.881-2.538 1.406-4.078 1.406-0.266 0-0.525-0.016-0.784-0.047 1.456 0.934 3.181 1.475 5.034 1.475 6.037 0 9.341-5.003 9.341-9.341 0-0.144-0.003-0.284-0.009-0.425 0.641-0.459 1.197-1.038 1.637-1.697z"/>
</symbol><symbol viewBox="0 0 16 16" id="icon-user">
  <g>
    <g> 
      <path d="M8,7.795c-2.149,0-3.897-1.748-3.897-3.897s1.748-3.897,3.897-3.897,3.897,1.748,3.897,3.897-1.748,3.897-3.897,3.897ZM8,1.231c-1.47,0-2.667,1.196-2.667,2.667s1.196,2.667,2.667,2.667,2.667-1.196,2.667-2.667-1.196-2.667-2.667-2.667Z"/>
      <path d="M12.923,16c-.34,0-.615-.276-.615-.615v-1.641c0-1.47-1.196-2.667-2.667-2.667h-3.282c-1.47,0-2.667,1.196-2.667,2.667v1.641c0,.34-.276.615-.615.615s-.615-.276-.615-.615v-1.641c0-2.149,1.748-3.897,3.897-3.897h3.282c2.149,0,3.897,1.748,3.897,3.897v1.641c0,.34-.276.615-.615.615Z"/>
    </g>
  </g>
</symbol><symbol viewBox="0 0 16 16" id="icon-x">
<path d="M15.854 12.854c-0-0-0-0-0-0l-4.854-4.854 4.854-4.854c0-0 0-0 0-0 0.052-0.052 0.090-0.113 0.114-0.178 0.066-0.178 0.028-0.386-0.114-0.529l-2.293-2.293c-0.143-0.143-0.351-0.181-0.529-0.114-0.065 0.024-0.126 0.062-0.178 0.114 0 0-0 0-0 0l-4.854 4.854-4.854-4.854c-0-0-0-0-0-0-0.052-0.052-0.113-0.090-0.178-0.114-0.178-0.066-0.386-0.029-0.529 0.114l-2.293 2.293c-0.143 0.143-0.181 0.351-0.114 0.529 0.024 0.065 0.062 0.126 0.114 0.178 0 0 0 0 0 0l4.854 4.854-4.854 4.854c-0 0-0 0-0 0-0.052 0.052-0.090 0.113-0.114 0.178-0.066 0.178-0.029 0.386 0.114 0.529l2.293 2.293c0.143 0.143 0.351 0.181 0.529 0.114 0.065-0.024 0.126-0.062 0.178-0.114 0-0 0-0 0-0l4.854-4.854 4.854 4.854c0 0 0 0 0 0 0.052 0.052 0.113 0.090 0.178 0.114 0.178 0.066 0.386 0.029 0.529-0.114l2.293-2.293c0.143-0.143 0.181-0.351 0.114-0.529-0.024-0.065-0.062-0.126-0.114-0.178z"/>
</symbol></svg>