<?xml version="1.0" encoding="UTF-8"?>
<svg xmlns="http://www.w3.org/2000/svg" version="1.1" viewBox="0 0 100 100">
  <defs>
    <style>
      .cls-1 {
        fill: #e4d8cb;
      }

      .cls-2, .cls-3 {
        fill: #6c9ebf;
      }

      .cls-4 {
        fill: #d7c5b2;
      }

      .cls-5 {
        fill: #b5cede;
      }

      .cls-3 {
        isolation: isolate;
        opacity: .5;
      }
    </style>
  </defs>
  <!-- Generator: Adobe Illustrator 28.7.1, SVG Export Plug-In . SVG Version: 1.2.0 Build 142)  -->
  <g>
    <g id="Calque_1">
      <g>
        <path class="cls-4" d="M56.574,92.503c-.017,3.881-3.176,7.014-7.056,6.997-3.881-.017-7.014-3.176-6.997-7.056s3.176-7.014,7.056-6.997h.028c3.873.024,6.992,3.183,6.969,7.055h0Z"/>
        <path class="cls-1" d="M41.135,92.781c-4.622-2.711-4.578-7.071.087-9.71,5.301-2.649,11.55-2.6,16.808.131,4.622,2.711,4.592,7.056-.073,9.71-5.309,2.635-11.556,2.586-16.823-.131Z"/>
        <path class="cls-4" d="M40.902,90.243c-4.767-2.799-4.738-7.289,0-10,5.465-2.737,11.911-2.688,17.333.131,4.767,2.799,4.738,7.289-.073,10-5.448,2.698-11.853,2.649-17.26-.131Z"/>
        <path class="cls-1" d="M40.655,87.634c-4.913-2.916-4.869-7.508.087-10.321,5.635-2.804,12.27-2.75,17.858.145,4.913,2.916,4.883,7.493-.073,10.307-5.638,2.808-12.277,2.76-17.873-.131Z"/>
        <path class="cls-4" d="M40.406,84.937c-5.074-2.916-5.03-7.727.073-10.627,5.812-2.899,12.661-2.845,18.427.145,5.058,2.916,5.014,7.727-.087,10.627-5.812,2.88-12.647,2.826-18.412-.145h-.001Z"/>
        <path class="cls-1" d="M40.231,82.109c-5.161-3.033-5.131-7.886.087-10.846,5.929-2.949,12.908-2.895,18.791.145,5.161,3.033,5.131,7.886-.087,10.846-5.928,2.957-12.911,2.902-18.791-.145Z"/>
        <path class="cls-5" style="opacity:0.5" d="M50.247.501C31.797.372,16.731,15.216,16.587,33.666c-.189,26.518,21.649,31.081,21.576,41.781.175,2.063,1.453,3.87,3.339,4.724,5.102,2.636,11.155,2.685,16.299.131,1.898-.83,3.201-2.618,3.411-4.68.087-10.7,21.998-14.929,22.202-41.461C83.544,15.711,68.699.645,50.249.501h-.001Z"/>
        <path class="cls-3" d="M43.527,78.741c-3.367-1.983-3.339-5.146,0-7.085,3.869-1.921,8.423-1.884,12.26.102,3.367,1.983,3.339,5.146,0,7.071-3.865,1.933-8.423,1.9-12.26-.088Z"/>
        <path class="cls-2" d="M54.154,74.455c-.619-.008-1.122-.503-1.137-1.122.072-6.432.908-12.834,2.492-19.068.446-1.801,1.017-3.569,1.706-5.292-1.02-.383-1.997-.872-2.916-1.458-1.635-1.031-3.11-2.298-4.374-3.761-1.293,1.446-2.797,2.691-4.461,3.688-.916.589-1.894,1.078-2.916,1.458.676,1.719,1.231,3.482,1.662,5.277,1.482,6.262,2.221,12.677,2.202,19.112,0,.628-.511,1.136-1.139,1.135-.627,0-1.134-.508-1.135-1.135.013-6.233-.701-12.446-2.128-18.515-.421-1.808-.977-3.581-1.662-5.306-2.283.443-4.637-.266-6.297-1.895-1.276-1.238-1.468-3.219-.452-4.68.677-1.011,1.895-1.518,3.091-1.283,1.794.38,3.513,2.216,4.986,5.233.925-.314,1.81-.735,2.639-1.253,1.616-.982,3.059-2.223,4.272-3.674-1.385-1.819-1.964-4.127-1.603-6.385.526-1.683,2.317-2.62,4-2.093.998.313,1.781,1.095,2.093,2.093.327,2.263-.29,4.561-1.706,6.356,1.194,1.446,2.617,2.688,4.213,3.674.817.535,1.698.966,2.624,1.283,1.458-2.916,3.266-4.796,5.058-5.146,1.198-.207,2.405.313,3.077,1.327.989,1.475.767,3.447-.525,4.664-1.691,1.603-4.06,2.277-6.341,1.808-.701,1.715-1.276,3.479-1.72,5.277-1.525,6.046-2.338,12.25-2.42,18.485.008.628-.494,1.144-1.122,1.152l-.058.044h-.003ZM36.047,43.754c-.189,0-.408,0-.656.408-.337.6-.21,1.352.306,1.808.966.923,2.287,1.376,3.616,1.239-1.195-2.23-2.361-3.295-3.105-3.441,0,0-.161-.014-.161-.014ZM60.481,47.31c1.328.152,2.658-.278,3.644-1.181.205-.233.875-1.035.32-1.808-.306-.437-.583-.452-.802-.408-.758.205-1.939,1.239-3.164,3.397h.001ZM50.043,35.649c-.405-.071-.794.194-.875.598-.174,1.301.127,2.62.845,3.717.735-1.086,1.05-2.401.889-3.703-.067-.405-.449-.679-.854-.614h-.006.001Z"/>
      </g>
    </g>
  </g>
</svg>