<svg xmlns="http://www.w3.org/2000/svg" viewBox="0 0 100 100"><defs><style>.c1{fill:#ebebeb}.c2{fill:#d7c5b2}.c6{fill:#e4d8cb}</style></defs><g><g><g><g><path class="c2" d="M55.085 94.099c-.013 3.016-2.468 5.451-5.484 5.438-3.016-.013-5.451-2.468-5.438-5.484.013-3.016 2.468-5.451 5.484-5.438h.022c3.01.019 5.434 2.474 5.416 5.483Z"/><path class="c6" d="M43.086 94.315c-3.592-2.107-3.558-5.495.068-7.546 4.12-2.059 8.976-2.021 13.063.102 3.592 2.107 3.569 5.484-.057 7.546-4.126 2.048-8.981 2.01-13.074-.102Z"/><path class="c2" d="M42.905 92.343c-3.705-2.175-3.682-5.665 0-7.772 4.247-2.127 9.257-2.089 13.471.102 3.705 2.175 3.682 5.665-.057 7.772-4.234 2.097-9.212 2.059-13.414-.102Z"/><path class="c6" d="M42.713 90.315c-3.818-2.266-3.784-5.835.068-8.021 4.379-2.179 9.536-2.137 13.879.113 3.818 2.266 3.795 5.823-.057 8.01-4.382 2.182-9.541 2.145-13.89-.102Z"/><path class="c2" d="M42.52 88.219c-3.943-2.266-3.909-6.005.057-8.259 4.517-2.253 9.84-2.211 14.321.113 3.931 2.266 3.897 6.005-.068 8.259-4.517 2.238-9.829 2.196-14.309-.113Z"/><path class="c6" d="M42.384 86.021c-4.011-2.357-3.988-6.129.068-8.429 4.608-2.292 10.032-2.25 14.604.113 4.011 2.357 3.988 6.129-.068 8.429-4.607 2.298-10.034 2.255-14.604-.113Z"/><path d="M50.168 22.598c-14.339-.1-26.048 11.436-26.16 25.775-.147 20.609 16.825 24.155 16.768 32.471.136 1.603 1.129 3.008 2.595 3.671 3.965 2.049 8.669 2.087 12.667.102 1.475-.645 2.488-2.035 2.651-3.637.068-8.316 17.096-11.602 17.255-32.222.101-14.339-11.436-26.048-25.775-26.16Z" fill="#b5cede"/><path fill="#6c9ebf" d="M44.945 83.404c-2.617-1.541-2.595-3.999 0-5.506 3.007-1.493 6.546-1.464 9.528.079 2.617 1.541 2.595 3.999 0 5.495-3.004 1.502-6.546 1.477-9.528-.068Z" opacity=".5"/><path d="M53.204 80.073c-.481-.006-.872-.391-.884-.872.056-4.999.706-9.974 1.937-14.819.347-1.4.79-2.774 1.326-4.113-.793-.298-1.552-.678-2.266-1.133-1.271-.801-2.417-1.786-3.399-2.923-1.005 1.124-2.174 2.091-3.467 2.866-.712.458-1.472.838-2.266 1.133.525 1.336.957 2.706 1.292 4.101 1.152 4.867 1.726 9.852 1.711 14.853 0 .488-.397.883-.885.882-.487 0-.881-.395-.882-.882.01-4.844-.545-9.673-1.654-14.389-.327-1.405-.759-2.783-1.292-4.124-1.774.344-3.604-.207-4.894-1.473-.992-.962-1.141-2.502-.351-3.637.526-.786 1.473-1.18 2.402-.997 1.394.295 2.73 1.722 3.875 4.067.719-.244 1.407-.571 2.051-.974 1.256-.763 2.377-1.728 3.32-2.855-1.076-1.414-1.526-3.207-1.246-4.962.409-1.308 1.801-2.036 3.109-1.627.776.243 1.384.851 1.627 1.627.254 1.759-.225 3.545-1.326 4.94.928 1.124 2.034 2.089 3.274 2.855.635.416 1.32.751 2.039.997 1.133-2.266 2.538-3.727 3.931-3.999.931-.161 1.869.243 2.391 1.031.769 1.146.596 2.679-.408 3.625-1.314 1.246-3.155 1.77-4.928 1.405-.545 1.333-.992 2.704-1.337 4.101-1.185 4.699-1.817 9.52-1.881 14.366.006.488-.384.889-.872.895l-.045.034Zm-14.072-23.86c-.147 0-.317 0-.51.317-.262.466-.163 1.051.238 1.405.751.717 1.777 1.069 2.81.963-.929-1.733-1.835-2.561-2.413-2.674l-.125-.011Zm18.989 2.764c1.032.118 2.066-.216 2.832-.918.159-.181.68-.804.249-1.405-.238-.34-.453-.351-.623-.317-.589.159-1.507.963-2.459 2.64Zm-8.112-9.063c-.315-.055-.617.151-.68.465-.135 1.011.099 2.036.657 2.889.571-.844.816-1.866.691-2.878-.052-.315-.349-.528-.664-.477h-.005Z" fill="#6c9ebf"/></g><path class="c1" d="M50.405 12.707c-.147.045-.3.068-.453.068-.932 0-1.688-.756-1.688-1.688v-8.86c-.007-.926.738-1.682 1.664-1.689.027 0 .054 0 .081.001.939 0 1.699.761 1.699 1.699v8.837c-.006.779-.544 1.454-1.303 1.631ZM31.53 17.749c-.744.196-1.527-.128-1.915-.793l-4.419-7.659c-.469-.813-.19-1.853.623-2.323.813-.469 1.853-.19 2.323.623l4.407 7.659c.472.804.202 1.838-.602 2.31l-.021.012c-.127.068-.26.125-.397.17ZM17.708 31.537c-.44.12-.909.059-1.303-.17l-7.648-4.43c-.842-.414-1.19-1.432-.776-2.275.414-.842 1.432-1.19 2.275-.776.069.034.137.073.201.116l7.648 4.385c.813.469 1.093 1.508.624 2.321v.002c-.219.399-.585.696-1.021.827ZM12.621 50.401c-.151.017-.303.017-.453 0H3.331c-.939 0-1.699-.761-1.699-1.699s.761-1.699 1.699-1.699h8.837c.939.012 1.689.783 1.677 1.721-.01.747-.506 1.4-1.224 1.609v.068ZM96.936 50.503c-.151.017-.303.017-.453 0h-8.837c-.939 0-1.699-.761-1.699-1.699s.761-1.699 1.699-1.699h8.814c.939-.125 1.801.534 1.926 1.473.125.939-.534 1.801-1.473 1.926h.023ZM83.058 31.616c-.9.265-1.845-.25-2.11-1.151-.222-.754.103-1.562.784-1.954l7.659-4.419c.813-.469 1.853-.19 2.323.623s.19 1.853-.623 2.323l-7.67 4.407c-.112.074-.234.132-.363.17ZM69.269 17.783c-.434.123-.9.066-1.292-.159-.781-.467-1.055-1.466-.623-2.266l4.43-7.648c.469-.813 1.509-1.092 2.323-.623.813.469 1.092 1.509.623 2.323l-4.441 7.648c-.234.363-.599.623-1.02.725Z"/></g></g></g></svg>

