<?xml version="1.0" encoding="UTF-8"?>
<svg xmlns="http://www.w3.org/2000/svg" xmlns:xlink="http://www.w3.org/1999/xlink" version="1.1" viewBox="0 0 100 100">
  <defs> 
    <style>
      .cls-1 {
        fill: none;
      }

      .cls-2 {
        opacity: .1;
      }

      .cls-2, .cls-3, .cls-4 {
        isolation: isolate;
      }

      .cls-3 {
        opacity: .2;
      }

      .cls-5 {
        fill: #f1ebe5;
      }

      .cls-6 {
        fill: #d7c5b2;
      }

      .cls-7 {
        fill: #b5cede;
      }

      .cls-8 {
        clip-path: url(#clippath-1);
      }

      .cls-9 {
        fill: #e4d8cb;
      }

      .cls-10 {
        clip-path: url(#clippath);
      }

      .cls-4 {
        fill: #fff;
        opacity: .3;
      }
    </style>
    <clipPath id="clippath">
      <path class="cls-1" d="M23.199,64.315l-7.145-4.119.027-29.256c.026-1.164.304-2.308.815-3.354.607-1.281,1.499-2.385,2.496-2.962l21.877-12.599,7.138,4.119v8.6l2.945,1.701c.319.184.745-.064,1.275-.369.82-.499,1.554-1.129,2.17-1.865.437-.485.9-.946,1.385-1.382l3.049,1.758c.024.012.046.027.067.044.007-.004.016-.004.023,0,.027.015.052.035.074.057.108.095.199.209.268.335.025.034.046.071.06.111.017.029.03.059.04.091.057.132.1.271.127.413.002.022.002.045,0,.067,0,.084.027.178.037.272s0,.191,0,.292c.005.094.005.188,0,.282,0,.101-.017.198-.03.292s-.03.195-.047.292-.03.148-.05.221c-.012.053-.026.106-.044.158-.104.379-.25.744-.436,1.09-.33.685-.843,1.266-1.483,1.677-.086.048-.174.09-.265.127h-.017c-.601.316-1.267.489-1.945.506-.215,0-.433.034-.671.067l-.245.037c-.586.117-1.152.321-1.677.607-.064.03-.124.06-.181.094l-.191.107c-.396.228-.773.487-1.127.775l-.034.034c-.168.138-.335.282-.463.416l-.027.027c-.326.327-.621.683-.882,1.063-.122.169-.234.345-.335.527l-.067.114c-.087.161-.164.335-.242.483v.027c-.02.037-.037.077-.054.111-.07.174-.148.352-.215.533l-.03.091c-.074.215-.148.433-.205.644,0,.03-.017.057-.017.067-.047.188-.097.376-.138.57,0,.057-.023.117-.037.174v.047c-.03.141-.05.285-.077.433,0,.084-.03.174-.044.265s-.037.268-.05.406v.067c-.014.071-.023.143-.027.215,0,.141-.03.285-.044.436v.285l-.077,2.348v7.715l-2.013,1.167-.641.372-1.265.721-1.841,1.067c-1.281.741-2.167,1.117-2.717,1.161-.085.01-.17.01-.255,0-.057-.012-.113-.033-.164-.06l-2.626-1.536c-.001-.011-.001-.022,0-.034.03-.335.07-.671.117-.973.03-.195.064-.382.101-.557.097-.55.221-1.043.335-1.513.26-.933.414-1.893.46-2.861v-.047c0-.158,0-.262.017-.359,0-.748-.221-1.325-.617-1.623-.019-.015-.039-.028-.06-.04l-.054-.03-2.935-1.694c-.813.901-1.469,1.933-1.939,3.052-.064.154-.127.309-.184.456s-.117.312-.168.47l-.023.067c-.054.158-.101.315-.148.473s-.087.319-.124.476-.05.218-.074.335-.044.218-.057.335c-.041.222-.07.446-.087.671-.017.121-.027.245-.034.366s-.017.312-.017.463v.299c0,.097,0,.184.02.268,0,.144,0,.278.023.409.018.304.052.606.104.906,0,.121.037.238.06.335.107.503.245.998.416,1.483.205.54.343,1.104.413,1.677v.184c.02.248.03.493.03.748,0,1.654,0,2.566-3.515,4.595l-5.796,3.388Z"/>
    </clipPath>
    <clipPath id="clippath-1">
      <path class="cls-1" d="M41.265,76.575c.07-.04.151-.097.238-.158.734-.495,1.397-1.088,1.972-1.761.299-.335.564-.604.865-.896l.047-.047.087-.084.04-.04c.151-.141.299-.272.446-.399l2.781,1.66c.057.035.107.081.148.134.024.028.045.059.064.091v.02c.018.03.033.062.047.094v.03l.04.104v.04c.014.037.027.075.037.114v.05c0,.017.023.091.037.141v.044c0,.06.023.124.037.195,0,.077.023.158.037.242v.02l.03.242v.08l.02.208v.107c0,.034,0,.138.017.211s0,.084,0,.127v9.311l27.505-15.886v-4.337c.002-.026.002-.051,0-.077v-32.288l-5.769,3.331-.107.064-.067.04-1.137.704c-.455.301-.893.628-1.312.979l-.027.023-.07.057c-.104.087-.201.178-.299.268l-.027.027-.124.121c-.091.087-.178.174-.265.265l-.164.178c-.08.091-.161.181-.238.275s-.101.124-.158.201-.151.195-.221.292l-.121.178-.027.047-.034.047c-.057.087-.114.174-.164.262s-.077.131-.111.201l-.03.05c-.101.188-.201.386-.288.587l-.023.05c-.037.084-.077.168-.111.255s-.067.178-.097.268l-.023.067c-.037.104-.074.205-.104.312s-.064.218-.094.335-.057.228-.084.335-.047.221-.067.335-.044.242-.06.366v.023c0,.101-.03.201-.044.305s-.027.268-.04.413v.081c0,.077,0,.154-.017.231v.738c-.026,1.236.178,2.465.604,3.626.281.752.438,1.545.463,2.348v.037c0,.111.017.215.017.309-.016.821-.228,1.626-.617,2.348-.331.685-.846,1.266-1.486,1.677-.101.057-.207.106-.315.148l-.054.02c-.096.033-.195.055-.295.067h-.054c-.095.01-.19.01-.285,0h-.02c-.095-.015-.188-.045-.275-.087l-.027-.017-2.901-1.704c0-.087,0-.171.023-.258s.023-.201.037-.302c.027-.208.054-.409.087-.604s.06-.356.094-.527c.02-.091.037-.178.054-.262.08-.372.164-.745.262-1.144.29-1.024.443-2.082.456-3.146,0-1.006-.087-1.459-.359-1.62l-3.307-1.909-5.615,3.237-2.311-1.342v2.683l-2.013,1.171-.644.369,2.683,1.543v7.695c0,2.16-.164,3.602-.5,4.408-.235.553-.594.902-1.422,1.382-.651.402-1.398.623-2.164.641-.235,0-.47.044-.694.074l-.275.047c-.084.017-.171.034-.262.057-.168.04-.333.088-.496.144h-.034l-.101.034c-.253.097-.501.209-.741.335l-.091.044h-.06c-.104.045-.206.095-.305.151-.993.618-1.835,1.45-2.465,2.435-.161.235-.312.48-.456.731l-.057.111c-.124.221-.242.446-.335.671l-.023.054c-.24.516-.444,1.049-.61,1.593-.151.491-.263.994-.335,1.503l2.938,1.697c.422.208.922.18,1.318-.074Z"/>
    </clipPath>
  </defs>
  <!-- Generator: Adobe Illustrator 28.7.1, SVG Export Plug-In . SVG Version: 1.2.0 Build 142)  -->
  <g>
    <g id="Calque_6">
      <g>
        <path class="cls-7" d="M48.816,67.377l-7.141-4.122.158-.218.017-.02.077-.111c.114-.168.221-.335.335-.513l.03-.054c.104-.184.205-.386.302-.597.02-.05.044-.101.064-.154v-.034c.05-.121.111-.265.168-.426.027-.07.05-.141.077-.218v-.044c.04-.121.081-.242.114-.366s.057-.198.084-.302.054-.225.084-.335.047-.221.067-.335.044-.211.06-.315v-.05c.02-.101.037-.208.054-.315s.017-.124.027-.184v-.067c.074-.537.117-1.1.154-1.711v-.067l.037-1.647v-7.832l7.114,4.166h0v7.836l-.037,1.65v.064c-.03.61-.077,1.174-.148,1.707v.07c0,.064-.017.124-.027.188s-.03.211-.05.312v.047c-.017.111-.037.211-.057.319s-.047.218-.074.335-.05.228-.077.335-.057.205-.084.302-.074.245-.117.362v.05c-.023.07-.05.148-.077.218-.054.154-.117.302-.168.426l-.017.03-.06.154c-.097.208-.198.409-.302.6l-.03.054c-.097.168-.205.335-.319.513-.024.037-.051.072-.081.104v.023l-.158.171Z"/>
        <path class="cls-7" d="M43.587,80.999l.02-6.467-.101.104c.295-.335.567-.607.862-.896l.05-.047.087-.084.06-.034c.564-.543,1.19-1.018,1.865-1.416h0l.074-.037h.017l.05-.03h0c.161-.091.335-.171.48-.248.044-.023.091-.04.134-.06l.047-.023c.107-.04.221-.091.335-.127.06-.027.117-.04.171-.06h.027c.097-.023.191-.05.278-.067s.134-.027.198-.034c.083-.007.166-.007.248,0,.063-.003.125-.003.188,0,.074.006.146.019.218.037h.03l.138.034c.07.025.137.056.201.094.072.035.14.077.205.124.078.055.151.117.218.184.038.04.074.083.107.127l.023.034.02.023c.035.044.067.09.097.138.043.064.081.132.114.201.034.064.064.121.091.184s.067.161.101.248.044.127.064.195.057.188.084.288l.04.168v.027c.023.111.05.225.07.335v.138c.074.473.127,1.006.164,1.634v.027l.037,1.496v7.943l-7.114-4.153Z"/>
        <path class="cls-7" d="M39.81,76.635l-7.02-4.065c-.466-.248-.738-.899-.738-1.761.03-1.022.351-2.015.926-2.861l.134-.188c-.034.054-.074.107-.107.158l7.138,4.122c-.019.023-.035.048-.05.074-.577.844-.898,1.836-.926,2.858,0,.808.248,1.385.644,1.664Z"/>
        <path class="cls-6" d="M48.816,67.377l-7.141-4.122.158-.218.017-.02.077-.111c.114-.168.221-.335.335-.513l.03-.054c.104-.184.205-.386.302-.597.02-.05.044-.101.064-.154v-.034c.05-.121.111-.265.168-.426.027-.07.05-.141.077-.218v-.044c.04-.121.081-.242.114-.366s.057-.198.084-.302.054-.225.084-.335.047-.221.067-.335.044-.211.06-.315v-.05c.02-.101.037-.208.054-.315s.017-.124.027-.184v-.067c.074-.537.117-1.1.154-1.711v-.067l.037-1.647v-7.832l7.114,4.166h0v7.836l-.037,1.65v.064c-.03.61-.077,1.174-.148,1.707v.07c0,.064-.017.124-.027.188s-.03.211-.05.312v.047c-.017.111-.037.211-.057.319s-.047.218-.074.335-.05.228-.077.335-.057.205-.084.302-.074.245-.117.362v.05c-.023.07-.05.148-.077.218-.054.154-.117.302-.168.426l-.017.03-.06.154c-.097.208-.198.409-.302.6l-.03.054c-.097.168-.205.335-.319.513-.024.037-.051.072-.081.104v.023l-.158.171Z"/>
        <path class="cls-6" d="M43.587,80.999l.02-6.467-.101.104c.295-.335.567-.607.862-.896l.05-.047.087-.084.06-.034c.564-.543,1.19-1.018,1.865-1.416h0l.074-.037h.017l.05-.03h0c.161-.091.335-.171.48-.248.044-.023.091-.04.134-.06l.047-.023c.107-.04.221-.091.335-.127.06-.027.117-.04.171-.06h.027c.097-.023.191-.05.278-.067s.134-.027.198-.034c.083-.007.166-.007.248,0,.063-.003.125-.003.188,0,.074.006.146.019.218.037h.03l.138.034c.07.025.137.056.201.094.072.035.14.077.205.124.078.055.151.117.218.184.038.04.074.083.107.127l.023.034.02.023c.035.044.067.09.097.138.043.064.081.132.114.201.034.064.064.121.091.184s.067.161.101.248.044.127.064.195.057.188.084.288l.04.168v.027c.023.111.05.225.07.335v.138c.074.473.127,1.006.164,1.634v.027l.037,1.496v7.943l-7.114-4.153Z"/>
        <path class="cls-6" d="M39.81,76.635l-7.02-4.065c-.466-.248-.738-.899-.738-1.761.03-1.022.351-2.015.926-2.861l.134-.188c-.034.054-.074.107-.107.158l7.138,4.122c-.019.023-.035.048-.05.074-.577.844-.898,1.836-.926,2.858,0,.808.248,1.385.644,1.664Z"/>
        <path class="cls-5" d="M39.87,76.659h0l-.047-.027c-.396-.278-.644-.855-.644-1.65.027-1.022.349-2.014.926-2.858.015-.026.032-.051.05-.074l-7.138-4.122c.034-.05.074-.104.107-.158.091-.117.184-.228.282-.335.045-.053.094-.103.144-.151.049-.055.103-.105.161-.151.138-.128.29-.241.453-.335h0c.06-.035.121-.066.184-.094l.081-.034h.02c.297-.158.611-.281.936-.366l.114-.027c.294-.06.592-.099.892-.117,1.056-.037,2.085-.35,2.982-.909l.235-.144c.07-.04.134-.084.201-.131s.104-.064.154-.097h.02l.248-.181.235-.184.044-.034.037-.034.027-.023.101-.087c.03-.027.067-.054.097-.084s.121-.107.181-.168l.084-.084.037-.04.148-.154c.06-.064.121-.131.178-.198l.023-.027.097-.114c.044-.06.097-.121.141-.184l7.145,4.126.127-.174v-.023c.03-.032.057-.067.081-.104.114-.174.221-.335.319-.513l.03-.054c.104-.191.205-.392.302-.6l.06-.154.017-.03c.05-.124.114-.272.168-.426.027-.07.054-.148.077-.218v-.05c.044-.117.081-.238.117-.362s.054-.198.084-.302.054-.225.077-.335.05-.218.074-.335.04-.208.057-.319v-.047c.02-.101.034-.205.05-.312s.017-.124.027-.188v-.07c.07-.533.117-1.097.148-1.707v-.064l.037-1.65v-7.859h0l-7.114-4.166,2.918-1.677,1.506-.869,1.342-.778.523-.295c.138-.067.262-.141.389-.201.445-.244.915-.44,1.402-.584l.148-.037c.151-.036.308-.047.463-.034.087,0,.134.077.201.117l7.198,4.092c.14.091.237.235.268.399,0,.057.03.124.044.195s.02.151.03.238v.795c0,.319,0,.607-.04.882v.205c0,.067,0,.131-.023.198s0,.127-.03.195-.017.127-.027.191c-.023.124-.044.245-.067.372s-.054.245-.077.366c-.003.009-.003.018,0,.027.577-1.291.889-2.685.916-4.099,0-.198,0-.396-.02-.564-.034-1.076-.24-2.139-.61-3.15-.319-.837-.475-1.727-.46-2.623,0-1.657,0-2.569,3.515-4.592l5.739-3.287,7.138,4.122v29.202c0,2.432-1.483,5.266-3.304,6.319l-21.903,12.646v-7.936l-.037-1.496v-.027c-.037-.621-.091-1.161-.164-1.634v-.138c-.02-.121-.047-.235-.07-.335v-.027l-.04-.168c-.027-.101-.05-.195-.084-.288s-.04-.131-.064-.195-.064-.171-.101-.248-.057-.121-.091-.184c-.033-.07-.071-.137-.114-.201-.03-.047-.062-.093-.097-.138l-.02-.023-.023-.034c-.033-.045-.069-.087-.107-.127-.067-.067-.14-.129-.218-.184-.064-.048-.133-.089-.205-.124-.064-.038-.131-.069-.201-.094l-.138-.034h-.03c-.072-.018-.144-.031-.218-.037-.063-.003-.125-.003-.188,0-.083-.007-.166-.007-.248,0-.064,0-.127.02-.198.034s-.181.044-.278.067h-.027c-.054.02-.111.034-.171.06-.114.037-.228.087-.335.127l-.047.023c-.044.02-.091.037-.134.06-.161.077-.319.158-.48.248h0l-.05.03h-.017l-.074.037h0c-.684.405-1.316.891-1.885,1.446l-.044.04-.087.084-.05.047c-.295.288-.567.577-.862.896-.575.673-1.238,1.266-1.972,1.761h0c-.087.06-.164.117-.238.158-.196.121-.416.2-.644.231-.141.027-.285.027-.426,0-.131-.022-.257-.068-.372-.134Z"/>
        <path fill="#e4d8cb" d="M50.725,51.505l-7.114-4.166,2.918-1.677,1.506-.869,1.342-.778.523-.295c.138-.067.262-.141.389-.201.445-.244.915-.44,1.402-.584l.148-.037c.151-.036.308-.047.463-.034.087,0,.134.077.201.117l7.111,4.096c-.025-.014-.052-.024-.08-.03-.034-.017-.072-.025-.111-.023h0c-.111-.017-.224-.017-.335,0-.094.011-.188.032-.278.06-.813.265-1.59.629-2.314,1.083l-1.342.778-1.509.872-2.918,1.687Z"/>
        <path fill="#e4d8cb" d="M59.929,59.465c-.671-.671-1.006-1.801-1.006-3.166-.003-.196.004-.392.023-.587v-.023c0-.335.034-.647.07-1.006,0-.101.023-.198.037-.299.023-.208.054-.413.087-.604s.06-.356.094-.527c.02-.091.037-.178.054-.262.08-.372.164-.745.262-1.144.064-.252.121-.493.174-.735h0c.573-1.283.883-2.667.909-4.072,0-.198,0-.392-.023-.56-.032-1.078-.237-2.144-.607-3.156-.317-.836-.473-1.725-.46-2.62,0-1.654,0-2.566,3.515-4.595l5.739-3.284,7.138,4.122-5.763,3.327c-3.515,2.013-3.515,2.942-3.515,4.595-.018.896.138,1.787.46,2.623.367,1.012.572,2.077.607,3.153,0,.168.023.362.02.557,0,3.244-1.976,7.027-4.414,8.429-1.322.768-2.559.704-3.401-.168Z"/>
        <path fill="#d7c5b2" d="M40.142,72.053l-7.138-4.122c.034-.05.074-.104.107-.158.091-.117.184-.228.282-.335.045-.053.094-.103.144-.151.049-.055.103-.105.161-.151.138-.128.29-.241.453-.335h0c.06-.035.121-.066.184-.094l.081-.03h.02c.297-.158.611-.281.936-.366l.114-.027c.294-.06.592-.099.892-.117,1.056-.037,2.085-.35,2.982-.909l.235-.144c.07-.04.134-.084.201-.131.052-.03.103-.064.151-.101h.02l.248-.181.238-.184.04-.034.037-.034.03-.023.097-.087c.03-.027.067-.054.097-.084s.121-.107.181-.168l.084-.084c.012-.014.025-.026.04-.037l.144-.158c.06-.064.121-.131.178-.198l.023-.027.097-.114c.044-.06.097-.121.141-.184l7.148,4.126-.03.034c-.047.067-.097.131-.148.198s-.064.07-.094.107l-.027.027c-.107.124-.215.242-.335.352l-.067.067c-.017.02-.037.037-.05.057l-.184.168-.195.168-.027.027-.084.064c-.154.131-.315.252-.48.369,0,0-.02,0-.037.023-.188.134-.383.258-.584.372l-.208.107-.245.124c-.546.284-1.133.478-1.741.574l-.309.04h-.154l-.285.027h0c-.425.015-.846.087-1.251.215-.124.04-.255.091-.399.151h0c-.091.04-.191.087-.292.141h0l-.084.034c-.063.027-.125.059-.184.094-.164.098-.319.21-.463.335-.052.043-.101.089-.148.138-.05.047-.101.101-.148.154-.063.063-.121.13-.174.201-.037.043-.072.087-.104.134-.057.064-.094.101-.121.141Z"/>
      </g>
    </g>
    <g id="Calque_2">
      <path class="cls-7" d="M24.364,99.118l-6.648-3.837c-.691-.409-1.077-1.436-1.077-2.757l-.027-29.159,6.709,3.867-.027,29.253c-.01,1.288.406,2.207,1.07,2.633Z"/>
      <path class="cls-3" d="M24.364,99.118l-6.648-3.837c-.691-.409-1.077-1.436-1.077-2.757l-.027-29.159,6.709,3.867-.027,29.253c-.01,1.288.406,2.207,1.07,2.633Z"/>
      <path class="cls-7" d="M24.411,99.145l-.047-.027c-.671-.426-1.08-1.342-1.08-2.633l.027-29.253-6.709-3.867,5.793-3.378.054-.03h0l.822-.476h0l.926-.644.037-.023.037-.027c.05-.034.091-.07.134-.104l.054-.037.161-.121.154-.121c.042-.04.086-.077.131-.111l.05-.04.047-.04c.087-.067.171-.141.252-.211l.127-.117.047-.05c.158-.144.315-.302.46-.46l.054-.05c.06-.065.117-.129.171-.191.029-.03.054-.063.077-.097.027-.026.052-.054.074-.084v-.023l.02-.03.037-.04.178-.225c.047-.067.097-.138.141-.208l.037-.044v-.02c.064-.091.121-.181.178-.272s.097-.158.144-.238l.017-.03c.037-.074.077-.141.114-.215l.057-.104c.047-.091.091-.181.131-.275h0l.074-.171c.029-.056.054-.114.074-.174.025-.047.045-.097.06-.148.017-.047.04-.101.057-.148.044-.117.081-.238.121-.362h0c.03-.097.064-.201.091-.305v-.044c.034-.111.057-.225.081-.335v-.037c0-.087.04-.178.057-.272h0c.023-.127.05-.275.067-.413v-.164c.002-.012.002-.025,0-.037-.002-.031-.002-.063,0-.094.017-.164.03-.335.044-.483v-.258h0c0-.242.007-.486.02-.735v-.694c.002-.021.002-.043,0-.064.002-.021.002-.043,0-.064v-.091c0-.124-.017-.245-.027-.356h0v-.02c0-.107-.023-.208-.034-.305-.061-.453-.154-.902-.278-1.342-.077-.268-.161-.513-.235-.745-.196-.526-.333-1.071-.409-1.627,0-.111-.027-.225-.037-.335s0-.258-.023-.396v-.06c-.003-.032-.003-.065,0-.097-.006-.07-.006-.141,0-.211,0-1.546.939-3.354,2.103-4.025.115-.068.24-.12.369-.154.083-.023.169-.036.255-.04.082-.01.166-.01.248,0,.04.005.079.014.117.027.117.035.23.083.335.144l6.826,3.888h0c.04.022.078.047.114.074.396.302.617.875.617,1.62,0,.101,0,.205-.02.366v.044c-.046.968-.201,1.928-.463,2.861-.057.238-.114.476-.168.728-.023.084-.04.171-.057.255-.06.255-.114.52-.158.805-.017.091-.03.188-.044.282l4.696-2.66,6.709,3.867v7.695c0,2.16-.164,3.602-.5,4.408-.235.557-.594.906-1.422,1.382-.65.401-1.396.623-2.16.641-.242,0-.47.044-.701.074l-.272.047c-.087.017-.171.034-.262.057-.161.037-.335.091-.496.144l-.134.05c-.253.098-.501.21-.741.335-.031.012-.06.028-.087.047h-.023l-.04.02c-.091.04-.195.091-.302.151-.994.619-1.839,1.45-2.472,2.435-.336.499-.631,1.024-.882,1.57-.24.517-.444,1.049-.61,1.593l.369-.392c.349-.393.721-.765,1.114-1.114.328-.283.681-.535,1.057-.751.537-.309.966-.557,1.285-.359h0l6.648,3.961h0l.077.057c.019.017.035.036.05.057.012.008.022.02.027.034.019.021.036.045.05.07v.017c.021.032.039.066.054.101.171.362.285,1.006.335,2.086v9.204l-21.903,12.646c-.356.219-.758.352-1.174.389-.132.012-.264.012-.396,0-.044-.002-.087-.011-.127-.027-.158-.046-.308-.115-.446-.205Z"/>
      <path class="cls-2" d="M41.212,70.755h0l6.641,3.961h0c-.315-.201-.748.054-1.285.362-.375.215-.728.467-1.053.751-.395.346-.769.717-1.117,1.11-.767.89-1.651,1.673-2.626,2.328-.131.094-.285.191-.429.275-2.432,1.405-4.411-.091-4.411-3.334.012-.966.167-1.924.46-2.844.124-.131.242-.262.362-.386.349-.393.721-.765,1.114-1.114.326-.283.679-.535,1.053-.751.54-.309.976-.557,1.291-.359Z"/>
      <path class="cls-2" d="M36.992,51.621l4.719-2.663,6.709,3.871h0l-5.766,3.327h0l-1.734.906h-.037l-.124.054-.064.023-.288.117-.161.057-.044.017c-.094.03-.184.064-.272.087l-.188.05c-.097.027-.188.044-.278.06h-.03l-.124.02c-.111.015-.223.024-.335.027h-.107c-.131-.002-.261-.015-.389-.04l-.067-.017c-.099-.027-.195-.062-.288-.104-.028-.009-.054-.023-.077-.04h0c-.084-.048-.165-.102-.242-.161h-.017l-.057-.05c-.087-.08-.165-.169-.235-.265l-.034-.04c-.181-.279-.315-.586-.396-.909l-.017-.057c-.044-.171-.074-.335-.104-.52v-.091c-.03-.201-.054-.416-.067-.634-.02-.288-.027-.54-.027-.792-.009-.747.038-1.494.141-2.234Z"/>
      <path class="cls-2" d="M23.261,67.336l-6.709-3.867,5.793-3.378.05-.03h.02l.822-.476h0l.929-.644.034-.023.037-.027c.05-.034.091-.07.134-.104l.05-.037.164-.121.154-.121c.042-.04.086-.077.131-.111l.05-.04.047-.04c.087-.067.171-.141.252-.211l.127-.117.047-.05c.158-.144.315-.302.46-.46l.054-.05c.06-.065.117-.129.171-.191.029-.03.054-.063.077-.097.027-.027.047-.057.07-.084l.02-.023.023-.027.034-.044c.06-.074.124-.148.178-.225l.144-.205.034-.047v-.02c.064-.091.121-.181.178-.272s.097-.158.144-.238v-.034c.04-.07.081-.138.117-.211.022-.033.042-.068.06-.104.04-.094.087-.184.127-.275h0l.074-.171c.027-.054.05-.111.077-.171s.04-.097.057-.151.04-.101.057-.148c.044-.121.081-.235.121-.362h0c.03-.097.064-.201.091-.305v-.044c.027-.107.057-.225.081-.335v-.034c.017-.094.037-.181.054-.275h0c.023-.127.05-.275.067-.413v-.164c.002-.012.002-.025,0-.037v-.097c.02-.168.034-.335.044-.48v-.258h0c0-.242.007-.486.02-.735v-.758c.002-.021.002-.043,0-.064v-.091c0-.124-.017-.245-.027-.356v-.023h0l-.03-.302c-.061-.453-.154-.902-.278-1.342-.074-.272-.158-.517-.235-.745-.196-.526-.333-1.071-.409-1.627,0-.111-.027-.225-.037-.335s0-.255-.02-.396v-.161c-.006-.07-.006-.141,0-.211,0-1.546.939-3.354,2.103-4.025.115-.068.24-.12.369-.154.083-.023.169-.036.255-.04.082-.014.166-.014.248,0,.04.005.079.014.117.027.117.035.23.083.335.144l6.802,3.891c-.142-.082-.302-.131-.466-.141-.119-.005-.239.006-.356.03-.195.044-.382.118-.553.221-.205.122-.395.267-.567.433-.469.462-.842,1.013-1.097,1.62-.06.131-.107.265-.158.403-.064.193-.116.388-.158.587-.074.319-.112.645-.114.973v.342c.014.544.091,1.084.231,1.61.02.087.047.171.07.255.054.171.107.335.161.503.077.231.161.473.238.745.027.094.05.188.074.282.023.094.047.198.074.302.075.35.129.704.164,1.06v.017h0c-.003.059-.003.119,0,.178v.399c.003.041.003.083,0,.124v.916c0,.124,0,.245-.017.369v.255c0,.158-.023.319-.044.48,0,.077-.02.151-.03.231v.064h0l-.07.419-.06.272v.034c0,.064-.027.127-.047.195s-.034.127-.05.184,0,.054-.017.08-.05.151-.07.228h0c-.037.121-.077.242-.121.359s-.077.201-.114.299-.097.231-.148.335l-.138.282h0c-.027.05-.054.107-.084.158l-.084.158-.02.034c-.021.042-.044.082-.07.121l-.023.04c-.014.026-.031.051-.05.074-.057.094-.114.184-.174.275v.02l-.034.047c-.022.035-.047.069-.074.101-.022.035-.045.068-.07.101l-.064.084c-.035.05-.073.098-.114.144l-.034.044-.037.05-.077.091-.023.027c0,.02-.034.044-.054.064l-.087.097c-.023.03-.054.06-.084.094l-.05.05c-.146.161-.3.315-.463.46l-.047.05-.131.117c-.077.074-.161.144-.248.215l-.047.037-.023.023-.023.02-.131.107-.335.242-.05.04-.134.101-.074.05-.929.644-.822.476-.027.02-.054.027-5.732,3.307Z"/>
    </g>
    <g id="Calque_3">
      <g class="cls-10">
        <g>
          <path class="cls-7" d="M39.498,54.178l-7.114-4.173h0c-.278-.164-.366-.624-.366-1.617.001-.818.099-1.633.292-2.428-.214.494-.396,1.002-.543,1.519.671-2.465,2.237-4.81,4.025-5.85,1.177-.671,2.284-.708,3.119-.077s1.295,1.835,1.295,3.411c0,.151,0,.299-.017.433v.184c0,.335-.04.671-.077,1.023-.003.056-.01.112-.02.168v.05c-.03.238-.06.47-.097.701-.027.138-.054.275-.077.409s-.054.272-.081.406c-.074.335-.158.701-.245,1.067-.291,1.025-.445,2.084-.46,3.15-.003,1,.067,1.459.366,1.623Z"/>
          <path class="cls-7" d="M23.199,64.315l-7.145-4.119.027-29.253c.023-1.164.302-2.309.815-3.354l7.131,4.116c-.525,1.06-.81,2.222-.835,3.405l.007,29.206Z"/>
          <path class="cls-6" d="M39.498,54.178l-7.114-4.173h0c-.278-.164-.366-.624-.366-1.617.001-.818.099-1.633.292-2.428h0c.805-1.868,2.07-3.509,3.495-4.33,1.177-.671,2.284-.708,3.119-.077s1.281,1.835,1.281,3.411c0,.151,0,.299-.017.433v.184c0,.335-.04.671-.077,1.023-.003.056-.01.112-.02.168v.05c-.03.238-.06.47-.097.701-.027.138-.054.275-.077.409s-.054.272-.081.406c-.074.335-.158.701-.245,1.067-.291,1.025-.445,2.084-.46,3.15-.003,1,.067,1.459.366,1.623Z"/>
          <path class="cls-6" d="M23.199,64.315l-7.145-4.119.027-29.253c.023-1.164.302-2.309.815-3.354l7.131,4.116c-.525,1.06-.81,2.222-.835,3.405l.007,29.206Z"/>
          <path class="cls-5" d="M23.13,64.315v-29.209c.025-1.182.311-2.345.835-3.405l-7.131-4.116c.02-.044.037-.084.057-.124.029-.067.063-.132.101-.195.047-.091.094-.178.144-.265s.121-.211.188-.309l.037-.07c.009-.014.019-.028.03-.04.057-.094.124-.191.191-.285h0l.06-.084c.034-.053.072-.104.114-.151.036-.051.075-.101.117-.148l.034-.044c.06-.077.124-.154.191-.225l.081-.084c.017-.022.036-.042.057-.06l.037-.044.07-.064h0l.124-.121c.011-.012.023-.022.037-.03.037-.034.07-.07.104-.097l.037-.03h.017l.091-.067c.034-.03.07-.054.104-.081s.067-.054.101-.081c.04-.03.081-.058.124-.084.073-.056.15-.107.231-.151l21.88-12.599,7.138,4.122v6.427l.104-.107c.575-.674,1.24-1.267,1.976-1.761h.027c.069-.052.141-.1.215-.144.408-.283.944-.302,1.372-.05l7.114,4.109c.038.019.075.043.107.07l.06.047c.247.231.416.534.483.865.02.084.037.174.05.265.02.149.029.299.027.449-.018.815-.228,1.613-.614,2.331-.332.685-.846,1.265-1.486,1.677-.086.05-.174.094-.265.134h-.017c-.601.316-1.267.49-1.945.506-1.057.039-2.085.355-2.982.916-.396.226-.772.485-1.124.775l-.04.03c-.164.138-.335.278-.463.419l-.02.023h0c-.328.324-.623.679-.882,1.06h0c-.111.164-.218.335-.335.527l-.05.091v.027c-.087.154-.168.335-.245.483v.023c-.018.037-.034.075-.047.114-.077.171-.148.335-.215.533l-.034.087c-.077.215-.148.436-.205.644l-.017.07c-.05.184-.097.376-.138.57,0,.054-.027.114-.037.171v.047c-.027.144-.05.285-.077.433,0,.084-.03.174-.04.262s-.04.272-.057.413v.067c0,.067-.017.138-.02.211,0,.141-.03.288-.04.433v.077c0,.054,0,.107-.017.161v.05l-.077,2.348v7.715l-2.013,1.171-1.902,1.097-1.841,1.063c-1.278.741-2.17,1.117-2.714,1.157-.042.003-.085.003-.127,0-.104-.001-.206-.026-.299-.074h0c-.285-.164-.369-.624-.369-1.623.014-1.066.169-2.125.46-3.15.087-.366.171-.721.245-1.067.027-.134.057-.268.081-.406s.05-.272.077-.409c.037-.231.067-.463.097-.701v-.05c.01-.055.017-.111.02-.168.037-.352.064-.671.077-1.023v-.195c0-.134.02-.282.017-.433,0-1.573-.456-2.784-1.291-3.415s-1.942-.607-3.119.077c-1.426.822-2.683,2.462-3.495,4.33-.166.369-.309.748-.429,1.134-.04.127-.081.258-.114.386s-.081.305-.117.46c-.011.026-.017.053-.02.081-.034.148-.064.299-.087.446-.058.319-.099.64-.124.963-.007.096-.007.192,0,.288v.335c0,.198,0,.406.023.567.033,1.075.238,2.137.607,3.146.203.541.342,1.104.413,1.677v.114c-.002.023-.002.047,0,.07.017.248.03.493.03.748,0,1.654,0,2.566-3.512,4.595l-5.82,3.344Z"/>
          <path d="M52.13,20.471l7.114,4.109c-.445-.221-.975-.178-1.379.111-.06.034-.138.087-.215.141l-.023.023h-.017c-.736.493-1.401,1.086-1.976,1.761-.855.993-1.861,1.844-2.982,2.522l-.141.077-.054.027-.04.02c-.107.057-.211.117-.309.164l-.188.081-.064.023-.037.02-.235.087c-.07.027-.142.05-.215.067h-.027l-.238.057c-.081.02-.154.023-.231.037h-.429c-.067,0-.131-.023-.195-.034-.064-.012-.127-.03-.188-.054-.059-.02-.117-.046-.171-.077h-.03c-.05-.024-.098-.051-.144-.081-.045-.032-.088-.068-.127-.107l-.027-.02-.027-.027c-.037-.03-.077-.067-.114-.104-.043-.05-.083-.103-.121-.158l-.02-.03c-.074-.107-.142-.219-.201-.335l-.02-.044c-.029-.051-.055-.104-.077-.158-.023-.057-.05-.127-.074-.195v-.087c-.02-.06-.044-.114-.064-.181s-.047-.181-.07-.275-.044-.161-.057-.245-.04-.201-.057-.309-.03-.174-.044-.262-.027-.225-.04-.335-.02-.184-.03-.278-.023-.245-.03-.376v-.325c0-.117,0-.242-.02-.369v-.05l-.023-1.342v-1.389c.03-.037.067-.07.097-.104.575-.674,1.24-1.267,1.976-1.761h.017l.027-.02c.067-.052.138-.099.211-.141.398-.264.909-.286,1.328-.057Z"/>
          <path class="cls-9" d="M24.038,31.705l-7.138-4.122c.02-.044.037-.081.06-.121.029-.067.063-.132.101-.195.047-.091.094-.178.144-.265s.121-.211.188-.309c.019-.039.042-.076.067-.111.057-.094.124-.191.191-.285h0l.06-.084c.034-.053.072-.104.114-.151.047-.067.097-.13.151-.191.06-.077.124-.154.191-.225l.081-.084c.017-.022.036-.042.057-.06l.107-.107h0l.124-.121c.011-.012.023-.022.037-.03.044-.046.091-.089.141-.127h.017l.091-.067c.065-.057.134-.111.205-.161.04-.03.081-.058.124-.084.073-.056.15-.107.231-.151l21.877-12.602,7.138,4.122-9.617,5.551-12.29,7.101c-.094.054-.184.111-.275.171s-.168.121-.245.188c-.045.03-.088.063-.127.101-.081.064-.161.141-.238.215s-.188.184-.278.278c-.202.22-.389.453-.56.698-.067.094-.134.188-.198.288-.196.302-.373.615-.53.939Z"/>
        </g>
      </g>
      <path class="cls-1" d="M41.297,12.091l7.138,4.119v8.6l2.945,1.701c.319.184.745-.064,1.275-.369.82-.499,1.554-1.129,2.17-1.865.437-.485.9-.946,1.385-1.382l3.049,1.758c.024.012.046.027.067.044.007-.004.016-.004.023,0,.027.015.052.035.074.057.108.095.199.209.268.335.025.034.046.071.06.111.017.029.03.059.04.091.057.132.1.271.127.413.002.022.002.045,0,.067,0,.084.027.178.037.272s0,.191,0,.292c.005.094.005.188,0,.282,0,.101-.017.198-.03.292s-.03.195-.047.292-.03.148-.05.221c-.012.053-.026.106-.044.158-.104.379-.25.744-.436,1.09-.33.685-.843,1.266-1.483,1.677-.086.048-.174.09-.265.127h-.017c-.601.316-1.267.489-1.945.506-.215,0-.433.034-.671.067l-.245.037c-.586.117-1.152.321-1.677.607-.064.03-.124.06-.181.094l-.191.107c-.396.228-.773.487-1.127.775l-.034.034c-.168.138-.335.282-.463.416l-.027.027c-.326.327-.621.683-.882,1.063-.122.169-.234.345-.335.527l-.067.114"/>
      <path class="cls-1" d="M16.083,60.261l.027-29.256c.026-1.164.304-2.308.815-3.354.607-1.281,1.499-2.385,2.496-2.962l21.877-12.599"/>
      <path class="cls-7" d="M16.083,60.261l.027-29.253c.023-1.164.302-2.309.815-3.354l7.131,4.116c-.525,1.06-.81,2.222-.835,3.405"/>
      <path class="cls-6" d="M16.083,60.261l.027-29.253c.023-1.164.302-2.309.815-3.354l7.131,4.116c-.525,1.06-.81,2.222-.835,3.405"/>
      <path class="cls-5" d="M41.291,12.121l7.138,4.122v6.427l.104-.107c.575-.674,1.24-1.267,1.976-1.761h.027c.069-.052.141-.1.215-.144.408-.283.944-.302,1.372-.05l7.114,4.109c.038.019.075.043.107.07l.06.047c.247.231.416.534.483.865.02.084.037.174.05.265.02.149.029.299.027.449-.018.815-.228,1.613-.614,2.331-.332.685-.846,1.265-1.486,1.677-.086.05-.174.094-.265.134h-.017c-.601.316-1.267.49-1.945.506-1.057.039-2.085.355-2.982.916-.396.226-.772.485-1.124.775l-.04.03c-.164.138-.335.278-.463.419l-.02.023h0c-.328.324-.623.679-.882,1.06h0c-.111.164-.218.335-.335.527"/>
      <path class="cls-5" d="M23.228,35.171c.025-1.182.311-2.345.835-3.405l-7.131-4.116c.02-.044.037-.084.057-.124.029-.067.063-.132.101-.195.047-.091.094-.178.144-.265s.121-.211.188-.309l.037-.07c.009-.014.019-.028.03-.04.057-.094.124-.191.191-.285h0l.06-.084c.034-.053.072-.104.114-.151.036-.051.075-.101.117-.148l.034-.044c.06-.077.124-.154.191-.225l.081-.084c.017-.022.036-.042.057-.06l.037-.044.07-.064h0l.124-.121c.011-.012.023-.022.037-.03.037-.034.07-.07.104-.097l.037-.03h.017l.091-.067c.034-.03.07-.054.104-.081s.067-.054.101-.081c.04-.03.081-.058.124-.084.073-.056.15-.107.231-.151l21.88-12.599"/>
      <path fill="#e4d8cb" d="M52.158,20.537l7.114,4.109c-.445-.221-.975-.178-1.379.111-.06.034-.138.087-.215.141l-.023.023h-.017c-.736.493-1.401,1.086-1.976,1.761-.855.993-1.861,1.844-2.982,2.522l-.141.077-.054.027-.04.02c-.107.057-.211.117-.309.164l-.188.081-.064.023-.037.02-.235.087c-.07.027-.142.05-.215.067h-.027l-.238.057c-.081.02-.154.023-.231.037h-.429c-.067,0-.131-.023-.195-.034-.064-.012-.127-.03-.188-.054-.059-.02-.117-.046-.171-.077h-.03c-.05-.024-.098-.051-.144-.081-.045-.032-.088-.068-.127-.107l-.027-.02-.027-.027c-.037-.03-.077-.067-.114-.104-.043-.05-.083-.103-.121-.158l-.02-.03c-.074-.107-.142-.219-.201-.335l-.02-.044c-.029-.051-.055-.104-.077-.158-.023-.057-.05-.127-.074-.195v-.087c-.02-.06-.044-.114-.064-.181s-.047-.181-.07-.275-.044-.161-.057-.245-.04-.201-.057-.309-.03-.174-.044-.262-.027-.225-.04-.335-.02-.184-.03-.278-.023-.245-.03-.376v-.325c0-.117,0-.242-.02-.369v-.05l-.023-1.342v-1.389c.03-.037.067-.07.097-.104.575-.674,1.24-1.267,1.976-1.761h.017l.027-.02c.067-.052.138-.099.211-.141.398-.264.909-.286,1.328-.057Z"/>
      <path class="cls-9" d="M41.287,12.118l7.138,4.122-9.617,5.551-12.29,7.101c-.094.054-.184.111-.275.171s-.168.121-.245.188c-.045.03-.088.063-.127.101-.081.064-.161.141-.238.215s-.188.184-.278.278c-.202.22-.389.453-.56.698-.067.094-.134.188-.198.288-.196.302-.373.615-.53.939l-7.138-4.122c.02-.044.037-.081.06-.121.029-.067.063-.132.101-.195.047-.091.094-.178.144-.265s.121-.211.188-.309c.019-.039.042-.076.067-.111.057-.094.124-.191.191-.285h0l.06-.084c.034-.053.072-.104.114-.151.047-.067.097-.13.151-.191.06-.077.124-.154.191-.225l.081-.084c.017-.022.036-.042.057-.06l.107-.107h0l.124-.121c.011-.012.023-.022.037-.03.044-.046.091-.089.141-.127h.017l.091-.067c.065-.057.134-.111.205-.161.04-.03.081-.058.124-.084.073-.056.15-.107.231-.151l21.877-12.602"/>
    </g>
    <g id="Calque_5">
      <g class="cls-8">
        <g>
          <path class="cls-7" d="M48.816,67.377l-7.141-4.122.158-.218.017-.02.077-.111c.114-.168.221-.335.335-.513l.03-.054c.104-.184.205-.386.302-.597.02-.05.044-.101.064-.154v-.034c.05-.121.111-.265.168-.426.027-.07.05-.141.077-.218v-.044c.04-.121.081-.242.114-.366s.057-.198.084-.302.054-.225.084-.335.047-.221.067-.335.044-.211.06-.315v-.05c.02-.101.037-.208.054-.315s.017-.124.027-.184v-.067c.074-.537.117-1.1.154-1.711v-.067l.037-1.647v-7.832l7.114,4.166h0v7.836l-.037,1.65v.064c-.03.61-.077,1.174-.148,1.707v.07c0,.064-.017.124-.027.188s-.03.211-.05.312v.047c-.017.111-.037.211-.057.319s-.047.218-.074.335-.05.228-.077.335-.057.205-.084.302-.074.245-.117.362v.05c-.023.07-.05.148-.077.218-.054.154-.117.302-.168.426l-.017.03-.06.154c-.097.208-.198.409-.302.6l-.03.054c-.097.168-.205.335-.319.513-.024.037-.051.072-.081.104v.023l-.158.171Z"/>
          <path class="cls-7" d="M43.587,80.999l.02-6.467-.101.104c.295-.335.567-.607.862-.896l.05-.047.087-.084.06-.034c.564-.543,1.19-1.018,1.865-1.416h0l.074-.037h.017l.05-.03h0c.161-.091.335-.171.48-.248.044-.023.091-.04.134-.06l.047-.023c.107-.04.221-.091.335-.127.06-.027.117-.04.171-.06h.027c.097-.023.191-.05.278-.067s.134-.027.198-.034c.083-.007.166-.007.248,0,.063-.003.125-.003.188,0,.074.006.146.019.218.037h.03l.138.034c.07.025.137.056.201.094.072.035.14.077.205.124.078.055.151.117.218.184.038.04.074.083.107.127l.023.034.02.023c.035.044.067.09.097.138.043.064.081.132.114.201.034.064.064.121.091.184s.067.161.101.248.044.127.064.195.057.188.084.288l.04.168v.027c.023.111.05.225.07.335v.138c.074.473.127,1.006.164,1.634v.027l.037,1.496v7.943l-7.114-4.153Z"/>
          <path class="cls-7" d="M39.81,76.635l-7.02-4.065c-.466-.248-.738-.899-.738-1.761.03-1.022.351-2.015.926-2.861l.134-.188c-.034.054-.074.107-.107.158l7.138,4.122c-.019.023-.035.048-.05.074-.577.844-.898,1.836-.926,2.858,0,.808.248,1.385.644,1.664Z"/>
          <path class="cls-6" d="M48.816,67.377l-7.141-4.122.158-.218.017-.02.077-.111c.114-.168.221-.335.335-.513l.03-.054c.104-.184.205-.386.302-.597.02-.05.044-.101.064-.154v-.034c.05-.121.111-.265.168-.426.027-.07.05-.141.077-.218v-.044c.04-.121.081-.242.114-.366s.057-.198.084-.302.054-.225.084-.335.047-.221.067-.335.044-.211.06-.315v-.05c.02-.101.037-.208.054-.315s.017-.124.027-.184v-.067c.074-.537.117-1.1.154-1.711v-.067l.037-1.647v-7.832l7.114,4.166h0v7.836l-.037,1.65v.064c-.03.61-.077,1.174-.148,1.707v.07c0,.064-.017.124-.027.188s-.03.211-.05.312v.047c-.017.111-.037.211-.057.319s-.047.218-.074.335-.05.228-.077.335-.057.205-.084.302-.074.245-.117.362v.05c-.023.07-.05.148-.077.218-.054.154-.117.302-.168.426l-.017.03-.06.154c-.097.208-.198.409-.302.6l-.03.054c-.097.168-.205.335-.319.513-.024.037-.051.072-.081.104v.023l-.158.171Z"/>
          <path class="cls-6" d="M43.587,80.999l.02-6.467-.101.104c.295-.335.567-.607.862-.896l.05-.047.087-.084.06-.034c.564-.543,1.19-1.018,1.865-1.416h0l.074-.037h.017l.05-.03h0c.161-.091.335-.171.48-.248.044-.023.091-.04.134-.06l.047-.023c.107-.04.221-.091.335-.127.06-.027.117-.04.171-.06h.027c.097-.023.191-.05.278-.067s.134-.027.198-.034c.083-.007.166-.007.248,0,.063-.003.125-.003.188,0,.074.006.146.019.218.037h.03l.138.034c.07.025.137.056.201.094.072.035.14.077.205.124.078.055.151.117.218.184.038.04.074.083.107.127l.023.034.02.023c.035.044.067.09.097.138.043.064.081.132.114.201.034.064.064.121.091.184s.067.161.101.248.044.127.064.195.057.188.084.288l.04.168v.027c.023.111.05.225.07.335v.138c.074.473.127,1.006.164,1.634v.027l.037,1.496v7.943l-7.114-4.153Z"/>
          <path class="cls-6" d="M39.81,76.635l-7.02-4.065c-.466-.248-.738-.899-.738-1.761.03-1.022.351-2.015.926-2.861l.134-.188c-.034.054-.074.107-.107.158l7.138,4.122c-.019.023-.035.048-.05.074-.577.844-.898,1.836-.926,2.858,0,.808.248,1.385.644,1.664Z"/>
          <path class="cls-5" d="M39.87,76.659h0l-.047-.027c-.396-.278-.644-.855-.644-1.65.027-1.022.349-2.014.926-2.858.015-.026.032-.051.05-.074l-7.138-4.122c.034-.05.074-.104.107-.158.091-.117.184-.228.282-.335.045-.053.094-.103.144-.151.049-.055.103-.105.161-.151.138-.128.29-.241.453-.335h0c.06-.035.121-.066.184-.094l.081-.034h.02c.297-.158.611-.281.936-.366l.114-.027c.294-.06.592-.099.892-.117,1.056-.037,2.085-.35,2.982-.909l.235-.144c.07-.04.134-.084.201-.131s.104-.064.154-.097h.02l.248-.181.235-.184.044-.034.037-.034.027-.023.101-.087c.03-.027.067-.054.097-.084s.121-.107.181-.168l.084-.084.037-.04.148-.154c.06-.064.121-.131.178-.198l.023-.027.097-.114c.044-.06.097-.121.141-.184l7.145,4.126.127-.174v-.023c.03-.032.057-.067.081-.104.114-.174.221-.335.319-.513l.03-.054c.104-.191.205-.392.302-.6l.06-.154.017-.03c.05-.124.114-.272.168-.426.027-.07.054-.148.077-.218v-.05c.044-.117.081-.238.117-.362s.054-.198.084-.302.054-.225.077-.335.05-.218.074-.335.04-.208.057-.319v-.047c.02-.101.034-.205.05-.312s.017-.124.027-.188v-.07c.07-.533.117-1.097.148-1.707v-.064l.037-1.65v-7.859h0l-7.114-4.166,2.918-1.677,1.506-.869,1.342-.778.523-.295c.138-.067.262-.141.389-.201.445-.244.915-.44,1.402-.584l.148-.037c.151-.036.308-.047.463-.034.087,0,.134.077.201.117l7.198,4.092c.14.091.237.235.268.399,0,.057.03.124.044.195s.02.151.03.238v.795c0,.319,0,.607-.04.882v.205c0,.067,0,.131-.023.198s0,.127-.03.195-.017.127-.027.191c-.023.124-.044.245-.067.372s-.054.245-.077.366c-.003.009-.003.018,0,.027.577-1.291.889-2.685.916-4.099,0-.198,0-.396-.02-.564-.034-1.076-.24-2.139-.61-3.15-.319-.837-.475-1.727-.46-2.623,0-1.657,0-2.569,3.515-4.592l5.739-3.287,7.138,4.122v29.202c0,2.432-1.483,5.266-3.304,6.319l-21.903,12.646v-7.936l-.037-1.496v-.027c-.037-.621-.091-1.161-.164-1.634v-.138c-.02-.121-.047-.235-.07-.335v-.027l-.04-.168c-.027-.101-.05-.195-.084-.288s-.04-.131-.064-.195-.064-.171-.101-.248-.057-.121-.091-.184c-.033-.07-.071-.137-.114-.201-.03-.047-.062-.093-.097-.138l-.02-.023-.023-.034c-.033-.045-.069-.087-.107-.127-.067-.067-.14-.129-.218-.184-.064-.048-.133-.089-.205-.124-.064-.038-.131-.069-.201-.094l-.138-.034h-.03c-.072-.018-.144-.031-.218-.037-.063-.003-.125-.003-.188,0-.083-.007-.166-.007-.248,0-.064,0-.127.02-.198.034s-.181.044-.278.067h-.027c-.054.02-.111.034-.171.06-.114.037-.228.087-.335.127l-.047.023c-.044.02-.091.037-.134.06-.161.077-.319.158-.48.248h0l-.05.03h-.017l-.074.037h0c-.684.405-1.316.891-1.885,1.446l-.044.04-.087.084-.05.047c-.295.288-.567.577-.862.896-.575.673-1.238,1.266-1.972,1.761h0c-.087.06-.164.117-.238.158-.196.121-.416.2-.644.231-.141.027-.285.027-.426,0-.131-.022-.257-.068-.372-.134Z"/>
          <path fill="#e4d8cb" d="M50.725,51.505l-7.114-4.166,2.918-1.677,1.506-.869,1.342-.778.523-.295c.138-.067.262-.141.389-.201.445-.244.915-.44,1.402-.584l.148-.037c.151-.036.308-.047.463-.034.087,0,.134.077.201.117l7.111,4.096c-.025-.014-.052-.024-.08-.03-.034-.017-.072-.025-.111-.023h0c-.111-.017-.224-.017-.335,0-.094.011-.188.032-.278.06-.813.265-1.59.629-2.314,1.083l-1.342.778-1.509.872-2.918,1.687Z"/>
          <path fill="#e4d8cb" d="M59.929,59.465c-.671-.671-1.006-1.801-1.006-3.166-.003-.196.004-.392.023-.587v-.023c0-.335.034-.647.07-1.006,0-.101.023-.198.037-.299.023-.208.054-.413.087-.604s.06-.356.094-.527c.02-.091.037-.178.054-.262.08-.372.164-.745.262-1.144.064-.252.121-.493.174-.735h0c.573-1.283.883-2.667.909-4.072,0-.198,0-.392-.023-.56-.032-1.078-.237-2.144-.607-3.156-.317-.836-.473-1.725-.46-2.62,0-1.654,0-2.566,3.515-4.595l5.739-3.284,7.138,4.122-5.763,3.327c-3.515,2.013-3.515,2.942-3.515,4.595-.018.896.138,1.787.46,2.623.367,1.012.572,2.077.607,3.153,0,.168.023.362.02.557,0,3.244-1.976,7.027-4.414,8.429-1.322.768-2.559.704-3.401-.168Z"/>
          <path fill="#d7c5b2" d="M40.142,72.053l-7.138-4.122c.034-.05.074-.104.107-.158.091-.117.184-.228.282-.335.045-.053.094-.103.144-.151.049-.055.103-.105.161-.151.138-.128.29-.241.453-.335h0c.06-.035.121-.066.184-.094l.081-.03h.02c.297-.158.611-.281.936-.366l.114-.027c.294-.06.592-.099.892-.117,1.056-.037,2.085-.35,2.982-.909l.235-.144c.07-.04.134-.084.201-.131.052-.03.103-.064.151-.101h.02l.248-.181.238-.184.04-.034.037-.034.03-.023.097-.087c.03-.027.067-.054.097-.084s.121-.107.181-.168l.084-.084c.012-.014.025-.026.04-.037l.144-.158c.06-.064.121-.131.178-.198l.023-.027.097-.114c.044-.06.097-.121.141-.184l7.148,4.126-.03.034c-.047.067-.097.131-.148.198s-.064.07-.094.107l-.027.027c-.107.124-.215.242-.335.352l-.067.067c-.017.02-.037.037-.05.057l-.184.168-.195.168-.027.027-.084.064c-.154.131-.315.252-.48.369,0,0-.02,0-.037.023-.188.134-.383.258-.584.372l-.208.107-.245.124c-.546.284-1.133.478-1.741.574l-.309.04h-.154l-.285.027h0c-.425.015-.846.087-1.251.215-.124.04-.255.091-.399.151h0c-.091.04-.191.087-.292.141h0l-.084.034c-.063.027-.125.059-.184.094-.164.098-.319.21-.463.335-.052.043-.101.089-.148.138-.05.047-.101.101-.148.154-.063.063-.121.13-.174.201-.037.043-.072.087-.104.134-.057.064-.094.101-.121.141Z"/>
        </g>
      </g>
    </g>
    <g id="Calque_4">
      <g>
        <path class="cls-7" d="M69.941,59.85l-7.155-4.132c-.034-.017-.066-.036-.097-.057-.399-.302-.584-.929-.584-1.677-.008-.121-.008-.242,0-.362v-.044c.051-.968.207-1.927.466-2.861.114-.48.235-1.006.335-1.546l1.55-.896.06-.034.037-.02h0l1.221-.654h0l.034-.017c.384-.191.781-.355,1.187-.49h.047l.158-.05c.062-.02.126-.036.191-.047h.037c.074-.02.151-.04.228-.054l.201-.027h.413c.08.001.16.01.238.027h.03l.114.02c.093.025.183.056.272.094l.08.034c.24.128.446.31.6.533.014.019.026.039.037.06.073.105.136.218.188.335,0,.023.023.05.034.07v.023c.05.124.094.258.138.399l.027.107c.044.164.078.331.101.5l.017.077c.065.477.095.958.091,1.439-.014,1.46-.217,2.912-.604,4.32-.256.936-.411,1.896-.463,2.865v.04c0,.154-.017.265-.017.366,0,.748.218,1.322.614,1.623l.174.034Z"/>
        <path class="cls-7" d="M58.708,51.602l-7.111-4.163v-7.695c-.024-1.129.048-2.258.215-3.374.248-1.372.624-1.788,1.704-2.412.653-.402,1.401-.623,2.167-.641.252-.02.49-.044.731-.081l.191-.034.335-.07c.138-.04.285-.081.439-.134.064-.018.127-.041.188-.067.246-.09.486-.195.718-.315l.03-.017c.145-.058.285-.128.419-.208,1.322-.761,2.563-2.261,3.401-4.106.057-.121.104-.242.154-.359l-.178.178c.228-.225.449-.466.671-.714.769-.885,1.651-1.666,2.623-2.321.137-.103.282-.196.433-.278,2.432-1.409,4.414.091,4.414,3.331-.028,1.498-.371,2.973-1.006,4.33-.842,1.848-2.083,3.354-3.405,4.109-.135.077-.275.146-.419.205-.01.003-.02.003-.03,0-.232.126-.472.238-.718.335l-.188.067c-.144.05-.291.092-.439.127-.117.03-.225.054-.335.074l-.195.034c-.238.034-.48.064-.731.081-.766.016-1.513.237-2.164.641-1.08.621-1.459,1.036-1.704,2.408-.169,1.119-.244,2.25-.221,3.381v5.065h0l.01,2.623Z"/>
        <path class="cls-7" d="M59.362,29.628l-7.145-4.132c-.419-.255-.61-1.315-.61-3.978l-.03-7.648,7.138,4.122v7.688c0,2.683.225,3.706.651,3.945l-.003.003Z"/>
        <path fill="#6c9ebf" class="cls-3" d="M69.941,59.85l-7.155-4.132c-.034-.017-.066-.036-.097-.057-.399-.302-.584-.929-.584-1.677-.008-.121-.008-.242,0-.362v-.044c.051-.968.207-1.927.466-2.861.114-.48.235-1.006.335-1.546l1.55-.896.06-.034.037-.02h0l1.221-.654h0l.034-.017c.384-.191.781-.355,1.187-.49h.047l.158-.05c.062-.02.126-.036.191-.047h.037c.074-.02.151-.04.228-.054l.201-.027h.413c.08.001.16.01.238.027h.03l.114.02c.093.025.183.056.272.094l.08.034c.24.128.446.31.6.533.014.019.026.039.037.06.073.105.136.218.188.335,0,.023.023.05.034.07v.023c.05.124.094.258.138.399l.027.107c.044.164.078.331.101.5l.017.077c.065.477.095.958.091,1.439-.014,1.46-.217,2.912-.604,4.32-.256.936-.411,1.896-.463,2.865v.04c0,.154-.017.265-.017.366,0,.748.218,1.322.614,1.623l.174.034Z"/>
        <path fill="#6c9ebf" class="cls-3" d="M58.708,51.602l-7.111-4.163v-7.695c-.024-1.129.048-2.258.215-3.374.248-1.372.624-1.788,1.704-2.412.653-.402,1.401-.623,2.167-.641.252-.02.49-.044.731-.081l.191-.034.335-.07c.138-.04.285-.081.439-.134.064-.018.127-.041.188-.067.246-.09.486-.195.718-.315l.03-.017c.145-.058.285-.128.419-.208,1.322-.761,2.563-2.261,3.401-4.106.057-.121.104-.242.154-.359l-.178.178c.228-.225.449-.466.671-.714.769-.885,1.651-1.666,2.623-2.321.137-.103.282-.196.433-.278,2.432-1.409,4.414.091,4.414,3.331-.028,1.498-.371,2.973-1.006,4.33-.842,1.848-2.083,3.354-3.405,4.109-.135.077-.275.146-.419.205-.01.003-.02.003-.03,0-.232.126-.472.238-.718.335l-.188.067c-.144.05-.291.092-.439.127-.117.03-.225.054-.335.074l-.195.034c-.238.034-.48.064-.731.081-.766.016-1.513.237-2.164.641-1.08.621-1.459,1.036-1.704,2.408-.169,1.119-.244,2.25-.221,3.381v5.065h0l.01,2.623Z"/>
        <path fill="#6c9ebf" class="cls-3" d="M59.362,29.628l-7.145-4.132c-.419-.255-.61-1.315-.61-3.978l-.03-7.648,7.138,4.122v7.688c0,2.683.225,3.706.651,3.945l-.003.003Z"/>
        <path fill="#6c9ebf" d="M69.995,59.884l-.054-.03h0l-.114-.074c-.396-.302-.614-.875-.614-1.623,0-.101,0-.211.017-.366v-.04c.051-.969.207-1.929.463-2.865.387-1.408.59-2.86.604-4.32.005-.481-.025-.962-.091-1.439l-.017-.077c-.023-.169-.056-.336-.101-.5l-.027-.107c-.044-.141-.087-.275-.138-.399v-.023c0-.02-.02-.047-.034-.07-.052-.118-.115-.23-.188-.335-.011-.021-.023-.041-.037-.06-.155-.223-.361-.406-.6-.533l-.08-.034c-.088-.038-.179-.069-.272-.094l-.114-.02h-.03c-.078-.016-.158-.025-.238-.027h-.413l-.201.027c-.077,0-.154.034-.228.054h-.037c-.065.011-.129.027-.191.047l-.158.05h-.047c-.407.135-.804.299-1.187.49l-.034.017h0l-1.221.654h0l-.037.02-.06.034-1.55.896-4.26,2.469v-2.626h0v-5.065c-.023-1.13.05-2.26.218-3.378.245-1.372.624-1.788,1.704-2.408.651-.404,1.398-.625,2.164-.641.252,0,.493-.047.731-.081l.195-.034c.111-.02.218-.044.335-.074.149-.035.295-.078.439-.127l.188-.067c.246-.098.485-.21.718-.335.01.003.02.003.03,0,.144-.059.284-.127.419-.205,1.322-.768,2.563-2.261,3.405-4.109.635-1.357.978-2.832,1.006-4.33,0-3.24-1.982-4.74-4.414-3.331-.151.082-.295.175-.433.278-.972.655-1.854,1.436-2.623,2.321-.231.248-.453.49-.671.714-.354.355-.743.674-1.161.953l-.151.094-.174.104c-.201.114-.382.221-.553.299l-.164.067c-.049.021-.101.036-.154.044-.046.016-.095.024-.144.023-.089.003-.178-.019-.255-.064-.426-.238-.651-1.254-.651-3.945v-7.688l-7.138-4.122L73.503,1.184c.08-.044.154-.087.235-.124.071-.037.145-.068.221-.094h0l.221-.07c.069-.023.14-.04.211-.05.09-.016.181-.027.272-.03.368-.016.732.081,1.043.278l7.044,4.062h0c.218.12.408.283.56.48.052.067.1.138.144.211.032.049.061.099.087.151.054.107.104.218.151.335.017.06.04.121.057.184.126.436.186.888.178,1.342v29.202l-5.766,3.327-.104.067-.07.04h-.017l-1.144.708h0c-.456.299-.894.625-1.312.976l-.03.023-.067.057-.299.268-.023.027c-.044.037-.087.081-.127.121s-.178.174-.262.265-.114.117-.164.178-.164.181-.242.275l-.158.198-.221.295-.121.178-.027.047-.03.047c-.057.084-.117.171-.171.262s-.074.131-.107.198l-.027.054c-.104.188-.205.386-.295.587l-.02.05c-.04.084-.077.171-.111.255h0c-.03.087-.064.174-.094.265l-.027.067-.101.309c-.034.111-.064.221-.094.335s-.057.228-.084.335-.047.225-.067.335-.044.245-.06.369v.02c0,.104-.034.208-.044.312s-.027.262-.04.409v.081c0,.077,0,.154-.017.231v.745c-.025,1.236.18,2.465.604,3.626.281.752.437,1.545.463,2.348v.037c0,.107.017.218.02.309,0,1.546-.946,3.354-2.106,4.025-.212.129-.448.213-.694.245-.05.005-.101.005-.151,0h-.023c-.031.005-.063.005-.094,0-.028.005-.056.005-.084,0l-.067-.017-.08-.023c-.021-.004-.042-.012-.06-.023-.04.005-.081-.002-.117-.02Z"/>
        <path class="cls-4" d="M58.708,17.993l-7.138-4.122L73.5,1.184c.08-.044.154-.087.235-.124.071-.037.145-.068.221-.094h0l.221-.07c.069-.023.14-.04.211-.05.09-.016.181-.027.272-.03.368-.016.732.081,1.043.278l6.963,4.025c-.061-.032-.125-.057-.191-.074-.015-.004-.03-.01-.044-.017-.061-.021-.124-.035-.188-.044h-.064c-.041-.005-.083-.005-.124,0h-.121c-.01-.002-.02-.002-.03,0-.058-.005-.116-.005-.174,0l-.134.02c-.091.011-.181.031-.268.06l-.134.04-.262.104c-.101.047-.201.101-.309.161l-21.917,12.622Z"/>
      </g>
    </g>
  </g>
</svg>