<svg xmlns="http://www.w3.org/2000/svg" viewBox="0 0 100 100"><defs><style>.cls-6{fill:#b5cede}.cls-8{fill:#fff}</style></defs><g opacity=".25"><path class="cls-8" d="M45.289 54.34c-11.688-11.273-12.024-29.886-.752-41.574C55.81 1.078 74.423.742 86.111 12.014c11.688 11.273 12.024 29.886.752 41.574l-.003.003c-11.27 11.686-29.88 12.024-41.566.754l-.005-.005Z"/><path class="cls-6" d="M39.67 19.518c-7.492 14.289-2.078 31.947 12.136 39.58L39.67 19.518ZM64.837 3.801l16.619 54.212c1.971-1.253 3.786-2.736 5.408-4.417 1.865-1.922 3.452-4.095 4.717-6.455L79.316 7.12c-4.463-2.326-9.448-3.469-14.479-3.318ZM46.686 10.774l15.84 51.629c1.916.207 3.849.227 5.769.06L51.441 7.476c-1.693.935-3.286 2.04-4.755 3.298ZM60.833 4.203 77.912 59.93c.326-.148.649-.301.965-.464L61.881 4.04c-.346.045-.697.094-1.048.163ZM87.153 13.08l7.585 24.733c.142-.868.217-1.732.304-2.632l-6.165-20.085c-.54-.701-1.115-1.374-1.724-2.016Z"/></g><path fill="#f1ebe5" d="m17.26141077 77.83187733 23.59719195-24.46549842 5.56377579 5.36631149-23.59719195 24.46549842z"/><path opacity=".75" fill="#b5cedf" d="m40.98973909 53.23134734 5.5623707 5.3677679-2.42070361 2.50846368-5.5623707-5.3677679z"/><path d="M89.229 55.877c12.532-12.993 12.159-33.685-.834-46.217-12.993-12.532-33.685-12.159-46.217.834-12.532 12.992-12.159 33.683.833 46.216 12.995 12.527 33.683 12.154 46.218-.833Zm-43.94-1.537c-11.69-11.271-12.03-29.884-.759-41.574 11.271-11.69 29.884-12.03 41.574-.759 11.69 11.271 12.03 29.884.759 41.574l-.006.006c-11.27 11.687-29.879 12.025-41.566.755l-.002-.002Z" fill="#b5cede"/><path class="cls-8" d="M79.134 46.427c.021-.029.044-.056.07-.081.333-.385-.312.385-.103.123s.502-.635.732-.959c.825-1.147 1.551-2.363 2.171-3.633.089-.175.171-.36.26-.536.029-.06-.193.43-.033.022l.146-.337c.182-.436.357-.874.501-1.305.353-.976.64-1.974.861-2.989l.146-.727c.062-.329-.059.375.01-.068l.069-.443c.072-.561.128-1.125.16-1.695s.046-1.228.029-1.84c-.009-.281-.023-.56-.045-.84-.029-.487.03.199-.011-.15l-.059-.501c-.196-1.505-.539-2.987-1.025-4.425l-.041-.062-.06-.152-.244-.625c-.165-.403-.337-.796-.525-1.191-.393-.826-.828-1.631-1.303-2.413-.49-.956-.112-2.128.844-2.618s2.128-.112 2.618.844c3.074 4.95 4.285 10.834 3.414 16.595-.649 3.875-2.142 7.559-4.373 10.792-.494.729-1.036 1.423-1.623 2.078-.792.724-2.02.671-2.748-.117-.702-.8-.65-2.011.117-2.748l.046-.003Z" fill="#fff"/><path class="cls-8" d="M74.805 50.263c-.781.713-.837 1.924-.124 2.706s1.924.837 2.706.124c.781-.713.837-1.924.124-2.706-.002-.003-.005-.005-.007-.008-.715-.774-1.92-.826-2.699-.116Z"/><rect x="9.151" y="73.571" width="10.085" height="25.977" rx=".976" ry=".976" transform="rotate(43.98 14.1928671 86.55881631)" fill="#d7c5b2"/></svg>

