<?xml version="1.0" encoding="UTF-8"?>
<svg xmlns="http://www.w3.org/2000/svg" version="1.1" viewBox="0 0 100 88.122">
  <defs>
    <style>
      .c1 {
        opacity: .1;
      }

      .c1, .c2, .c3 {
        isolation: isolate;
      }

      .c2 {
        opacity: .2;
      }

      .c4 {
        fill: #d6dadc;
      }

      .c3 {
        fill: #fff;
        opacity: .3;
      }
    </style>
  </defs>
  <!-- Generator: Adobe Illustrator 28.7.1, SVG Export Plug-In . SVG Version: 1.2.0 Build 142)  -->
  <g>
    <g id="Calque_1">
      <polygon class="c4" points="99.931 59.21 50 88.036 50 57.688 99.931 28.862 99.931 59.21"/>
      <polygon class="c1" points="99.931 59.21 50 88.036 50 57.688 99.931 28.862 99.931 59.21"/>
      <polyline class="c4" points=".077 59.21 50 88.036 50 57.688 .069 28.862"/>
      <polyline class="c2" points=".077 59.21 50 88.036 50 57.688 .069 28.862"/>
      <polyline class="c4" points=".069 28.862 50 57.688 99.931 28.862 50 .036 .069 28.862"/>
      <path class="c4" d="M62.445,11.474c0-1.839-1.211-3.679-3.641-5.079-4.86-2.808-12.74-2.808-17.6,0-2.43,1.4-3.649,3.24-3.649,5.079v4.913c0,1.839,1.219,3.671,3.649,5.079,4.86,2.808,12.74,2.808,17.6,0,2.43-1.408,3.649-3.24,3.641-5.079v-4.913Z"/>
      <path class="c1" d="M58.804,6.387c2.43,1.4,3.649,3.24,3.641,5.079v4.913c0,1.839-1.211,3.671-3.641,5.079-2.706,1.447-5.736,2.179-8.804,2.127V4.283c3.066-.063,6.097.662,8.804,2.104Z"/>
      <path class="c2" d="M41.204,6.387c-2.43,1.4-3.649,3.24-3.649,5.079v4.913c0,1.839,1.219,3.671,3.649,5.079,2.703,1.446,5.731,2.178,8.796,2.127V4.283c-3.064-.062-6.092.663-8.796,2.104Z"/>
      <path class="c4" d="M41.204,6.387c-4.86,2.801-4.86,7.35,0,10.159s12.74,2.808,17.6,0,4.86-7.358,0-10.159-12.74-2.808-17.6,0Z"/>
      <path class="c3" d="M41.204,6.387c-4.86,2.801-4.86,7.35,0,10.159s12.74,2.808,17.6,0,4.86-7.358,0-10.159-12.74-2.808-17.6,0Z"/>
      <path class="c4" d="M62.445,39.581c0-1.832-1.211-3.671-3.641-5.079-4.86-2.808-12.74-2.808-17.6,0-2.43,1.408-3.649,3.24-3.649,5.079v4.913c0,1.839,1.219,3.679,3.649,5.079,4.86,2.808,12.74,2.808,17.6,0,2.43-1.4,3.649-3.24,3.641-5.079v-4.913Z"/>
      <path class="c1" d="M58.804,34.502c2.43,1.408,3.649,3.24,3.641,5.079v4.913c0,1.839-1.211,3.679-3.641,5.079-2.705,1.446-5.737,2.171-8.804,2.104v-19.28c3.066-.059,6.096.665,8.804,2.104Z"/>
      <path class="c2" d="M41.204,34.502c-2.43,1.408-3.649,3.24-3.649,5.079v4.913c0,1.839,1.219,3.679,3.649,5.079,2.703,1.445,5.732,2.17,8.796,2.104v-19.28c-3.063-.058-6.091.666-8.796,2.104Z"/>
      <path class="c4" d="M41.204,34.502c-4.86,2.808-4.86,7.358,0,10.166s12.74,2.801,17.6,0,4.86-7.358,0-10.166-12.74-2.808-17.6,0Z"/>
      <path class="c3" d="M41.204,34.502c-4.86,2.808-4.86,7.358,0,10.166s12.74,2.801,17.6,0,4.86-7.358,0-10.166-12.74-2.808-17.6,0Z"/>
      <path class="c4" d="M38.123,25.516c0-1.839-1.219-3.679-3.649-5.079-4.86-2.808-12.74-2.808-17.6,0-2.43,1.4-3.649,3.24-3.649,5.079v4.883c0,1.839,1.219,3.679,3.649,5.079,4.86,2.808,12.74,2.808,17.6,0,2.43-1.4,3.649-3.24,3.649-5.079v-4.883Z"/>
      <path class="c1" d="M34.459,20.437c2.43,1.4,3.649,3.24,3.649,5.079v4.913c0,1.839-1.219,3.679-3.649,5.079-2.706,1.442-5.738,2.167-8.804,2.104v-19.28c3.066-.059,6.096.665,8.804,2.104Z"/>
      <path class="c2" d="M16.859,20.437c-2.43,1.4-3.649,3.24-3.649,5.079v4.883c0,1.839,1.219,3.679,3.649,5.079,2.704,1.441,5.732,2.166,8.796,2.104v-19.25c-3.063-.058-6.091.666-8.796,2.104Z"/>
      <path class="c4" d="M16.859,20.437c-4.86,2.808-4.86,7.358,0,10.159s12.74,2.808,17.6,0,4.86-7.35,0-10.159-12.74-2.808-17.6,0Z"/>
      <path class="c3" d="M16.859,20.437c-4.86,2.808-4.86,7.358,0,10.159s12.74,2.808,17.6,0,4.86-7.35,0-10.159-12.74-2.808-17.6,0Z"/>
      <path class="c4" d="M86.79,25.524c0-1.839-1.211-3.679-3.641-5.079-4.86-2.808-12.74-2.808-17.6,0-2.438,1.4-3.649,3.24-3.649,5.079v4.913c0,1.839,1.211,3.679,3.641,5.079,4.867,2.808,12.748,2.808,17.608,0,2.43-1.4,3.641-3.24,3.641-5.079v-4.913Z"/>
      <path class="c1" d="M83.149,20.444c2.43,1.4,3.641,3.24,3.641,5.079v4.913c0,1.839-1.211,3.679-3.641,5.079-2.706,1.442-5.738,2.167-8.804,2.104v-19.28c3.066-.059,6.096.665,8.804,2.104Z"/>
      <path class="c2" d="M65.549,20.444c-2.438,1.4-3.649,3.24-3.649,5.079v4.913c0,1.839,1.211,3.679,3.641,5.079,2.707,1.441,5.738,2.166,8.804,2.104v-19.28c-3.063-.059-6.091.665-8.796,2.104Z"/>
      <path class="c4" d="M65.549,20.444c-4.867,2.808-4.867,7.358,0,10.166s12.748,2.801,17.608,0,4.86-7.358,0-10.166-12.748-2.808-17.608,0Z"/>
      <path class="c3" d="M65.549,20.444c-4.867,2.808-4.867,7.358,0,10.166s12.748,2.801,17.608,0,4.86-7.358,0-10.166-12.748-2.808-17.608,0Z"/>
    </g>
  </g>
</svg>