<?xml version="1.0" encoding="utf-8"?>
<!-- Generator: Adobe Illustrator 25.1.0, SVG Export Plug-In . SVG Version: 6.00 Build 0)  -->
<svg version="1.1" id="Calque_1" xmlns="http://www.w3.org/2000/svg" xmlns:xlink="http://www.w3.org/1999/xlink" x="0px" y="0px"
	 viewBox="0 0 600 93.7" style="enable-background:new 0 0 600 93.7;" xml:space="preserve">
<path d="M173.6,92.2h19.9V57.1h43.2v-18h-43.2V19.5h49.1v-18h-69L173.6,92.2L173.6,92.2z M280.4,1.6h-19.9v90.6h19.9V1.6z
	 M150.8,39.1h-43.2V19.5h49.1v-18h-69v90.6h19.9V57.1h43.2V39.1z M578.5,1.6l-23.8,38.3L530.9,1.6h-21.5v90.6H529V33.4l25.2,38.3
	h0.5L580.3,33v59.2H600V1.6L578.5,1.6L578.5,1.6z M490.6,46.9v-0.3c0-6.5-1.2-12.5-3.6-18.2c-2.4-5.7-5.7-10.6-10-14.8
	c-4.3-4.2-9.3-7.5-15.2-10C456,1.2,449.5,0,442.6,0s-13.4,1.2-19.4,3.7c-5.9,2.5-11,5.8-15.3,10.1s-7.6,9.2-10,14.9
	c-2.4,5.7-3.6,11.7-3.6,18.2v0.3c0,6.5,1.2,12.5,3.6,18.2c2.4,5.7,5.7,10.6,10,14.8c4.3,4.2,9.3,7.5,15.2,10
	c5.9,2.5,12.3,3.7,19.3,3.7s13.4-1.2,19.4-3.7c5.9-2.5,11-5.8,15.3-10.1c4.3-4.3,7.6-9.2,10-14.9C489.4,59.4,490.6,53.3,490.6,46.9
	L490.6,46.9z M469.7,47.1c0,3.9-0.7,7.5-2,10.9c-1.3,3.4-3.2,6.4-5.6,9c-2.4,2.6-5.2,4.6-8.6,6.1c-3.4,1.5-7,2.2-11,2.2
	c-4.1,0-7.8-0.8-11.1-2.3c-3.3-1.5-6.2-3.6-8.7-6.2c-2.5-2.6-4.4-5.6-5.7-9.1c-1.3-3.5-2-7.1-2-11v-0.3c0-3.9,0.7-7.5,2-10.9
	c1.3-3.4,3.2-6.4,5.6-9c2.4-2.6,5.2-4.6,8.5-6.1c3.3-1.5,7-2.2,11.1-2.2c4,0,7.6,0.8,11,2.3c3.4,1.5,6.3,3.6,8.7,6.1
	s4.4,5.6,5.7,9.1c1.3,3.5,2,7.1,2,11V47.1z M383.8,77.6l-12.7-12.8c-3.5,3.3-7.1,5.9-10.7,7.8c-3.6,1.9-8,2.8-13.1,2.8
	c-3.9,0-7.4-0.8-10.7-2.3c-3.2-1.5-6-3.6-8.3-6.2c-2.3-2.6-4.1-5.6-5.4-9.1c-1.3-3.5-1.9-7.1-1.9-11v-0.3c0-3.9,0.6-7.5,1.9-10.9
	c1.3-3.4,3.1-6.4,5.4-9c2.3-2.6,5.1-4.6,8.4-6.1c3.2-1.5,6.8-2.2,10.6-2.2c4.6,0,8.7,0.9,12.4,2.7c3.7,1.8,7.3,4.3,10.8,7.5
	L383.1,14c-2.1-2.1-4.3-4-6.7-5.7c-2.5-1.8-5.1-3.2-7.9-4.4c-2.8-1.2-6-2.2-9.5-2.8c-3.5-0.7-7.4-1-11.6-1c-7,0-13.4,1.2-19.2,3.7
	c-5.8,2.5-10.7,5.8-14.9,10.1c-4.1,4.3-7.4,9.2-9.7,14.9c-2.3,5.7-3.5,11.7-3.5,18.2v0.3c0,6.5,1.2,12.6,3.5,18.3
	c2.3,5.7,5.6,10.6,9.7,14.8c4.1,4.2,9.1,7.5,14.8,9.9c5.7,2.4,11.9,3.6,18.5,3.6c4.4,0,8.4-0.4,11.9-1.1c3.5-0.7,6.8-1.8,9.8-3.2
	c2.9-1.4,5.7-3.1,8.2-5.1C379.1,82.2,381.5,80,383.8,77.6L383.8,77.6z M68.9,74.4H19.7v-19h42.7V37.7H19.7V19.3h48.6V1.6H0v90.6
	h68.9L68.9,74.4L68.9,74.4z"/>
</svg>
