<?xml version="1.0" encoding="utf-8"?>
<!-- Generator: Adobe Illustrator 25.1.0, SVG Export Plug-In . SVG Version: 6.00 Build 0)  -->
<svg version="1.1" id="Calque_1" xmlns="http://www.w3.org/2000/svg" xmlns:xlink="http://www.w3.org/1999/xlink" x="0px" y="0px"
	 viewBox="0 0 298.2 122.1" style="enable-background:new 0 0 298.2 122.1;" xml:space="preserve">
<style type="text/css">
	.st0{fill:#333;}
</style>
<g>
	<path class="st0" d="M0.1,0.6h18.2C29,0.6,37.1,9,37.1,19.4S29,38.1,18.3,38.1h-5.8v17.8H0L0.1,0.6L0.1,0.6z M18.2,26.6
		c4.1,0,7-3.4,7-7.2c0-3.7-2.9-7.1-7-7.1h-5.6v14.3C12.6,26.6,18.2,26.6,18.2,26.6z M43.4,0.6h12.5v42.8h21.5v12.4H43.4V0.6z"/>
	<path class="st0" d="M93.9,0L66.7,55.8h13.1l14.2-30.1L108,55.8h13.1L93.9,0z M126.8,0.6h12.5v55.2h-12.5V0.6z M149.6,0v55.8H162
		V27l34.8,29.4V0.6h-12.4v28.8L149.6,0z M207.3,0.6h34.1v12.3h-21.8v9.4h17.2v12h-17.2v9.3h21.8v12.3h-34.1V0.6z M0.5,0.6h18.2
		c10.8,0,18.9,8.4,18.9,18.8s-8.1,18.8-18.9,18.8h-5.8v17.8H0.4L0.5,0.6L0.5,0.6z M18.5,26.6c4.1,0,7-3.4,7-7.2c0-3.7-2.9-7.1-7-7.1
		h-5.6v14.3C12.9,26.6,18.5,26.6,18.5,26.6z"/>
	<path class="st0" d="M43.7,0.6h12.5v42.8h21.5v12.4H43.7V0.6z"/>
	<path class="st0" d="M94.2,0L67,55.8h13.1l14.2-30.1l14.2,30.1h13L94.2,0z M127.1,0.6h12.5v55.2h-12.5V0.6z M149.9,0v55.8h12.5V27
		l34.7,29.4V0.6h-12.4v28.8L149.9,0z M207.6,0.6h34.1v12.3H220v9.4h17.2v12H220v9.3h21.8v12.3h-34.1V0.6z M49.4,67.7h12.1v53.7H49.4
		V67.7z M71.7,67.1l26.8,26.9l26.8-26.9v54.3h-12.1V95l-14.7,14.7L83.7,95v26.4H71.7V67.1z M142.2,121.4h-12.7L156,67.1l26.5,54.3
		h-12.7L156,92L142.2,121.4z M261.3,111.4l9.2-7.5c2.3,3.7,6.2,6.7,9.9,6.7c3.6,0,5.2-1.4,5.2-3.9c0-2.4-1.7-3.9-6.3-6l-3-1.4
		c-8.1-3.6-12.6-9.6-12.6-16.9c0-9.4,7.8-15.5,16.4-15.5c6,0,10.5,1.4,15.1,6.7l-8.2,8.6c-2.7-3.3-4.4-4-6.9-4c-2,0-4.2,1.3-4.2,3.7
		c0,2.8,2.3,4.3,7.3,6.5l2.9,1.3c7.4,3.3,11.7,8.7,11.7,16.1c0,9.7-7.1,16-17.1,16C272,121.9,265.1,118.4,261.3,111.4 M191.3,78.7
		c5.8,0,9.3,1.9,12.6,6l9.2-7.5c-5.2-6.4-12.5-10.1-21.7-10.1c-8.5,0-16.1,3.9-21.2,10l6.4,13.2C178.3,83.6,184.1,78.7,191.3,78.7
		 M193.8,88.8l-5.2,11.4h13v7.5c-2.6,1.9-6,2.7-10.4,2.7c-1.9,0-3.7-0.4-5.4-1l6.2,12.7c8.8-0.2,16.2-2.9,21.4-8.8V88.8H193.8z
		 M222.2,88.5h32.3v11.2h-32.3V88.5z M222.2,109.1h33.2v12h-33.2V109.1z M222.1,67.4h33.2v12h-33.2V67.4z"/>
	<path class="st0" d="M49.8,67.7h12.1v53.7H49.8V67.7z M72,67.1l26.8,26.9l26.9-26.9v54.3h-12.2V95l-14.7,14.7L84,95v26.4H72V67.1z
		 M142.5,121.4h-12.7l26.5-54.3l26.5,54.3h-12.7L156.3,92L142.5,121.4z M261.7,111.4l9.2-7.5c2.3,3.7,6.2,6.7,9.9,6.7
		c3.6,0,5.2-1.4,5.2-3.9c0-2.4-1.7-3.9-6.3-6l-3-1.4c-8.1-3.6-12.6-9.6-12.6-16.9c0-9.4,7.8-15.5,16.4-15.5c6,0,10.5,1.4,15.1,6.7
		l-8.2,8.6c-2.7-3.3-4.4-4-6.9-4c-2,0-4.2,1.3-4.2,3.7c0,2.8,2.3,4.3,7.3,6.5l2.9,1.3c7.4,3.3,11.7,8.7,11.7,16.1
		c0,9.7-7.1,16-17.1,16C272.3,121.9,265.4,118.4,261.7,111.4 M191.6,78.7c5.8,0,9.3,1.9,12.6,6l9.2-7.5
		c-5.2-6.4-12.5-10.1-21.7-10.1c-8.5,0-16.1,3.9-21.2,10l6.4,13.2C178.6,83.6,184.4,78.7,191.6,78.7 M194.1,88.8l-5.2,11.4h13v7.5
		c-2.6,1.9-6,2.7-10.4,2.7c-1.9,0-3.7-0.4-5.4-1l6.2,12.7c8.8-0.2,16.2-2.9,21.4-8.8V88.8H194.1z M222.5,88.5h32.3v11.2h-32.3V88.5z
		 M222.5,109.1h33.2v12h-33.2V109.1z M222.5,67.4h33.2v12h-33.2V67.4z"/>
</g>
</svg>
