<svg width="240" height="267" viewBox="0 0 240 267" fill="none" xmlns="http://www.w3.org/2000/svg">
<rect x="82.8027" y="32.8639" width="97.6375" height="187.943" fill="#59B7D3"/>
<path fill-rule="evenodd" clip-rule="evenodd" d="M82.8033 16.7059H180.441V74.3851H180.44V79.9489C180.44 83.3191 177.708 86.0512 174.338 86.0512C170.968 86.0512 168.236 83.3191 168.236 79.9489V74.3851H156.031V92.2619C156.031 95.6321 153.299 98.3643 149.929 98.3643C146.559 98.3643 143.827 95.6321 143.827 92.2619V74.3851H131.622V85.1332C131.622 88.5034 128.89 91.2355 125.519 91.2355C122.149 91.2355 119.417 88.5034 119.417 85.1332V74.3851H107.213V98.4736C107.213 105.214 101.748 110.678 95.008 110.678C88.2675 110.678 82.8033 105.214 82.8033 98.4736L82.8033 74.3851V16.7059Z" fill="#DAF1FB"/>
<path fill-rule="evenodd" clip-rule="evenodd" d="M131.623 64.9331C131.623 61.5629 134.355 58.8307 137.725 58.8307C141.095 58.8307 143.827 61.5629 143.827 64.9331V117.537C143.827 120.907 141.095 123.639 137.725 123.639C134.355 123.639 131.623 120.907 131.623 117.537V64.9331ZM156.031 72.062C156.031 68.6917 158.763 65.9596 162.134 65.9596C165.504 65.9596 168.236 68.6917 168.236 72.062V124.665C168.236 128.036 165.504 130.768 162.134 130.768C158.763 130.768 156.031 128.036 156.031 124.665V72.062ZM113.315 65.9596C109.945 65.9596 107.213 68.6917 107.213 72.062V124.665C107.213 128.036 109.945 130.768 113.315 130.768C116.686 130.768 119.418 128.036 119.418 124.665V72.062C119.418 68.6917 116.686 65.9596 113.315 65.9596Z" fill="#59B7D3"/>
<circle cx="100.994" cy="195.418" r="5.11681" fill="#DAF1FB"/>
<circle cx="142.132" cy="196.607" r="4.12652" fill="#DAF1FB"/>
<circle cx="178.695" cy="195.417" r="5.4469" fill="#DAF1FB"/>
<circle cx="189.674" cy="208.558" r="4.45662" fill="#DAF1FB"/>
<circle cx="80.7227" cy="203.802" r="4.45662" fill="#DAF1FB"/>
<circle cx="84.7505" cy="187.89" r="4.12652" fill="#DAF1FB"/>
<g filter="url(#filter0_d_2_40)">
<path d="M133.244 241.757C129.636 244.594 125.087 246.286 120.142 246.286C111.025 246.286 103.252 240.535 100.252 232.462C97.9806 235.549 94.3221 237.552 90.1958 237.552C83.3046 237.552 77.7182 231.965 77.7182 225.074C77.7182 218.183 83.3046 212.596 90.1958 212.596C94.3221 212.596 97.9806 214.599 100.252 217.686C103.252 209.614 111.025 203.862 120.142 203.862C125.087 203.862 129.636 205.554 133.244 208.391C136.851 205.554 141.4 203.862 146.345 203.862C152.479 203.862 158.005 206.466 161.878 210.629C163.299 210.284 164.783 210.101 166.309 210.101C176.646 210.101 185.026 218.481 185.026 228.817C185.026 239.154 176.646 247.534 166.309 247.534C162.325 247.534 158.632 246.289 155.597 244.167C152.801 245.525 149.662 246.286 146.345 246.286C141.4 246.286 136.851 244.594 133.244 241.757Z" fill="#DAF1FB"/>
</g>
<path fill-rule="evenodd" clip-rule="evenodd" d="M137.598 266.27C111.566 266.27 88.013 260.568 66.9395 249.164C46.1139 237.511 29.7509 221.644 17.8505 201.562C5.95018 181.232 0 158.423 0 133.135C0 107.847 5.95018 85.1619 17.8505 65.08C29.7509 44.7503 46.2378 28.8831 67.3114 17.4786C88.3849 5.82621 111.938 0 137.97 0C158.299 0 176.894 3.47094 193.753 10.4128C208.759 16.371 221.8 24.981 232.878 36.2427C237.191 39.3406 240 44.3999 240 50.1155C240 59.5424 232.358 67.1844 222.931 67.1844C219.146 67.1844 215.649 65.9525 212.819 63.8678L212.719 63.9644C212.496 63.7301 212.272 63.4972 212.048 63.2655C211.209 62.5707 210.438 61.7972 209.746 60.9562C190.68 42.384 167.25 33.0979 139.457 33.0979C120.119 33.0979 102.641 37.4365 87.0213 46.1139C71.4021 54.7912 59.1299 66.8155 50.2046 82.1868C41.5273 97.3102 37.1886 114.293 37.1886 133.135C37.1886 151.977 41.5273 169.084 50.2046 184.455C59.1299 199.579 71.4021 211.479 87.0213 220.157C102.641 228.834 120.119 233.173 139.457 233.173C166.615 233.173 189.753 224.045 208.87 205.79C209.7 204.752 210.649 203.814 211.695 202.995C212.038 202.645 212.379 202.291 212.719 201.934L212.915 202.124C215.588 200.387 218.778 199.378 222.204 199.378C231.631 199.378 239.273 207.02 239.273 216.447C239.273 219.682 238.373 222.706 236.81 225.284L236.891 225.363C236.741 225.532 236.591 225.7 236.44 225.868C235.35 227.512 233.983 228.955 232.406 230.133C221.402 241.19 208.394 249.765 193.381 255.858C176.522 262.799 157.928 266.27 137.598 266.27Z" fill="#59B7D3"/>
<defs>
<filter id="filter0_d_2_40" x="70.7182" y="191.862" width="121.308" height="57.6717" filterUnits="userSpaceOnUse" color-interpolation-filters="sRGB">
<feFlood flood-opacity="0" result="BackgroundImageFix"/>
<feColorMatrix in="SourceAlpha" type="matrix" values="0 0 0 0 0 0 0 0 0 0 0 0 0 0 0 0 0 0 127 0" result="hardAlpha"/>
<feOffset dy="-5"/>
<feGaussianBlur stdDeviation="3.5"/>
<feComposite in2="hardAlpha" operator="out"/>
<feColorMatrix type="matrix" values="0 0 0 0 1 0 0 0 0 1 0 0 0 0 1 0 0 0 0.3 0"/>
<feBlend mode="normal" in2="BackgroundImageFix" result="effect1_dropShadow_2_40"/>
<feBlend mode="normal" in="SourceGraphic" in2="effect1_dropShadow_2_40" result="shape"/>
</filter>
</defs>
</svg>
