<?xml version="1.0" encoding="utf-8"?>
<!-- Credit : https://tablericons.com/  -->
<svg version="1.1" id="Calque_1" xmlns="http://www.w3.org/2000/svg" xmlns:xlink="http://www.w3.org/1999/xlink" x="0px" y="0px"
	 viewBox="0 0 38.9 36.5" style="enable-background:new 0 0 38.9 36.5;" xml:space="preserve" fill="#fff">
<g>
	<path d="M9.1,18c0,0-0.1,0-0.1,0C4,18,0,14,0,9c0-5,4-9,9-9s9,3.6,9,8.1c0,2.4-2.2,4.4-4.8,4.4h-2.3c-0.6,0-1.2,0.5-1.2,1.1
		c0,0.4,0.2,0.8,0.6,1c0,0,0.1,0.1,0.1,0.1c0.8,0.7,0.8,1.9,0.1,2.7C10.1,17.8,9.6,18,9.1,18z M9,1.4C4.8,1.4,1.4,4.8,1.4,9
		s3.4,7.6,7.6,7.6c0,0,0,0,0.1,0c0.2,0,0.3,0,0.4-0.2c0.2-0.2,0.2-0.5,0-0.7c-0.8-0.5-1.2-1.3-1.2-2.2c0-0.7,0.3-1.3,0.8-1.8
		c0.5-0.5,1.1-0.7,1.8-0.7c0,0,0,0,0,0h2.3c1.9,0,3.5-1.3,3.5-3C16.6,4.4,13.2,1.4,9,1.4z"/>
	<g>
		<circle cx="4.8" cy="7.6" r="0.5"/>
		<path d="M4.8,8.8c-0.6,0-1.2-0.5-1.2-1.2s0.5-1.2,1.2-1.2S6,7,6,7.6S5.5,8.8,4.8,8.8z M4.8,7.4c-0.1,0-0.2,0.1-0.2,0.2
			c0,0.3,0.5,0.3,0.5,0C5.1,7.5,5,7.4,4.8,7.4z"/>
	</g>
	<g>
		<circle cx="9" cy="4.8" r="0.5"/>
		<path d="M9,6C8.4,6,7.8,5.5,7.8,4.8S8.4,3.7,9,3.7s1.2,0.5,1.2,1.2S9.6,6,9,6z M9,4.6c-0.1,0-0.2,0.1-0.2,0.2c0,0.3,0.5,0.3,0.5,0
			C9.2,4.7,9.1,4.6,9,4.6z"/>
	</g>
	<g>
		<circle cx="13.2" cy="7.6" r="0.5"/>
		<path d="M13.2,8.8c-0.6,0-1.2-0.5-1.2-1.2s0.5-1.2,1.2-1.2s1.2,0.5,1.2,1.2S13.8,8.8,13.2,8.8z M13.2,7.4c-0.1,0-0.2,0.1-0.2,0.2
			c0,0.3,0.5,0.3,0.5,0C13.4,7.5,13.3,7.4,13.2,7.4z"/>
	</g>
</g>
<g>
	<path d="M35.2,10.5c-0.2,0-0.4-0.1-0.5-0.2l-6-6c-0.3-0.3-0.3-0.8,0-1.1s0.8-0.3,1.1,0l6,6c0.3,0.3,0.3,0.8,0,1.1
		C35.5,10.4,35.3,10.5,35.2,10.5z"/>
	<path d="M26.2,17.5h-4c-0.4,0-0.8-0.3-0.8-0.8v-4c0-0.2,0.1-0.4,0.2-0.5L33.3,0.5c0.7-0.7,1.8-0.7,2.5,0l2.6,2.6
		c0.7,0.7,0.7,1.8,0,2.5L26.7,17.3C26.5,17.4,26.3,17.5,26.2,17.5z M22.9,16h2.9L37.3,4.5c0.1-0.1,0.1-0.2,0-0.3l-2.6-2.6
		c-0.1-0.1-0.2-0.1-0.3,0L22.9,13.1V16z"/>
</g>
<g>
	<path d="M19.8,36.5c-0.5,0-1-0.2-1.5-0.5c-0.2-0.1-0.3-0.3-0.4-0.4c-0.1-0.2-0.4-0.3-0.6-0.3c-0.2,0-0.5,0-0.7,0.2
		c-0.1,0-0.1,0.1-0.2,0.2c-0.5,0.5-1.1,0.8-1.8,0.9c-0.7,0-1.3-0.2-1.8-0.6c-0.6-0.6-0.9-1.4-0.8-2.2l0-6.9c0-4.3,3.5-7.8,7.8-7.8
		s7.8,3.5,7.8,7.8v7c0.2,1.3-0.8,2.6-2.2,2.7c-0.8,0.1-1.7-0.2-2.2-0.8c-0.2-0.2-0.4-0.3-0.6-0.4c-0.2,0-0.5,0-0.7,0.2
		c-0.1,0-0.1,0.1-0.2,0.2c-0.4,0.5-1,0.8-1.6,0.9C20,36.5,19.9,36.5,19.8,36.5z M17.2,33.8c0.1,0,0.2,0,0.3,0
		c0.6,0.1,1.2,0.4,1.6,0.9c0,0.1,0.1,0.1,0.2,0.2c0.2,0.2,0.4,0.2,0.7,0.2c0.2,0,0.5-0.1,0.6-0.3c0.1-0.2,0.3-0.3,0.4-0.4
		c0.5-0.4,1.1-0.6,1.8-0.5c0.6,0.1,1.2,0.4,1.6,0.9c0.2,0.2,0.5,0.3,0.9,0.3c0.3,0,0.5-0.2,0.7-0.4s0.2-0.5,0.2-0.8l0-7.1
		c0-3.4-2.8-6.2-6.2-6.2s-6.2,2.8-6.2,6.2v7c0,0.4,0.1,0.8,0.3,1c0.2,0.2,0.5,0.3,0.7,0.3c0.3,0,0.5-0.1,0.7-0.3
		c0.1-0.1,0.2-0.3,0.4-0.4C16.1,33.9,16.6,33.8,17.2,33.8z"/>
	<path d="M17.8,26.5c-0.4,0-0.8-0.3-0.8-0.8s0.3-0.8,0.7-0.8h0c0.4,0,0.8,0.3,0.8,0.8S18.2,26.5,17.8,26.5z"/>
	<path d="M21.8,26.5c-0.4,0-0.8-0.3-0.8-0.8s0.3-0.8,0.7-0.8h0c0.4,0,0.8,0.3,0.8,0.8S22.2,26.5,21.8,26.5z"/>
	<path d="M19.8,31.1c-0.9,0-1.7-0.3-2.4-0.8c-0.3-0.2-0.4-0.7-0.2-1c0.2-0.3,0.7-0.4,1-0.2c0.9,0.7,2.2,0.7,3.1,0
		c0.3-0.2,0.8-0.2,1,0.2c0.2,0.3,0.2,0.8-0.2,1C21.5,30.9,20.6,31.1,19.8,31.1z"/>
</g>
</svg>
