<svg xmlns="http://www.w3.org/2000/svg" height="200" viewBox="0 0 209.7 196.9" fill="#fff" aria-hidden="true"><path fill="#d72b2b" d="m112 56-4-3 35-25-21 63h-5l17-51z"/><path fill="#d72b2b" d="m129 77 1-5 35 25H99l-1-4h53z"/><path fill="#d72b2b" d="M114 99h5l-13 41-20-62 4-3 16 50z"/><path fill="#d72b2b" d="m88 93 2 4H47l53-38 4 3-42 31z"/><path fill="#d72b2b" d="m87 66-4 3-13-41 53 39-2 5-42-32z"/><path d="m108 141-2 6c30 0 56-20 65-47h-6c-8 23-31 40-57 41zm-2-131c-14 0-28 4-40 13l5 3c21-14 49-14 70 0l5-3-1 6c20 16 29 42 21 67l5 3a68 68 0 0 0-65-89zM43 78c0-19 9-37 25-49l-2-6a68 68 0 0 0-25 76l5-3-3-18zm4 22-6-1c9 28 35 48 65 48l-2-6c-26-1-48-18-57-41zM50 1h1v2h-2l-1 1v3h-1v5c0 1 0 0 0 0l-1 1h1v1l1-1h1l-1 1v1h-1v1l-1 1h-1v-2h-1l-1 1-1 1h-1v-4h1v-2l1-1 1-1h1l1-1V4h1V2h1V1h1V0h1v1zm-5 9h-1v1h-1v2l1 1 1-1v-1l1-1v-1h-1z"/><path d="M51 8h1v2l-1 1v3h1v-1h1v1h-1v1h-1v1h-1v1-1h-1v-4l1-1v-1h-1V9v1-1l1-1h1zm0-5h1v3h-1l-1-1 1-1V3z"/><path d="M56 10v3h1v1-1h1v-3h-1V9h1V8l1-1v1l1 1v2l-1 1v1h-1v1h-1v1l-1 1-1 1v-5l-1-1v-1h-2 1V9l1-1h1v1l1 1zM184 103h1l-1 1h-2v2l1 1v3l-1 1h-1v1h-3v-2h4v-1l-1-1-1-1v-2h1v-1h1v-1h2z"/><path d="M187 101h1v2h-1v1l-1 1 1 1v-1l1-1h1v-1l1 1v3l-1 1v2h-1l-1 1-1 1h-1v7h1v1h-5v-1h2v-4h1v-6l1-1v-1l-1-1v1h-1v-1h1v-1l1-1 1-1 1-2zm1 5-1 1-1 1v2h1v-1h1v-3zM196 103h1v1h-1v5h1v-1h1v1h-1v1h-1v1l-1 1v-3h-1v1h-1v1l-1 1h-1v-6l1-1 1-1v-1h3zm-2 2h-1v1l-1 1v1l1 1v-1l1-1v-3 1z"/><path d="M200 103h1v1h-1c1 0 0 0 0 0v1h1c0 1 0 0 0 0h1v-1l1-1h1v4l-1 1c0 1 0 0 0 0v1h1l1-1v1h-1v1l-1 1h-1v1-1h-1v-2l1-1v-2h-2v2l-1 1v2h-2v-1l1-1v-2h1v-1h-1v-1 1h-1v-1l1-1 1-1h1zM8 105h1v1l-1 1v2h1v-1 1h1v1H7v3H6v2h2v1H7v1l-1 1v-1H5v-1l-1-1v-1h1v-6h1l1-1v-1h1v-1c0 1 0 0 0 0z"/><path d="M14 108h1v2l-1 1h1-1v4h1v-1h1v1h-1v1h-1v1l-1 1v-4l-1 1v1h-1v1H9v-5h1v-1l1-1v-1h2v-1h1zm-2 2-1 1v1l-1 1 1 1h1v-1l1-1v-2h-1zM20 101h2l1 1h-1v1l-1 1h-2v2l-1 1v3l1-1h2v4h-1v2l-1 1v1h-2v1l-1-1v-8l1-1v-5h1v-1l2-1zm-1 10h-1v1l-1 1v2h1v-1h1v-4 1z"/><path d="M28 101v2l-1 1h-1l-1 1v2l-1 1v4l-1 1v1l1 1v-1h1l1-1h1l-1 1-1 1-1 1-1 1c-1 0 0 0 0 0h-1v-10l1-1v-2l1-1v-1h1v-1h3z"/><path d="M30 108h1v1h1v1l-1 1-1 1h-1v1h-1v1l1 1h1v-1h1l-1 1v1h-1v1h-2v-1l-1-1v-2h1v-3h1l1-1 1-1zm0 2h-1v1h1v-1zM54 166h5v2h-2v5l1 1h7v-6h-1v-2h2v1h5v1l-1 1h-1l-1 1v12h1l1 1h1l-1 1h-7v-1l1-1 1-1v-5h-8v6h1l1 1v1h-2v-1h-5v-1l1-1h1v-4l-1-1v-2h1v-1l-1-1 1-1v-3h-2v-1l1-1h1zM91 165v1l1 1v3l-1 1h-1v-2l-1-1h-4l-1 1v11h1l1 1 2 1v1l-1 1-2-1h-5l-2 1h-3c1 0 0 0 0 0v-1h1v-2h4v-12h-5l-1 1v2h-2v-3l1-1v-2h2v1l1-1h1v1h6v-1l1 1 2-1h5v-1zM115 165l1 1v2h-2l-1 1-1 1h1v10l1 1 1 1h1l1 1-1 1h-9v-2h3v-8h-1v1l-1 1-1 1v2h-1v1l-1 1v1c0 1 0 0 0 0l-1 1h-1v-3l-1-1v-1l-1-2v-2l-1-1v5l-1 1v3h1l1 1v1h-2l-3-1h-1v1h-2v-1h-1 1v-1h4v-2l1-1v-7l1-1v-1h-1v-2l-1-1h-1v-1h3s0-1 0 0h3l1 2v2l1 3 1 2v2h1v-1l1-3 2-3v-1l1-1v-1l1-1h3v-1h1zM121 166h5v2h-2v1l-1 1v2l1 1 1 1h6l1-1v-2l-1-2v-1h-1v-2h2l1 1h4v1l-1 1h-1v6h-1v3l1 1h-1v2l1 1h1l1 1v1h-7v-1l1-1v-1l1-1v-3l-1-1h-7v3h-1v2l1 1 1 1v1h-1l-1-1h-5v-1l1-1h1v-12l-1-1h-1c-1 0 0 0 0 0v-1h1l2-1zM145 169h2v4l-1 1h-2l-1 1-1 1v4h1l1-1 1-1h1v1l-1 1-1 1-1 1-1 1h-3v-7c0-1 0 0 0 0v-1h1v-2l1-2 1-1 2-1h1zm-1 2-1 1c0 1 0 0 0 0v1h2v-2h-1zM159 156l1 1v2l-1 1v1h-1l-1 1h-2l-1 1v2l-1 1v3l-1 1v7l-1 2 1 1 1-1h1v-1l1-1 2-1v1l-1 1-1 1v1l-1 1-1 1-1 1h-1l-1 1h-2v-4l1-1v-7l1-1v-7l1-1 1-2 1-2 1-1 1-1 2-1h2zM168 156l1 1v3l-1 1h-1l-1 1h-2l-1 1v2l-1 1v5l-1 2v7h1v-1h1v-1l2-1 1-1v1l-1 1v1l-1 1-1 1-1 1-1 1h-1l-1 1h-1v-10l1-2v-6l1-2v-1l1-2 1-2 1-1 1-1 2-1h2zM155 7h1v3h1V9l1-1 1-1v1h1v1l-1 1h-1l-1 1v2h-1v3l-1 1h-1v-4l1-1v-1l-1-1v1h-1v-1l1-1V8h1V7zM163 7h1v1l1 1v2l-1 2v1h-1v1l-1 1h-2l-1-1v-3l1-2 1-1V8h1V7h1zm0 2-1 1h-1v1l-1 1v1l1 1h1v-1l1-1c0-1 0 0 0 0V9zM172 0v2l-1 1h-2v2l-1 1v5l-1 1v2h1v-1h1l1-1h1-1v1l-1 1-1 1v1h-3v-2h1V5l1-1V3l1-1V1h1V0h3z"/><path d="M174 7h1v3h-1v1h-1l-1 1v2h1l1-1v1l-1 1v1h-3v-5h1V9l1-1 1-1h1zm-1 2v1h1V9h-1z"/></svg>