<?xml version="1.0" encoding="UTF-8"?>
<svg xmlns="http://www.w3.org/2000/svg" version="1.1" viewBox="0 0 300 204">
  <defs>
    <style>
      .cls-1 {
        opacity: .1;
      }

      .cls-1, .cls-2, .cls-3 {
        isolation: isolate;
      }

      .cls-2 {
        opacity: .2;
      }

      .cls-4 {
        fill: #6891c8;
      }

      .cls-5 {
        display: none;
      }

      .cls-3 {
        fill: #fff;
        opacity: .3;
      }
    </style>
  </defs>
  <!-- Generator: Adobe Illustrator 28.7.1, SVG Export Plug-In . SVG Version: 1.2.0 Build 142)  -->
  <g>
    <g id="Calque_7" class="cls-5">
      <polygon class="cls-4" points="168.3892 135.5142 118.3892 164.3802 118.3892 133.9905 168.3892 105.1245 168.3892 135.5142"/>
      <polygon class="cls-1" points="168.3892 135.5142 118.3892 164.3802 118.3892 133.9905 168.3892 105.1245 168.3892 135.5142"/>
      <polyline class="cls-4" points="68.3968 135.5142 118.3892 164.3802 118.3892 133.9905 68.3892 105.1245"/>
      <polyline class="cls-2" points="68.3968 135.5142 118.3892 164.3802 118.3892 133.9905 68.3892 105.1245"/>
      <polyline class="cls-4" points="68.3892 105.1245 118.3892 133.9905 168.3892 105.1245 118.3892 76.2586 68.3892 105.1245"/>
      <path class="cls-4" d="M130.8513,87.7125c0-1.842-1.2129-3.684-3.6461-5.0864-4.8666-2.8123-12.7577-2.8123-17.6243,0-2.4333,1.4024-3.6537,3.2444-3.6537,5.0864v4.9196c0,1.842,1.2204,3.6765,3.6537,5.0864,4.8666,2.8123,12.7577,2.8123,17.6243,0,2.4333-1.4099,3.6537-3.2444,3.6461-5.0864v-4.9196Z"/>
      <path class="cls-1" d="M127.2051,82.6185c2.4333,1.4024,3.6537,3.2444,3.6461,5.0864v4.9196c0,1.842-1.2129,3.6765-3.6461,5.0864-2.7095,1.4488-5.7439,2.182-8.816,2.1301v-19.3299c3.0705-.0626,6.1057.6629,8.816,2.1073Z"/>
      <path class="cls-2" d="M109.5808,82.6185c-2.4333,1.4024-3.6537,3.2444-3.6537,5.0864v4.9196c0,1.842,1.2204,3.6765,3.6537,5.0864,2.7071,1.4479,5.7388,2.1811,8.8084,2.1301v-19.3299c-3.068-.0617-6.1005.6639-8.8084,2.1073Z"/>
      <path class="cls-4" d="M109.5808,82.6185c-4.8666,2.8047-4.8666,7.3605,0,10.1728s12.7577,2.8123,17.6243,0,4.8666-7.3681,0-10.1728-12.7577-2.8123-17.6243,0Z"/>
      <path class="cls-3" d="M109.5808,82.6185c-4.8666,2.8047-4.8666,7.3605,0,10.1728s12.7577,2.8123,17.6243,0,4.8666-7.3681,0-10.1728-12.7577-2.8123-17.6243,0Z"/>
      <path class="cls-4" d="M130.8513,115.8583c0-1.8345-1.2129-3.6765-3.6461-5.0864-4.8666-2.8123-12.7577-2.8123-17.6243,0-2.4333,1.4099-3.6537,3.2444-3.6537,5.0864v4.9196c0,1.842,1.2204,3.684,3.6537,5.0864,4.8666,2.8123,12.7577,2.8123,17.6243,0,2.4333-1.4024,3.6537-3.2444,3.6461-5.0864v-4.9196Z"/>
      <path class="cls-1" d="M127.2051,110.7719c2.4333,1.4099,3.6537,3.2444,3.6461,5.0864v4.9196c0,1.842-1.2129,3.684-3.6461,5.0864-2.7089,1.4479-5.7451,2.1737-8.816,2.1073v-19.3071c3.0701-.0589,6.1044.6664,8.816,2.1073Z"/>
      <path class="cls-2" d="M109.5808,110.7719c-2.4333,1.4099-3.6537,3.2444-3.6537,5.0864v4.9196c0,1.842,1.2204,3.684,3.6537,5.0864,2.7065,1.447,5.74,2.1727,8.8084,2.1073v-19.3071c-3.0675-.0579-6.0992.6674-8.8084,2.1073Z"/>
      <path class="cls-4" d="M109.5808,110.7719c-4.8666,2.8123-4.8666,7.3681,0,10.1804,4.8666,2.8123,12.7577,2.8047,17.6243,0s4.8666-7.3681,0-10.1804-12.7577-2.8123-17.6243,0Z"/>
      <path class="cls-3" d="M109.5808,110.7719c-4.8666,2.8123-4.8666,7.3681,0,10.1804,4.8666,2.8123,12.7577,2.8047,17.6243,0s4.8666-7.3681,0-10.1804-12.7577-2.8123-17.6243,0Z"/>
      <path class="cls-4" d="M106.4956,101.774c0-1.842-1.2204-3.684-3.6537-5.0864-4.8666-2.8123-12.7577-2.8123-17.6243,0-2.4333,1.4024-3.6537,3.2444-3.6537,5.0864v4.8893c0,1.842,1.2204,3.684,3.6537,5.0864,4.8666,2.8123,12.7577,2.8123,17.6243,0,2.4333-1.4024,3.6537-3.2444,3.6537-5.0864v-4.8893Z"/>
      <path class="cls-1" d="M102.8267,96.6876c2.4333,1.4024,3.6537,3.2444,3.6537,5.0864v4.9196c0,1.842-1.2204,3.684-3.6537,5.0864-2.7102,1.4444-5.7455,2.17-8.816,2.1073v-19.3071c3.0701-.0589,6.1044.6664,8.816,2.1073Z"/>
      <path class="cls-2" d="M85.2024,96.6876c-2.4333,1.4024-3.6537,3.2444-3.6537,5.0864v4.8893c0,1.842,1.2204,3.684,3.6537,5.0864,2.7079,1.4435,5.7404,2.169,8.8084,2.1073v-19.2768c-3.0675-.0579-6.0992.6674-8.8084,2.1073Z"/>
      <path class="cls-4" d="M85.2024,96.6876c-4.8666,2.8123-4.8666,7.3681,0,10.1728s12.7577,2.8123,17.6243,0,4.8666-7.3605,0-10.1728-12.7577-2.8123-17.6243,0Z"/>
      <path class="cls-3" d="M85.2024,96.6876c-4.8666,2.8123-4.8666,7.3681,0,10.1728s12.7577,2.8123,17.6243,0,4.8666-7.3605,0-10.1728-12.7577-2.8123-17.6243,0Z"/>
      <path class="cls-4" d="M155.2297,101.7816c0-1.842-1.2129-3.684-3.6461-5.0864-4.8666-2.8123-12.7577-2.8123-17.6243,0-2.4409,1.4024-3.6537,3.2444-3.6537,5.0864v4.9196c0,1.842,1.2129,3.684,3.6461,5.0864,4.8742,2.8123,12.7653,2.8123,17.6319,0,2.4333-1.4024,3.6461-3.2444,3.6461-5.0864v-4.9196Z"/>
      <path class="cls-1" d="M151.5836,96.6952c2.4333,1.4024,3.6461,3.2444,3.6461,5.0864v4.9196c0,1.842-1.2129,3.684-3.6461,5.0864-2.7102,1.4444-5.7455,2.17-8.816,2.1073v-19.3071c3.0701-.0589,6.1044.6664,8.816,2.1073Z"/>
      <path class="cls-2" d="M133.9592,96.6952c-2.4409,1.4024-3.6537,3.2444-3.6537,5.0864v4.9196c0,1.842,1.2129,3.684,3.6461,5.0864,2.7106,1.4435,5.7456,2.1689,8.816,2.1073v-19.3071c-3.0677-.059-6.0996.6664-8.8084,2.1073Z"/>
      <path class="cls-4" d="M133.9592,96.6952c-4.8742,2.8123-4.8742,7.3681,0,10.1804s12.7653,2.8047,17.6319,0,4.8666-7.3681,0-10.1804-12.7653-2.8123-17.6319,0Z"/>
      <path class="cls-3" d="M133.9592,96.6952c-4.8742,2.8123-4.8742,7.3681,0,10.1804s12.7653,2.8047,17.6319,0,4.8666-7.3681,0-10.1804-12.7653-2.8123-17.6319,0Z"/>
      <polygon class="cls-4" points="218.3892 164.3802 168.3892 193.2462 168.3892 162.8566 218.3892 133.9906 218.3892 164.3802"/>
      <polygon class="cls-1" points="218.3892 164.3802 168.3892 193.2462 168.3892 162.8566 218.3892 133.9906 218.3892 164.3802"/>
      <polyline class="cls-4" points="118.3968 164.3802 168.3892 193.2462 168.3892 162.8566 118.3892 133.9906"/>
      <polyline class="cls-2" points="118.3968 164.3802 168.3892 193.2462 168.3892 162.8566 118.3892 133.9906"/>
      <polyline class="cls-4" points="118.3892 133.9906 168.3892 162.8566 218.3892 133.9906 168.3892 105.1246 118.3892 133.9906"/>
      <path class="cls-4" d="M180.8513,116.5785c0-1.842-1.2129-3.684-3.6461-5.0864-4.8666-2.8123-12.7577-2.8123-17.6243,0-2.4333,1.4024-3.6537,3.2444-3.6537,5.0864v4.9196c0,1.842,1.2204,3.6765,3.6537,5.0864,4.8666,2.8123,12.7577,2.8123,17.6243,0,2.4333-1.4099,3.6537-3.2444,3.6461-5.0864v-4.9196Z"/>
      <path class="cls-1" d="M177.2051,111.4845c2.4333,1.4024,3.6537,3.2444,3.6461,5.0864v4.9196c0,1.842-1.2129,3.6765-3.6461,5.0864-2.7095,1.4488-5.7439,2.182-8.816,2.1301v-19.3299c3.0705-.0626,6.1057.6629,8.816,2.1073Z"/>
      <path class="cls-2" d="M159.5808,111.4845c-2.4333,1.4024-3.6537,3.2444-3.6537,5.0864v4.9196c0,1.842,1.2204,3.6765,3.6537,5.0864,2.7071,1.4479,5.7388,2.1811,8.8084,2.1301v-19.3299c-3.068-.0617-6.1005.6639-8.8084,2.1073Z"/>
      <path class="cls-4" d="M159.5808,111.4845c-4.8666,2.8047-4.8666,7.3605,0,10.1728,4.8666,2.8123,12.7577,2.8123,17.6243,0,4.8666-2.8123,4.8666-7.3681,0-10.1728-4.8666-2.8047-12.7577-2.8123-17.6243,0Z"/>
      <path class="cls-3" d="M159.5808,111.4845c-4.8666,2.8047-4.8666,7.3605,0,10.1728,4.8666,2.8123,12.7577,2.8123,17.6243,0,4.8666-2.8123,4.8666-7.3681,0-10.1728-4.8666-2.8047-12.7577-2.8123-17.6243,0Z"/>
      <path class="cls-4" d="M180.8513,144.7244c0-1.8345-1.2129-3.6765-3.6461-5.0864-4.8666-2.8123-12.7577-2.8123-17.6243,0-2.4333,1.4099-3.6537,3.2444-3.6537,5.0864v4.9196c0,1.842,1.2204,3.684,3.6537,5.0864,4.8666,2.8123,12.7577,2.8123,17.6243,0,2.4333-1.4024,3.6537-3.2444,3.6461-5.0864v-4.9196Z"/>
      <path class="cls-1" d="M177.2051,139.638c2.4333,1.4099,3.6537,3.2444,3.6461,5.0864v4.9196c0,1.842-1.2129,3.684-3.6461,5.0864-2.7089,1.4479-5.7451,2.1737-8.816,2.1073v-19.3071c3.0701-.0589,6.1044.6664,8.816,2.1073Z"/>
      <path class="cls-2" d="M159.5808,139.638c-2.4333,1.4099-3.6537,3.2444-3.6537,5.0864v4.9196c0,1.842,1.2204,3.684,3.6537,5.0864,2.7065,1.447,5.74,2.1727,8.8084,2.1073v-19.3071c-3.0675-.0579-6.0992.6674-8.8084,2.1073Z"/>
      <path class="cls-4" d="M159.5808,139.638c-4.8666,2.8123-4.8666,7.3681,0,10.1804s12.7577,2.8047,17.6243,0c4.8666-2.8047,4.8666-7.3681,0-10.1804-4.8666-2.8123-12.7577-2.8123-17.6243,0Z"/>
      <path class="cls-3" d="M159.5808,139.638c-4.8666,2.8123-4.8666,7.3681,0,10.1804s12.7577,2.8047,17.6243,0c4.8666-2.8047,4.8666-7.3681,0-10.1804-4.8666-2.8123-12.7577-2.8123-17.6243,0Z"/>
      <path class="cls-4" d="M156.4956,130.6401c0-1.842-1.2204-3.684-3.6537-5.0864-4.8666-2.8123-12.7577-2.8123-17.6243,0-2.4333,1.4024-3.6537,3.2444-3.6537,5.0864v4.8893c0,1.842,1.2204,3.684,3.6537,5.0864,4.8666,2.8123,12.7577,2.8123,17.6243,0,2.4333-1.4024,3.6537-3.2444,3.6537-5.0864v-4.8893Z"/>
      <path class="cls-1" d="M152.8267,125.5537c2.4333,1.4024,3.6537,3.2444,3.6537,5.0864v4.9196c0,1.842-1.2204,3.684-3.6537,5.0864-2.7102,1.4444-5.7455,2.17-8.816,2.1073v-19.3071c3.0701-.0589,6.1044.6664,8.816,2.1073Z"/>
      <path class="cls-2" d="M135.2024,125.5537c-2.4333,1.4024-3.6537,3.2444-3.6537,5.0864v4.8893c0,1.842,1.2204,3.684,3.6537,5.0864,2.7079,1.4435,5.7404,2.169,8.8084,2.1073v-19.2768c-3.0675-.0579-6.0992.6674-8.8084,2.1073Z"/>
      <path class="cls-4" d="M135.2024,125.5537c-4.8666,2.8123-4.8666,7.3681,0,10.1728s12.7577,2.8123,17.6243,0,4.8666-7.3605,0-10.1728c-4.8666-2.8123-12.7577-2.8123-17.6243,0Z"/>
      <path class="cls-3" d="M135.2024,125.5537c-4.8666,2.8123-4.8666,7.3681,0,10.1728s12.7577,2.8123,17.6243,0,4.8666-7.3605,0-10.1728c-4.8666-2.8123-12.7577-2.8123-17.6243,0Z"/>
      <path class="cls-4" d="M205.2297,130.6477c0-1.842-1.2129-3.684-3.6461-5.0864-4.8666-2.8123-12.7577-2.8123-17.6243,0-2.4409,1.4024-3.6537,3.2444-3.6537,5.0864v4.9196c0,1.842,1.2129,3.684,3.6461,5.0864,4.8742,2.8123,12.7653,2.8123,17.6319,0,2.4333-1.4024,3.6461-3.2444,3.6461-5.0864v-4.9196Z"/>
      <path class="cls-1" d="M201.5836,125.5612c2.4333,1.4024,3.6461,3.2444,3.6461,5.0864v4.9196c0,1.842-1.2129,3.684-3.6461,5.0864-2.7102,1.4444-5.7455,2.17-8.816,2.1073v-19.3071c3.0701-.0589,6.1044.6664,8.816,2.1073Z"/>
      <path class="cls-2" d="M183.9592,125.5612c-2.4409,1.4024-3.6537,3.2444-3.6537,5.0864v4.9196c0,1.842,1.2129,3.684,3.6461,5.0864,2.7106,1.4435,5.7456,2.1689,8.816,2.1073v-19.3071c-3.0677-.059-6.0996.6664-8.8084,2.1073Z"/>
      <path class="cls-4" d="M183.9592,125.5612c-4.8742,2.8123-4.8742,7.3681,0,10.1804s12.7653,2.8047,17.6319,0,4.8666-7.3681,0-10.1804-12.7653-2.8123-17.6319,0Z"/>
      <path class="cls-3" d="M183.9592,125.5612c-4.8742,2.8123-4.8742,7.3681,0,10.1804s12.7653,2.8047,17.6319,0,4.8666-7.3681,0-10.1804-12.7653-2.8123-17.6319,0Z"/>
      <polygon class="cls-4" points="268.3817 193.2452 218.3817 222.1112 218.3817 191.7215 268.3817 162.8556 268.3817 193.2452"/>
      <polygon class="cls-1" points="268.3817 193.2452 218.3817 222.1112 218.3817 191.7215 268.3817 162.8556 268.3817 193.2452"/>
      <polyline class="cls-4" points="168.3893 193.2452 218.3817 222.1112 218.3817 191.7215 168.3817 162.8556"/>
      <polyline class="cls-2" points="168.3893 193.2452 218.3817 222.1112 218.3817 191.7215 168.3817 162.8556"/>
      <polyline class="cls-4" points="168.3817 162.8556 218.3817 191.7215 268.3817 162.8556 218.3817 133.9896 168.3817 162.8556"/>
      <path class="cls-4" d="M230.8438,145.4435c0-1.842-1.2129-3.684-3.6461-5.0864-4.8666-2.8123-12.7577-2.8123-17.6243,0-2.4333,1.4024-3.6537,3.2444-3.6537,5.0864v4.9196c0,1.842,1.2204,3.6765,3.6537,5.0864,4.8666,2.8123,12.7577,2.8123,17.6243,0,2.4333-1.4099,3.6537-3.2444,3.6461-5.0864v-4.9196Z"/>
      <path class="cls-1" d="M227.1976,140.3495c2.4333,1.4024,3.6537,3.2444,3.6461,5.0864v4.9196c0,1.842-1.2129,3.6765-3.6461,5.0864-2.7095,1.4488-5.7439,2.182-8.816,2.1301v-19.3299c3.0705-.0626,6.1057.6629,8.816,2.1073Z"/>
      <path class="cls-2" d="M209.5733,140.3495c-2.4333,1.4024-3.6537,3.2444-3.6537,5.0864v4.9196c0,1.842,1.2204,3.6765,3.6537,5.0864,2.7071,1.4479,5.7388,2.1811,8.8084,2.1301v-19.3299c-3.068-.0617-6.1005.6639-8.8084,2.1073Z"/>
      <path class="cls-4" d="M209.5733,140.3495c-4.8666,2.8047-4.8666,7.3605,0,10.1728s12.7577,2.8123,17.6243,0,4.8666-7.3681,0-10.1728-12.7577-2.8123-17.6243,0Z"/>
      <path class="cls-3" d="M209.5733,140.3495c-4.8666,2.8047-4.8666,7.3605,0,10.1728s12.7577,2.8123,17.6243,0,4.8666-7.3681,0-10.1728-12.7577-2.8123-17.6243,0Z"/>
      <path class="cls-4" d="M230.8438,173.5893c0-1.8345-1.2129-3.6765-3.6461-5.0864-4.8666-2.8123-12.7577-2.8123-17.6243,0-2.4333,1.4099-3.6537,3.2444-3.6537,5.0864v4.9196c0,1.842,1.2204,3.684,3.6537,5.0864,4.8666,2.8123,12.7577,2.8123,17.6243,0,2.4333-1.4024,3.6537-3.2444,3.6461-5.0864v-4.9196Z"/>
      <path class="cls-1" d="M227.1976,168.5029c2.4333,1.4099,3.6537,3.2444,3.6461,5.0864v4.9196c0,1.842-1.2129,3.684-3.6461,5.0864-2.7089,1.4479-5.7451,2.1737-8.816,2.1073v-19.3071c3.0701-.0589,6.1044.6664,8.816,2.1073Z"/>
      <path class="cls-2" d="M209.5733,168.5029c-2.4333,1.4099-3.6537,3.2444-3.6537,5.0864v4.9196c0,1.842,1.2204,3.684,3.6537,5.0864,2.7065,1.447,5.74,2.1727,8.8084,2.1073v-19.3071c-3.0675-.0579-6.0992.6674-8.8084,2.1073Z"/>
      <path class="cls-4" d="M209.5733,168.5029c-4.8666,2.8123-4.8666,7.3681,0,10.1804,4.8666,2.8123,12.7577,2.8047,17.6243,0s4.8666-7.3681,0-10.1804-12.7577-2.8123-17.6243,0Z"/>
      <path class="cls-3" d="M209.5733,168.5029c-4.8666,2.8123-4.8666,7.3681,0,10.1804,4.8666,2.8123,12.7577,2.8047,17.6243,0s4.8666-7.3681,0-10.1804-12.7577-2.8123-17.6243,0Z"/>
      <path class="cls-4" d="M206.4881,159.505c0-1.842-1.2204-3.684-3.6537-5.0864-4.8666-2.8123-12.7577-2.8123-17.6243,0-2.4333,1.4024-3.6537,3.2444-3.6537,5.0864v4.8893c0,1.842,1.2204,3.684,3.6537,5.0864,4.8666,2.8123,12.7577,2.8123,17.6243,0,2.4333-1.4024,3.6537-3.2444,3.6537-5.0864v-4.8893Z"/>
      <path class="cls-1" d="M202.8192,154.4186c2.4333,1.4024,3.6537,3.2444,3.6537,5.0864v4.9196c0,1.842-1.2204,3.684-3.6537,5.0864-2.7102,1.4444-5.7455,2.17-8.816,2.1073v-19.3071c3.0701-.0589,6.1044.6664,8.816,2.1073Z"/>
      <path class="cls-2" d="M185.1949,154.4186c-2.4333,1.4024-3.6537,3.2444-3.6537,5.0864v4.8893c0,1.842,1.2204,3.684,3.6537,5.0864,2.7079,1.4435,5.7404,2.169,8.8084,2.1073v-19.2768c-3.0675-.0579-6.0992.6674-8.8084,2.1073Z"/>
      <path class="cls-4" d="M185.1949,154.4186c-4.8666,2.8123-4.8666,7.3681,0,10.1728s12.7577,2.8123,17.6243,0,4.8666-7.3605,0-10.1728c-4.8666-2.8123-12.7577-2.8123-17.6243,0Z"/>
      <path class="cls-3" d="M185.1949,154.4186c-4.8666,2.8123-4.8666,7.3681,0,10.1728s12.7577,2.8123,17.6243,0,4.8666-7.3605,0-10.1728c-4.8666-2.8123-12.7577-2.8123-17.6243,0Z"/>
      <path class="cls-4" d="M255.2222,159.5126c0-1.842-1.2129-3.684-3.6461-5.0864-4.8666-2.8123-12.7577-2.8123-17.6243,0-2.4409,1.4024-3.6537,3.2444-3.6537,5.0864v4.9196c0,1.842,1.2129,3.684,3.6461,5.0864,4.8742,2.8123,12.7653,2.8123,17.6319,0,2.4333-1.4024,3.6461-3.2444,3.6461-5.0864v-4.9196Z"/>
      <path class="cls-1" d="M251.5761,154.4262c2.4333,1.4024,3.6461,3.2444,3.6461,5.0864v4.9196c0,1.842-1.2129,3.684-3.6461,5.0864-2.7102,1.4444-5.7455,2.17-8.816,2.1073v-19.3071c3.0701-.0589,6.1044.6664,8.816,2.1073Z"/>
      <path class="cls-2" d="M233.9517,154.4262c-2.4409,1.4024-3.6537,3.2444-3.6537,5.0864v4.9196c0,1.842,1.2129,3.684,3.6461,5.0864,2.7106,1.4435,5.7456,2.1689,8.816,2.1073v-19.3071c-3.0677-.059-6.0996.6664-8.8084,2.1073Z"/>
      <path class="cls-4" d="M233.9517,154.4262c-4.8742,2.8123-4.8742,7.3681,0,10.1804s12.7653,2.8047,17.6319,0,4.8666-7.3681,0-10.1804c-4.8666-2.8123-12.7653-2.8123-17.6319,0Z"/>
      <path class="cls-3" d="M233.9517,154.4262c-4.8742,2.8123-4.8742,7.3681,0,10.1804s12.7653,2.8047,17.6319,0,4.8666-7.3681,0-10.1804c-4.8666-2.8123-12.7653-2.8123-17.6319,0Z"/>
      <polygon class="cls-4" points="318.3817 222.1113 268.3817 250.9773 268.3817 220.5876 318.3817 191.7216 318.3817 222.1113"/>
      <polygon class="cls-1" points="318.3817 222.1113 268.3817 250.9773 268.3817 220.5876 318.3817 191.7216 318.3817 222.1113"/>
      <polyline class="cls-4" points="218.3893 222.1113 268.3817 250.9773 268.3817 220.5876 218.3817 191.7216"/>
      <polyline class="cls-2" points="218.3893 222.1113 268.3817 250.9773 268.3817 220.5876 218.3817 191.7216"/>
      <polyline class="cls-4" points="218.3817 191.7216 268.3817 220.5876 318.3817 191.7216 268.3817 162.8557 218.3817 191.7216"/>
      <path class="cls-4" d="M280.8438,174.3096c0-1.842-1.2129-3.684-3.6461-5.0864-4.8666-2.8123-12.7577-2.8123-17.6243,0-2.4333,1.4024-3.6537,3.2444-3.6537,5.0864v4.9196c0,1.842,1.2204,3.6765,3.6537,5.0864,4.8666,2.8123,12.7577,2.8123,17.6243,0,2.4333-1.4099,3.6537-3.2444,3.6461-5.0864v-4.9196Z"/>
      <path class="cls-1" d="M277.1976,169.2156c2.4333,1.4024,3.6537,3.2444,3.6461,5.0864v4.9196c0,1.842-1.2129,3.6765-3.6461,5.0864-2.7095,1.4488-5.7439,2.182-8.816,2.1301v-19.3299c3.0705-.0626,6.1057.6629,8.816,2.1073Z"/>
      <path class="cls-2" d="M259.5733,169.2156c-2.4333,1.4024-3.6537,3.2444-3.6537,5.0864v4.9196c0,1.842,1.2204,3.6765,3.6537,5.0864,2.7071,1.4479,5.7388,2.1811,8.8084,2.1301v-19.3299c-3.068-.0617-6.1005.6639-8.8084,2.1073Z"/>
      <path class="cls-4" d="M259.5733,169.2156c-4.8666,2.8047-4.8666,7.3605,0,10.1728,4.8666,2.8123,12.7577,2.8123,17.6243,0,4.8666-2.8123,4.8666-7.3681,0-10.1728-4.8666-2.8047-12.7577-2.8123-17.6243,0Z"/>
      <path class="cls-3" d="M259.5733,169.2156c-4.8666,2.8047-4.8666,7.3605,0,10.1728,4.8666,2.8123,12.7577,2.8123,17.6243,0,4.8666-2.8123,4.8666-7.3681,0-10.1728-4.8666-2.8047-12.7577-2.8123-17.6243,0Z"/>
      <path class="cls-4" d="M280.8438,202.4554c0-1.8345-1.2129-3.6765-3.6461-5.0864-4.8666-2.8123-12.7577-2.8123-17.6243,0-2.4333,1.4099-3.6537,3.2444-3.6537,5.0864v4.9196c0,1.842,1.2204,3.684,3.6537,5.0864,4.8666,2.8123,12.7577,2.8123,17.6243,0,2.4333-1.4024,3.6537-3.2444,3.6461-5.0864v-4.9196Z"/>
      <path class="cls-1" d="M277.1976,197.369c2.4333,1.4099,3.6537,3.2444,3.6461,5.0864v4.9196c0,1.842-1.2129,3.684-3.6461,5.0864-2.7089,1.4479-5.7451,2.1737-8.816,2.1073v-19.3071c3.0701-.0589,6.1044.6664,8.816,2.1073Z"/>
      <path class="cls-2" d="M259.5733,197.369c-2.4333,1.4099-3.6537,3.2444-3.6537,5.0864v4.9196c0,1.842,1.2204,3.684,3.6537,5.0864,2.7065,1.447,5.74,2.1727,8.8084,2.1073v-19.3071c-3.0675-.0579-6.0992.6674-8.8084,2.1073Z"/>
      <path class="cls-4" d="M259.5733,197.369c-4.8666,2.8123-4.8666,7.3681,0,10.1804s12.7577,2.8047,17.6243,0c4.8666-2.8047,4.8666-7.3681,0-10.1804-4.8666-2.8123-12.7577-2.8123-17.6243,0Z"/>
      <path class="cls-3" d="M259.5733,197.369c-4.8666,2.8123-4.8666,7.3681,0,10.1804s12.7577,2.8047,17.6243,0c4.8666-2.8047,4.8666-7.3681,0-10.1804-4.8666-2.8123-12.7577-2.8123-17.6243,0Z"/>
      <path class="cls-4" d="M256.4881,188.3711c0-1.842-1.2204-3.684-3.6537-5.0864-4.8666-2.8123-12.7577-2.8123-17.6243,0-2.4333,1.4024-3.6537,3.2444-3.6537,5.0864v4.8893c0,1.842,1.2204,3.684,3.6537,5.0864,4.8666,2.8123,12.7577,2.8123,17.6243,0,2.4333-1.4024,3.6537-3.2444,3.6537-5.0864v-4.8893Z"/>
      <path class="cls-1" d="M252.8192,183.2847c2.4333,1.4024,3.6537,3.2444,3.6537,5.0864v4.9196c0,1.842-1.2204,3.684-3.6537,5.0864-2.7102,1.4444-5.7455,2.17-8.816,2.1073v-19.3071c3.0701-.0589,6.1044.6664,8.816,2.1073Z"/>
      <path class="cls-2" d="M235.1949,183.2847c-2.4333,1.4024-3.6537,3.2444-3.6537,5.0864v4.8893c0,1.842,1.2204,3.684,3.6537,5.0864,2.7079,1.4435,5.7404,2.169,8.8084,2.1073v-19.2768c-3.0675-.0579-6.0992.6674-8.8084,2.1073Z"/>
      <path class="cls-4" d="M235.1949,183.2847c-4.8666,2.8123-4.8666,7.3681,0,10.1728s12.7577,2.8123,17.6243,0,4.8666-7.3605,0-10.1728c-4.8666-2.8123-12.7577-2.8123-17.6243,0Z"/>
      <path class="cls-3" d="M235.1949,183.2847c-4.8666,2.8123-4.8666,7.3681,0,10.1728s12.7577,2.8123,17.6243,0,4.8666-7.3605,0-10.1728c-4.8666-2.8123-12.7577-2.8123-17.6243,0Z"/>
      <path class="cls-4" d="M305.2222,188.3787c0-1.842-1.2129-3.684-3.6461-5.0864-4.8666-2.8123-12.7577-2.8123-17.6243,0-2.4409,1.4024-3.6537,3.2444-3.6537,5.0864v4.9196c0,1.842,1.2129,3.684,3.6461,5.0864,4.8742,2.8123,12.7653,2.8123,17.6319,0,2.4333-1.4024,3.6461-3.2444,3.6461-5.0864v-4.9196Z"/>
      <path class="cls-1" d="M301.5761,183.2923c2.4333,1.4024,3.6461,3.2444,3.6461,5.0864v4.9196c0,1.842-1.2129,3.684-3.6461,5.0864-2.7102,1.4444-5.7455,2.17-8.816,2.1073v-19.3071c3.0701-.0589,6.1044.6664,8.816,2.1073Z"/>
      <path class="cls-2" d="M283.9517,183.2923c-2.4409,1.4024-3.6537,3.2444-3.6537,5.0864v4.9196c0,1.842,1.2129,3.684,3.6461,5.0864,2.7106,1.4435,5.7456,2.1689,8.816,2.1073v-19.3071c-3.0677-.059-6.0996.6664-8.8084,2.1073Z"/>
      <path class="cls-4" d="M283.9517,183.2923c-4.8742,2.8123-4.8742,7.3681,0,10.1804s12.7653,2.8047,17.6319,0,4.8666-7.3681,0-10.1804-12.7653-2.8123-17.6319,0Z"/>
      <path class="cls-3" d="M283.9517,183.2923c-4.8742,2.8123-4.8742,7.3681,0,10.1804s12.7653,2.8047,17.6319,0,4.8666-7.3681,0-10.1804-12.7653-2.8123-17.6319,0Z"/>
      <polygon class="cls-4" points="368.3732 250.9732 318.3732 279.8392 318.3732 249.4496 368.3732 220.5836 368.3732 250.9732"/>
      <polygon class="cls-1" points="368.3732 250.9732 318.3732 279.8392 318.3732 249.4496 368.3732 220.5836 368.3732 250.9732"/>
      <polyline class="cls-4" points="268.3808 250.9732 318.3732 279.8392 318.3732 249.4496 268.3732 220.5836"/>
      <polyline class="cls-2" points="268.3808 250.9732 318.3732 279.8392 318.3732 249.4496 268.3732 220.5836"/>
      <polyline class="cls-4" points="268.3732 220.5836 318.3732 249.4496 368.3732 220.5836 318.3732 191.7176 268.3732 220.5836"/>
      <path class="cls-4" d="M330.8353,203.1715c0-1.842-1.2129-3.684-3.6461-5.0864-4.8666-2.8123-12.7577-2.8123-17.6243,0-2.4333,1.4024-3.6537,3.2444-3.6537,5.0864v4.9196c0,1.842,1.2204,3.6765,3.6537,5.0864,4.8666,2.8123,12.7577,2.8123,17.6243,0,2.4333-1.4099,3.6537-3.2444,3.6461-5.0864v-4.9196Z"/>
      <path class="cls-1" d="M327.1891,198.0775c2.4333,1.4024,3.6537,3.2444,3.6461,5.0864v4.9196c0,1.842-1.2129,3.6765-3.6461,5.0864-2.7095,1.4488-5.7439,2.182-8.816,2.1301v-19.3299c3.0705-.0626,6.1057.6629,8.816,2.1073Z"/>
      <path class="cls-2" d="M309.5648,198.0775c-2.4333,1.4024-3.6537,3.2444-3.6537,5.0864v4.9196c0,1.842,1.2204,3.6765,3.6537,5.0864,2.7071,1.4479,5.7388,2.1811,8.8084,2.1301v-19.3299c-3.068-.0617-6.1005.6639-8.8084,2.1073Z"/>
      <path class="cls-4" d="M309.5648,198.0775c-4.8666,2.8047-4.8666,7.3605,0,10.1728s12.7577,2.8123,17.6243,0c4.8666-2.8123,4.8666-7.3681,0-10.1728s-12.7577-2.8123-17.6243,0Z"/>
      <path class="cls-3" d="M309.5648,198.0775c-4.8666,2.8047-4.8666,7.3605,0,10.1728s12.7577,2.8123,17.6243,0c4.8666-2.8123,4.8666-7.3681,0-10.1728s-12.7577-2.8123-17.6243,0Z"/>
      <path class="cls-4" d="M330.8353,231.3174c0-1.8345-1.2129-3.6765-3.6461-5.0864-4.8666-2.8123-12.7577-2.8123-17.6243,0-2.4333,1.4099-3.6537,3.2444-3.6537,5.0864v4.9196c0,1.842,1.2204,3.684,3.6537,5.0864,4.8666,2.8123,12.7577,2.8123,17.6243,0,2.4333-1.4024,3.6537-3.2444,3.6461-5.0864v-4.9196Z"/>
      <path class="cls-1" d="M327.1891,226.231c2.4333,1.4099,3.6537,3.2444,3.6461,5.0864v4.9196c0,1.842-1.2129,3.684-3.6461,5.0864-2.7089,1.4479-5.7451,2.1737-8.816,2.1073v-19.3071c3.0701-.0589,6.1044.6664,8.816,2.1073Z"/>
      <path class="cls-2" d="M309.5648,226.231c-2.4333,1.4099-3.6537,3.2444-3.6537,5.0864v4.9196c0,1.842,1.2204,3.684,3.6537,5.0864,2.7065,1.447,5.74,2.1727,8.8084,2.1073v-19.3071c-3.0675-.0579-6.0992.6674-8.8084,2.1073Z"/>
      <path class="cls-4" d="M309.5648,226.231c-4.8666,2.8123-4.8666,7.3681,0,10.1804,4.8666,2.8123,12.7577,2.8047,17.6243,0s4.8666-7.3681,0-10.1804-12.7577-2.8123-17.6243,0Z"/>
      <path class="cls-3" d="M309.5648,226.231c-4.8666,2.8123-4.8666,7.3681,0,10.1804,4.8666,2.8123,12.7577,2.8047,17.6243,0s4.8666-7.3681,0-10.1804-12.7577-2.8123-17.6243,0Z"/>
      <path class="cls-4" d="M306.4796,217.2331c0-1.842-1.2204-3.684-3.6537-5.0864-4.8666-2.8123-12.7577-2.8123-17.6243,0-2.4333,1.4024-3.6537,3.2444-3.6537,5.0864v4.8893c0,1.842,1.2204,3.684,3.6537,5.0864,4.8666,2.8123,12.7577,2.8123,17.6243,0,2.4333-1.4024,3.6537-3.2444,3.6537-5.0864v-4.8893Z"/>
      <path class="cls-1" d="M302.8107,212.1467c2.4333,1.4024,3.6537,3.2444,3.6537,5.0864v4.9196c0,1.842-1.2204,3.684-3.6537,5.0864-2.7102,1.4444-5.7455,2.17-8.816,2.1073v-19.3071c3.0701-.0589,6.1044.6664,8.816,2.1073Z"/>
      <path class="cls-2" d="M285.1864,212.1467c-2.4333,1.4024-3.6537,3.2444-3.6537,5.0864v4.8893c0,1.842,1.2204,3.684,3.6537,5.0864,2.7079,1.4435,5.7404,2.169,8.8084,2.1073v-19.2768c-3.0675-.0579-6.0992.6674-8.8084,2.1073Z"/>
      <path class="cls-4" d="M285.1864,212.1467c-4.8666,2.8123-4.8666,7.3681,0,10.1728s12.7577,2.8123,17.6243,0c4.8666-2.8123,4.8666-7.3605,0-10.1728-4.8666-2.8123-12.7577-2.8123-17.6243,0Z"/>
      <path class="cls-3" d="M285.1864,212.1467c-4.8666,2.8123-4.8666,7.3681,0,10.1728s12.7577,2.8123,17.6243,0c4.8666-2.8123,4.8666-7.3605,0-10.1728-4.8666-2.8123-12.7577-2.8123-17.6243,0Z"/>
      <path class="cls-4" d="M355.2137,217.2407c0-1.842-1.2129-3.684-3.6461-5.0864-4.8666-2.8123-12.7577-2.8123-17.6243,0-2.4409,1.4024-3.6537,3.2444-3.6537,5.0864v4.9196c0,1.842,1.2129,3.684,3.6461,5.0864,4.8742,2.8123,12.7653,2.8123,17.6319,0,2.4333-1.4024,3.6461-3.2444,3.6461-5.0864v-4.9196Z"/>
      <path class="cls-1" d="M351.5676,212.1542c2.4333,1.4024,3.6461,3.2444,3.6461,5.0864v4.9196c0,1.842-1.2129,3.684-3.6461,5.0864-2.7102,1.4444-5.7455,2.17-8.816,2.1073v-19.3071c3.0701-.0589,6.1044.6664,8.816,2.1073Z"/>
      <path class="cls-2" d="M333.9432,212.1542c-2.4409,1.4024-3.6537,3.2444-3.6537,5.0864v4.9196c0,1.842,1.2129,3.684,3.6461,5.0864,2.7106,1.4435,5.7456,2.1689,8.816,2.1073v-19.3071c-3.0677-.059-6.0996.6664-8.8084,2.1073Z"/>
      <path class="cls-4" d="M333.9432,212.1542c-4.8742,2.8123-4.8742,7.3681,0,10.1804,4.8742,2.8123,12.7653,2.8047,17.6319,0,4.8666-2.8047,4.8666-7.3681,0-10.1804-4.8666-2.8123-12.7653-2.8123-17.6319,0Z"/>
      <path class="cls-3" d="M333.9432,212.1542c-4.8742,2.8123-4.8742,7.3681,0,10.1804,4.8742,2.8123,12.7653,2.8047,17.6319,0,4.8666-2.8047,4.8666-7.3681,0-10.1804-4.8666-2.8123-12.7653-2.8123-17.6319,0Z"/>
    </g>
    <g id="Calque_8">
      <g id="Calque_3">
        <g id="Calque_1">
          <polygon class="cls-4" points="100 59.6699 50 88.5359 50 58.1463 100 29.2803 100 59.6699"/>
          <polygon class="cls-1" points="100 59.6699 50 88.5359 50 58.1463 100 29.2803 100 59.6699"/>
          <polyline class="cls-4" points=".0076 59.6699 50 88.5359 50 58.1463 0 29.2803"/>
          <polyline class="cls-2" points=".0076 59.6699 50 88.5359 50 58.1463 0 29.2803"/>
          <polyline class="cls-4" points="0 29.2803 50 58.1463 100 29.2803 50 .4143 0 29.2803"/>
          <path class="cls-4" d="M62.4621,11.8682c0-1.842-1.2129-3.684-3.6461-5.0864-4.8666-2.8123-12.7577-2.8123-17.6243,0-2.4333,1.4024-3.6537,3.2444-3.6537,5.0864v4.9196c0,1.842,1.2204,3.6765,3.6537,5.0864,4.8666,2.8123,12.7577,2.8123,17.6243,0,2.4333-1.4099,3.6537-3.2444,3.6461-5.0864v-4.9196Z"/>
          <path class="cls-1" d="M58.816,6.7742c2.4333,1.4024,3.6537,3.2444,3.6461,5.0864v4.9196c0,1.842-1.2129,3.6765-3.6461,5.0864-2.7095,1.4488-5.7439,2.182-8.816,2.1301V4.6669c3.0705-.0626,6.1057.6629,8.816,2.1073Z"/>
          <path class="cls-2" d="M41.1916,6.7742c-2.4333,1.4024-3.6537,3.2444-3.6537,5.0864v4.9196c0,1.842,1.2204,3.6765,3.6537,5.0864,2.7071,1.4479,5.7388,2.1811,8.8084,2.1301V4.6669c-3.068-.0617-6.1005.6639-8.8084,2.1073Z"/>
          <path class="cls-4" d="M41.1916,6.7742c-4.8666,2.8047-4.8666,7.3605,0,10.1728s12.7577,2.8123,17.6243,0,4.8666-7.3681,0-10.1728-12.7577-2.8123-17.6243,0Z"/>
          <path class="cls-3" d="M41.1916,6.7742c-4.8666,2.8047-4.8666,7.3605,0,10.1728s12.7577,2.8123,17.6243,0,4.8666-7.3681,0-10.1728-12.7577-2.8123-17.6243,0Z"/>
          <path class="cls-4" d="M62.4621,40.0141c0-1.8345-1.2129-3.6765-3.6461-5.0864-4.8666-2.8123-12.7577-2.8123-17.6243,0-2.4333,1.4099-3.6537,3.2444-3.6537,5.0864v4.9196c0,1.842,1.2204,3.684,3.6537,5.0864,4.8666,2.8123,12.7577,2.8123,17.6243,0,2.4333-1.4024,3.6537-3.2444,3.6461-5.0864v-4.9196Z"/>
          <path class="cls-1" d="M58.816,34.9277c2.4333,1.4099,3.6537,3.2444,3.6461,5.0864v4.9196c0,1.842-1.2129,3.684-3.6461,5.0864-2.7089,1.4479-5.7451,2.1737-8.816,2.1073v-19.3071c3.0701-.0589,6.1044.6664,8.816,2.1073Z"/>
          <path class="cls-2" d="M41.1916,34.9277c-2.4333,1.4099-3.6537,3.2444-3.6537,5.0864v4.9196c0,1.842,1.2204,3.684,3.6537,5.0864,2.7065,1.447,5.74,2.1727,8.8084,2.1073v-19.3071c-3.0675-.0579-6.0992.6674-8.8084,2.1073Z"/>
          <path class="cls-4" d="M41.1916,34.9277c-4.8666,2.8123-4.8666,7.3681,0,10.1804s12.7577,2.8047,17.6243,0,4.8666-7.3681,0-10.1804-12.7577-2.8123-17.6243,0Z"/>
          <path class="cls-3" d="M41.1916,34.9277c-4.8666,2.8123-4.8666,7.3681,0,10.1804s12.7577,2.8047,17.6243,0,4.8666-7.3681,0-10.1804-12.7577-2.8123-17.6243,0Z"/>
          <path class="cls-4" d="M38.1064,25.9298c0-1.842-1.2204-3.684-3.6537-5.0864-4.8666-2.8123-12.7577-2.8123-17.6243,0-2.4333,1.4024-3.6537,3.2444-3.6537,5.0864v4.8893c0,1.842,1.2204,3.684,3.6537,5.0864,4.8666,2.8123,12.7577,2.8123,17.6243,0,2.4333-1.4024,3.6537-3.2444,3.6537-5.0864v-4.8893Z"/>
          <path class="cls-1" d="M34.4375,20.8434c2.4333,1.4024,3.6537,3.2444,3.6537,5.0864v4.9196c0,1.842-1.2204,3.684-3.6537,5.0864-2.7102,1.4444-5.7455,2.17-8.816,2.1073v-19.3071c3.0701-.0589,6.1044.6664,8.816,2.1073Z"/>
          <path class="cls-2" d="M16.8132,20.8434c-2.4333,1.4024-3.6537,3.2444-3.6537,5.0864v4.8893c0,1.842,1.2204,3.684,3.6537,5.0864,2.7079,1.4435,5.7404,2.169,8.8084,2.1073v-19.2768c-3.0675-.0579-6.0992.6674-8.8084,2.1073Z"/>
          <path class="cls-4" d="M16.8132,20.8434c-4.8666,2.8123-4.8666,7.3681,0,10.1728s12.7577,2.8123,17.6243,0,4.8666-7.3605,0-10.1728-12.7577-2.8123-17.6243,0Z"/>
          <path class="cls-3" d="M16.8132,20.8434c-4.8666,2.8123-4.8666,7.3681,0,10.1728s12.7577,2.8123,17.6243,0,4.8666-7.3605,0-10.1728-12.7577-2.8123-17.6243,0Z"/>
          <path class="cls-4" d="M86.8405,25.9374c0-1.842-1.2129-3.684-3.6461-5.0864-4.8666-2.8123-12.7577-2.8123-17.6243,0-2.4409,1.4024-3.6537,3.2444-3.6537,5.0864v4.9196c0,1.842,1.2129,3.684,3.6461,5.0864,4.8742,2.8123,12.7653,2.8123,17.6319,0,2.4333-1.4024,3.6461-3.2444,3.6461-5.0864v-4.9196Z"/>
          <path class="cls-1" d="M83.1944,20.851c2.4333,1.4024,3.6461,3.2444,3.6461,5.0864v4.9196c0,1.842-1.2129,3.684-3.6461,5.0864-2.7102,1.4444-5.7455,2.17-8.816,2.1073v-19.3071c3.0701-.0589,6.1044.6664,8.816,2.1073Z"/>
          <path class="cls-2" d="M65.5701,20.851c-2.4409,1.4024-3.6537,3.2444-3.6537,5.0864v4.9196c0,1.842,1.2129,3.684,3.6461,5.0864,2.7106,1.4435,5.7456,2.1689,8.816,2.1073v-19.3071c-3.0677-.059-6.0996.6664-8.8084,2.1073Z"/>
          <path class="cls-4" d="M65.5701,20.851c-4.8742,2.8123-4.8742,7.3681,0,10.1804s12.7653,2.8047,17.6319,0,4.8666-7.3681,0-10.1804-12.7653-2.8123-17.6319,0Z"/>
          <path class="cls-3" d="M65.5701,20.851c-4.8742,2.8123-4.8742,7.3681,0,10.1804s12.7653,2.8047,17.6319,0,4.8666-7.3681,0-10.1804-12.7653-2.8123-17.6319,0Z"/>
        </g>
        <g id="Calque_2">
          <polygon class="cls-4" points="150 88.536 100 117.402 100 87.0123 150 58.1464 150 88.536"/>
          <polygon class="cls-1" points="150 88.536 100 117.402 100 87.0123 150 58.1464 150 88.536"/>
          <polyline class="cls-4" points="50.0076 88.536 100 117.402 100 87.0123 50 58.1464"/>
          <polyline class="cls-2" points="50.0076 88.536 100 117.402 100 87.0123 50 58.1464"/>
          <polyline class="cls-4" points="50 58.1464 100 87.0123 150 58.1464 100 29.2804 50 58.1464"/>
          <path class="cls-4" d="M112.4621,40.7343c0-1.842-1.2129-3.684-3.6461-5.0864-4.8666-2.8123-12.7577-2.8123-17.6243,0-2.4333,1.4024-3.6537,3.2444-3.6537,5.0864v4.9196c0,1.842,1.2204,3.6765,3.6537,5.0864,4.8666,2.8123,12.7577,2.8123,17.6243,0,2.4333-1.4099,3.6537-3.2444,3.6461-5.0864v-4.9196Z"/>
          <path class="cls-1" d="M108.816,35.6403c2.4333,1.4024,3.6537,3.2444,3.6461,5.0864v4.9196c0,1.842-1.2129,3.6765-3.6461,5.0864-2.7095,1.4488-5.7439,2.182-8.816,2.1301v-19.3299c3.0705-.0626,6.1057.6629,8.816,2.1073Z"/>
          <path class="cls-2" d="M91.1916,35.6403c-2.4333,1.4024-3.6537,3.2444-3.6537,5.0864v4.9196c0,1.842,1.2204,3.6765,3.6537,5.0864,2.7071,1.4479,5.7388,2.1811,8.8084,2.1301v-19.3299c-3.068-.0617-6.1005.6639-8.8084,2.1073Z"/>
          <path class="cls-4" d="M91.1916,35.6403c-4.8666,2.8047-4.8666,7.3605,0,10.1728,4.8666,2.8123,12.7577,2.8123,17.6243,0,4.8666-2.8123,4.8666-7.3681,0-10.1728s-12.7577-2.8123-17.6243,0Z"/>
          <path class="cls-3" d="M91.1916,35.6403c-4.8666,2.8047-4.8666,7.3605,0,10.1728,4.8666,2.8123,12.7577,2.8123,17.6243,0,4.8666-2.8123,4.8666-7.3681,0-10.1728s-12.7577-2.8123-17.6243,0Z"/>
          <path class="cls-4" d="M112.4621,68.8802c0-1.8345-1.2129-3.6765-3.6461-5.0864-4.8666-2.8123-12.7577-2.8123-17.6243,0-2.4333,1.4099-3.6537,3.2444-3.6537,5.0864v4.9196c0,1.842,1.2204,3.684,3.6537,5.0864,4.8666,2.8123,12.7577,2.8123,17.6243,0,2.4333-1.4024,3.6537-3.2444,3.6461-5.0864v-4.9196Z"/>
          <path class="cls-1" d="M108.816,63.7937c2.4333,1.4099,3.6537,3.2444,3.6461,5.0864v4.9196c0,1.842-1.2129,3.684-3.6461,5.0864-2.7089,1.4479-5.7451,2.1737-8.816,2.1073v-19.3071c3.0701-.0589,6.1044.6664,8.816,2.1073Z"/>
          <path class="cls-2" d="M91.1916,63.7937c-2.4333,1.4099-3.6537,3.2444-3.6537,5.0864v4.9196c0,1.842,1.2204,3.684,3.6537,5.0864,2.7065,1.447,5.74,2.1727,8.8084,2.1073v-19.3071c-3.0675-.0579-6.0992.6674-8.8084,2.1073Z"/>
          <path class="cls-4" d="M91.1916,63.7937c-4.8666,2.8123-4.8666,7.3681,0,10.1804s12.7577,2.8047,17.6243,0c4.8666-2.8047,4.8666-7.3681,0-10.1804-4.8666-2.8123-12.7577-2.8123-17.6243,0Z"/>
          <path class="cls-3" d="M91.1916,63.7937c-4.8666,2.8123-4.8666,7.3681,0,10.1804s12.7577,2.8047,17.6243,0c4.8666-2.8047,4.8666-7.3681,0-10.1804-4.8666-2.8123-12.7577-2.8123-17.6243,0Z"/>
          <path class="cls-4" d="M88.1064,54.7958c0-1.842-1.2204-3.684-3.6537-5.0864-4.8666-2.8123-12.7577-2.8123-17.6243,0-2.4333,1.4024-3.6537,3.2444-3.6537,5.0864v4.8893c0,1.842,1.2204,3.684,3.6537,5.0864,4.8666,2.8123,12.7577,2.8123,17.6243,0,2.4333-1.4024,3.6537-3.2444,3.6537-5.0864v-4.8893Z"/>
          <path class="cls-1" d="M84.4375,49.7094c2.4333,1.4024,3.6537,3.2444,3.6537,5.0864v4.9196c0,1.842-1.2204,3.684-3.6537,5.0864-2.7102,1.4444-5.7455,2.17-8.816,2.1073v-19.3071c3.0701-.0589,6.1044.6664,8.816,2.1073Z"/>
          <path class="cls-2" d="M66.8132,49.7094c-2.4333,1.4024-3.6537,3.2444-3.6537,5.0864v4.8893c0,1.842,1.2204,3.684,3.6537,5.0864,2.7079,1.4435,5.7404,2.169,8.8084,2.1073v-19.2768c-3.0675-.0579-6.0992.6674-8.8084,2.1073Z"/>
          <path class="cls-4" d="M66.8132,49.7094c-4.8666,2.8123-4.8666,7.3681,0,10.1728s12.7577,2.8123,17.6243,0,4.8666-7.3605,0-10.1728c-4.8666-2.8123-12.7577-2.8123-17.6243,0Z"/>
          <path class="cls-3" d="M66.8132,49.7094c-4.8666,2.8123-4.8666,7.3681,0,10.1728s12.7577,2.8123,17.6243,0,4.8666-7.3605,0-10.1728c-4.8666-2.8123-12.7577-2.8123-17.6243,0Z"/>
          <path class="cls-4" d="M136.8405,54.8034c0-1.842-1.2129-3.684-3.6461-5.0864-4.8666-2.8123-12.7577-2.8123-17.6243,0-2.4409,1.4024-3.6537,3.2444-3.6537,5.0864v4.9196c0,1.842,1.2129,3.684,3.6461,5.0864,4.8742,2.8123,12.7653,2.8123,17.6319,0,2.4333-1.4024,3.6461-3.2444,3.6461-5.0864v-4.9196Z"/>
          <path class="cls-1" d="M133.1944,49.717c2.4333,1.4024,3.6461,3.2444,3.6461,5.0864v4.9196c0,1.842-1.2129,3.684-3.6461,5.0864-2.7102,1.4444-5.7455,2.17-8.816,2.1073v-19.3071c3.0701-.0589,6.1044.6664,8.816,2.1073Z"/>
          <path class="cls-2" d="M115.5701,49.717c-2.4409,1.4024-3.6537,3.2444-3.6537,5.0864v4.9196c0,1.842,1.2129,3.684,3.6461,5.0864,2.7106,1.4435,5.7456,2.1689,8.816,2.1073v-19.3071c-3.0677-.059-6.0996.6664-8.8084,2.1073Z"/>
          <path class="cls-4" d="M115.5701,49.717c-4.8742,2.8123-4.8742,7.3681,0,10.1804s12.7653,2.8047,17.6319,0,4.8666-7.3681,0-10.1804-12.7653-2.8123-17.6319,0Z"/>
          <path class="cls-3" d="M115.5701,49.717c-4.8742,2.8123-4.8742,7.3681,0,10.1804s12.7653,2.8047,17.6319,0,4.8666-7.3681,0-10.1804-12.7653-2.8123-17.6319,0Z"/>
        </g>
      </g>
      <g id="Calque_5">
        <polygon class="cls-4" points="199.9925 117.401 149.9925 146.267 149.9925 115.8773 199.9925 87.0113 199.9925 117.401"/>
        <polygon class="cls-1" points="199.9925 117.401 149.9925 146.267 149.9925 115.8773 199.9925 87.0113 199.9925 117.401"/>
        <polyline class="cls-4" points="100.0001 117.401 149.9925 146.267 149.9925 115.8773 99.9925 87.0113"/>
        <polyline class="cls-2" points="100.0001 117.401 149.9925 146.267 149.9925 115.8773 99.9925 87.0113"/>
        <polyline class="cls-4" points="99.9925 87.0113 149.9925 115.8773 199.9925 87.0113 149.9925 58.1454 99.9925 87.0113"/>
        <path class="cls-4" d="M162.4546,69.5993c0-1.842-1.2129-3.684-3.6461-5.0864-4.8666-2.8123-12.7577-2.8123-17.6243,0-2.4333,1.4024-3.6537,3.2444-3.6537,5.0864v4.9196c0,1.842,1.2204,3.6765,3.6537,5.0864,4.8666,2.8123,12.7577,2.8123,17.6243,0,2.4333-1.4099,3.6537-3.2444,3.6461-5.0864v-4.9196Z"/>
        <path class="cls-1" d="M158.8085,64.5053c2.4333,1.4024,3.6537,3.2444,3.6461,5.0864v4.9196c0,1.842-1.2129,3.6765-3.6461,5.0864-2.7095,1.4488-5.7439,2.182-8.816,2.1301v-19.3299c3.0705-.0626,6.1057.6629,8.816,2.1073Z"/>
        <path class="cls-2" d="M141.1841,64.5053c-2.4333,1.4024-3.6537,3.2444-3.6537,5.0864v4.9196c0,1.842,1.2204,3.6765,3.6537,5.0864,2.7071,1.4479,5.7388,2.1811,8.8084,2.1301v-19.3299c-3.068-.0617-6.1005.6639-8.8084,2.1073Z"/>
        <path class="cls-4" d="M141.1841,64.5053c-4.8666,2.8047-4.8666,7.3605,0,10.1728s12.7577,2.8123,17.6243,0,4.8666-7.3681,0-10.1728-12.7577-2.8123-17.6243,0Z"/>
        <path class="cls-3" d="M141.1841,64.5053c-4.8666,2.8047-4.8666,7.3605,0,10.1728s12.7577,2.8123,17.6243,0,4.8666-7.3681,0-10.1728-12.7577-2.8123-17.6243,0Z"/>
        <path class="cls-4" d="M162.4546,97.7451c0-1.8345-1.2129-3.6765-3.6461-5.0864-4.8666-2.8123-12.7577-2.8123-17.6243,0-2.4333,1.4099-3.6537,3.2444-3.6537,5.0864v4.9196c0,1.842,1.2204,3.684,3.6537,5.0864,4.8666,2.8123,12.7577,2.8123,17.6243,0,2.4333-1.4024,3.6537-3.2444,3.6461-5.0864v-4.9196Z"/>
        <path class="cls-1" d="M158.8085,92.6587c2.4333,1.4099,3.6537,3.2444,3.6461,5.0864v4.9196c0,1.842-1.2129,3.684-3.6461,5.0864-2.7089,1.4479-5.7451,2.1737-8.816,2.1073v-19.3071c3.0701-.0589,6.1044.6664,8.816,2.1073Z"/>
        <path class="cls-2" d="M141.1841,92.6587c-2.4333,1.4099-3.6537,3.2444-3.6537,5.0864v4.9196c0,1.842,1.2204,3.684,3.6537,5.0864,2.7065,1.447,5.74,2.1727,8.8084,2.1073v-19.3071c-3.0675-.0579-6.0992.6674-8.8084,2.1073Z"/>
        <path class="cls-4" d="M141.1841,92.6587c-4.8666,2.8123-4.8666,7.3681,0,10.1804,4.8666,2.8123,12.7577,2.8047,17.6243,0s4.8666-7.3681,0-10.1804-12.7577-2.8123-17.6243,0Z"/>
        <path class="cls-3" d="M141.1841,92.6587c-4.8666,2.8123-4.8666,7.3681,0,10.1804,4.8666,2.8123,12.7577,2.8047,17.6243,0s4.8666-7.3681,0-10.1804-12.7577-2.8123-17.6243,0Z"/>
        <path class="cls-4" d="M138.0989,83.6608c0-1.842-1.2204-3.684-3.6537-5.0864-4.8666-2.8123-12.7577-2.8123-17.6243,0-2.4333,1.4024-3.6537,3.2444-3.6537,5.0864v4.8893c0,1.842,1.2204,3.684,3.6537,5.0864,4.8666,2.8123,12.7577,2.8123,17.6243,0,2.4333-1.4024,3.6537-3.2444,3.6537-5.0864v-4.8893Z"/>
        <path class="cls-1" d="M134.43,78.5744c2.4333,1.4024,3.6537,3.2444,3.6537,5.0864v4.9196c0,1.842-1.2204,3.684-3.6537,5.0864-2.7102,1.4444-5.7455,2.17-8.816,2.1073v-19.3071c3.0701-.0589,6.1044.6664,8.816,2.1073Z"/>
        <path class="cls-2" d="M116.8057,78.5744c-2.4333,1.4024-3.6537,3.2444-3.6537,5.0864v4.8893c0,1.842,1.2204,3.684,3.6537,5.0864,2.7079,1.4435,5.7404,2.169,8.8084,2.1073v-19.2768c-3.0675-.0579-6.0992.6674-8.8084,2.1073Z"/>
        <path class="cls-4" d="M116.8057,78.5744c-4.8666,2.8123-4.8666,7.3681,0,10.1728s12.7577,2.8123,17.6243,0,4.8666-7.3605,0-10.1728c-4.8666-2.8123-12.7577-2.8123-17.6243,0Z"/>
        <path class="cls-3" d="M116.8057,78.5744c-4.8666,2.8123-4.8666,7.3681,0,10.1728s12.7577,2.8123,17.6243,0,4.8666-7.3605,0-10.1728c-4.8666-2.8123-12.7577-2.8123-17.6243,0Z"/>
        <path class="cls-4" d="M186.833,83.6684c0-1.842-1.2129-3.684-3.6461-5.0864-4.8666-2.8123-12.7577-2.8123-17.6243,0-2.4409,1.4024-3.6537,3.2444-3.6537,5.0864v4.9196c0,1.842,1.2129,3.684,3.6461,5.0864,4.8742,2.8123,12.7653,2.8123,17.6319,0,2.4333-1.4024,3.6461-3.2444,3.6461-5.0864v-4.9196Z"/>
        <path class="cls-1" d="M183.1869,78.582c2.4333,1.4024,3.6461,3.2444,3.6461,5.0864v4.9196c0,1.842-1.2129,3.684-3.6461,5.0864-2.7102,1.4444-5.7455,2.17-8.816,2.1073v-19.3071c3.0701-.0589,6.1044.6664,8.816,2.1073Z"/>
        <path class="cls-2" d="M165.5626,78.582c-2.4409,1.4024-3.6537,3.2444-3.6537,5.0864v4.9196c0,1.842,1.2129,3.684,3.6461,5.0864,2.7106,1.4435,5.7456,2.1689,8.816,2.1073v-19.3071c-3.0677-.059-6.0996.6664-8.8084,2.1073Z"/>
        <path class="cls-4" d="M165.5626,78.582c-4.8742,2.8123-4.8742,7.3681,0,10.1804s12.7653,2.8047,17.6319,0,4.8666-7.3681,0-10.1804c-4.8666-2.8123-12.7653-2.8123-17.6319,0Z"/>
        <path class="cls-3" d="M165.5626,78.582c-4.8742,2.8123-4.8742,7.3681,0,10.1804s12.7653,2.8047,17.6319,0,4.8666-7.3681,0-10.1804c-4.8666-2.8123-12.7653-2.8123-17.6319,0Z"/>
        <polygon class="cls-4" points="249.9925 146.267 199.9925 175.133 199.9925 144.7434 249.9925 115.8774 249.9925 146.267"/>
        <polygon class="cls-1" points="249.9925 146.267 199.9925 175.133 199.9925 144.7434 249.9925 115.8774 249.9925 146.267"/>
        <polyline class="cls-4" points="150.0001 146.267 199.9925 175.133 199.9925 144.7434 149.9925 115.8774"/>
        <polyline class="cls-2" points="150.0001 146.267 199.9925 175.133 199.9925 144.7434 149.9925 115.8774"/>
        <polyline class="cls-4" points="149.9925 115.8774 199.9925 144.7434 249.9925 115.8774 199.9925 87.0114 149.9925 115.8774"/>
        <path class="cls-4" d="M212.4546,98.4653c0-1.842-1.2129-3.684-3.6461-5.0864-4.8666-2.8123-12.7577-2.8123-17.6243,0-2.4333,1.4024-3.6537,3.2444-3.6537,5.0864v4.9196c0,1.842,1.2204,3.6765,3.6537,5.0864,4.8666,2.8123,12.7577,2.8123,17.6243,0,2.4333-1.4099,3.6537-3.2444,3.6461-5.0864v-4.9196Z"/>
        <path class="cls-1" d="M208.8085,93.3713c2.4333,1.4024,3.6537,3.2444,3.6461,5.0864v4.9196c0,1.842-1.2129,3.6765-3.6461,5.0864-2.7095,1.4488-5.7439,2.182-8.816,2.1301v-19.3299c3.0705-.0626,6.1057.6629,8.816,2.1073Z"/>
        <path class="cls-2" d="M191.1841,93.3713c-2.4333,1.4024-3.6537,3.2444-3.6537,5.0864v4.9196c0,1.842,1.2204,3.6765,3.6537,5.0864,2.7071,1.4479,5.7388,2.1811,8.8084,2.1301v-19.3299c-3.068-.0617-6.1005.6639-8.8084,2.1073Z"/>
        <path class="cls-4" d="M191.1841,93.3713c-4.8666,2.8047-4.8666,7.3605,0,10.1728,4.8666,2.8123,12.7577,2.8123,17.6243,0,4.8666-2.8123,4.8666-7.3681,0-10.1728-4.8666-2.8047-12.7577-2.8123-17.6243,0Z"/>
        <path class="cls-3" d="M191.1841,93.3713c-4.8666,2.8047-4.8666,7.3605,0,10.1728,4.8666,2.8123,12.7577,2.8123,17.6243,0,4.8666-2.8123,4.8666-7.3681,0-10.1728-4.8666-2.8047-12.7577-2.8123-17.6243,0Z"/>
        <path class="cls-4" d="M212.4546,126.6112c0-1.8345-1.2129-3.6765-3.6461-5.0864-4.8666-2.8123-12.7577-2.8123-17.6243,0-2.4333,1.4099-3.6537,3.2444-3.6537,5.0864v4.9196c0,1.842,1.2204,3.684,3.6537,5.0864,4.8666,2.8123,12.7577,2.8123,17.6243,0,2.4333-1.4024,3.6537-3.2444,3.6461-5.0864v-4.9196Z"/>
        <path class="cls-1" d="M208.8085,121.5248c2.4333,1.4099,3.6537,3.2444,3.6461,5.0864v4.9196c0,1.842-1.2129,3.684-3.6461,5.0864-2.7089,1.4479-5.7451,2.1737-8.816,2.1073v-19.3071c3.0701-.0589,6.1044.6664,8.816,2.1073Z"/>
        <path class="cls-2" d="M191.1841,121.5248c-2.4333,1.4099-3.6537,3.2444-3.6537,5.0864v4.9196c0,1.842,1.2204,3.684,3.6537,5.0864,2.7065,1.447,5.74,2.1727,8.8084,2.1073v-19.3071c-3.0675-.0579-6.0992.6674-8.8084,2.1073Z"/>
        <path class="cls-4" d="M191.1841,121.5248c-4.8666,2.8123-4.8666,7.3681,0,10.1804s12.7577,2.8047,17.6243,0c4.8666-2.8047,4.8666-7.3681,0-10.1804-4.8666-2.8123-12.7577-2.8123-17.6243,0Z"/>
        <path class="cls-3" d="M191.1841,121.5248c-4.8666,2.8123-4.8666,7.3681,0,10.1804s12.7577,2.8047,17.6243,0c4.8666-2.8047,4.8666-7.3681,0-10.1804-4.8666-2.8123-12.7577-2.8123-17.6243,0Z"/>
        <path class="cls-4" d="M188.0989,112.5269c0-1.842-1.2204-3.684-3.6537-5.0864-4.8666-2.8123-12.7577-2.8123-17.6243,0-2.4333,1.4024-3.6537,3.2444-3.6537,5.0864v4.8893c0,1.842,1.2204,3.684,3.6537,5.0864,4.8666,2.8123,12.7577,2.8123,17.6243,0,2.4333-1.4024,3.6537-3.2444,3.6537-5.0864v-4.8893Z"/>
        <path class="cls-1" d="M184.43,107.4405c2.4333,1.4024,3.6537,3.2444,3.6537,5.0864v4.9196c0,1.842-1.2204,3.684-3.6537,5.0864-2.7102,1.4444-5.7455,2.17-8.816,2.1073v-19.3071c3.0701-.0589,6.1044.6664,8.816,2.1073Z"/>
        <path class="cls-2" d="M166.8057,107.4405c-2.4333,1.4024-3.6537,3.2444-3.6537,5.0864v4.8893c0,1.842,1.2204,3.684,3.6537,5.0864,2.7079,1.4435,5.7404,2.169,8.8084,2.1073v-19.2768c-3.0675-.0579-6.0992.6674-8.8084,2.1073Z"/>
        <path class="cls-4" d="M166.8057,107.4405c-4.8666,2.8123-4.8666,7.3681,0,10.1728s12.7577,2.8123,17.6243,0,4.8666-7.3605,0-10.1728c-4.8666-2.8123-12.7577-2.8123-17.6243,0Z"/>
        <path class="cls-3" d="M166.8057,107.4405c-4.8666,2.8123-4.8666,7.3681,0,10.1728s12.7577,2.8123,17.6243,0,4.8666-7.3605,0-10.1728c-4.8666-2.8123-12.7577-2.8123-17.6243,0Z"/>
        <path class="cls-4" d="M236.833,112.5345c0-1.842-1.2129-3.684-3.6461-5.0864-4.8666-2.8123-12.7577-2.8123-17.6243,0-2.4409,1.4024-3.6537,3.2444-3.6537,5.0864v4.9196c0,1.842,1.2129,3.684,3.6461,5.0864,4.8742,2.8123,12.7653,2.8123,17.6319,0,2.4333-1.4024,3.6461-3.2444,3.6461-5.0864v-4.9196Z"/>
        <path class="cls-1" d="M233.1869,107.4481c2.4333,1.4024,3.6461,3.2444,3.6461,5.0864v4.9196c0,1.842-1.2129,3.684-3.6461,5.0864-2.7102,1.4444-5.7455,2.17-8.816,2.1073v-19.3071c3.0701-.0589,6.1044.6664,8.816,2.1073Z"/>
        <path class="cls-2" d="M215.5626,107.4481c-2.4409,1.4024-3.6537,3.2444-3.6537,5.0864v4.9196c0,1.842,1.2129,3.684,3.6461,5.0864,2.7106,1.4435,5.7456,2.1689,8.816,2.1073v-19.3071c-3.0677-.059-6.0996.6664-8.8084,2.1073Z"/>
        <path class="cls-4" d="M215.5626,107.4481c-4.8742,2.8123-4.8742,7.3681,0,10.1804s12.7653,2.8047,17.6319,0,4.8666-7.3681,0-10.1804-12.7653-2.8123-17.6319,0Z"/>
        <path class="cls-3" d="M215.5626,107.4481c-4.8742,2.8123-4.8742,7.3681,0,10.1804s12.7653,2.8047,17.6319,0,4.8666-7.3681,0-10.1804-12.7653-2.8123-17.6319,0Z"/>
      </g>
      <g id="Calque_6">
        <polygon class="cls-4" points="299.984 175.129 249.984 203.995 249.984 173.6053 299.984 144.7394 299.984 175.129"/>
        <polygon class="cls-1" points="299.984 175.129 249.984 203.995 249.984 173.6053 299.984 144.7394 299.984 175.129"/>
        <polyline class="cls-4" points="199.9916 175.129 249.984 203.995 249.984 173.6053 199.984 144.7394"/>
        <polyline class="cls-2" points="199.9916 175.129 249.984 203.995 249.984 173.6053 199.984 144.7394"/>
        <polyline class="cls-4" points="199.984 144.7394 249.984 173.6053 299.984 144.7394 249.984 115.8734 199.984 144.7394"/>
        <path class="cls-4" d="M262.4461,127.3273c0-1.842-1.2129-3.684-3.6461-5.0864-4.8666-2.8123-12.7577-2.8123-17.6243,0-2.4333,1.4024-3.6537,3.2444-3.6537,5.0864v4.9196c0,1.842,1.2204,3.6765,3.6537,5.0864,4.8666,2.8123,12.7577,2.8123,17.6243,0,2.4333-1.4099,3.6537-3.2444,3.6461-5.0864v-4.9196Z"/>
        <path class="cls-1" d="M258.8,122.2333c2.4333,1.4024,3.6537,3.2444,3.6461,5.0864v4.9196c0,1.842-1.2129,3.6765-3.6461,5.0864-2.7095,1.4488-5.7439,2.182-8.816,2.1301v-19.3299c3.0705-.0626,6.1057.6629,8.816,2.1073Z"/>
        <path class="cls-2" d="M241.1756,122.2333c-2.4333,1.4024-3.6537,3.2444-3.6537,5.0864v4.9196c0,1.842,1.2204,3.6765,3.6537,5.0864,2.7071,1.4479,5.7388,2.1811,8.8084,2.1301v-19.3299c-3.068-.0617-6.1005.6639-8.8084,2.1073Z"/>
        <path class="cls-4" d="M241.1756,122.2333c-4.8666,2.8047-4.8666,7.3605,0,10.1728s12.7577,2.8123,17.6243,0c4.8666-2.8123,4.8666-7.3681,0-10.1728s-12.7577-2.8123-17.6243,0Z"/>
        <path class="cls-3" d="M241.1756,122.2333c-4.8666,2.8047-4.8666,7.3605,0,10.1728s12.7577,2.8123,17.6243,0c4.8666-2.8123,4.8666-7.3681,0-10.1728s-12.7577-2.8123-17.6243,0Z"/>
        <path class="cls-4" d="M262.4461,155.4732c0-1.8345-1.2129-3.6765-3.6461-5.0864-4.8666-2.8123-12.7577-2.8123-17.6243,0-2.4333,1.4099-3.6537,3.2444-3.6537,5.0864v4.9196c0,1.842,1.2204,3.684,3.6537,5.0864,4.8666,2.8123,12.7577,2.8123,17.6243,0,2.4333-1.4024,3.6537-3.2444,3.6461-5.0864v-4.9196Z"/>
        <path class="cls-1" d="M258.8,150.3867c2.4333,1.4099,3.6537,3.2444,3.6461,5.0864v4.9196c0,1.842-1.2129,3.684-3.6461,5.0864-2.7089,1.4479-5.7451,2.1737-8.816,2.1073v-19.3071c3.0701-.0589,6.1044.6664,8.816,2.1073Z"/>
        <path class="cls-2" d="M241.1756,150.3867c-2.4333,1.4099-3.6537,3.2444-3.6537,5.0864v4.9196c0,1.842,1.2204,3.684,3.6537,5.0864,2.7065,1.447,5.74,2.1727,8.8084,2.1073v-19.3071c-3.0675-.0579-6.0992.6674-8.8084,2.1073Z"/>
        <path class="cls-4" d="M241.1756,150.3867c-4.8666,2.8123-4.8666,7.3681,0,10.1804,4.8666,2.8123,12.7577,2.8047,17.6243,0s4.8666-7.3681,0-10.1804-12.7577-2.8123-17.6243,0Z"/>
        <path class="cls-3" d="M241.1756,150.3867c-4.8666,2.8123-4.8666,7.3681,0,10.1804,4.8666,2.8123,12.7577,2.8047,17.6243,0s4.8666-7.3681,0-10.1804-12.7577-2.8123-17.6243,0Z"/>
        <path class="cls-4" d="M238.0904,141.3888c0-1.842-1.2204-3.684-3.6537-5.0864-4.8666-2.8123-12.7577-2.8123-17.6243,0-2.4333,1.4024-3.6537,3.2444-3.6537,5.0864v4.8893c0,1.842,1.2204,3.684,3.6537,5.0864,4.8666,2.8123,12.7577,2.8123,17.6243,0,2.4333-1.4024,3.6537-3.2444,3.6537-5.0864v-4.8893Z"/>
        <path class="cls-1" d="M234.4215,136.3024c2.4333,1.4024,3.6537,3.2444,3.6537,5.0864v4.9196c0,1.842-1.2204,3.684-3.6537,5.0864-2.7102,1.4444-5.7455,2.17-8.816,2.1073v-19.3071c3.0701-.0589,6.1044.6664,8.816,2.1073Z"/>
        <path class="cls-2" d="M216.7972,136.3024c-2.4333,1.4024-3.6537,3.2444-3.6537,5.0864v4.8893c0,1.842,1.2204,3.684,3.6537,5.0864,2.7079,1.4435,5.7404,2.169,8.8084,2.1073v-19.2768c-3.0675-.0579-6.0992.6674-8.8084,2.1073Z"/>
        <path class="cls-4" d="M216.7972,136.3024c-4.8666,2.8123-4.8666,7.3681,0,10.1728s12.7577,2.8123,17.6243,0c4.8666-2.8123,4.8666-7.3605,0-10.1728-4.8666-2.8123-12.7577-2.8123-17.6243,0Z"/>
        <path class="cls-3" d="M216.7972,136.3024c-4.8666,2.8123-4.8666,7.3681,0,10.1728s12.7577,2.8123,17.6243,0c4.8666-2.8123,4.8666-7.3605,0-10.1728-4.8666-2.8123-12.7577-2.8123-17.6243,0Z"/>
        <path class="cls-4" d="M286.8245,141.3964c0-1.842-1.2129-3.684-3.6461-5.0864-4.8666-2.8123-12.7577-2.8123-17.6243,0-2.4409,1.4024-3.6537,3.2444-3.6537,5.0864v4.9196c0,1.842,1.2129,3.684,3.6461,5.0864,4.8742,2.8123,12.7653,2.8123,17.6319,0,2.4333-1.4024,3.6461-3.2444,3.6461-5.0864v-4.9196Z"/>
        <path class="cls-1" d="M283.1784,136.31c2.4333,1.4024,3.6461,3.2444,3.6461,5.0864v4.9196c0,1.842-1.2129,3.684-3.6461,5.0864-2.7102,1.4444-5.7455,2.17-8.816,2.1073v-19.3071c3.0701-.0589,6.1044.6664,8.816,2.1073Z"/>
        <path class="cls-2" d="M265.5541,136.31c-2.4409,1.4024-3.6537,3.2444-3.6537,5.0864v4.9196c0,1.842,1.2129,3.684,3.6461,5.0864,2.7106,1.4435,5.7456,2.1689,8.816,2.1073v-19.3071c-3.0677-.059-6.0996.6664-8.8084,2.1073Z"/>
        <path class="cls-4" d="M265.5541,136.31c-4.8742,2.8123-4.8742,7.3681,0,10.1804,4.8742,2.8123,12.7653,2.8047,17.6319,0,4.8666-2.8047,4.8666-7.3681,0-10.1804-4.8666-2.8123-12.7653-2.8123-17.6319,0Z"/>
        <path class="cls-3" d="M265.5541,136.31c-4.8742,2.8123-4.8742,7.3681,0,10.1804,4.8742,2.8123,12.7653,2.8047,17.6319,0,4.8666-2.8047,4.8666-7.3681,0-10.1804-4.8666-2.8123-12.7653-2.8123-17.6319,0Z"/>
      </g>
    </g>
  </g>
</svg>