<?xml version="1.0" encoding="UTF-8"?>
<svg xmlns="http://www.w3.org/2000/svg" version="1.1" viewBox="0 0 188.543 261.59">
  <defs>
    <style>
      .c1 {
        fill: #e0eaf2;
      }

      .c2 {
        fill: #407bff;
      }

      .c4 {
        fill: #ebebeb;
      }

      .c5 {
        fill: #ebebeb;
      }

      .c6 {
        fill: #fff;
      }

      .c7 {
        fill: #b5cede;
      }

      .c8 {
        fill: #f5f5f5;
      }

      .c9 {
        fill: #dbdbdb;
        isolation: isolate;
      }

      .c10 {
        fill: #263238;
        opacity: .1;
      }

      .c11 {
        fill: #6c9ebf;
      }
    </style>
  </defs>
  <g>
    <g>
      <g>
        <path class="c2" d="M176.271,16.55H3.641C1.626,16.555-.005,18.193,0,20.209c0,.03,0,.061.001.091l7,237.75c.059,1.973,1.676,3.541,3.65,3.54h172.58c2.016,0,3.651-1.633,3.652-3.648,0-.037,0-.074-.002-.112l-7-237.74c-.054-1.96-1.65-3.525-3.61-3.54Z"/>
        <path class="c9" d="M176.271,16.55H3.641C1.626,16.555-.005,18.193,0,20.209c0,.03,0,.061.001.091l7,237.75c.059,1.973,1.676,3.541,3.65,3.54h172.58c2.016,0,3.651-1.633,3.652-3.648,0-.037,0-.074-.002-.112l-7-237.74c-.054-1.96-1.65-3.525-3.61-3.54Z"/>
        <path class="c5" d="M177.931,16.55H5.311c-2.016,0-3.651,1.633-3.651,3.649,0,.034,0,.068.001.101l7,237.75c.065,1.97,1.678,3.536,3.65,3.54h172.59c2.016-.005,3.646-1.642,3.642-3.658,0-.034,0-.068-.002-.102l-7-237.74c-.059-1.957-1.652-3.519-3.61-3.54Z"/>
        <path class="c9" d="M9.061,29.46l6.48,221.43c.07,1.981,1.688,3.555,3.67,3.57h156.32c1.9.007,3.446-1.528,3.452-3.428,0-.047,0-.095-.002-.142l-6.48-221.43c-.07-1.979-1.69-3.55-3.67-3.56H12.511c-1.894-.012-3.44,1.513-3.452,3.407,0,.051,0,.102.002.153Z"/>
        <path class="c6" d="M10.141,28.38l6.48,221.43c.07,1.979,1.69,3.55,3.67,3.56h156.32c1.894.012,3.44-1.513,3.452-3.407,0-.051,0-.102-.002-.153l-6.48-221.43c-.07-1.979-1.69-3.55-3.67-3.56H13.591c-1.894-.012-3.44,1.513-3.452,3.407,0,.051,0,.102.002.153Z"/>
        <polygon class="c8" points="58.201 99.7 28.161 99.7 27.281 69.65 57.321 69.65 58.201 99.7"/>
        <polygon class="c1" points="156.001 81.58 71.061 81.58 70.901 75.98 155.841 75.98 156.001 81.58"/>
        <polygon class="c1" points="137.871 93.37 71.411 93.37 71.241 87.77 137.711 87.77 137.871 93.37"/>
        <polygon class="c8" points="59.781 153.59 29.741 153.59 28.861 123.55 58.901 123.55 59.781 153.59"/>
        <polygon class="c1" points="103.851 135.48 72.641 135.48 72.481 129.87 103.681 129.87 103.851 135.48"/>
        <polygon class="c1" points="133.401 135.48 110.451 135.48 110.281 129.87 133.241 129.87 133.401 135.48"/>
        <polygon class="c1" points="147.311 147.27 72.981 147.27 72.821 141.66 147.151 141.66 147.311 147.27"/>
        <polygon class="c8" points="61.361 207.49 31.321 207.49 30.441 177.44 60.481 177.44 61.361 207.49"/>
        <polygon class="c1" points="159.341 195.55 74.401 195.55 74.561 201.16 159.501 201.16 159.341 195.55"/>
        <polygon class="c1" points="140.521 183.77 74.051 183.77 74.221 189.37 140.681 189.37 140.521 183.77"/>
        <path class="c11" d="M44.671,91.89c-.419.59-1.237.728-1.827.309-.152-.108-.279-.248-.373-.409h0c-2-3.2-5.68-6.12-7.82-7.57-.577-.383-.764-1.144-.43-1.75h0c.355-.611,1.138-.82,1.75-.465.034.02.068.042.1.065,2.369,1.59,4.541,3.457,6.47,5.56.45.552,1.263.635,1.815.185.068-.055.13-.117.185-.185,4.488-5.326,9.609-10.084,15.25-14.17.586-.428,1.408-.303,1.84.28h0c.442.566.342,1.383-.223,1.825-.002.002-.004.003-.007.005-7.68,5.81-13.14,11.16-16.68,16.32h-.05Z"/>
        <path class="c11" d="M46.251,145.79c-.432.587-1.258.714-1.845.282-.143-.105-.264-.239-.355-.392h0c-1.95-3.2-5.68-6.12-7.83-7.56-.573-.386-.756-1.146-.42-1.75h0c.372-.614,1.171-.811,1.785-.439.025.015.05.032.075.049,2.368,1.584,4.537,3.448,6.46,5.55.459.552,1.278.628,1.831.169.062-.051.118-.108.169-.169,4.476-5.32,9.584-10.075,15.21-14.16.581-.431,1.401-.311,1.833.27.002.003.005.007.007.01h0c.437.567.335,1.38-.23,1.82-7.68,5.82-13.14,11.17-16.68,16.33l-.01-.01Z"/>
        <path class="c11" d="M47.791,199.8c-.432.587-1.258.714-1.845.282-.143-.105-.264-.239-.355-.392h0c-2-3.2-5.68-6.12-7.82-7.56-.573-.385-.759-1.143-.43-1.75h0c.355-.611,1.138-.82,1.75-.465.034.02.068.042.1.065,2.367,1.589,4.539,3.452,6.47,5.55.459.552,1.278.628,1.831.169.062-.051.118-.108.169-.169,4.47-5.322,9.575-10.078,15.2-14.16.581-.431,1.401-.311,1.833.27.002.003.005.007.007.01h0c.441.553.35,1.358-.203,1.799-.009.007-.018.014-.027.021-7.67,5.82-13.14,11.17-16.68,16.33Z"/>
        <path class="c4" d="M117.201,239.92c-3.354.031-6.615-1.1-9.23-3.2-2.08-1.44-4-2.79-7.93-2.79-2.844-.052-5.609.94-7.77,2.79-2.521,2.109-5.714,3.244-9,3.2-3.357.032-6.622-1.099-9.24-3.2-2.08-1.44-4-2.79-7.93-2.79-2.842-.055-5.604.938-7.76,2.79-2.522,2.106-5.714,3.241-9,3.2-3.354.031-6.615-1.1-9.23-3.2-2.08-1.44-4-2.79-7.93-2.79l-.07-2.25c3.357-.032,6.622,1.099,9.24,3.2,2.231,1.838,5.04,2.826,7.93,2.79,2.842.055,5.604-.938,7.76-2.79,2.534-2.119,5.747-3.255,9.05-3.2,3.354-.031,6.615,1.1,9.23,3.2,2.08,1.44,4,2.79,7.93,2.79,2.842.055,5.604-.938,7.76-2.79,2.536-2.116,5.747-3.252,9.05-3.2,3.357-.032,6.622,1.099,9.24,3.2,2.08,1.44,4,2.79,7.93,2.79l-.03,2.25Z"/>
        <path class="c7" d="M132.081,23.43h-.19c-2.31-7.33-7.85-12.19-13.9-12.19h-12.32c-1.955-.073-3.65-1.372-4.23-3.24-1.65-4.67-5.7-8-10.35-8s-8.52,3.33-9.93,8c-.483,1.862-2.137,3.182-4.06,3.24h-12.31c-6.05,0-11.34,4.86-13.26,12.19h-.18c-1.455.099-2.554,1.358-2.455,2.812.002.023.003.045.005.068-.036,1.496,1.107,2.759,2.6,2.87h80.75c1.455-.094,2.559-1.349,2.465-2.804-.001-.022-.003-.044-.005-.066.041-1.511-1.121-2.784-2.63-2.88Z"/>
        <path class="c10" d="M40.511,48.2l.53.35.5.23-.55,1.19c-.312-.147-.613-.318-.9-.51-.214-.139-.421-.29-.62-.45-.555.226-1.151.331-1.75.31-.907.05-1.799-.243-2.5-.82-.755-.695-1.171-1.684-1.14-2.71-.247-1.716.944-3.308,2.66-3.556.258-.037.52-.042.78-.014.972-.062,1.929.266,2.66.91,1.216,1.432,1.35,3.492.33,5.07h0ZM38.861,47.11c.183-.429.255-.896.21-1.36.027-.528-.124-1.049-.43-1.48-.275-.303-.671-.468-1.08-.45-.387-.013-.758.158-1,.46-.292.412-.417.919-.35,1.42-.037.56.114,1.116.43,1.58.268.302.657.467,1.06.45.136.016.274.016.41,0-.254-.215-.545-.382-.86-.49l.31-.76c.152.019.3.059.44.12.218.121.428.254.63.4l.23.11Z"/>
        <path class="c10" d="M46.701,42.33h2.09l.12,4.1c.024.377-.016.756-.12,1.12-.106.358-.299.684-.56.95-.234.25-.521.444-.84.57-.476.163-.977.241-1.48.23-.364,0-.728-.024-1.09-.07-.347-.034-.685-.129-1-.28-.282-.151-.536-.351-.75-.59-.206-.231-.365-.499-.47-.79-.134-.373-.211-.764-.23-1.16l-.12-4.1h2.12l.12,4.19c-.012.327.111.645.34.88.234.221.548.336.87.32.316.017.624-.099.85-.32.184-.235.27-.533.24-.83l-.09-4.22Z"/>
        <path class="c10" d="M54.291,48.07h-2.41l-.3,1.13h-2.17l2.38-6.87h2.31l2.79,6.87h-2.23l-.37-1.13ZM53.791,46.55l-.83-2.47-.67,2.47h1.5Z"/>
        <path class="c10" d="M57.361,42.33h2.12l.15,5.18h3.32l.05,1.69h-5.44l-.2-6.87Z"/>
        <path class="c10" d="M63.841,42.33h2.13l.2,6.87h-2.13l-.2-6.87Z"/>
        <path class="c10" d="M67.011,42.33h6.45l.05,1.7h-2.16l.15,5.17h-2.12l-.16-5.17h-2.16l-.05-1.7Z"/>
        <path class="c10" d="M73.731,42.33h2.36l1.45,2.32,1.32-2.32h2.34l-2.55,4,.08,2.87h-2.13l-.08-2.87-2.79-4Z"/>
        <path class="c10" d="M89.471,48.07h-2.41l-.3,1.13h-2.16l2.38-6.87h2.31l2.78,6.87h-2.22l-.38-1.13ZM88.991,46.55l-.83-2.47-.68,2.47h1.51Z"/>
        <path class="c10" d="M92.311,46.93l2-.13c.03.269.126.527.28.75.244.295.618.452,1,.42.251.021.502-.054.7-.21.147-.124.231-.307.23-.5-.012-.188-.103-.362-.25-.48-.335-.207-.71-.34-1.1-.39-.723-.12-1.408-.408-2-.84-.689-.571-.844-1.567-.36-2.32.214-.336.529-.595.9-.74.536-.204,1.107-.296,1.68-.27.701-.042,1.398.129,2,.49.498.369.815.933.87,1.55l-2,.12c-.034-.258-.158-.495-.35-.67-.206-.148-.456-.222-.71-.21-.198-.015-.396.037-.56.15-.115.091-.179.233-.17.38.003.12.062.231.16.3.22.133.465.219.72.25.688.124,1.36.329,2,.61.365.165.677.428.9.76.187.301.29.646.3,1,.013.427-.102.849-.33,1.21-.235.382-.585.68-1,.85-.524.208-1.086.307-1.65.29-.873.088-1.747-.154-2.45-.68-.459-.452-.745-1.049-.81-1.69Z"/>
        <path class="c10" d="M99.241,46.93l2-.13c.033.27.132.528.29.75.234.281.585.436.95.42.251.021.502-.054.7-.21.147-.124.231-.307.23-.5-.012-.188-.103-.362-.25-.48-.335-.207-.71-.34-1.1-.39-.724-.118-1.409-.406-2-.84-.402-.321-.637-.806-.64-1.32-.012-.353.082-.701.27-1,.22-.335.538-.593.91-.74.536-.204,1.107-.296,1.68-.27.701-.04,1.397.13,2,.49.498.369.815.933.87,1.55l-2,.12c-.033-.26-.161-.499-.36-.67-.205-.151-.456-.225-.71-.21-.195-.014-.389.039-.55.15-.114.093-.18.233-.18.38.012.119.074.228.17.3.22.133.465.219.72.25.688.124,1.36.329,2,.61.363.167.674.43.9.76.187.301.29.646.3,1,.013.427-.102.849-.33,1.21-.234.383-.584.681-1,.85-.521.208-1.079.307-1.64.29-.873.088-1.747-.154-2.45-.68-.448-.456-.724-1.053-.78-1.69Z"/>
        <path class="c10" d="M110.871,42.33h2.12l.12,4.1c.014.386-.04.772-.16,1.14-.107.358-.299.684-.56.95-.234.25-.521.444-.84.57-.476.163-.977.241-1.48.23-.364,0-.729-.024-1.09-.07-.347-.034-.685-.129-1-.28-.282-.151-.536-.351-.75-.59-.199-.245-.349-.527-.44-.83-.134-.373-.211-.764-.23-1.16l-.12-4.1h2.11l.13,4.19c-.011.325.108.642.33.88.239.219.556.335.88.32.316.017.624-.099.85-.32.216-.239.318-.56.28-.88l-.15-4.15Z"/>
        <path class="c10" d="M114.621,49.2l-.2-6.87h3.54c.509-.017,1.018.041,1.51.17.346.114.647.335.86.63.224.327.346.713.35,1.11.022.347-.055.694-.22,1-.154.276-.378.507-.65.67-.23.13-.48.221-.74.27.198.054.387.138.56.25.251.236.473.501.66.79l1.09,2h-2.4l-1.19-2.1c-.101-.199-.237-.378-.4-.53-.158-.102-.342-.158-.53-.16h-.19l.09,2.79-2.14-.02ZM116.621,45.12h.89c.19-.014.377-.047.56-.1.135-.028.255-.102.34-.21.08-.118.122-.258.12-.4.004-.196-.08-.383-.23-.51-.237-.145-.514-.208-.79-.18h-.94l.05,1.4Z"/>
        <path class="c10" d="M126.251,48.07h-2.41l-.3,1.13h-2.17l2.38-6.87h2.31l2.79,6.87h-2.23l-.37-1.13ZM125.791,46.55l-.83-2.47-.67,2.47h1.5Z"/>
        <path class="c10" d="M129.331,42.33h2l2.69,3.8-.11-3.8h2l.2,6.87h-2l-2.68-3.77.11,3.77h-2l-.21-6.87Z"/>
        <path class="c10" d="M142.001,46.39l1.88.56c-.087.471-.275.918-.55,1.31-.26.345-.604.617-1,.79-.478.196-.993.288-1.51.27-.63.022-1.257-.09-1.84-.33-.495-.261-.908-.656-1.19-1.14-.384-.633-.585-1.36-.58-2.1-.09-.95.21-1.895.83-2.62.683-.644,1.604-.974,2.54-.91.724-.04,1.442.142,2.06.52.541.404.943.967,1.15,1.61l-1.86.42c-.055-.161-.129-.316-.22-.46-.12-.156-.274-.282-.45-.37-.179-.092-.378-.14-.58-.14-.441-.016-.857.205-1.09.58-.211.42-.297.892-.25,1.36-.039.548.097,1.095.39,1.56.249.29.618.448,1,.43.34.024.674-.104.91-.35.206-.292.331-.634.36-.99Z"/>
        <path class="c10" d="M144.791,42.33h5.69v1.47h-3.56v1.09h3.3v1.4h-3.3v1.36h3.67v1.55h-5.79l-.01-6.87Z"/>
      </g>
    </g>
  </g>
</svg>