<?xml version="1.0" encoding="UTF-8"?>
<svg xmlns="http://www.w3.org/2000/svg" version="1.1" viewBox="0 0 426.11 355.86">
  <defs>
    <style>
      .cls-1 {
        fill: #ebebeb;
      }

      .cls-2 {
        fill: #dbdbdb;
      }

      .cls-3 {
        fill: #256e9f;
        opacity: .75;
      }

      .cls-3, .cls-4, .cls-5 {
        isolation: isolate;
      }

      .cls-6 {
        fill: #37474f;
        opacity: .2;
      }

      .cls-4, .cls-7 {
        fill: #6c9ec0;
      }

      .cls-8 {
        fill: #c7c7c7;
      }

      .cls-9, .cls-5 {
        fill: #e0eaf1;
      }

      .cls-10 {
        fill: #fff;
      }

      .cls-11 {
        fill: #b5cede;
      }

      .cls-12 {
        fill: #6b9ebf;
      }

      .cls-13 {
        fill: #226f9f;
      }
    </style>
  </defs>
  <!-- Generator: Adobe Illustrator 28.7.1, SVG Export Plug-In . SVG Version: 1.2.0 Build 142)  -->
  <g>
    <g>
      <g>
        <rect class="cls-6" width="426.11" height="289.74"/>
        <rect class="cls-1" y="247.01" width="426.11" height="42.74"/>
        <rect class="cls-2" x="130.02" y="341.98" width="166.06" height="13.88"/>
        <polygon class="cls-1" points="276.31 341.99 149.79 341.99 153.01 317.91 153.17 316.77 153.46 314.51 153.61 313.37 153.92 311.11 153.96 310.76 154.07 309.98 154.37 307.72 154.52 306.58 156.77 289.76 269.33 289.76 271.45 305.63 271.55 306.39 271.9 309.02 272 309.79 272.14 310.76 272.36 312.42 272.46 313.18 272.81 315.82 272.91 316.58 276.31 341.99"/>
        <path class="cls-6" d="M219.98,265.5c0,3.899-3.161,7.06-7.06,7.06s-7.06-3.161-7.06-7.06,3.161-7.06,7.06-7.06h0c3.899,0,7.06,3.161,7.06,7.06Z"/>
        <polygon class="cls-2" points="272.14 310.76 154.52 306.58 156.77 289.76 269.33 289.76 272.14 310.76"/>
        <rect class="cls-10" x="19.66" y="18.84" width="386.78" height="208.06"/>
        <rect class="cls-10" x="19.66" y="18.84" width="386.78" height="208.06"/>
        <rect class="cls-7" x="19.66" y="28.26" width="379.92" height="26.91"/>
        <rect class="cls-10" x="32.43" y="37.25" width="9.18" height="1.48"/>
        <rect class="cls-10" x="32.43" y="43.87" width="9.18" height="1.48"/>
        <rect class="cls-10" x="32.43" y="40.6" width="9.18" height="1.48"/>
        <rect class="cls-10" x="131.36" y="37.33" width="208.31" height="7.92"/>
        <path class="cls-10" d="M339.75,45.34h-208.47v-8.09h208.47v8.09Z"/>
        <rect class="cls-13" x="331.66" y="37.25" width="8.09" height="8.09"/>
        <path class="cls-10" d="M338.22,43.52l-.74.55-1.35-1.79-.5-.65c.102-.043.199-.097.29-.16.16-.132.287-.3.37-.49l.53.69,1.4,1.85Z"/>
        <path class="cls-10" d="M336.77,39.3c-.681-.87-1.938-1.024-2.808-.343-.87.681-1.024,1.937-.343,2.808.597.763,1.655.989,2.511.536.096-.051.186-.111.27-.18.164-.117.306-.263.42-.43.514-.72.493-1.692-.05-2.39ZM335.92,41.47c-.091.063-.188.117-.29.16-.615.247-1.314-.052-1.561-.667-.247-.615.052-1.314.667-1.561.615-.247,1.314.052,1.561.667.117.293.115.62-.007.91-.083.19-.21.358-.37.49Z"/>
        <rect class="cls-8" x="133.02" y="38.89" width=".43" height="4.81"/>
        <path class="cls-13" d="M385.66,45.57c-.4.244-.835.426-1.29.54-2.412.585-4.844-.89-5.44-3.3-.592-2.414.885-4.85,3.299-5.442,2.414-.592,4.85.885,5.442,3.299.465,1.898-.347,3.879-2.011,4.904Z"/>
        <path class="cls-10" d="M384.67,41.22c0,.757-.613,1.37-1.37,1.37s-1.37-.613-1.37-1.37.613-1.37,1.37-1.37h0c.757,0,1.37.613,1.37,1.37Z"/>
        <path class="cls-10" d="M385.66,45v.57c-.4.244-.835.426-1.29.54-1.174.292-2.416.093-3.44-.55v-.56c-.085-1.306.905-2.434,2.211-2.519s2.434.905,2.519,2.211c.007.103.007.205,0,.308Z"/>
        <path class="cls-13" d="M370.05,46.24h-3.13v-1.11c.002-.063-.033-.122-.09-.15-.119-.057-.233-.124-.34-.2-.056-.03-.124-.03-.18,0l-1,.56-1.57-2.71,1-.56c.053-.031.084-.089.08-.15-.005-.067-.005-.133,0-.2-.005-.063-.005-.127,0-.19.004-.064-.027-.125-.08-.16l-1-.56,1.57-2.71,1,.56c.055.034.125.034.18,0,.11-.073.223-.139.34-.2.057-.028.092-.087.09-.15v-1.1h3.13v1.1c0,.066.039.125.1.15l.34.2c.055.034.125.034.18,0l1-.56,1.56,2.71-1,.56c-.059.03-.092.095-.08.16v.4c-.012.065.021.13.08.16l1,.56-1.56,2.71-1-.55c-.055-.034-.125-.034-.18,0-.109.074-.222.141-.34.2-.058.029-.096.086-.1.15v1.08ZM367.7,45.46h1.57v-.33c-.002-.357.2-.683.52-.84l.27-.16c.305-.194.695-.194,1,0l.29.17.78-1.36-.28-.17c-.312-.179-.495-.521-.47-.88v-.3c-.011-.356.168-.691.47-.88l.28-.16-.78-1.36-.28.16c-.309.179-.691.179-1,0-.085-.058-.176-.108-.27-.15-.312-.171-.51-.494-.52-.85v-.42h-1.57v.32c-.01.356-.208.679-.52.85-.09,0-.18.1-.27.15-.305.194-.695.194-1,0l-.28-.16-.79,1.36.29.16c.298.191.473.526.46.88v.31c.01.351-.165.681-.46.87l-.29.17.79,1.36.28-.17c.305-.194.695-.194,1,0l.27.16c.32.157.522.483.52.84l-.01.43ZM368.49,44.02c-1.276,0-2.31-1.034-2.31-2.31s1.034-2.31,2.31-2.31c1.276,0,2.31,1.034,2.31,2.31h0c0,1.268-1.022,2.299-2.29,2.31h-.02ZM368.49,40.18c-.851-.005-1.544.68-1.55,1.53s.68,1.544,1.53,1.55c.851.005,1.544-.68,1.55-1.53,0-.007,0-.013,0-.02-.005-.835-.675-1.514-1.51-1.53h-.02Z"/>
        <rect class="cls-13" x="49.4" y="40.6" width="63.11" height="3.01"/>
        <rect class="cls-13" x="19.66" y="18.84" width="386.78" height="9.42"/>
        <path class="cls-8" d="M27.14,23.55c.006,1.292-1.038,2.344-2.33,2.35-1.292.006-2.344-1.038-2.35-2.33-.006-1.292,1.038-2.344,2.33-2.35.007,0,.013,0,.02,0,1.287,0,2.33,1.043,2.33,2.33h0Z"/>
        <path class="cls-10" d="M36.68,23.55c.006,1.292-1.038,2.344-2.33,2.35-1.292.006-2.344-1.038-2.35-2.33s1.038-2.344,2.33-2.35c.003,0,.007,0,.01,0,1.288,0,2.334,1.042,2.34,2.33Z"/>
        <path class="cls-12" d="M46.21,23.55c.006,1.292-1.038,2.344-2.33,2.35-1.292.006-2.344-1.038-2.35-2.33-.006-1.292,1.038-2.344,2.33-2.35.007,0,.013,0,.02,0,1.287,0,2.33,1.043,2.33,2.33h0Z"/>
        <rect class="cls-9" x="399.58" y="28.26" width="6.86" height="198.65"/>
        <path class="cls-11" d="M403.05,109.83h0c-.983,0-1.78-.797-1.78-1.78h0V31.41c.005-.979.801-1.77,1.78-1.77h0c.978,0,1.77.792,1.77,1.77h0v76.64c0,.979-.791,1.775-1.77,1.78Z"/>
        <rect class="cls-11" x="184.75" y="154.33" width="62.25" height="47.76"/>
        <path class="cls-5" d="M190.94,164.77c-.608,3.061,1.379,6.035,4.44,6.643s6.035-1.379,6.643-4.44c.608-3.061-1.379-6.035-4.44-6.643-.727-.145-1.476-.145-2.203,0-2.241.448-3.992,2.199-4.44,4.44Z"/>
        <polygon class="cls-3" points="205.28 191.8 246.99 191.8 226.14 166.09 205.28 191.8"/>
        <polygon class="cls-4" points="184.74 191.82 221.74 191.82 203.24 175.08 184.74 191.82"/>
        <rect class="cls-4" x="184.74" y="191.8" width="62.25" height="10.29"/>
        <rect class="cls-9" x="37.24" y="154.32" width="46.76" height="3.93"/>
        <rect class="cls-1" x="37.24" y="163.45" width="135.32" height="3.93"/>
        <rect class="cls-1" x="37.24" y="172.11" width="135.32" height="3.93"/>
        <rect class="cls-1" x="37.24" y="180.76" width="135.32" height="3.93"/>
        <rect class="cls-1" x="37.24" y="189.42" width="135.32" height="3.93"/>
        <rect class="cls-1" x="37.24" y="198.07" width="135.32" height="3.93"/>
        <rect class="cls-9" x="150.93" y="76.1" width="96.07" height="10.52"/>
        <rect class="cls-1" x="150.93" y="93.88" width="96.07" height="3.93"/>
        <rect class="cls-1" x="150.93" y="102.53" width="96.07" height="3.93"/>
        <rect class="cls-1" x="150.93" y="111.19" width="96.07" height="3.93"/>
        <rect class="cls-1" x="150.93" y="119.84" width="96.07" height="3.93"/>
        <rect class="cls-1" x="150.93" y="131.36" width="96.07" height="3.93"/>
        <rect class="cls-1" x="150.93" y="140.01" width="96.07" height="3.93"/>
        <path class="cls-2" d="M139.16,143.93h-2v-.75h2v.75ZM135.16,143.93h-2v-.75h2v.75ZM131.16,143.93h-2v-.75h2v.75ZM127.16,143.93h-2v-.75h2v.75ZM123.16,143.93h-2v-.75h2v.75ZM119.16,143.93h-2v-.75h2v.75ZM115.16,143.93h-2v-.75h2v.75ZM111.16,143.93h-2v-.75h2v.75ZM107.16,143.93h-2v-.75h2v.75ZM103.16,143.93h-2v-.75h2v.75ZM99.16,143.93h-2v-.75h2v.75ZM95.16,143.93h-2v-.75h2v.75ZM91.16,143.93h-2v-.75h2v.75ZM87.16,143.93h-2v-.75h2v.75ZM83.16,143.93h-2v-.75h2v.75ZM79.16,143.93h-2v-.75h2v.75ZM75.16,143.93h-2v-.75h2v.75ZM71.16,143.93h-2v-.75h2v.75ZM67.16,143.93h-2v-.75h2v.75ZM63.16,143.93h-2v-.75h2v.75ZM59.16,143.93h-2v-.75h2v.75ZM55.16,143.93h-2v-.75h2v.75ZM51.16,143.93h-2v-.75h2v.75ZM47.16,143.93h-2v-.75h2v.75ZM43.16,143.93h-2v-.75h2v.75ZM39.16,143.93h-2.3v-.37h.38v-.34h1.92v.71ZM139.54,142.74h-.75v-2h.75v2ZM37.61,141.48h-.75v-2h.75v2ZM139.54,138.74h-.75v-2h.75v2ZM37.61,137.48h-.75v-2h.75v2ZM139.54,134.74h-.75v-2h.75v2ZM37.61,133.48h-.75v-2h.75v2ZM139.54,130.74h-.75v-2h.75v2ZM37.61,129.48h-.75v-2h.75v2ZM139.54,126.74h-.75v-2h.75v2ZM37.61,125.48h-.75v-2h.75v2ZM139.54,122.74h-.75v-2h.75v2ZM37.61,121.48h-.75v-2h.75v2ZM139.54,118.74h-.75v-2h.75v2ZM37.61,117.48h-.75v-2h.75v2ZM139.54,114.74h-.75v-2h.75v2ZM37.61,113.48h-.75v-2h.75v2ZM139.54,110.74h-.75v-2h.75v2ZM37.61,109.48h-.75v-2h.75v2ZM139.54,106.74h-.75v-2h.75v2ZM37.61,105.48h-.75v-2h.75v2ZM139.54,102.74h-.75v-2h.75v2ZM37.61,101.48h-.75v-2h.75v2ZM139.54,98.74h-.75v-2h.75v2ZM37.61,97.48h-.75v-2h.75v2ZM139.54,94.74h-.75v-2h.75v2ZM37.61,93.48h-.75v-2h.75v2ZM139.54,90.74h-.75v-2h.75v2ZM37.61,89.48h-.75v-2h.75v2ZM139.54,86.74h-.75v-2h.75v2ZM37.61,85.48h-.75v-2h.75v2ZM139.54,82.74h-.75v-2h.75v2ZM37.61,81.48h-.75v-2h.75v2ZM139.54,78.74h-.75v-2h.75v2ZM37.61,77.48h-.75v-1.78h1v.75h-.22l-.03,1.03ZM137.83,76.48h-2v-.75h2v.75ZM133.83,76.48h-2v-.75h2v.75ZM129.83,76.48h-2v-.75h2v.75ZM125.83,76.48h-2v-.75h2v.75ZM121.83,76.48h-2v-.75h2v.75ZM117.83,76.48h-2v-.75h2v.75ZM113.83,76.48h-2v-.75h2v.75ZM109.83,76.48h-2v-.75h2v.75ZM105.83,76.48h-2v-.75h2v.75ZM101.83,76.48h-2v-.75h2v.75ZM97.83,76.48h-2v-.75h2v.75ZM93.83,76.48h-2v-.75h2v.75ZM89.83,76.48h-2v-.75h2v.75ZM85.83,76.48h-2v-.75h2v.75ZM81.83,76.48h-2v-.75h2v.75ZM77.83,76.48h-2v-.75h2v.75ZM73.83,76.48h-2v-.75h2v.75ZM69.83,76.48h-2v-.75h2v.75ZM65.83,76.48h-2v-.75h2v.75ZM61.83,76.48h-2v-.75h2v.75ZM57.83,76.48h-2v-.75h2v.75ZM53.83,76.48h-2v-.75h2v.75ZM49.83,76.48h-2v-.75h2v.75ZM45.83,76.48h-2v-.75h2v.75ZM41.83,76.48h-2v-.75h2v.75Z"/>
        <circle class="cls-7" cx="88.2" cy="109.84" r="9.2" transform="translate(-34.35 179.307) rotate(-80.783)"/>
        <rect class="cls-10" x="87.33" y="104.37" width="1.75" height="10.94"/>
        <rect class="cls-10" x="82.72" y="108.97" width="10.94" height="1.75"/>
        <path class="cls-2" d="M385.44,202.46h-2v-.75h2v.75ZM381.44,202.46h-2v-.75h2v.75ZM377.44,202.46h-2v-.75h2v.75ZM373.44,202.46h-2v-.75h2v.75ZM369.44,202.46h-2v-.75h2v.75ZM365.44,202.46h-2v-.75h2v.75ZM361.44,202.46h-2v-.75h2v.75ZM357.44,202.46h-2v-.75h2v.75ZM353.44,202.46h-2v-.75h2v.75ZM349.44,202.46h-2v-.75h2v.75ZM345.44,202.46h-2v-.75h2v.75ZM341.44,202.46h-2v-.75h2v.75ZM337.44,202.46h-2v-.75h2v.75ZM333.44,202.46h-2v-.75h2v.75ZM329.44,202.46h-2v-.75h2v.75ZM325.44,202.46h-2v-.75h2v.75ZM321.44,202.46h-2v-.75h2v.75ZM317.44,202.46h-2v-.75h2v.75ZM313.44,202.46h-2v-.75h2v.75ZM309.44,202.46h-2v-.75h2v.75ZM305.44,202.46h-2v-.75h2v.75ZM301.44,202.46h-2v-.75h2v.75ZM297.44,202.46h-2v-.75h2v.75ZM293.44,202.46h-2v-.75h2v.75ZM289.44,202.46h-2v-.75h2v.75ZM285.44,202.46h-2v-.75h2v.75ZM281.44,202.46h-2v-.75h2v.75ZM277.44,202.46h-2v-.75h2v.75ZM273.44,202.46h-2v-.75h2v.75ZM269.44,202.46h-2v-.75h2v.75ZM265.44,202.46h-2v-.75h2v.75ZM261.44,202.46h-2.28v-.48h.38v-.27h1.9v.75ZM385.81,201.05h-.76v-2h.75l.01,2ZM259.91,199.98h-.75v-2h.75v2ZM385.81,197.05h-.76v-2h.75l.01,2ZM259.91,195.98h-.75v-2h.75v2ZM385.81,193.05h-.76v-2h.75l.01,2ZM259.91,191.98h-.75v-2h.75v2ZM385.81,189.05h-.76v-2h.75l.01,2ZM259.91,187.98h-.75v-2h.75v2ZM385.81,185.05h-.76v-2h.75l.01,2ZM259.91,183.98h-.75v-2h.75v2ZM385.81,181.05h-.76v-2h.75l.01,2ZM259.91,179.98h-.75v-2h.75v2ZM385.81,177.05h-.76v-2h.75l.01,2ZM259.91,175.98h-.75v-2h.75v2ZM385.81,173.05h-.76v-2h.75l.01,2ZM259.91,171.98h-.75v-2h.75v2ZM385.81,169.05h-.76v-2h.75l.01,2ZM259.91,167.98h-.75v-2h.75v2ZM385.81,165.05h-.76v-2h.75l.01,2ZM259.91,163.98h-.75v-2h.75v2ZM385.81,161.05h-.76v-2h.75l.01,2ZM259.91,159.98h-.75v-2h.75v2ZM385.81,157.05h-.76v-2h.75l.01,2ZM259.91,155.98h-.75v-2h.75v2ZM385.81,153.05h-.76v-2h.75l.01,2ZM259.91,151.98h-.75v-2h.75v2ZM385.81,149.05h-.76v-2h.75l.01,2ZM259.91,147.98h-.75v-2h.75v2ZM385.81,145.05h-.76v-.21h-1v-.75h1.79l-.03.96ZM382.02,144.84h-2v-.75h2v.75ZM378.02,144.84h-2v-.75h2v.75ZM374.02,144.84h-2v-.75h2v.75ZM370.02,144.84h-2v-.75h2v.75ZM366.02,144.84h-2v-.75h2v.75ZM362.02,144.84h-2v-.75h2v.75ZM358.02,144.84h-2v-.75h2v.75ZM354.02,144.84h-2v-.75h2v.75ZM350.02,144.84h-2v-.75h2v.75ZM346.02,144.84h-2v-.75h2v.75ZM342.02,144.84h-2v-.75h2v.75ZM338.02,144.84h-2v-.75h2v.75ZM334.02,144.84h-2v-.75h2v.75ZM330.02,144.84h-2v-.75h2v.75ZM326.02,144.84h-2v-.75h2v.75ZM322.02,144.84h-2v-.75h2v.75ZM318.02,144.84h-2v-.75h2v.75ZM314.02,144.84h-2v-.75h2v.75ZM310.02,144.84h-2v-.75h2v.75ZM306.02,144.84h-2v-.75h2v.75ZM302.02,144.84h-2v-.75h2v.75ZM298.02,144.84h-2v-.75h2v.75ZM294.02,144.84h-2v-.75h2v.75ZM290.02,144.84h-2v-.75h2v.75ZM286.02,144.84h-2v-.75h2v.75ZM282.02,144.84h-2v-.75h2v.75ZM278.02,144.84h-2v-.75h2v.75ZM274.02,144.84h-2v-.75h2v.75ZM270.02,144.84h-2v-.75h2v.75ZM266.02,144.84h-2v-.75h2v.75ZM262.02,144.84h-2v-.75h2v.75Z"/>
        <circle class="cls-7" cx="322.49" cy="173.28" r="9.2"/>
        <rect class="cls-10" x="321.62" y="167.81" width="1.75" height="10.94"/>
        <rect class="cls-10" x="317.01" y="172.41" width="10.94" height="1.75"/>
        <polygon class="cls-2" points="294.51 111.17 293.13 111.17 293.13 110.42 293.76 110.42 293.76 109.79 294.51 109.79 294.51 111.17"/>
        <path class="cls-2" d="M291.21,111.17h-1.91v-.75h1.91v.75ZM287.38,111.17h-1.92v-.75h1.92v.75ZM283.55,111.17h-1.92v-.75h1.92v.75ZM279.71,111.17h-1.92v-.75h1.92v.75ZM275.88,111.17h-1.92v-.75h1.92v.75ZM272.04,111.17h-1.92v-.75h1.93l-.01.75ZM268.21,111.17h-1.92v-.75h1.92v.75ZM264.37,111.17h-1.91v-.75h1.91v.75Z"/>
        <polygon class="cls-2" points="260.54 111.17 259.16 111.17 259.16 109.79 259.91 109.79 259.91 110.42 260.54 110.42 260.54 111.17"/>
        <path class="cls-2" d="M259.91,107.93h-.75v-2h.75v2ZM259.91,104.09h-.75v-1.92h.75v1.92ZM259.91,100.26h-.75v-1.92h.75v1.92ZM259.91,96.42h-.75v-1.92h.75v1.92ZM259.91,92.59h-.75v-1.92h.75v1.92ZM259.91,88.75h-.75v-1.91h.75v1.91ZM259.91,84.92h-.75v-1.99h.75v1.99ZM259.91,81.08h-.75v-1.91h.75v1.91Z"/>
        <polygon class="cls-2" points="259.91 77.2 259.16 77.2 259.16 75.83 260.54 75.83 260.54 76.58 259.91 76.58 259.91 77.2"/>
        <path class="cls-2" d="M291.22,76.57h-1.92v-.75h1.92v.75ZM287.38,76.57h-1.92v-.75h1.92v.75ZM283.55,76.57h-1.92v-.75h1.92v.75ZM279.71,76.57h-1.92v-.75h1.92v.75ZM275.88,76.57h-1.92v-.75h1.92v.75ZM272.04,76.57h-1.91v-.75h1.92l-.01.75ZM268.21,76.57h-1.92v-.75h1.92v.75ZM264.37,76.57h-1.91v-.75h1.91v.75Z"/>
        <polygon class="cls-2" points="294.51 77.2 293.76 77.2 293.76 76.58 293.13 76.58 293.13 75.83 294.51 75.83 294.51 77.2"/>
        <path class="cls-2" d="M294.51,107.93h-.75v-2h.75v2ZM294.51,104.09h-.75v-1.92h.75v1.92ZM294.51,100.26h-.75v-1.92h.75v1.92ZM294.51,96.42h-.75v-1.92h.75v1.92ZM294.51,92.59h-.75v-1.92h.75v1.92ZM294.51,88.75h-.75v-1.91h.75v1.91ZM294.51,84.92h-.75v-1.99h.75v1.99ZM294.51,81.08h-.75v-1.91h.75v1.91Z"/>
        <path class="cls-2" d="M259.57,76.2c2.91,2.8,5.81,5.64,8.7,8.49l8.65,8.6,8.62,8.7,4.29,4.38,4.27,4.42-4.36-4.22-4.34-4.27-8.65-8.6-8.62-8.7c-2.86-2.91-5.72-5.83-8.56-8.8Z"/>
        <path class="cls-2" d="M294.1,76.2c-2.84,3-5.7,5.89-8.56,8.8l-8.62,8.7-8.65,8.6-4.34,4.27-4.36,4.22,4.27-4.42,4.29-4.38,8.62-8.7,8.65-8.6c2.89-2.85,5.79-5.69,8.7-8.49Z"/>
        <path class="cls-7" d="M329.39,93.58c.006,3.816-3.084,6.914-6.9,6.92-3.816.006-6.914-3.084-6.92-6.9-.006-3.816,3.084-6.914,6.9-6.92.007,0,.013,0,.02,0,3.811,0,6.9,3.089,6.9,6.9Z"/>
        <rect class="cls-10" x="321.83" y="89.48" width="1.31" height="8.21"/>
        <rect class="cls-10" x="318.38" y="92.93" width="8.21" height="1.31"/>
        <polygon class="cls-9" points="340.16 111.25 338.78 111.25 338.78 110.5 339.41 110.5 339.41 109.88 340.16 109.88 340.16 111.25"/>
        <path class="cls-9" d="M336.87,111.25h-1.92v-.75h1.92v.75ZM333.03,111.25h-1.91v-.75h1.93l-.02.75ZM329.2,111.25h-1.92v-.75h1.92v.75ZM325.36,111.25h-1.91v-.75h1.91v.75ZM321.53,111.25h-1.92v-.75h1.92v.75ZM317.7,111.25h-1.92v-.75h1.92v.75ZM313.86,111.25h-1.92v-.75h1.92v.75ZM310.03,111.25h-1.92v-.75h1.94l-.02.75Z"/>
        <polygon class="cls-9" points="306.19 111.25 304.82 111.25 304.82 109.88 305.57 109.88 305.57 110.5 306.19 110.5 306.19 111.25"/>
        <path class="cls-9" d="M305.57,107.93h-.75v-1.91h.75v1.91ZM305.57,104.1h-.75v-1.92h.75v1.92ZM305.57,100.26h-.75v-1.91h.75v1.91ZM305.57,96.43h-.75v-1.92h.75v1.92ZM305.57,92.59h-.75v-1.91h.75v1.91ZM305.57,88.76h-.75v-1.92h.75v1.92ZM305.57,84.93h-.75v-1.92h.75v1.92ZM305.57,81.09h-.75v-1.92h.75v1.92Z"/>
        <polygon class="cls-9" points="305.57 77.29 304.82 77.29 304.82 75.91 306.19 75.91 306.19 76.66 305.57 76.66 305.57 77.29"/>
        <path class="cls-9" d="M336.87,76.66h-1.92v-.73h1.92v.73ZM333.03,76.66h-1.91v-.73h1.93l-.02.73ZM329.2,76.66h-1.92v-.73h1.92v.73ZM325.36,76.66h-1.91v-.73h1.91v.73ZM321.53,76.66h-1.92v-.73h1.92v.73ZM317.7,76.66h-1.92v-.73h1.92v.73ZM313.86,76.66h-1.92v-.73h1.92v.73ZM310.03,76.66h-1.92v-.73h1.94l-.02.73Z"/>
        <polygon class="cls-9" points="340.16 77.29 339.41 77.29 339.41 76.66 338.78 76.66 338.78 75.91 340.16 75.91 340.16 77.29"/>
        <path class="cls-9" d="M340.16,107.93h-.75v-1.91h.75v1.91ZM340.16,104.1h-.75v-1.92h.75v1.92ZM340.16,100.26h-.75v-1.91h.75v1.91ZM340.16,96.43h-.75v-1.92h.75v1.92ZM340.16,92.59h-.75v-1.91h.75v1.91ZM340.16,88.76h-.75v-1.92h.75v1.92ZM340.16,84.93h-.75v-1.92h.75v1.92ZM340.16,81.09h-.75v-1.92h.75v1.92Z"/>
        <path class="cls-2" d="M350.9,76.29c2.92,2.8,5.81,5.64,8.7,8.49l8.66,8.6,8.61,8.69,4.29,4.39,4.28,4.42-4.39-4.23-4.34-4.26-8.66-8.6-8.61-8.7c-2.83-2.91-5.7-5.84-8.54-8.8Z"/>
        <path class="cls-2" d="M385.44,76.29c-2.84,2.96-5.697,5.893-8.57,8.8l-8.61,8.7-8.65,8.6-4.35,4.26-4.36,4.28,4.28-4.42,4.29-4.39,8.61-8.69,8.66-8.6c2.89-2.9,5.78-5.74,8.7-8.54Z"/>
        <polygon class="cls-2" points="385.84 111.17 384.47 111.17 384.47 110.42 385.09 110.42 385.09 109.79 385.84 109.79 385.84 111.17"/>
        <path class="cls-2" d="M382.55,111.17h-1.92v-.75h1.92v.75ZM378.72,111.17h-1.92v-.75h1.92v.75ZM374.88,111.17h-1.92v-.75h1.92v.75ZM371.05,111.17h-1.92v-.75h1.92v.75ZM367.21,111.17h-1.91v-.75h1.91v.75ZM363.38,111.17h-1.92v-.75h1.92v.75ZM359.54,111.17h-1.91v-.75h1.91v.75ZM355.71,111.17h-1.92v-.75h1.92v.75Z"/>
        <polygon class="cls-2" points="351.87 111.17 350.5 111.17 350.5 109.79 351.25 109.79 351.25 110.42 351.87 110.42 351.87 111.17"/>
        <path class="cls-2" d="M351.25,107.93h-.75v-2h.75v2ZM351.25,104.09h-.75v-1.92h.75v1.92ZM351.25,100.26h-.75v-1.92h.75v1.92ZM351.25,96.42h-.75v-1.92h.75v1.92ZM351.25,92.59h-.75v-1.92h.75v1.92ZM351.25,88.75h-.75v-1.91h.75v1.91ZM351.25,84.92h-.75v-1.99h.75v1.99ZM351.25,81.08h-.75v-1.91h.75v1.91Z"/>
        <polygon class="cls-2" points="351.25 77.2 350.5 77.2 350.5 75.83 351.87 75.83 351.87 76.58 351.25 76.58 351.25 77.2"/>
        <path class="cls-2" d="M382.55,76.57h-1.92v-.75h1.92v.75ZM378.72,76.57h-1.92v-.75h1.92v.75ZM374.88,76.57h-1.92v-.75h1.92v.75ZM371.05,76.57h-1.92v-.75h1.92v.75ZM367.21,76.57h-1.92v-.75h1.92v.75ZM363.38,76.57h-1.92v-.75h1.92v.75ZM359.54,76.57h-1.91v-.75h1.91v.75ZM355.71,76.57h-1.92v-.75h1.92v.75Z"/>
        <polygon class="cls-2" points="385.84 77.2 385.09 77.2 385.09 76.58 384.47 76.58 384.47 75.83 385.84 75.83 385.84 77.2"/>
        <path class="cls-2" d="M385.84,107.93h-.79v-2h.75l.04,2ZM385.84,104.09h-.79v-1.92h.75l.04,1.92ZM385.84,100.26h-.79v-1.92h.75l.04,1.92ZM385.84,96.42h-.79v-1.92h.75l.04,1.92ZM385.84,92.59h-.79v-1.92h.75l.04,1.92ZM385.84,88.75h-.79v-1.91h.75l.04,1.91ZM385.84,84.92h-.79v-1.99h.75l.04,1.99ZM385.84,81.08h-.79v-1.91h.75l.04,1.91Z"/>
        <rect class="cls-9" x="259.54" y="119.84" width="126.12" height="15.45"/>
      </g>
    </g>
  </g>
</svg>