<?xml version="1.0" encoding="UTF-8"?>
<svg xmlns="http://www.w3.org/2000/svg" version="1.1" viewBox="0 0 94.366 88.203">
  <defs>
    <style>
      .c1 {
        fill: #dbdbdb;
      }

      .c1, .c2, .c3 {
        fill-rule: evenodd;
      }

      .c2 {
        fill: #ebebeb;
      }

      .c3 {
        fill: #6c9ebf;
      }

      .c5 {
        fill: #b5cedf;
      }
    </style>
  </defs>
  <g>
    <g>
      <path class="c3" d="M80.826,56.665c5.477,0,10.414,3.297,12.508,8.355,2.098,5.062.938,10.883-2.934,14.758-3.875,3.871-9.699,5.031-14.758,2.934-5.059-2.094-8.359-7.031-8.359-12.508,0-7.48,6.062-13.539,13.543-13.539h0ZM72.775,71.423l4,5.109c.359.418.992.461,1.41.102l10.777-10.23c.219-.383.16-.859-.141-1.176-.301-.32-.773-.406-1.168-.215l-10,9.52-3.398-4.289c-.363-.246-.84-.23-1.184.039-.344.27-.473.734-.316,1.141h.02Z"/>
      <path class="c5" d="M67.619,30.321c1.4-.3,2.6-1.5,2.5-2.9,0-1.8-1.7-3.1-3.4-2.8l-12.8,2.4c-2.9.5-5.8.8-8.7.8s-5.8-.3-8.7-.8l-12.6-2.3c-1.4-.3-2.9.5-3.4,1.8-.6,1.7.5,3.5,2.2,3.9l15.3,2.8.2,7.8c.1,5-.4,10.1-1.6,15l-3.9,15.2c-.4,1.6.3,3.3,1.8,3.9,1.9.8,3.9-.3,4.4-2.2l5.5-22.2c.2-.8,1.3-.8,1.5,0l5.6,22.2c.4,1.5,1.7,2.4,3.1,2.4.5,0,1-.1,1.5-.4,1.4-.7,2-2.3,1.6-3.8l-3.8-15.3c-1.2-4.9-1.8-9.9-1.6-15l.2-7.8,15.1-2.7Z"/>
      <circle class="c5" cx="45.239" cy="19.521" r="6.5"/>
      <path class="c1" d="M44.166,0C30.225-.054,17.08,6.504,8.74,17.68.4,28.852-2.151,43.317,1.865,56.668c4.016,13.355,14.121,24.012,27.242,28.734,13.117,4.719,27.699,2.941,39.301-4.793-.445-.465-.859-.961-1.242-1.48-11.07,7.23-24.902,8.824-37.328,4.301-12.43-4.523-22-14.637-25.832-27.293C.174,43.481,2.525,29.758,10.353,19.098,18.181,8.442,30.572,2.094,43.798,1.965c13.223-.129,25.734,5.981,33.766,16.484,8.035,10.508,10.652,24.18,7.062,36.91.609.211,1.203.457,1.781.738,3.793-13.266,1.145-27.543-7.152-38.566C70.955,6.511,57.967.019,44.166,0h0Z"/>
      <path class="c2" d="M45.353.204c-13.941-.055-27.086,6.504-35.426,17.68C1.587,29.056-.964,43.521,3.052,56.872c4.016,13.355,14.121,24.012,27.242,28.734,13.117,4.719,27.699,2.941,39.301-4.793-.445-.465-.859-.961-1.242-1.48-11.07,7.23-24.902,8.824-37.328,4.301-12.43-4.523-22-14.637-25.832-27.293-3.832-12.656-1.481-26.379,6.348-37.039C19.368,8.645,31.759,2.297,44.985,2.168c13.223-.129,25.734,5.981,33.766,16.484,8.035,10.508,10.652,24.18,7.062,36.91.609.211,1.203.457,1.781.738,3.793-13.266,1.145-27.543-7.152-38.566C72.142,6.715,59.154.223,45.353.204h0Z"/>
    </g>
  </g>
</svg>