<?xml version="1.0" encoding="UTF-8"?>
<svg xmlns="http://www.w3.org/2000/svg" version="1.1" viewBox="0 0 362.2 328.1">
  <defs>
    <style>
      .c1, .c2 {
        fill: #6c9ebf;
      }

      .c3 {
        fill: #b5cede;
      }

      .c3, .c4 {
        isolation: isolate;
      }

      .c5 {
        fill: #e0eaf1;
      }

      .c6 {
        fill: none;
        stroke: #6c9ebf;
        stroke-linecap: round;
        stroke-linejoin: round;
        stroke-width: 1.5px;
      }

      .c2 {
        display: none;
      }

      .c7 {
        fill: #ebedee;
      }

      .c4 {
        fill: #fff;
      }
    </style>
  </defs>
  <!-- Generator: Adobe Illustrator 28.7.1, SVG Export Plug-In . SVG Version: 1.2.0 Build 142)  -->
  <g>
    <g>
      <g>
        <path class="c5" d="M175.2,242.1c2.7.2,5.3.3,8,.3,41.8-.7,76.3-32.9,79.7-74.6,0-.5,0-1,.1-1.5.6-9.9-.5-19.9-3.5-29.3h0c-9-28.8-33.1-50.3-62.7-55.8-2.7-.5-5.5-.9-8.2-1.1-25.8-2.2-51,8.1-68,27.6-29.5,33.8-26.1,85.2,7.7,114.7,13.1,11.4,29.5,18.4,46.9,19.8Z"/>
        <path class="c3" d="M121,180.9c-.3,1.5-2.2,2.1-3.7,2.2l-7,.9c-1.1-2.9-4.5-2.9-6.9-1.8,8.9,33.1,37.7,57,71.8,59.9,2.7.2,5.3.3,8,.3,0,0,0-.1.1-.2,1.2-2.1-.5-4-1.5-5.8-.2-.4-2.2-5.4-1.6-5.4-2.1,0-4.3-.2-6.3-.8-.2,0-.3-.1-.4-.2-.2-.3.3-.7.6-.8,1-.2,1.9-.3,2.9-.6,1-.2,1.8-.9,2.2-1.8.4-.9,0-2,.3-2.9.3-1.2,1.2-2.1,2.3-2.6,1.1-.4,2.2-.8,3.4-.9-2.4-1.3-.7-4.1-2.6-6-.6-.6-1.5-1.3-1.1-2.1s1.7-.7,1.8-1.5c.1-.6-.5-1-1-1.1-.6,0-1.1-.2-1.7-.4-.7-.4-.9-1.4-.5-2.1,0,0,0,0,0,0,.4-.6,1.2-.8,1.8-1.1s1.2-1.1.8-1.7c0-.1-.2-.3-.4-.3-1-.6-2.4-.1-3.4.6s-2,1.5-3.3,1.5c-.3-.5-.1-1.1.4-1.4,0,0,0,0,0,0,.2,0,.3-.1.5-.3.3-.3,0-.8-.1-1.1-.9-1.7-1.1-3.7-.6-5.6h7.4c0-.4.1-.8.7-.9-1.7-2-3.5-3.8-5-6-.1-.3-.4-.5-.7-.6-.3,0-.7,0-1,0-1.1-.1-1.2-1.6-1.1-2.7-.2-.3-.7-.2-.9.1s-.2.7-.5,1c-.4.4-1,.4-1.5.2-1.8-.8-2.6-2.8-1.9-4.6,0-.2.2-.4.4-.5.4-.2.9,0,1.4.1,1.9.3,1.6-1.8,1.2-2.8-.6-1.3-2.5-2.2-3.8-2.6-1.6-.4-12-2.4-10.3-5.8.2-.3.5-.6.8-.7,1.1-.3,2.1-.5,3.2-.6,1-.3,2.1-1.4,1.6-2.4-.2-.4-.6-.7-.8-1.1-.6-1.1.3-2.4-.1-3.6-.3-.5-.6-1-.9-1.4-.3-.5-.3-1.2.1-1.5s1.3.2,1.8-.1c.4-.3.5-.9.2-1.4,0,0-.1-.2-.2-.2-.6-.3-1.3-.3-1.9.1-.3.2-.6.4-.9.5-.6,0-1.1-.5-1.4-1.1l-1.5-2.5c-.6,0-1,.5-1.2,1-.2.5-.2,1.1-.4,1.6-1.1,2.5-4.9,2.2-4.4,5.6.9,0,1.7.7,1.7,1.6,0,.1,0,.3,0,.4-.4,1.2-2.2,1.9-2,3.1,0,.4.4.8.5,1.2.2,1.2-1.7,1.7-2.5,1.9-2.7.9-2.9-.8-5.2-.9-1.1,0-2,.7-3.1.8s-1.9-.3-2.9-.2c-2.7.1-1.3,3.8-1.1,5.4-1.4-1-3.4.2-4.5,1.4-1.8,2-1.6,1.6-3.9,1.7-.6,0-1.2.3-1.5.9-.4,1,.5,2,.5,3.1,0,.5-.2,1-.1,1.5.1,1.4,1.7,1.9,2.7,2.9.8.9,1.2,2.1,1,3.2-.7,0-1.3,0-2-.1l-1.2-2.3c-.3-.7-.8-1.3-1.4-1.9-.4-.2-.7-.5-1-.8-.5-.7,0-1.6,0-2.5.3-2.1-.8-5.6-1.3-7.6s-2-3.1-2.5-5.1c-.1-.3-.5-.5-.8-.3,0,0,0,0,0,0-.3.2-.5.5-.6.9-.2.8-.1,1.7.2,2.5-.5-1-3,1.7-3.2,2.2-.3.8.3,2,.3,2.9,0,2.2-.6,3.4-2.8,1.8-.9-.6-1.9-1.3-2.8-.8.1.6-.2,1.3-.8,1.5-.6.2-1.2.3-1.8.1-.4,0-.8-.2-1.1-.5-.1-.2-.2-.4-.4-.5-.6-.4-1.3.3-1.6,1"/>
        <path class="c3" d="M223.4,120.1c-.3,1.8-.5,2.8-.6,2.7-.1,0-.2-.5-.3-1.4-.6.1-1.2.2-1.8.3.3,0,.5.1.6.4,0,.1,0,.2,0,.3,0,.6-.1,1.2-.2,1.9-.6.5-1.2-1-2-.9-.3,0-.5.4-.7.7-1.6,2.5-4.3.6-5.8-.7-1.7-1.5-4.2-1.6-6.4-1.6-.8-.1-1.6,0-2.3.6-.6.6-.6,1.4-.9,2.2-.5,1.3-1.7,2.1-2.4,3.3-2.5,4.2,2,7.4,5.7,6.2,2-.6,1.6-.9,3.6-.4.8.2,1.9,0,2.4,1,.4.8,0,1.7-.7,2.1-.2.1-.4.2-.7.2-1.1.1-2.2,0-3.2-.4.4,1.3,0,2.8-.1,4.2-1-.2-1.9.5-2.1,1.5,0,.3,0,.6,0,.9.6,0,1.5.2,1.4.9,0,.2-.1.4-.2.5-.5.6-1,1.2-1.4,1.9-.6,1-.6,4.1-2.1,4.5-.3,0-.5,0-.8.1-.6.2-.9.8-.7,1.4.2.6.6,1,1.2,1.1.4.1.8,0,1.1.2,1.9.7.2,2.6.7,3.5,1.2,1,2.5,1.9,3.8,2.5-1.2.7-2,2-2.2,3.4,0,1.6,1.1,2.3,2.6,2.8s3.5.6,4.6,1.1c.6.2,1.4.5,1.9,0,.5-.4.5-1.7,1.2-2,.2,0,.5-.1.8-.1,1.6-.2,2.7-1.7,2.5-3.2.4-.5,1-.4,1.6-.4s1.3-.2,1.4-.8-.7-1-1.4-1c-.7,0-1.3,0-2,.2-.5.2-1,.2-1.5,0-.3-.2-.6-.5-.8-.8-.5-.8-.8-1.7-.8-2.6,0-.9.8-1.7,1.7-1.8.2,0,.5,0,.7,0,.6-.1.9-.9.9-1.5-.1-.6-.2-1.3,0-1.9.2-.6,1-1.1,1.4-.6.4-.8.6-2-.2-2.4-.3,0-.5-.1-.8-.1-1.7-.2-4.1-2.5-2.1-3.9,1.3-.9,3.3,1,4.4-.7.5-.8.2-2,.8-2.8.3-.2.7.2.8.6.2,1.3-.2,2.6-1.2,3.4,1,.6,2.5,0,3.2.8.7.9-.3,2.5.5,3.2.3.2.6.3.9.3,1.6.2,4.5,0,4.6,2.2,0,.3,0,.5,0,.8.2.8,1.3.9,2.1.8.4-.8-.1-1.7-.5-2.6-.4-.8-.3-2.1.5-2.3.6-.2,1.4.4,1.9,0,.2-.2.4-.5.6-.6.6-.3,1.2.6,1.9.9,1,.3,1.7-1,1.7-2s-.2-2.1.4-2.9c.2-.2.5-.4.7-.6.6-.8,1-1.7.9-2.7.2-1.6,6.3,2.5,6.7,2.6,3,.5,4.8-2.4,6.8-4.1,1.1-.8,2.3-1.5,3.5-2-8.6-27.4-31-48.2-58.9-55-1.2-.3-2.5-.6-3.8-.7.4,1.9,1.5,4.9.3,6.7-1.6,2.3-5,.3-6.3,3,0,.7,1.1.6,1.6,1,.2.3.4.6.5,1,.1.3.5.7.9.6.4.6-.2,1.4-.8,1.9-.7.6-1.2,1.3-1.5,2.2-.5,1.8.7,3.6,1.4,5.3.6,1.4,1,2.9,1.3,4.4,0-.7,1-1,1.6-.7.6.4,1.1.9,1.5,1.5.9.8,2,.3,2.9,1,1.2.9,1.9,2.5,3.4,2.7,1.8.3,3-1.6,3.8-3.2,1.9,1,3.1,3.5,5.3,3.6.8,0,1.7-.2,2.4-.6l4.8-1.9c1-.7,2.5-.5,3.2.6.2.3.4.7.4,1.1l1,2.5c.2.3.2.7.2,1.1-.3.2-.5.5-.8.9-1.1,1.6-.9,3.5-.7,4.2-.3.4-.6.9-.9,1.3-1,1.4-1.9,2.9-2.9,4.3.6,0,1.2.2,1.8.3"/>
        <path class="c3" d="M200.7,182.9c-.6.8-1.5,1.2-2.5,1.3-.6,0-1.2-.2-1.7-.3-.6-.1-1.2,0-1.6.5-.4.6,0,1.4.4,2.1.3.6.7,1,1.3,1.2.4,0,.9,0,1.3,0,.9.1,1.4,1,2,1.6s1.5,1.3,2.3.8c.5-.3.7-.9,1.2-1.2,1.2-.8,2.7.9,3.8.3,1.3-.7.8-2.8.3-4-.7-1.1-1.5-2.2-2.5-3-2.6-2.5-2.2-1.7-4.2.6Z"/>
        <path class="c3" d="M241.2,216.7c12.8-12.7,20.3-31.1,21.7-48.9,0-.5,0-1,.1-1.5-2.5-2.6-7.4-4.2-8.7.4-.5,0-.6-.3-1-.6-.6-.4-1.5.2-1.8.8-1.1,2.2-1.3,5-4.3,4.4-3.6-.7-1.2-2.3-2.4-4.3-.2-.3-.5-.5-.7-.7-.9-.9-.8-2.3-.6-3.5.7.3,1.6,0,1.9-.7,0,0,0,0,0,0,0-.3.1-.6.3-.8.4-.5,1.3,0,1.5.6s0,1.3.2,1.9.8,1.2,1.4.9c.2-.2.4-.4.4-.7.3-1.1,0-2.3-.6-3.2.7-.2,1.2-1,1-1.7-.1-.5-.5-.9-1.1-1-.9-.2-2.2.3-2.5-.5.2.8-.2,1.5-.8,2-2.4,1.7-7.7.2-7.1,5.2.2.8.3,1.6.4,2.4,0,.8-.5,1.6-1.3,1.9,1.4,1.1.9,3.8,2.5,4.8.8.5,1.7.3,2.4-.3,0-.1.2-.2.3-.3.3,0,.5.2.8.2.5.1.9-.4,1.4-.4.7,0,1.1.8,1.2,1.5s.3,1.6,1,1.8c.2,0,.5,0,.7.1.5.2.8.6.8,1.1,0,.5-.1,1-.3,1.4-.3.3-.8.1-1.1-.2-.2-.4-.5-.7-.8-1-.2-.1-4.4.2-4.3-.1-.6,1.5-1,4.7-3.1,3.9-.8-.3-1.6-.8-2.4-.6.4-1,.7-2.1,1.1-3.1-.3-.3-.8.1-1,.5s-.2.9-.5,1.2c-.3.2-.6.2-.9.2h-2.9c-1.1,0-2.3,0-3,.9s-.3,2.4.5,3.3c.4.2.5.7.3,1.1,0,.1-.2.2-.3.3-1.1.9-1.6,2.3-1.5,3.7.2,1.4,1.4,2.5,2.9,2.5.5,0,1.2-.2,1.5.2.2.3.2.7.5.8s.7-.3.9-.6c.5-.5,1.3-.7,1.9-.3.3.2,1.3,3.2,1,3.6-.6,1-3.4.6-4.5.7-.4,0-.8,0-1.2.4-.4.5,0,1.3.4,1.7s1.1.8,1.4,1.4c.3,1.1,0,2.3-.6,3.3-.3.2-.6.4-.9.6-.6.6-.7,1.5-.5,2.3.2.8.6,1.5.8,2.3.3,1.7-.6,3.6,0,5.2.3.8,1.4,1.4,2,.9s.5-1.6,1.3-1.7,1.6,1.7,2.1,2,1.4-.2,2.2.4c.7.5.9,1.5,1.6,2.1Z"/>
        <path class="c3" d="M132.6,108.4c.7-.9,1.2-2,2.5-2.2,1.8-.3,2.5.7,1.7,2.5,0,.1-.1.3-.1.5.1.5.9.2,1.4,0,1.1-.7,2.4-.7,3.5-.2.3.1.8-4.9.5-5.5-.9-2-5.2-1.1-4.3-3.3,1.6,0,3.2.2,4.8.3l.3-2.3c0,.6,2.9.4,3.2.3,1.3-.7.9-3,3.3-2.7,3,.5,3.1,6.3-.2,5.4-.8,1.8-1.2,3.7-1.2,5.7h-1.8c-.3.4-.4,1-.2,1.5,1.5,1,3.5,1,5.1,0,1,.7,2.3,0,3.3-.7,1.4,2.2,5.4,1.9,6.4-.5s-1.5-5.5-4.1-5c0-1.2-.5-2.4-1.2-3.4,3.3,0,6.2-2,7.3-5.1.5-1.5.6-3.4,1.9-4.3.6-.4,1.3-.6,1.9-1,1.3-.9,1.7-2.6,1.9-4.2.1-1.1.2-2.1.3-3.2-18.7,3.1-35.7,12.5-48.2,26.8-.1.6,0,1.1.1,1.6.6.9,1.5,1.5,2.6,1.6,3.9,1,6.4.8,9.1-2.2,0,0,.2-.1.2-.2Z"/>
      </g>
      <g id="freepik--Connections--inject-2">
        <rect class="c7" x="234.5" y="105.4" width="97.2" height="1" transform="translate(-18.8 121.4) rotate(-23.4)"/>
        <rect class="c7" x="133.8" y="29.8" width="1" height="72.5" transform="translate(-14.6 80.6) rotate(-31.8)"/>
        <rect class="c7" x="27.7" y="209.3" width="101.1" height="1" transform="translate(-41.4 20.5) rotate(-11.8)"/>
        <rect class="c7" x="277.9" y="175.2" width="1" height="107.2" transform="translate(-79 182.8) rotate(-32.1)"/>
        <path class="c7" d="M125.1,311.4L28.2,220.4l13.7-103.6h.1c0-.1,73-82,73-82h.2l132.3-18.3,80.8,70v.3l-20.9,188h-.4c0,0-181.9,36.7-181.9,36.7ZM29.3,220l96.1,90.4,181-36.5,20.8-187.1L247.2,17.5l-131.7,18.2L42.9,117.2l-13.6,102.8Z"/>
        <circle class="c7" cx="246.3" cy="19" r="18.2"/>
        <circle class="c7" cx="125.3" cy="309.3" r="18.2" transform="translate(-182 179.2) rotate(-45)"/>
        <circle class="c7" cx="42.4" cy="117" r="18.2"/>
      </g>
      <g id="freepik--character-4--inject-2">
        <path class="c7" d="M361.3,88.7c0,7.2-2.3,14.2-6.6,20-2.9,3.8-6.5,6.9-10.6,9.2-9.2,5.1-20.3,5.5-29.9,1.1-.4-.2-.8-.4-1.2-.6h0c-2.3-1.2-4.5-2.6-6.5-4.3-14.1-11.9-15.9-32.9-4-47,11.9-14.1,32.9-15.9,47-4,7.5,6.3,11.9,15.7,11.8,25.5h0Z"/>
      </g>
      <g id="freepik--character-3--inject-2">
        <circle class="c7" cx="308.1" cy="271.2" r="35.8"/>
      </g>
      <g id="freepik--character-2--inject-2">
        <circle class="c7" cx="114" cy="33.7" r="30.5"/>
      </g>
      <g id="freepik--character-1--inject-2">
        <circle class="c7" cx="29.7" cy="221.6" r="28.9"/>
      </g>
      <g id="Calque_2">
        <path class="c1" d="M35.5,230.1c-.2,0-.5-.1-.6-.3-.2-.3-.2-.8.1-1,.7-.5,1.3-1.1,1.8-1.8,3-3.9,2.2-9.6-1.8-12.5-.3-.2-.4-.7-.1-1,.2-.3.7-.4,1.1-.1,4.6,3.5,5.5,10,2.1,14.6-.6.8-1.3,1.5-2.1,2.1-.1.1-.3.2-.4.2Z"/>
        <path class="c1" d="M40.7,235.9c-.2,0-.4,0-.6-.3-.3-.3-.2-.8.1-1.1.9-.7,1.8-1.6,2.5-2.5,5.8-7.2,4.7-17.7-2.5-23.5-.3-.3-.4-.7-.1-1.1.3-.3.7-.4,1.1-.1,7.8,6.3,9,17.8,2.7,25.6-.8,1-1.7,1.9-2.7,2.7-.1.1-.3.2-.5.2Z"/>
        <path class="c1" d="M26.2,237.7c-.8,0-1.6-.4-2-1.2l-6.5-8.4h-3.5c-1.5,0-2.7-1.2-2.7-2.7v-7.8c0-1.5,1.2-2.7,2.7-2.7h3.5l6.5-8.4c.3-.5.7-.9,1.3-1.1.6-.2,1.2-.1,1.8.1.9.5,1.4,1.4,1.2,2.4v27c.2,1.2-.7,2.4-1.9,2.6-.1,0-.3,0-.4,0ZM14.1,216.5c-.7,0-1.2.5-1.2,1.2v7.8c0,.7.5,1.2,1.2,1.2h3.9c.2,0,.4.1.6.3l6.8,8.7s0,0,0,.1c.2.3.5.5.8.4.4,0,.7-.5.7-.9,0,0,0,0,0-.1v-27.2s0,0,0-.1c0-.3-.1-.7-.4-.8-.2,0-.4-.1-.6,0-.2,0-.4.2-.5.4,0,0,0,0,0,.1l-6.8,8.7c-.1.2-.4.3-.6.3h-3.9Z"/>
      </g>
      <g id="Calque_3">
        <path class="c1" d="M110.1,44.2c-7.9,0-14.4-6.4-14.4-14.4s6.4-14.4,14.4-14.4,14.4,6.4,14.4,14.4-6.4,14.4-14.4,14.4ZM110.1,17c-7.1,0-12.9,5.8-12.9,12.9s5.8,12.9,12.9,12.9,12.9-5.8,12.9-12.9-5.8-12.9-12.9-12.9Z"/>
        <path class="c1" d="M131.5,52c-.2,0-.4,0-.5-.2l-11.7-11.7c-.3-.3-.3-.8,0-1.1s.8-.3,1.1,0l11.7,11.7c.3.3.3.8,0,1.1s-.3.2-.5.2Z"/>
      </g>
      <g id="Calque_4">
        <path class="c1" d="M342,99.9h-28c-2.3,0-4.2-1.9-4.2-4.2v-14c0-2.3,1.9-4.2,4.2-4.2h28c2.3,0,4.2,1.9,4.2,4.2v14c0,2.3-1.9,4.2-4.2,4.2ZM314,78.9c-1.5,0-2.8,1.2-2.8,2.8v14c0,1.5,1.2,2.8,2.8,2.8h28c1.5,0,2.8-1.2,2.8-2.8v-14c0-1.5-1.2-2.8-2.8-2.8h-28Z"/>
        <path class="c1" d="M317.5,85.9c-.4,0-.8-.3-.8-.8s.3-.8.8-.8.8.3.8.7h0c0,.4-.3.8-.8.8Z"/>
        <path class="c1" d="M324.5,85.9c-.4,0-.8-.3-.8-.8s.3-.8.8-.8.8.3.8.7h0c0,.4-.3.8-.8.8Z"/>
        <path class="c1" d="M331.5,85.9c-.4,0-.8-.3-.8-.8s.3-.8.8-.8.8.3.8.7h0c0,.4-.3.8-.8.8Z"/>
        <path class="c1" d="M338.5,85.9c-.4,0-.8-.3-.8-.8s.3-.8.8-.8.8.3.8.7h0c0,.4-.3.8-.8.8Z"/>
        <path class="c1" d="M317.5,92.9c-.4,0-.8-.3-.8-.8s.3-.8.8-.8.8.3.8.7h0c0,.4-.3.8-.8.8Z"/>
        <path class="c1" d="M338.5,92.9c-.4,0-.8-.3-.8-.8s.3-.8.8-.8.8.3.8.7h0c0,.4-.3.8-.8.8Z"/>
        <path class="c1" d="M331.5,92.9h-7c-.4,0-.7-.4-.7-.8,0-.4.3-.7.8-.7h7c.4,0,.7.4.7.8,0,.4-.3.7-.8.7Z"/>
      </g>
      <g id="Calque_5">
        <path class="c1" d="M308.1,253.7c-9.7,0-17.5,7.8-17.5,17.5s7.8,17.5,17.5,17.5,17.5-7.8,17.5-17.5-7.8-17.5-17.5-17.5ZM308.1,287.4c-9,0-16.2-7.3-16.2-16.2s7.3-16.2,16.2-16.2v32.5Z"/>
      </g>
      <g>
        <circle class="c7" cx="128.3" cy="197.4" r="10.6"/>
        <path class="c4" d="M138.3,197.4c0,5.5-4.5,10-10,10s-10-4.5-10-10,4.5-10,10-10c5.5,0,10,4.4,10,9.8,0,0,0,.1,0,.2Z"/>
        <path class="c7" d="M136.2,203.7c-3.2,4.2-9.1,5.1-13.5,2.1.3-.8.5-1.2.5-1.2,1.2-.4,2.5-.7,3.8-.9.4-.3.8-.5,1.3-.6.2-.7.2-1.5,0-2.3-.4-.3-.7-.6-1-1-.2-.1-.4-.3-.5-.5-.3-.1-2.4-1.1-2.5-4.6,0-.1,0-.3,0-.4-.7,0-1.3.1-.9,1.5.8,2.3,0,3.5,0,3.5,0-.5,0-1,0-1.5,0,2.4-1.3,2.5-1.3,2.5,0,0,.8-.9-.4-3.5s-.9-6.3,1.5-6.4c1,0,1.9.3,2.5,1.1,1.2-1.1,3.1-1.4,4.5-.5,0,0,2.1-.5,2.7,0,.1.1,0,.4-.2.8.6.4,1,1,1.2,1.7.3,1.1,0,2.3-.6,3.2.3,2.6-.2,4.6-2.3,4.8v.5c0,.4,0,.8.2,1.1.3,0,.6.1.9.2,1.9,0,4,.2,4,.2h0c.1.1.2.2.3.4Z"/>
      </g>
      <g>
        <circle class="c7" cx="157.2" cy="104.6" r="10.6"/>
        <path class="c4" d="M167.2,104.6c0,5.5-4.5,10-10,10s-10-4.5-10-10,4.5-10,10-10c5.5,0,10,4.4,10,9.8,0,0,0,.1,0,.2Z"/>
        <path class="c7" d="M150.9,111.8s2.1-.5,3.9-.8c.3-.1.5-.3.8-.4,0-.4,0-.8,0-1.1,0,0,0-.2,0-.3,0,0,0-.1,0-.2-.3-.2-.7-.5-1-.9-1.2-1.2-1.7-2.6-1.9-3.5-.3-.4-.8-1.5-.8-2.9,0-.9.4-1.7.6-2.1,1.3-2,2.1-2.9,2.4-2.7.2,0,.1.6-.1,1.6,1.3-1,3.2-1.1,4.5-.2.8.4,1.2.8,1.4,1.2,0,0,0,.2.4,1.4,0,.1,0,.3,0,.4.4,3.5-1.5,4.8-1.8,4.9-.1.2-.3.4-.5.6-.2.4-.5.8-.8,1.1-.1.8,0,1.5.3,2.3.5,0,1,.2,1.4.4,1.3,0,2.6.1,3.9.3,0,0,.3.4.7,1.1-3.8,3.6-9.8,3.6-13.7,0,0-.1.2-.3.3-.4Z"/>
      </g>
      <g>
        <path class="c7" d="M217.6,127.6c0,5.8,4.7,10.6,10.6,10.6,5.8,0,10.6-4.7,10.6-10.6,0-5.8-4.7-10.6-10.6-10.6,0,0,0,0,0,0-5.8,0-10.6,4.7-10.6,10.6,0,0,0,0,0,0Z"/>
        <circle class="c4" cx="228.2" cy="127.6" r="10"/>
        <path class="c7" d="M222.3,127.4c0,.7.5,1.3,1.2,1.5-.2.5-.2,1,0,1.5.3.8,1.9.8,1.9.8.1.3.4.5.7.5,0,0,0,0,.1.1l.2.3c.2,1.6.2,3.3-.6,4.2h0c-.7,0-1.4.2-2.1.3-.3,0-.6.1-1,.2,3.7,2.2,8.4,1.8,11.8-.8h-2.8c-.9,0-1.6-.6-1.9-1.4-.1-.4-.2-.7-.1-1.1.3,0,.6-.2.9-.3.8-.4,1.5-1.1,1.8-2,0-.1,0-.2.1-.4.3-1,.3-2.1.2-3.2.4-.2.6-.6.7-1,.2-.6-.2-1.2-.7-1.3.7-.2,1.1-.8,1.1-1.5.1-.6-.3-1.2-.9-1.3,0,0-.1,0-.2,0,0,0,.4-.6-.4-1.6-.4-.6-1.2-.8-1.8-.4-.5-.7-1.3-1-2.1-.9-.7,0-1.3.5-1.6,1.1,0,0,0-.8-1.5-.3-.9.3-1.4,1.2-1.3,2.1-.5-.3-1.2,0-1.4.5,0,0,0,0,0,0-.5,1.1.6,2.9.6,2.9-.7.2-1.1.8-1,1.5Z"/>
      </g>
      <g>
        <circle class="c7" cx="243.7" cy="176.8" r="10.6"/>
        <path class="c4" d="M253.7,176.8c0,5.5-4.5,10-10,10s-10-4.5-10-10,4.5-10,10-10,10,4.5,10,10Z"/>
        <path class="c7" d="M252,182.3c-3,4.6-9.2,5.8-13.8,2.8-.2-.1-.4-.3-.6-.4-.3-.9-.1-1.4,0-1.6.7-.9,2.7,0,3.9-1.1,0,0,.6-.6.6-1.4,0-1.3-1.5-1.7-2.5-3.3-.4-.6-.8-1.6-.7-3.2-.9-.9-.8-2.4,0-3.2.7-.8,1.7-1.4,2.7-1.5.9-.4,1.9-.6,3-.4,1,0,2.1.4,2.9,1,.7.5,1.2,1.1,1.5,1.9.6,1.4.8,2.9.3,4.3-.5,1.4,1.7,1.3,1.8,2.7,0,1.3-1,1.4-.8,2.3,0,.4.8.8,1.5,1.3Z"/>
      </g>
      <path class="c2" d="M-128,68.5"/>
      <g id="Calque_6">
        <path class="c6" d="M34.4,121v-6c0-1.1.9-2,2-2s2,.9,2,2v6"/>
        <path class="c6" d="M34.4,118h4"/>
        <path class="c6" d="M41.4,113v8h4"/>
        <path class="c6" d="M46.4,113h4"/>
        <path class="c6" d="M48.4,113v8"/>
      </g>
      <g id="Calque_7">
        <path class="c6" d="M237.3,19h3"/>
        <path class="c6" d="M246.3,10v3"/>
        <path class="c6" d="M242.1,14.8l-2.2-2.2"/>
        <path class="c6" d="M250.5,14.8l2.2-2.2"/>
        <path class="c6" d="M242.1,23.2l-2.2,2.2"/>
        <path class="c6" d="M246.3,19l9,3-4,2-2,4-3-9"/>
      </g>
      <g id="Calque_8">
        <path class="c6" d="M125.3,300.3c-1.7,0-3,1.3-3,3v12c0,1.7,1.3,3,3,3"/>
        <path class="c6" d="M119.3,300.3c1.7,0,3,1.3,3,3v12c0,1.7-1.3,3-3,3"/>
        <path class="c6" d="M126.3,304.3h7c.6,0,1,.4,1,1v8c0,.6-.4,1-1,1h-7"/>
        <path class="c6" d="M118.3,304.3h-1c-.6,0-1,.4-1,1v8c0,.6.4,1,1,1h1"/>
        <path class="c6" d="M130.3,309.3h0"/>
        <path class="c6" d="M126.3,309.3h0"/>
      </g>
    </g>
  </g>
</svg>