<?xml version="1.0" encoding="UTF-8"?>
<svg xmlns="http://www.w3.org/2000/svg" xmlns:svg="http://www.w3.org/2000/svg" xmlns:sodipodi="http://sodipodi.sourceforge.net/DTD/sodipodi-0.dtd" xmlns:rdf="http://www.w3.org/1999/02/22-rdf-syntax-ns#" xmlns:inkscape="http://www.inkscape.org/namespaces/inkscape" xmlns:dc="http://purl.org/dc/elements/1.1/" xmlns:cc="http://creativecommons.org/ns#" version="1.1" viewBox="0 0 170.079 11.324">
  <g>
    <g id="Calque_1">
      <path fill-rule="evenodd" fill="#ebebeb" d="M169.893,5.063c-.321-.45-.945-.555-1.395-.234-.012.009-.024.017-.036.027-8.389,6.263-17.168,5.874-26.889-.048,0,0,0,0,0,0-10.173-6.191-20.15-6.643-29.126.057,0,0,0,0,0,0-8.372,6.24-17.133,5.863-26.83-.019-.012-.008-.018-.021-.03-.028-.007-.005-.015-.009-.022-.013C80.322,1.614,75.129-.051,70.097.001h0c-4.727.049-9.312,1.614-13.66,4.855,0,0,0,0,0,0-8.389,6.263-17.157,5.874-26.889-.048h0C19.382-1.383,9.396-1.835.42,4.866c-.45.321-.555.945-.234,1.395.321.45.945.555,1.395.234.012-.009.024-.017.036-.027C10.006.206,18.784.595,28.506,6.517c0,0,0,0,0,0,10.173,6.191,20.15,6.643,29.126-.057,0,0,0,0,.001,0,8.372-6.24,17.133-5.863,26.83.019.012.008.018.021.03.028.007.005.015.009.022.013,5.241,3.19,10.434,4.855,15.466,4.803h0c4.727-.049,9.312-1.614,13.659-4.855,0,0,0,0,.001,0,8.389-6.263,17.157-5.874,26.889.048h0c10.164,6.192,20.151,6.643,29.126-.058.45-.321.555-.945.234-1.395Z"/>
    </g>
  </g>
</svg>