<?xml version="1.0" encoding="utf-8"?>
<!-- Generator: Adobe Illustrator 25.1.0, SVG Export Plug-In . SVG Version: 6.00 Build 0)  -->
<svg version="1.1" id="Calque_1" xmlns="http://www.w3.org/2000/svg" xmlns:xlink="http://www.w3.org/1999/xlink" x="0px" y="0px"
	 viewBox="0 0 16 16" style="enable-background:new 0 0 16 16;" xml:space="preserve">
<path d="M13.8,3.8c-0.4,0.1-0.4,1.4-0.1,3c0.4,1.6,1,2.8,1.4,2.7c0.4-0.1,0.7-1.3,0.3-2.8C15.1,5.1,14.2,3.7,13.8,3.8L13.8,3.8z
	 M1,11.6c-0.8-0.9-1-2.1-1-3.7c0-2.4,1-4.4,2.6-5.9C4,0.8,5.9,0,8,0c2.4,0,4.3,0.7,5.7,2.5C14.9,3.9,16,5.9,16,7.9
	c0,1.5-0.2,2.6-0.9,3.5c-0.6,0.7-1.3,1.3-2.3,1.7c0,0.9-0.1,1.8-1.1,2.3C10.9,15.9,9.1,16,7.9,16c-1.5,0-3,0-3.9-0.7
	c-0.6-0.5-0.8-1.4-0.8-2.1C2.3,12.8,1.5,12.3,1,11.6L1,11.6z M8,8.9c2.1,0,3.8-1.7,3.8-3.8S10.1,1.2,8,1.2S4.1,2.9,4.1,5
	S5.8,8.9,8,8.9L8,8.9z M0.9,9.3c0.4,0.1,1.1-1.1,1.5-2.6c0.4-1.6,0.4-2.9,0-3C2,3.6,1.2,4.5,0.8,6S0.5,9.2,0.9,9.3L0.9,9.3z
	 M4.2,14.7c0.8,0.5,2.2,0.6,3.6,0.6c1.5,0,3.3,0,4.1-0.7c0.5-0.4,0.5-1.5,0.5-2c0-0.2-0.1-0.5-0.2-0.7c-0.3-0.4-1-0.7-1.5-0.9
	c-0.8-0.4-1.4-0.4-2.7-0.4c-1.2,0-2.1,0.1-2.9,0.4c-0.7,0.3-1.5,0.6-1.7,1.1c-0.1,0.2,0,0.4,0,0.6C3.4,13.2,3.6,14.4,4.2,14.7
	L4.2,14.7z M6.3,14c-0.2,0-0.4-0.2-0.4-1.4c0-1.2,0.2-1.4,0.4-1.4s0.4,0.2,0.4,1.4C6.7,13.8,6.5,14,6.3,14z M9.7,14
	c-0.2,0-0.4-0.2-0.4-1.4c0-1.2,0.2-1.4,0.4-1.4s0.4,0.2,0.4,1.4C10.1,13.8,9.9,14,9.7,14z"/>
</svg>
