<!--Generator: Adobe Illustrator 25.1.0, SVG Export Plug-In . SVG Version: 6.00 Build 0)--><svg xmlns="http://www.w3.org/2000/svg" viewBox="0 0 600 93.7"><path d="M173.6 92.2h19.9V57.1h43.2v-18h-43.2V19.5h49.1v-18h-69v90.7zM280.4 1.6h-19.9v90.6h19.9V1.6zM150.8 39.1h-43.2V19.5h49.1v-18h-69v90.6h19.9v-35h43.2v-18zM578.5 1.6l-23.8 38.3-23.8-38.3h-21.5v90.6H529V33.4l25.2 38.3h.5L580.3 33v59.2H600V1.6h-21.5zm-87.9 45.3v-.3c0-6.5-1.2-12.5-3.6-18.2-2.4-5.7-5.7-10.6-10-14.8-4.3-4.2-9.3-7.5-15.2-10C456 1.2 449.5 0 442.6 0s-13.4 1.2-19.4 3.7c-5.9 2.5-11 5.8-15.3 10.1s-7.6 9.2-10 14.9c-2.4 5.7-3.6 11.7-3.6 18.2v.3c0 6.5 1.2 12.5 3.6 18.2 2.4 5.7 5.7 10.6 10 14.8 4.3 4.2 9.3 7.5 15.2 10 5.9 2.5 12.3 3.7 19.3 3.7s13.4-1.2 19.4-3.7c5.9-2.5 11-5.8 15.3-10.1 4.3-4.3 7.6-9.2 10-14.9 2.3-5.8 3.5-11.9 3.5-18.3zm-20.9.2c0 3.9-.7 7.5-2 10.9-1.3 3.4-3.2 6.4-5.6 9-2.4 2.6-5.2 4.6-8.6 6.1-3.4 1.5-7 2.2-11 2.2-4.1 0-7.8-.8-11.1-2.3-3.3-1.5-6.2-3.6-8.7-6.2-2.5-2.6-4.4-5.6-5.7-9.1-1.3-3.5-2-7.1-2-11v-.3c0-3.9.7-7.5 2-10.9 1.3-3.4 3.2-6.4 5.6-9 2.4-2.6 5.2-4.6 8.5-6.1s7-2.2 11.1-2.2c4 0 7.6.8 11 2.3 3.4 1.5 6.3 3.6 8.7 6.1s4.4 5.6 5.7 9.1c1.3 3.5 2 7.1 2 11v.4zm-85.9 30.5l-12.7-12.8c-3.5 3.3-7.1 5.9-10.7 7.8-3.6 1.9-8 2.8-13.1 2.8-3.9 0-7.4-.8-10.7-2.3-3.2-1.5-6-3.6-8.3-6.2-2.3-2.6-4.1-5.6-5.4-9.1-1.3-3.5-1.9-7.1-1.9-11v-.3c0-3.9.6-7.5 1.9-10.9 1.3-3.4 3.1-6.4 5.4-9 2.3-2.6 5.1-4.6 8.4-6.1 3.2-1.5 6.8-2.2 10.6-2.2 4.6 0 8.7.9 12.4 2.7 3.7 1.8 7.3 4.3 10.8 7.5L383.1 14c-2.1-2.1-4.3-4-6.7-5.7-2.5-1.8-5.1-3.2-7.9-4.4-2.8-1.2-6-2.2-9.5-2.8-3.5-.7-7.4-1-11.6-1-7 0-13.4 1.2-19.2 3.7-5.8 2.5-10.7 5.8-14.9 10.1-4.1 4.3-7.4 9.2-9.7 14.9-2.3 5.7-3.5 11.7-3.5 18.2v.3c0 6.5 1.2 12.6 3.5 18.3 2.3 5.7 5.6 10.6 9.7 14.8 4.1 4.2 9.1 7.5 14.8 9.9 5.7 2.4 11.9 3.6 18.5 3.6 4.4 0 8.4-.4 11.9-1.1 3.5-.7 6.8-1.8 9.8-3.2 2.9-1.4 5.7-3.1 8.2-5.1 2.6-2.3 5-4.5 7.3-6.9zM68.9 74.4H19.7v-19h42.7V37.7H19.7V19.3h48.6V1.6H0v90.6h68.9V74.4z"/></svg>