<svg xmlns="http://www.w3.org/2000/svg" viewBox="0 0 58 43"><path d="M43.1 25.5c-1.5 0-3-.5-4.1-1.3 2.4-2.4 3.8-5.8 3.8-9.4 0-7.5-6.1-13.6-13.6-13.6-3.3 0-6.3 1.2-8.7 3.1-1.4-1.1-3.3-1.8-5.3-1.8V4c1.5 0 3 .5 4.1 1.3-2.4 2.4-3.8 5.8-3.8 9.4 0 7.5 6.1 13.6 13.6 13.6 3.3 0 6.3-1.2 8.7-3.1 1.4 1.1 3.3 1.8 5.3 1.8v-1.5zm-26-10.7c0-3.3 1.3-6.2 3.4-8.4 1.1 1.2 1.7 2.9 1.7 4.6v2c0 4.4 3.4 8.1 7.8 8.5v1.8h1.5v-6.6H30V20c-3.5-.4-6.2-3.4-6.2-7v-2c0-2.2-.8-4.1-2.2-5.7 2.1-1.7 4.7-2.6 7.5-2.6 6.7 0 12.1 5.4 12.1 12.1 0 3.3-1.3 6.2-3.4 8.4-1.1-1.2-1.7-2.9-1.7-4.6v-2c0-4.7-3.8-8.5-8.5-8.5h-.8v4.8h1.5V9.6c3.5.4 6.2 3.4 6.2 7v2c0 2.2.8 4.1 2.2 5.7-2.1 1.7-4.7 2.6-7.5 2.6-6.7 0-12.1-5.5-12.1-12.1zM3.5 38.9l-1 2.8H1l3.5-9.5H6l3.5 9.5H8l-1-2.8H3.5zm1.8-5.2L4 37.6h2.6l-1.3-3.9zm10.4 2.8c-.3-.3-1-.8-1.9-.8-1.3 0-2.2 1-2.2 2.4s1 2.4 2.3 2.4c.9 0 1.6-.5 1.9-.8l.4 1.2c-.4.3-1.2.9-2.4.9-2.2 0-3.7-1.6-3.7-3.7s1.6-3.7 3.7-3.7c1.2 0 2 .5 2.4.9l-.5 1.2zm6.8 0c-.3-.3-1-.8-1.9-.8-1.3 0-2.2 1-2.2 2.4s1 2.4 2.3 2.4c.9 0 1.6-.5 1.9-.8l.4 1.2c-.4.3-1.2.9-2.4.9-2.2 0-3.7-1.6-3.7-3.7s1.6-3.7 3.7-3.7c1.2 0 2 .5 2.4.9l-.5 1.2zm4.7-2.1c2.2 0 3.4 1.5 3.4 3.7v.4h-5.4c0 1.3.9 2.1 2.2 2.1 1.1 0 1.7-.6 2-1l1 .7c-.3.6-1.3 1.6-3 1.6-2.2 0-3.7-1.6-3.7-3.7 0-2.3 1.5-3.8 3.5-3.8zm1.9 3c-.1-1.2-.9-1.8-1.9-1.8s-1.8.7-1.9 1.8h3.8zm3.1 2.3c.3.5.8.9 1.7.9.6 0 1.1-.3 1.1-.9 0-1.4-3.5-.9-3.5-3.3 0-1.3 1.1-2 2.4-2 1.3 0 2 .8 2.3 1.3l-1 .7c-.2-.3-.6-.8-1.4-.8-.5 0-1 .3-1 .8 0 1.4 3.5.8 3.5 3.3 0 1.3-1.1 2.2-2.6 2.2-1.4 0-2.2-.8-2.6-1.4l1.1-.8zm5.8 0c.3.5.8.9 1.7.9.6 0 1.1-.3 1.1-.9 0-1.4-3.5-.9-3.5-3.3 0-1.3 1.1-2 2.4-2 1.3 0 2 .8 2.3 1.3l-1 .7c-.2-.3-.6-.8-1.4-.8-.5 0-1 .3-1 .8 0 1.4 3.5.8 3.5 3.3 0 1.3-1.1 2.2-2.6 2.2-1.4 0-2.2-.8-2.6-1.4l1.1-.8zm5-1.5l4.1-6.1h1.7V38H50v1.3h-1.2v2.3h-1.5v-2.3H43v-1.1zm4.3-.2v-4.1L44.6 38h2.7zm3.7 3.1c0-2.7 4.4-4.2 4.4-6.3 0-.8-.5-1.4-1.5-1.4-.9 0-1.4.6-1.6 1.3l-1.3-.5c.2-.9 1-2.3 2.9-2.3 1.8 0 3 1.1 3 2.8 0 2.7-3.9 4.1-4.1 5.6H57v1.3h-6v-.5z" fill="#151d34"/></svg>