<svg width="240" height="267" viewBox="0 0 240 267" fill="none" xmlns="http://www.w3.org/2000/svg"><path fill="#59B7D3" d="M82.803 32.864h97.638v187.943H82.803z"/><path fill-rule="evenodd" clip-rule="evenodd" d="M82.803 16.706h97.638v57.68h-.001v5.563a6.102 6.102 0 11-12.204 0v-5.564h-12.205v17.877a6.102 6.102 0 11-12.204 0V74.385h-12.205v10.748a6.102 6.102 0 01-12.205 0V74.385h-12.204v24.089c0 6.74-5.465 12.204-12.205 12.204s-12.205-5.464-12.205-12.204V16.705z" fill="#DAF1FB"/><path fill-rule="evenodd" clip-rule="evenodd" d="M131.623 64.933a6.102 6.102 0 1112.204 0v52.604a6.102 6.102 0 01-12.204 0V64.933zm24.408 7.129a6.102 6.102 0 0112.205 0v52.603a6.102 6.102 0 11-12.205 0V72.062zm-42.716-6.102a6.102 6.102 0 00-6.102 6.102v52.603a6.102 6.102 0 1012.205 0V72.062a6.102 6.102 0 00-6.103-6.102z" fill="#59B7D3"/><circle cx="100.994" cy="195.418" r="5.117" fill="#DAF1FB"/><circle cx="142.132" cy="196.607" r="4.127" fill="#DAF1FB"/><circle cx="178.695" cy="195.417" r="5.447" fill="#DAF1FB"/><circle cx="189.674" cy="208.558" r="4.457" fill="#DAF1FB"/><circle cx="80.723" cy="203.802" r="4.457" fill="#DAF1FB"/><circle cx="84.751" cy="187.89" r="4.127" fill="#DAF1FB"/><g filter="url(#filter0_d_2_40)"><path d="M133.244 241.757a21.122 21.122 0 01-13.102 4.529c-9.117 0-16.89-5.751-19.89-13.824a12.46 12.46 0 01-10.056 5.09c-6.891 0-12.478-5.587-12.478-12.478s5.587-12.478 12.478-12.478a12.46 12.46 0 0110.056 5.09c3-8.072 10.773-13.824 19.89-13.824 4.945 0 9.494 1.692 13.102 4.529a21.117 21.117 0 0113.101-4.529c6.134 0 11.66 2.604 15.533 6.767a18.762 18.762 0 014.431-.528c10.337 0 18.717 8.38 18.717 18.716 0 10.337-8.38 18.717-18.717 18.717a18.63 18.63 0 01-10.712-3.367 21.118 21.118 0 01-9.252 2.119 21.117 21.117 0 01-13.101-4.529z" fill="#DAF1FB"/></g><path fill-rule="evenodd" clip-rule="evenodd" d="M137.598 266.27c-26.032 0-49.585-5.702-70.659-17.106-20.825-11.653-37.188-27.52-49.088-47.602C5.95 181.232 0 158.423 0 133.135c0-25.288 5.95-47.973 17.85-68.055 11.9-20.33 28.388-36.197 49.461-47.601C88.385 5.826 111.938 0 137.97 0c20.329 0 38.924 3.47 55.783 10.413 15.006 5.958 28.047 14.568 39.125 25.83C237.191 39.34 240 44.4 240 50.115c0 9.427-7.642 17.07-17.069 17.07a16.99 16.99 0 01-10.112-3.317l-.1.096c-.223-.234-.447-.467-.671-.698a17.133 17.133 0 01-2.302-2.31c-19.066-18.572-42.496-27.858-70.289-27.858-19.338 0-36.816 4.339-52.436 13.016C71.402 54.79 59.13 66.816 50.205 82.187c-8.678 15.123-13.016 32.106-13.016 50.948s4.338 35.949 13.016 51.32c8.925 15.124 21.197 27.024 36.816 35.702 15.62 8.677 33.098 13.016 52.436 13.016 27.158 0 50.296-9.128 69.413-27.383a17.172 17.172 0 012.825-2.795c.343-.35.684-.704 1.024-1.061l.196.19a16.99 16.99 0 019.289-2.746c9.427 0 17.069 7.642 17.069 17.069 0 3.235-.9 6.259-2.463 8.837l.081.079-.451.505a17.17 17.17 0 01-4.034 4.265c-11.004 11.057-24.012 19.632-39.025 25.725-16.859 6.941-35.453 10.412-55.783 10.412z" fill="#59B7D3"/><defs><filter id="filter0_d_2_40" x="70.718" y="191.862" width="121.308" height="57.672" filterUnits="userSpaceOnUse" color-interpolation-filters="sRGB"><feFlood flood-opacity="0" result="BackgroundImageFix"/><feColorMatrix in="SourceAlpha" values="0 0 0 0 0 0 0 0 0 0 0 0 0 0 0 0 0 0 127 0" result="hardAlpha"/><feOffset dy="-5"/><feGaussianBlur stdDeviation="3.5"/><feComposite in2="hardAlpha" operator="out"/><feColorMatrix values="0 0 0 0 1 0 0 0 0 1 0 0 0 0 1 0 0 0 0.3 0"/><feBlend in2="BackgroundImageFix" result="effect1_dropShadow_2_40"/><feBlend in="SourceGraphic" in2="effect1_dropShadow_2_40" result="shape"/></filter></defs></svg>