<!--Generator: Adobe Illustrator 25.1.0, SVG Export Plug-In . SVG Version: 6.00 Build 0)--><svg version="1.1" id="Calque_1" xmlns="http://www.w3.org/2000/svg" x="0" y="0" viewBox="0 0 298.2 122.1" xml:space="preserve"><style>.st0{fill:#333}</style><path class="st0" d="M.1.6h18.2C29 .6 37.1 9 37.1 19.4S29 38.1 18.3 38.1h-5.8v17.8H0L.1.6zm18.1 26c4.1 0 7-3.4 7-7.2 0-3.7-2.9-7.1-7-7.1h-5.6v14.3h5.6zM43.4.6h12.5v42.8h21.5v12.4h-34V.6z"/><path class="st0" d="M93.9 0L66.7 55.8h13.1L94 25.7l14 30.1h13.1L93.9 0zm32.9.6h12.5v55.2h-12.5V.6zm22.8-.6v55.8H162V27l34.8 29.4V.6h-12.4v28.8L149.6 0zm57.7.6h34.1v12.3h-21.8v9.4h17.2v12h-17.2v9.3h21.8v12.3h-34.1V.6zM.5.6h18.2C29.5.6 37.6 9 37.6 19.4s-8.1 18.8-18.9 18.8h-5.8V56H.4L.5.6zm18 26c4.1 0 7-3.4 7-7.2 0-3.7-2.9-7.1-7-7.1h-5.6v14.3h5.6z"/><path class="st0" d="M43.7.6h12.5v42.8h21.5v12.4h-34V.6z"/><path class="st0" d="M94.2 0L67 55.8h13.1l14.2-30.1 14.2 30.1h13L94.2 0zm32.9.6h12.5v55.2h-12.5V.6zm22.8-.6v55.8h12.5V27l34.7 29.4V.6h-12.4v28.8L149.9 0zm57.7.6h34.1v12.3H220v9.4h17.2v12H220v9.3h21.8v12.3h-34.1V.6zM49.4 67.7h12.1v53.7H49.4V67.7zm22.3-.6L98.5 94l26.8-26.9v54.3h-12.1V95l-14.7 14.7L83.7 95v26.4h-12V67.1zm70.5 54.3h-12.7L156 67.1l26.5 54.3h-12.7L156 92l-13.8 29.4zm119.1-10l9.2-7.5c2.3 3.7 6.2 6.7 9.9 6.7 3.6 0 5.2-1.4 5.2-3.9 0-2.4-1.7-3.9-6.3-6l-3-1.4c-8.1-3.6-12.6-9.6-12.6-16.9 0-9.4 7.8-15.5 16.4-15.5 6 0 10.5 1.4 15.1 6.7l-8.2 8.6c-2.7-3.3-4.4-4-6.9-4-2 0-4.2 1.3-4.2 3.7 0 2.8 2.3 4.3 7.3 6.5l2.9 1.3c7.4 3.3 11.7 8.7 11.7 16.1 0 9.7-7.1 16-17.1 16-8.7.1-15.6-3.4-19.4-10.4m-70-32.7c5.8 0 9.3 1.9 12.6 6l9.2-7.5c-5.2-6.4-12.5-10.1-21.7-10.1-8.5 0-16.1 3.9-21.2 10l6.4 13.2c1.7-6.7 7.5-11.6 14.7-11.6m2.5 10.1l-5.2 11.4h13v7.5c-2.6 1.9-6 2.7-10.4 2.7-1.9 0-3.7-.4-5.4-1l6.2 12.7c8.8-.2 16.2-2.9 21.4-8.8V88.8h-19.6zm28.4-.3h32.3v11.2h-32.3V88.5zm0 20.6h33.2v12h-33.2v-12zm-.1-41.7h33.2v12h-33.2v-12z"/><path class="st0" d="M49.8 67.7h12.1v53.7H49.8V67.7zm22.2-.6L98.8 94l26.9-26.9v54.3h-12.2V95l-14.7 14.7L84 95v26.4H72V67.1zm70.5 54.3h-12.7l26.5-54.3 26.5 54.3h-12.7L156.3 92l-13.8 29.4zm119.2-10l9.2-7.5c2.3 3.7 6.2 6.7 9.9 6.7 3.6 0 5.2-1.4 5.2-3.9 0-2.4-1.7-3.9-6.3-6l-3-1.4c-8.1-3.6-12.6-9.6-12.6-16.9 0-9.4 7.8-15.5 16.4-15.5 6 0 10.5 1.4 15.1 6.7l-8.2 8.6c-2.7-3.3-4.4-4-6.9-4-2 0-4.2 1.3-4.2 3.7 0 2.8 2.3 4.3 7.3 6.5l2.9 1.3c7.4 3.3 11.7 8.7 11.7 16.1 0 9.7-7.1 16-17.1 16-8.8.1-15.7-3.4-19.4-10.4m-70.1-32.7c5.8 0 9.3 1.9 12.6 6l9.2-7.5c-5.2-6.4-12.5-10.1-21.7-10.1-8.5 0-16.1 3.9-21.2 10l6.4 13.2c1.7-6.7 7.5-11.6 14.7-11.6m2.5 10.1l-5.2 11.4h13v7.5c-2.6 1.9-6 2.7-10.4 2.7-1.9 0-3.7-.4-5.4-1l6.2 12.7c8.8-.2 16.2-2.9 21.4-8.8V88.8h-19.6zm28.4-.3h32.3v11.2h-32.3V88.5zm0 20.6h33.2v12h-33.2v-12zm0-41.7h33.2v12h-33.2v-12z"/></svg>